<svg xmlns="http://www.w3.org/2000/svg" xmlns:xlink="http://www.w3.org/1999/xlink" width="600" height="1080" viewBox="0 0 600 1080">
  <defs>
    <clipPath id="clip-path">
      <rect id="Rectangle_56" data-name="Rectangle 56" width="600" height="1080" transform="translate(1321)" fill="#fff"/>
    </clipPath>
  </defs>
  <g id="right-squiggle" transform="translate(-1321)" clip-path="url(#clip-path)">
    <g id="Group_15" data-name="Group 15" transform="translate(18)">
      <path id="Path_127" data-name="Path 127" d="M-2548.883,1947.743c294.923,126.754-78.123,170.992-136.794,253.508s25.1,145.579,25.1,145.579" transform="matrix(0.995, -0.105, 0.105, 0.995, 4094.27, -2238.75)" fill="none" stroke="#fb7f03" stroke-linecap="round" stroke-width="32"/>
      <path id="Path_128" data-name="Path 128" d="M-2921.255,1415.823s315.424-161.3,236.568,35.844c-65.292,163.23-47.035,183.935,89.31,184.194,28.386.054,61.82-.775,100.662-1.391,225.815-3.584,143.018,148.962,143.018,148.962s-107.174,187.968,104.3,105.528" transform="translate(-1067.379 -629.35) rotate(-120)" fill="none" stroke="#fb7f03" stroke-linecap="round" stroke-width="32"/>
      <path id="Path_126" data-name="Path 126" d="M-2921.255,1415.823s315.424-161.3,236.568,35.844c-65.292,163.23-47.035,183.935,89.31,184.194,28.386.054,61.82-.775,100.662-1.391,225.815-3.584,143.018,148.962,143.018,148.962s-107.174,187.968,104.3,105.528" transform="translate(517.895 -2043.449) rotate(-79)" fill="none" stroke="#f3e370" stroke-linecap="round" stroke-width="32"/>
      <path id="Path_124" data-name="Path 124" d="M-2530.563,1311.878s-172.05,60.934-96.778,172.05,257.716,55.124,324.923,158.174-104.26,172.8-48.269,269.339,203.651,120.895,203.651,120.895" transform="matrix(-0.978, 0.208, -0.208, -0.978, -388.405, 2414.979)" fill="none" stroke="#62ad71" stroke-linecap="round" stroke-width="32"/>
      <path id="Path_125" data-name="Path 125" d="M-2530.563,1311.878s-172.05,60.934-96.778,172.05,257.716,55.124,324.923,158.174-104.26,172.8-48.269,269.339,203.651,120.895,203.651,120.895" transform="translate(3882.26 -1350.849) rotate(-16)" fill="none" stroke="#62ad71" stroke-linecap="round" stroke-width="32"/>
    </g>
  </g>
</svg>
