<svg height="512pt" viewBox="0 0 512 512" width="512pt" xmlns="http://www.w3.org/2000/svg"><path d="m17.65625 347.894531v-127.203125c0-102.382812 82.996094-185.382812 185.378906-185.382812h105.929688c102.382812 0 185.378906 83 185.378906 185.382812v127.203125zm0 0" fill="#894b9d"/><path d="m35.308594 347.894531v-127.203125c0-102.402344 76.800781-185.382812 171.644531-185.382812h98.09375c94.84375 0 171.640625 82.980468 171.640625 185.382812v127.203125zm0 0" fill="#955ba5"/><g fill="#b49aca"><path d="m423.722656 300.136719c-4.875 0-8.828125-3.949219-8.828125-8.828125v-62.761719c0-97.351563-54.570312-176.550781-121.644531-176.550781h-74.503906c-67.089844 0-121.644532 79.199218-121.644532 176.550781v62.761719c0 4.878906-3.949218 8.828125-8.828124 8.828125-4.875 0-8.824219-3.949219-8.824219-8.828125v-62.761719c0-107.089844 62.488281-194.207031 139.296875-194.207031h74.503906c76.800781 0 139.300781 87.117187 139.300781 194.207031v62.761719c0 4.878906-3.953125 8.828125-8.828125 8.828125zm0 0"/><path d="m256 264.828125c-4.875 0-8.828125-3.953125-8.828125-8.828125v-141.242188c0-4.875 3.953125-8.828124 8.828125-8.828124s8.828125 3.953124 8.828125 8.828124v141.242188c0 4.875-3.953125 8.828125-8.828125 8.828125zm0 0"/><path d="m256 70.621094c-4.875 0-8.828125-3.953125-8.828125-8.828125v-26.484375c0-4.875 3.953125-8.824219 8.828125-8.824219s8.828125 3.949219 8.828125 8.824219v26.484375c0 4.875-3.953125 8.828125-8.828125 8.828125zm0 0"/></g><path d="m256 397.242188c52.664062 0 99.273438 39.609374 138.054688 71.035156 27.4375 22.234375 58.71875 43.722656 95.515624 43.722656 7.40625 0 10.882813-8.890625 13.75-15.246094 19.121094-42.371094 1.960938-117.167968-6.9375-143.652344-29.863281-88.8125-178.421874-97.101562-240.382812-97.101562s-210.519531 8.289062-240.382812 97.101562c-8.898438 26.484376-26.0625 101.308594-6.941407 143.652344 2.871094 6.355469 6.332031 15.246094 13.753907 15.246094 36.792968 0 68.078124-21.488281 95.515624-43.722656 38.777344-31.425782 85.390626-71.035156 138.054688-71.035156zm0 0" fill="#35495e"/><path d="m256 382.632812c49.035156 0 92.433594 35.511719 128.527344 63.691407 25.550781 19.929687 54.679687 39.191406 88.929687 39.191406 6.894531 0 10.136719-7.941406 12.808594-13.671875 17.796875-37.960938 1.828125-105.046875-6.460937-128.785156-27.832032-79.625-166.117188-87.058594-223.804688-87.058594s-195.972656 7.433594-223.804688 87.058594c-8.289062 23.746094-24.261718 90.824218-6.464843 128.785156 2.648437 5.703125 5.914062 13.671875 12.808593 13.671875 34.253907 0 63.382813-19.261719 88.929688-39.191406 36.097656-28.179688 79.492188-63.691407 128.53125-63.691407zm0 0" fill="#3f5c6c"/><path d="m123.585938 414.898438c-3.585938-.003907-6.816407-2.171876-8.171876-5.492188-1.355468-3.320312-.566406-7.128906 1.992188-9.640625 39.980469-39.578125 95.253906-59.714844 151.324219-55.128906 47.238281 2.558593 91.949219 22.144531 125.863281 55.128906 2.304688 2.195313 3.246094 5.464844 2.46875 8.550781-.777344 3.085938-3.160156 5.515625-6.230469 6.355469-3.070312.839844-6.355469-.039063-8.597656-2.300781-30.867187-29.996094-71.550781-47.792969-114.53125-50.105469-51.097656-4.308594-101.515625 14.007813-137.9375 50.105469-1.652344 1.617187-3.867187 2.523437-6.179687 2.527344zm0 0" fill="#547580"/><path d="m229.515625 0h52.964844c9.753906 0 17.65625 7.90625 17.65625 17.65625s-7.902344 17.652344-17.65625 17.652344h-52.964844c-9.75 0-17.652344-7.902344-17.652344-17.652344s7.902344-17.65625 17.652344-17.65625zm0 0" fill="#2c3e50"/><path d="m247.171875 0h17.65625c9.75 0 17.652344 7.90625 17.652344 17.65625s-7.902344 17.652344-17.652344 17.652344h-17.65625c-9.75 0-17.65625-7.902344-17.65625-17.652344s7.90625-17.65625 17.65625-17.65625zm0 0" fill="#35495e"/></svg>