<svg height="512pt" viewBox="0 0 512 512" width="512pt" xmlns="http://www.w3.org/2000/svg"><path d="m476.691406 388.414062v-35.3125c-.035156-92.445312-59.976562-174.210937-148.128906-202.0625h-145.125c-88.152344 27.851563-148.09375 109.617188-148.128906 202.0625v35.3125c-19.5 0-35.308594 15.808594-35.308594 35.308594v52.96875c0 19.5 15.808594 35.308594 35.308594 35.308594h441.382812c19.5 0 35.308594-15.808594 35.308594-35.308594v-52.96875c0-19.5-15.808594-35.308594-35.308594-35.308594zm0 0" fill="#3f5c6c"/><path d="m183.4375 151.039062c-88.152344 27.851563-148.09375 109.617188-148.128906 202.0625v35.3125h441.382812v-35.3125c-.035156-92.445312-59.976562-174.210937-148.128906-202.0625zm0 0" fill="#2c3e50"/><path d="m189.246094 151.039062c-79.023438 27.101563-136.28125 107.34375-136.28125 202.0625v35.3125h406.070312v-35.3125c0-94.71875-57.257812-174.960937-136.28125-202.0625zm0 0" fill="#35495e"/><g fill="#2c3e50"><path d="m141.242188 397.242188c-4.875 0-8.828126-3.953126-8.828126-8.828126v-35.3125c0-78.738281 21.539063-149.597656 57.625-189.527343 3.269532-3.617188 8.851563-3.898438 12.46875-.628907 3.617188 3.269532 3.902344 8.851563.632813 12.46875-32.769531 36.226563-53.070313 104.316407-53.070313 177.6875v35.3125c0 4.875-3.953124 8.828126-8.828124 8.828126zm0 0"/><path d="m370.757812 397.242188c-4.875 0-8.828124-3.953126-8.828124-8.828126v-35.3125c0-73.371093-20.300782-141.460937-53.070313-177.6875-3.269531-3.617187-2.984375-9.199218.632813-12.46875 3.617187-3.269531 9.199218-2.988281 12.46875.628907 36.085937 39.929687 57.625 110.789062 57.625 189.527343v35.3125c0 4.875-3.953126 8.828126-8.828126 8.828126zm0 0"/><path d="m256 397.242188c-4.875 0-8.828125-3.953126-8.828125-8.828126v-194.207031c0-4.875 3.953125-8.828125 8.828125-8.828125s8.828125 3.953125 8.828125 8.828125v194.207031c0 4.875-3.953125 8.828126-8.828125 8.828126zm0 0"/></g><path d="m353.101562 97.101562c0 12.007813-19.332031 20.039063-23.65625 30.367188-.46875 1.164062-.792968 2.378906-.972656 3.621094-.554687 3.382812-.703125 6.820312-.441406 10.238281.441406 9.269531 1.855469 19.246094-3.351562 24.453125-8.121094 8.121094-27.453126.265625-38.3125 4.769531-10.328126 4.324219-18.363282 23.65625-30.367188 23.65625s-20.039062-19.332031-30.367188-23.65625c-10.859374-4.503906-30.191406 3.351563-38.3125-4.769531-5.207031-5.207031-3.792968-15.183594-3.351562-24.453125.261719-3.417969.113281-6.855469-.441406-10.238281-.179688-1.242188-.503906-2.457032-.972656-3.621094-4.324219-10.328125-23.65625-18.359375-23.65625-30.367188.117187-3.246093 1.332031-6.355468 3.441406-8.824218 5.738281-7.59375 17.035156-13.949219 20.214844-21.539063 1.734374-6.957031 2.0625-14.191406.972656-21.277343-.261719-3.417969-.117188-6.855469.441406-10.238282.417969-2.546875 1.585938-4.914062 3.351562-6.796875 8.121094-8.121093 27.453126-.265625 38.3125-4.769531 10.328126-4.324219 18.363282-23.65625 30.367188-23.65625s20.039062 19.332031 30.367188 23.65625c10.859374 4.503906 30.191406-3.351562 38.3125 4.769531 1.765624 1.882813 2.933593 4.25 3.351562 6.796875.558594 3.382813.703125 6.820313.441406 10.238282-1.089844 7.085937-.761718 14.320312.972656 21.277343 3.179688 7.589844 14.476563 13.945313 20.214844 21.539063 2.109375 2.46875 3.324219 5.578125 3.441406 8.824218zm0 0" fill="#84b5cb"/><path d="m349.660156 88.277344c-5.738281 7.589844-17.035156 13.945312-20.214844 21.539062-1.734374 6.957032-2.0625 14.1875-.972656 21.273438.261719 3.417968.117188 6.855468-.441406 10.238281-.417969 2.550781-1.585938 4.914063-3.351562 6.796875-8.121094 8.125-27.453126.265625-38.3125 4.769531-10.328126 4.324219-18.363282 23.65625-30.367188 23.65625s-20.039062-19.332031-30.367188-23.65625c-10.859374-4.503906-30.191406 3.355469-38.3125-4.769531-1.765624-1.882812-2.933593-4.246094-3.351562-6.796875-.558594-3.382813-.703125-6.820313-.441406-10.238281 1.089844-7.085938.761718-14.316406-.972656-21.273438-3.179688-7.59375-14.476563-13.949218-20.214844-21.539062 5.738281-7.59375 17.035156-13.949219 20.214844-21.539063 1.734374-6.957031 2.0625-14.191406.972656-21.277343.554687-3.382813.703125-6.820313.441406-10.238282.417969-2.546875 1.585938-4.914062 3.351562-6.796875 8.121094-8.121093 27.453126-.265625 38.3125-4.769531 10.328126-4.324219 18.363282-23.65625 30.367188-23.65625s20.039062 19.332031 30.367188 23.65625c10.859374 4.503906 30.191406-3.351562 38.3125 4.769531 1.765624 1.882813 2.933593 4.25 3.351562 6.796875-.261719 3.417969-.113281 6.855469.441406 10.238282-1.089844 7.085937-.761718 14.320312.972656 21.277343 3.179688 7.589844 14.476563 13.945313 20.214844 21.539063zm0 0" fill="#9fc9d3"/><path d="m35.308594 388.414062h441.382812c19.5 0 35.308594 15.808594 35.308594 35.308594v52.96875c0 19.5-15.808594 35.308594-35.308594 35.308594h-441.382812c-19.5 0-35.308594-15.808594-35.308594-35.308594v-52.96875c0-19.5 15.808594-35.308594 35.308594-35.308594zm0 0" fill="#35495e"/><path d="m52.964844 388.414062h406.070312c19.5 0 35.308594 15.808594 35.308594 35.308594v52.96875c0 19.5-15.808594 35.308594-35.308594 35.308594h-406.070312c-19.5 0-35.308594-15.808594-35.308594-35.308594v-52.96875c0-19.5 15.808594-35.308594 35.308594-35.308594zm0 0" fill="#3f5c6c"/><path d="m123.585938 388.414062h264.828124c19.5 0 35.308594 15.808594 35.308594 35.308594v52.96875c0 19.5-15.808594 35.308594-35.308594 35.308594h-264.828124c-19.5 0-35.308594-15.808594-35.308594-35.308594v-52.96875c0-19.5 15.808594-35.308594 35.308594-35.308594zm0 0" fill="#9fc9d3"/><path d="m211.863281 388.414062h88.273438c19.503906 0 35.3125 15.808594 35.3125 35.308594v52.96875c0 19.5-15.808594 35.308594-35.3125 35.308594h-88.273438c-19.503906 0-35.3125-15.808594-35.3125-35.308594v-52.96875c0-19.5 15.808594-35.308594 35.3125-35.308594zm0 0" fill="#3f5c6c"/></svg>