<svg height="512pt" viewBox="0 -111 512 512" width="512pt" xmlns="http://www.w3.org/2000/svg"><path d="m511.734375 212.375c-3.355469-32.042969-40.339844-54.203125-92.511719-66.558594-.707031-5.917968-1.414062-12.183594-2.03125-18.539062-3.265625-34.605469-5.207031-71.945313-11.121094-77.859375-24.230468-18.445313-50.988281-33.3125-79.449218-44.136719-26.484375-8.828125-52.964844-8.828125-70.621094 17.652344-2.445312 3.632812-5.421875 6.875-8.828125 9.625-.96875.792968-1.941406 1.585937-3 2.292968-4.660156-4.316406-9.78125-8.105468-15.273437-11.300781-10.519532-6.175781-22.492188-9.433593-34.691407-9.445312-43.34375 0-56.761719 70.003906-60.644531 123.941406-.355469-.175781-.617188-.265625-.972656-.441406-22.160156-10.609375-46.25-16.585938-70.796875-17.566407-34.164063 0-52.347657 31.601563-58.878907 66.382813-1.148437 6.039063-1.945312 12.140625-2.382812 18.273437-.355469 4.238282-.53125 8.386719-.53125 12.445313 0 25.953125 36.632812 48.90625 79.449219 52.523437v.441407c3.617187.972656 7.324219 1.765625 11.121093 2.5625 1.941407.351562 3.886719.707031 5.828126.96875 3 .441406 6 .796875 9.003906 1.0625 1.5.175781 3 .261719 4.5.441406 11.640625.78125 23.316406.808594 34.957031.085937 2.382813-.175781 4.679687-.265624 7.0625-.527343 1.5-.089844 3.089844-.179688 4.679687-.355469 3.441407-.351562 6.796876-.707031 10.328126-1.148438 2.824218-.261718 5.738281-.703124 8.652343-1.144531 2.910157-.441406 5.914063-.882812 8.828125-1.324219 2.910156-.441406 5.824219-.972656 8.824219-1.503906.714844-.074218 1.421875-.191406 2.121094-.351562 4.324219-.792969 8.738281-1.675782 13.0625-2.558594.371093-.003906.734375-.097656 1.0625-.265625 4.765625-.972656 9.53125-2.03125 14.210937-3.089844h.089844c4.765625-1.148437 9.355469-2.296875 14.035156-3.53125h.441406c1.941407.175781 11.472657 1.148438 30.984376 4.765625 15.359374 2.824219 37.074218 7.417969 66.207031 14.742188 105.929687 26.484375 176.550781 8.828125 176.550781-61.792969 0-1.589844-.089844-3.183594-.265625-4.765625zm-326.089844-1.941406c-1.941406-.089844-3.972656-.089844-5.914062-.175782l.085937-.082031c8.574219.425781 17.304688.609375 25.953125.523438-6.707031.085937-13.503906 0-20.125-.265625zm-53.40625-46.257813c-.046875 1.597657-.0625 3.074219-.089843 4.589844 0-.15625 0-.28125 0-.441406 0-1.324219.089843-2.734375.089843-4.148438zm-40.609375 105.992188c1.210938 0 2.429688-.097657 3.648438-.132813-1.210938.070313-2.429688.132813-3.636719.132813zm12.359375-.609375c1.464844-.132813 2.921875-.359375 4.414063-.546875-1.4375.210937-2.894532.414062-4.359375.546875zm12.359375-1.765625c1.675782-.316407 3.34375-.703125 5.015625-1.101563-1.660156.378906-3.320312.765625-4.996093 1.085938zm11.882813-2.929688c2.144531-.644531 4.289062-1.324219 6.40625-2.09375-1.101563.40625-2.1875.882813-3.300781 1.265625-1.113282.378906-2.054688.5-3.089844.777344zm39.492187-21.238281c-2.949218 2.523438-6.039062 4.878906-9.25 7.0625 3.214844-2.179688 6.300782-4.539062 9.25-7.0625zm-12.535156 9.066406c-2.160156 1.347656-4.332031 2.648438-6.558594 3.855469 2.226563-1.183594 4.398438-2.507813 6.558594-3.855469zm-10.300781 5.703125c-2.222657 1.074219-4.414063 2.089844-6.734375 3.015625 2.277344-.917968 4.511718-1.894531 6.734375-3.015625zm0 0" fill="#f9eab0"/><path d="m205.769531 210.699219c-13.59375 11.472656-26.304687 22.863281-38.046875 32.925781-24.730468 20.191406-56.546875 29.574219-88.273437 26.039062-42.816407-3.617187-79.449219-26.570312-79.449219-52.523437 0-4.058594.175781-8.207031.53125-12.445313.4375-6.132812 1.234375-12.234374 2.382812-18.273437 6.53125-34.78125 24.714844-66.382813 58.878907-66.382813 24.546875.980469 48.636719 6.957032 70.796875 17.566407.355468.175781.617187.265625.972656.441406-.707031 9.355469-1.058594 18.183594-1.324219 26.128906 0 1.414063-.089843 2.824219-.089843 4.148438-.085938 1.941406 0 3.707031 0 5.296875-.085938 4.0625-.085938 7.769531-.085938 11.035156 0 1.589844.085938 3.089844.085938 4.414062.089843 6.53125.265624 10.417969.265624 10.417969l-.792968 7.148438c14.5625 1.589843 31.070312 2.914062 48.109375 3.621093 1.941406.085938 3.972656.085938 5.914062.175782 6.621094.265625 13.417969.351562 20.125.265625zm0 0" fill="#f18d46"/><path d="m186.703125 204.164062c-2.382813 2.03125-4.679687 4.0625-6.972656 6.09375-3.796875 3.175782-7.414063 6.355469-10.945313 9.445313-24.730468 20.1875-56.546875 29.574219-88.277344 26.039063-39.902343-3.355469-74.503906-23.570313-78.917968-47.316407.265625-3.972656.707031-8.03125 1.324218-12.003906 6.53125-34.78125 24.714844-66.382813 58.878907-66.382813 24.546875.980469 48.636719 6.957032 70.796875 17.566407.355468.175781.617187.265625.972656.441406-.707031 9.355469-1.058594 18.183594-1.324219 26.128906 0 1.414063-.089843 2.824219-.089843 4.148438-.085938 1.941406 0 3.707031 0 5.296875-.085938 4.0625-.085938 7.769531-.085938 11.035156 0 1.589844.085938 3.089844.085938 4.414062.089843 6.53125.265624 10.417969.265624 10.417969h.351563l-.085937.882813c16.242187 1.761718 34.867187 3.265625 54.023437 3.792968zm0 0" fill="#fac176"/><path d="m417.191406 127.277344c-13.59375-2.914063-28.511718-5.296875-44.492187-7.152344-5.21875-.527344-10.464844-.792969-15.710938-.792969-20.597656.191407-40.980469 4.203125-60.117187 11.828125-11.910156 4.617188-23.425782 10.195313-34.425782 16.683594h-.265624l-4.148438 2.5625c-9.003906 5.382812-17.746094 11.296875-25.867188 17.210938-33.289062 1.558593-66.648437.40625-99.75-3.441407h-.175781c.265625-7.945312.617188-16.773437 1.324219-26.128906 3.882812-53.9375 17.300781-123.941406 60.644531-123.941406 12.199219.011719 24.171875 3.269531 34.691407 9.445312 5.492187 3.195313 10.613281 6.984375 15.273437 11.300781 1.058594-.707031 2.03125-1.5 3-2.292968 3.40625-2.75 6.382813-5.992188 8.828125-9.625 17.65625-26.480469 44.136719-26.480469 70.621094-17.652344 28.460937 10.824219 55.21875 25.691406 79.449218 44.136719 5.914063 5.914062 7.855469 43.253906 11.121094 77.859375zm0 0" fill="#f9eab0"/><path d="m244.171875 34.851562c-16.144531 10.183594-34.851563 15.574219-53.9375 15.535157-4.875 0-8.828125-3.949219-8.828125-8.824219s3.953125-8.828125 8.828125-8.828125c13.386719-.335937 26.554687-3.464844 38.664063-9.183594 5.492187 3.195313 10.613281 6.984375 15.273437 11.300781zm0 0" fill="#fac176"/><path d="m133.710938 206.785156c-.300782 0-.617188 0-.882813 0-30.347656-3.175781-51.933594-7.058594-52.832031-7.246094-3.105469-.5625-5.671875-2.742187-6.734375-5.710937s-.460938-6.28125 1.582031-8.6875c2.039062-2.40625 5.207031-3.539063 8.3125-2.972656.21875 0 21.875 3.953125 51.507812 7.0625 4.679688.46875 8.171876 4.527343 7.9375 9.222656-.238281 4.699219-4.117187 8.386719-8.820312 8.386719zm0 0" fill="#f18d46"/><path d="m232.164062 167.617188c-14.917968 10.59375-27.980468 21.277343-37.78125 29.574218-5.207031 4.414063-10.152343 8.738282-15.09375 12.976563-16.949218-.617188-33.28125-1.941407-47.667968-3.53125l.792968-7.148438s-.707031-14.480469-.175781-35.3125h.175781c33.101563 3.847657 66.460938 5 99.75 3.441407zm0 0" fill="#e64c3c"/><path d="m307.101562 155.082031c-4.597656.019531-8.441406-3.5-8.828124-8.085937-2.503907-30.011719-6.867188-60.714844-6.910157-61.015625-.691406-4.824219 2.660157-9.300781 7.484375-9.992188 4.828125-.691406 9.300782 2.660157 9.996094 7.484375 0 .320313 4.484375 31.515625 7.058594 62.050782.410156 4.859374-3.199219 9.125-8.058594 9.535156zm0 0" fill="#fac176"/><path d="m512 217.140625c0 70.621094-70.621094 88.277344-176.550781 61.792969-29.132813-7.324219-50.847657-11.917969-66.207031-14.742188-19.511719-3.617187-29.042969-4.589844-30.984376-4.765625h-.441406c-4.679687 1.234375-9.269531 2.382813-14.035156 3.53125h-.089844c-4.679687 1.058594-9.445312 2.117188-14.210937 3.089844-.328125.167969-.691407.261719-1.0625.265625-4.324219.882812-8.738281 1.765625-13.0625 2.558594-.699219.160156-1.40625.277344-2.121094.351562-3 .53125-5.914063 1.0625-8.824219 1.503906-2.914062.441407-5.917968.96875-8.828125 1.324219-2.914062.351563-5.828125.882813-8.652343 1.144531-3.53125.441407-6.886719.796876-10.328126 1.148438-1.589843.175781-3.179687.265625-4.679687.355469-2.382813.261719-4.679687.351562-7.0625.527343-11.640625.722657-23.316406.695313-34.957031-.085937-1.5-.179687-3-.265625-4.5-.441406-3.003906-.265625-6.003906-.621094-9.003906-1.0625-1.941407-.261719-3.886719-.617188-5.828126-.96875-3.796874-.796875-7.503906-1.589844-11.121093-2.5625v-.441407c17.503906 1.625 35.15625-.296874 51.90625-5.648437 13.332031-4.371094 25.683593-11.296875 36.367187-20.390625 11.742188-10.0625 24.453125-21.453125 38.046875-32.925781 19.25-16.632813 39.761719-31.746094 61.351563-45.199219h.089844c11.433593-6.976562 23.457031-12.941406 35.929687-17.832031 21.398437-8.753907 44.601563-12.175781 67.617187-9.972657 16.300782 1.765626 32.480469 4.476563 48.464844 8.121094 52.171875 12.355469 89.15625 34.515625 92.511719 66.558594.175781 1.582031.265625 3.175781.265625 4.765625zm0 0" fill="#fac176"/><path d="m267.121094 165.5c-21.589844 13.453125-42.101563 28.566406-61.351563 45.199219-8.824219.085937-17.742187-.089844-26.480469-.53125 4.941407-4.238281 9.886719-8.5625 15.09375-12.976563 9.800782-8.296875 22.863282-18.980468 37.78125-29.574218 10.949219-.441407 22.6875-1.144532 34.957032-2.117188zm0 0" fill="#c03a2b"/><path d="m419.222656 145.816406c-15.984375-3.644531-32.164062-6.355468-48.464844-8.121094-23.015624-2.203124-46.21875 1.21875-67.617187 9.972657-12.472656 4.890625-24.496094 10.855469-35.929687 17.832031h-.089844c-12.269532.972656-24.007813 1.675781-34.957032 2.117188 8.121094-5.914063 16.863282-11.828126 25.867188-17.210938l4.148438-2.5625h.265624c11-6.488281 22.515626-12.066406 34.425782-16.683594 19.136718-7.625 39.519531-11.636718 60.117187-11.828125 5.246094 0 10.492188.265625 15.710938.792969 15.980469 1.855469 30.898437 4.238281 44.492187 7.152344.617188 6.355468 1.324219 12.621094 2.03125 18.539062zm0 0" fill="#fac176"/><path d="m511.734375 212.375c-4.5 64.882812-73.886719 80.507812-176.285156 54.90625-29.132813-7.324219-50.847657-11.917969-66.207031-14.742188-19.511719-3.617187-29.042969-4.589843-30.984376-4.765624h-.441406c-4.679687 1.234374-9.269531 2.382812-14.035156 3.53125h-.089844c-4.679687 1.058593-9.445312 2.117187-14.210937 3.089843-.328125.167969-.691407.261719-1.0625.265625-4.324219.882813-8.738281 1.765625-13.0625 2.558594-.699219.160156-1.40625.277344-2.121094.351562-3 .53125-5.914063 1.0625-8.824219 1.503907-2.914062.441406-5.917968.96875-8.828125 1.324219-2.914062.351562-5.828125.882812-8.652343 1.144531-3.53125.441406-6.886719.796875-10.328126 1.148437-1.589843.175782-3.179687.265625-4.679687.355469-2.382813.261719-4.679687.351563-7.0625.527344-4.589844.265625-9.089844.441406-13.503906.441406 13.332031-4.371094 25.683593-11.296875 36.367187-20.390625 11.742188-10.0625 24.453125-21.453125 38.046875-32.925781 19.25-16.632813 39.761719-31.746094 61.351563-45.199219h.089844c11.433593-6.976562 23.457031-12.941406 35.929687-17.832031 21.398437-8.753907 44.601563-12.175781 67.617187-9.972657 16.300782 1.765626 32.480469 4.476563 48.464844 8.121094 52.171875 12.355469 89.15625 34.515625 92.511719 66.558594zm0 0" fill="#f9eab0"/><path d="m387.972656 255.277344c-.746094 2.226562-2.347656 4.066406-4.449218 5.109375-2.105469 1.042969-4.539063 1.207031-6.761719.453125-21.363281-7.152344-61.085938-15.363282-82.890625-8.742188-8.429688 2.585938-16.410156 6.457032-23.660156 11.476563-.351563.175781-.617188.441406-.96875.617187-19.511719-3.617187-29.042969-4.589844-30.984376-4.765625 8.0625-2.394531 15.6875-6.0625 22.597657-10.859375 8.597656-5.800781 17.996093-10.320312 27.894531-13.417968 34.691406-10.414063 91.277344 8.121093 93.660156 8.917968 4.601563 1.59375 7.078125 6.582032 5.5625 11.210938zm0 0" fill="#fac176"/></svg>