<svg height="512pt" viewBox="0 0 512 512" width="512pt" xmlns="http://www.w3.org/2000/svg"><path d="m459.035156 238.34375v-52.964844c.003906-6.605468-.351562-13.207031-1.058594-19.773437-.640624 4.324219-1.527343 8.609375-2.648437 12.835937 1.128906-4.222656 2.015625-8.507812 2.648437-12.835937v-.175781c-10.1875-94.117188-89.65625-165.4375005-184.320312-165.429688h-35.3125c-94.664062-.0078125-174.132812 71.3125-184.320312 165.429688v.175781c.632812 4.328125 1.519531 8.613281 2.648437 12.835937-1.121094-4.226562-2.007813-8.511718-2.648437-12.835937-.707032 6.566406-1.0625 13.167969-1.058594 19.773437v52.964844l-52.964844 105.933594c0 92.601562 114.582031 167.722656 256 167.722656s256-75.121094 256-167.722656zm-17.65625-27.285156c.40625-.671875.882813-1.332032 1.246094-2.011719-.441406.757813-.796875 1.535156-1.246094 2.285156zm-1.472656 90.6875c-1.113281 1.765625-2.253906 3.53125-3.453125 5.214844 1.191406-1.71875 2.347656-3.460938 3.453125-5.214844zm-7.699219 10.953125c-1.121093 1.457031-2.222656 2.921875-3.414062 4.34375 1.191406-1.421875 2.292969-2.886719 3.414062-4.34375zm-9.710937 11.351562c-.820313.882813-1.578125 1.765625-2.433594 2.648438.863281-.863281 1.632812-1.773438 2.453125-2.648438zm-12.359375 11.9375c-.546875.476563-1.144531.882813-1.703125 1.382813.546875-.464844 1.167968-.90625 1.695312-1.382813zm-10.953125 8.683594c-1.066406.785156-2.179688 1.539063-3.265625 2.296875 1.078125-.757812 2.207031-1.511719 3.257812-2.296875zm-11.960938 8.105469c-1.238281.765625-2.488281 1.523437-3.753906 2.277344 1.261719-.746094 2.507812-1.507813 3.746094-2.277344zm-13.054687 7.511718c-1.238281.652344-2.457031 1.324219-3.710938 1.960938 1.246094-.636719 2.464844-1.308594 3.699219-1.960938zm-14.816407 7.167969c-.882812.378907-1.675781.785157-2.53125 1.148438.847657-.363281 1.675782-.769531 2.523438-1.148438zm-17.265624 6.832031-.238282.070313zm-14.855469 4.582032c-1.464844.40625-2.964844.757812-4.414063 1.140625 1.4375-.382813 2.921875-.734375 4.40625-1.140625zm-15.511719 3.742187c-1.828125.390625-3.679688.742188-5.523438 1.085938 1.835938-.34375 3.652344-.695313 5.515626-1.085938zm-16.1875 2.859375c-1.945312.285156-3.886719.574219-5.855469.8125 1.960938-.238281 3.902344-.519531 5.84375-.8125zm-17.277344 1.945313c-1.765625.148437-3.53125.332031-5.296875.441406 1.785157-.109375 3.53125-.328125 5.289063-.441406zm-207.632812-176.085938c-.449219-.75-.804688-1.527343-1.246094-2.285156.398438.679687.882812 1.339844 1.246094 2.011719zm21.300781 115.359375c-.882813-.882812-1.617187-1.765625-2.4375-2.648437.820313.882812 1.589844 1.792969 2.4375 2.648437zm-8.714844-9.648437c-1.191406-1.421875-2.292969-2.886719-3.414062-4.34375 1.121093 1.457031 2.222656 2.921875 3.414062 4.34375zm-7.660156-10.082031c-1.199219-1.765626-2.339844-3.460938-3.453125-5.214844 1.105469 1.753906 2.261719 3.496094 3.453125 5.214844zm163.488281 80.898437c-1.765625-.109375-3.53125-.292969-5.296875-.441406 1.773438.113281 3.519531.332031 5.296875.441406zm-16.703125-1.574219c-1.96875-.238281-3.910156-.527344-5.851562-.8125 1.941406.292969 3.882812.574219 5.851562.8125zm-16.515625-2.585937c-1.847656-.34375-3.699218-.695313-5.527344-1.085938 1.863282.390625 3.679688.742188 5.527344 1.085938zm-16.597656-3.6875c-1.472656-.382813-2.972656-.734375-4.414062-1.140625 1.457031.40625 2.941406.757812 4.414062 1.140625zm-19.058594-5.652344-.238281-.070313zm-15.007812-5.753906c-.882813-.363281-1.675782-.769531-2.53125-1.148438.882812.378907 1.710937.785157 2.566406 1.148438zm-13.636719-6.355469c-1.253906-.636719-2.472656-1.308594-3.707031-1.960938 1.269531.652344 2.488281 1.324219 3.742187 1.960938zm-13.011719-7.195312c-1.265625-.746094-2.515625-1.507813-3.753906-2.277344 1.261719.765625 2.523438 1.523437 3.789062 2.277344zm-12.449218-8.085938c-1.085938-.757812-2.195313-1.511719-3.265626-2.296875 1.085938.785156 2.214844 1.539063 3.300782 2.296875zm-12.515626-9.597656c-.554687-.464844-1.15625-.882813-1.703124-1.382813.5625.476563 1.183593.917969 1.738281 1.382813zm354.613282-85.042969c-.0625.492187-.089844.988281-.160156 1.484375.027343-.460938.054687-.992188.160156-1.484375zm-3.089844 15.589844c0 .097656-.070312.195312-.097656.289062.070312-.246093.125-.492187.195312-.75-.046875.152344-.054687.308594-.097656.460938zm-3.777344-76.890625c.882813-2.417969 1.703125-4.871094 2.460938-7.335938-.757813 2.464844-1.535156 4.917969-2.460938 7.335938zm-.195312 88.929687c-.195313.503907-.414063 1.007813-.617188 1.511719.183594-.503906.394532-1.007812.617188-1.511719zm-5.71875 12.589844c-.238282.457031-.523438.882813-.777344 1.359375.226562-.460938.511719-.902344.75-1.359375zm.511718-89.433594c1.085938-2.117187 2.082032-4.253906 3.035157-6.417969-.980469 2.164063-1.976563 4.300782-3.0625 6.417969zm-385.148437-12.09375c-.882813-2.410156-1.695313-4.863281-2.453125-7.316406.730469 2.453125 1.507812 4.90625 2.425781 7.316406zm5.4375 12.09375c-1.085937-2.117187-2.074219-4.253906-3.035156-6.40625.925781 2.152344 1.921875 4.289063 3.007812 6.40625zm-12.09375 50.699219c-.070313-.496094-.097656-.992188-.160156-1.484375.035156.492187.0625 1.023437.132812 1.484375zm13.382813 40.09375c-.257813-.460938-.539063-.882812-.777344-1.359375.210937.457031.496094.898437.75 1.359375zm-5.878907-12.4375c-.203125-.503906-.425781-1.007812-.617187-1.511719.167968.503907.378906 1.007813.589844 1.511719zm-4.519531-13.242188c0-.097656-.070312-.195312-.097656-.292968s-.054688-.308594-.097656-.457032c.042968.238282.097656.484376.167968.730469zm0 0" fill="#b19046"/><path d="m457.976562 165.429688v.175781c-10.507812 75.652343-96.929687 134.53125-201.976562 134.53125s-191.46875-58.878907-201.976562-134.53125v-.175781c10.1875-94.117188 89.65625-165.4375005 184.320312-165.429688h35.3125c94.664062-.0078125 174.132812 71.3125 184.320312 165.429688zm0 0" fill="#b19046"/><path d="m441.378906 211.332031v88.1875c-31.601562 52.4375-102.753906 88.894531-185.378906 88.894531s-153.777344-36.457031-185.378906-88.894531v-88.1875c31.691406 52.347657 102.753906 88.804688 185.378906 88.804688s153.6875-36.457031 185.378906-88.804688zm0 0" fill="#7f5b53"/><path d="m441.378906 185.378906v25.953125c-31.691406 52.347657-102.753906 88.804688-185.378906 88.804688s-153.6875-36.457031-185.378906-88.804688v-25.953125c0-66.230468 35.332031-127.429687 92.6875-160.542968 57.359375-33.113282 128.023437-33.113282 185.382812 0 57.355469 33.113281 92.6875 94.3125 92.6875 160.542968zm0 0" fill="#e4c05c"/><path d="m512 344.277344c0 92.601562-114.582031 167.722656-256 167.722656s-256-75.121094-256-167.722656l52.964844-105.933594c-.023438 9.992188 1.3125 19.941406 3.972656 29.574219 18.539062 68.679687 100.636719 120.496093 199.0625 120.496093s180.523438-51.816406 199.0625-120.496093c2.660156-9.632813 3.996094-19.582031 3.972656-29.574219zm0 0" fill="#b19046"/><path d="m494.34375 346.394531c0 86.246094-106.636719 156.160157-238.34375 156.160157s-238.34375-69.914063-238.34375-156.160157l39.28125-78.476562c18.539062 68.679687 100.636719 120.496093 199.0625 120.496093s180.523438-51.816406 199.0625-120.496093zm0 0" fill="#e4c05c"/><path d="m54.023438 165.605469c2.355468 16.214843 8.003906 31.777343 16.597656 45.726562v88.1875c-11.449219-18.355469-17.5625-39.539062-17.65625-61.175781v-52.964844c-.003906-6.605468.351562-13.207031 1.058594-19.773437zm0 0" fill="#59474e"/><path d="m459.035156 185.378906v52.964844c-.09375 21.636719-6.207031 42.820312-17.65625 61.175781v-88.1875c8.59375-13.949219 14.242188-29.511719 16.597656-45.726562.707032 6.566406 1.0625 13.167969 1.058594 19.773437zm0 0" fill="#59474e"/><path d="m238.34375 229.515625c0 14.628906-11.855469 26.484375-26.480469 26.484375-14.628906 0-26.484375-11.855469-26.484375-26.484375 0-14.625 11.855469-26.480469 26.484375-26.480469 14.625 0 26.480469 11.855469 26.480469 26.480469zm0 0" fill="#3f5c6c"/><path d="m229.515625 229.515625c0 9.753906-7.902344 17.65625-17.652344 17.65625s-17.65625-7.902344-17.65625-17.65625c0-9.75 7.90625-17.652344 17.65625-17.652344s17.652344 7.902344 17.652344 17.652344zm0 0" fill="#2c3e50"/><path d="m326.621094 229.515625c0 14.628906-11.855469 26.484375-26.484375 26.484375-14.625 0-26.480469-11.855469-26.480469-26.484375 0-14.625 11.855469-26.480469 26.480469-26.480469 14.628906 0 26.484375 11.855469 26.484375 26.480469zm0 0" fill="#3f5c6c"/><path d="m317.792969 229.515625c0 9.753906-7.90625 17.65625-17.65625 17.65625s-17.652344-7.902344-17.652344-17.65625c0-9.75 7.902344-17.652344 17.652344-17.652344s17.65625 7.902344 17.65625 17.652344zm0 0" fill="#2c3e50"/><path d="m335.449219 57.378906c0-26.8125-35.570313-48.550781-79.449219-48.550781s-79.449219 21.738281-79.449219 48.550781c0 26.816406 35.570313 48.550782 79.449219 48.550782s79.449219-21.734376 79.449219-48.550782zm0 0" fill="#f9eab0"/></svg>