<svg height="512pt" viewBox="0 -119 512 512" width="512pt" xmlns="http://www.w3.org/2000/svg"><path d="m406.070312 165.878906c64.175782 13.683594 105.929688 35.136719 105.929688 55.792969 0 34.160156-114.582031 52.964844-256 52.964844s-256-18.804688-256-52.964844c0-20.65625 41.753906-42.109375 105.929688-55.792969" fill="#805333"/><path d="m395.722656 165.878906c59.78125 12.535156 98.621094 32.285156 98.621094 51.261719 0 31.394531-106.679688 48.667969-238.34375 48.667969s-238.34375-17.273438-238.34375-48.667969c0-18.976563 38.839844-38.691406 98.621094-51.261719" fill="#cb8252"/><path d="m406.070312 61.804688v142.210937c0 3-6.355468 5.828125-17.65625 8.296875-43.761718 7.140625-88.082031 10.269531-132.414062 9.359375-44.332031.910156-88.652344-2.21875-132.414062-9.359375-11.300782-2.46875-17.65625-5.296875-17.65625-8.296875v-142.210937c.023437-17.414063 7.378906-34.011719 20.265624-45.71875 12.886719-11.710938 30.109376-17.449219 47.441407-15.8125 4.992187.539062 9.910156 1.636718 14.65625 3.269531l33.191406 11.738281 13.949219 4.945312c13.3125 4.675782 27.820312 4.675782 41.132812 0l13.949219-4.945312 33.191406-11.738281c4.746094-1.632813 9.664063-2.730469 14.65625-3.269531 17.332031-1.636719 34.554688 4.101562 47.441407 15.8125 12.886718 11.707031 20.242187 28.304687 20.265624 45.71875zm0 0" fill="#2c3e50"/><path d="m388.414062 69.21875v143.09375c-43.761718 7.140625-88.082031 10.269531-132.414062 9.359375-44.332031.910156-88.652344-2.21875-132.414062-9.359375v-143.09375c0-37.515625 23.039062-66.117188 50.050781-68.945312 4.992187.539062 9.910156 1.636718 14.65625 3.269531l33.191406 11.738281 16.332031 7.328125c11.542969 5.296875 24.824219 5.296875 36.367188 0l16.332031-7.328125 33.191406-11.738281c4.746094-1.632813 9.664063-2.730469 14.65625-3.269531 27.011719 2.828124 50.050781 31.429687 50.050781 68.945312zm0 0" fill="#35495e"/><path d="m406.070312 61.804688v89.246093c0 3-6.355468 5.824219-17.65625 8.296875-43.761718 7.136719-88.082031 10.269532-132.414062 9.359375-44.332031.910157-88.652344-2.222656-132.414062-9.359375-11.300782-2.472656-17.65625-5.296875-17.65625-8.296875v-89.246093c.0625-20.03125 9.8125-38.792969 26.164062-50.363282 16.351562-11.566406 37.289062-14.511718 56.199219-7.898437l47.140625 16.683593c13.3125 4.675782 27.820312 4.675782 41.132812 0l47.140625-16.683593c18.910157-6.613281 39.847657-3.667969 56.199219 7.898437 16.351562 11.570313 26.101562 30.332032 26.164062 50.363282zm0 0" fill="#805333"/><path d="m388.414062 55.359375v103.988281c-43.761718 7.136719-88.082031 10.269532-132.414062 9.359375-44.332031.910157-88.652344-2.222656-132.414062-9.359375v-103.988281c-.152344-15.164063 2.855468-30.195313 8.828124-44.136719 16.28125-11.464844 37.109376-14.324218 55.878907-7.679687l47.140625 16.683593c13.3125 4.675782 27.820312 4.675782 41.132812 0l47.140625-16.683593c18.769531-6.644531 39.597657-3.785157 55.878907 7.679687 5.972656 13.941406 8.980468 28.972656 8.828124 44.136719zm0 0" fill="#cb8252"/><path d="m256 80.429688c-18.707031-.34375-36.632812-7.546876-50.378906-20.242188-3.351563-3.457031-3.3125-8.964844.089844-12.375 3.398437-3.410156 8.90625-3.464844 12.375-.125 10.453124 9.359375 23.890624 14.703125 37.914062 15.085938 14.035156-.296876 27.488281-5.648438 37.898438-15.066407 3.460937-3.347656 8.96875-3.300781 12.375.105469 3.402343 3.40625 3.449218 8.910156.105468 12.375-13.746094 12.695312-31.671875 19.898438-50.378906 20.242188zm0 0" fill="#805333"/></svg>