<svg height="512pt" viewBox="0 0 512.21655 512" width="512pt" xmlns="http://www.w3.org/2000/svg"><path d="m510.996094 242.625c-5.113282 27.1875-25.65625 48.867188-52.523438 55.4375-5.699218 1.355469-11.535156 2.039062-17.390625 2.03125-14.480469.101562-26.136719 11.917969-26.042969 26.394531v114.847657h-317.792968v-114.847657c.09375-14.476562-11.5625-26.292969-26.042969-26.394531-5.855469.007812-11.691406-.675781-17.390625-2.03125-34.726562-8.511719-57.609375-41.632812-53.289062-77.125 4.320312-35.492188 34.484374-62.15625 70.238281-62.085938h.707031c-16.984375-29.542968-10.445312-67.003906 15.539062-89.050781 25.988282-22.042969 64.011719-22.386719 90.390626-.8125 5.296874-39.441406 38.949218-68.878906 78.742187-68.878906s73.449219 29.4375 78.742187 68.878906c26.355469-21.765625 64.515626-21.511719 90.578126.597657 26.0625 22.109374 32.53125 59.71875 15.355468 89.265624h.707032c21.039062 0 40.984374 9.371094 54.414062 25.566407 13.433594 16.195312 18.949219 37.53125 15.058594 58.207031zm0 0" fill="#f9eab0"/><path d="m493.394531 246.597656c-4.265625 26.128906-23.367187 47.375-48.898437 54.378906-5.292969 1.324219-10.730469 1.988282-16.1875 1.984376-13.832032.464843-24.671875 12.035156-24.242188 25.867187v112.507813h-295.847656v-112.554688c.429688-13.816406-10.394531-25.382812-24.214844-25.863281-5.464844.019531-10.910156-.632813-16.214844-1.941407-25.53125-7.003906-44.632812-28.25-48.898437-54.378906-4.074219-19.734375.773437-40.265625 13.242187-56.09375 12.472657-15.832031 31.296876-25.347656 51.4375-26.003906h.65625c-7.59375-13.78125-10.460937-29.671875-8.167968-45.238281 3.804687-28.980469 25.773437-52.246094 54.484375-57.707031 18.792969-3.160157 38.011719 2.308593 52.332031 14.882812 3.890625-37.789062 35.289062-66.78125 73.265625-67.65625 37.980469.875 69.378906 29.867188 73.269531 67.65625 14.304688-12.558594 33.496094-18.023438 52.269532-14.882812 28.738281 5.433593 50.734374 28.707031 54.546874 57.707031 2.300782 15.5625-.558593 31.453125-8.140624 45.238281h.652343c20.136719.664062 38.957031 10.183594 51.421875 26.011719 12.464844 15.832031 17.308594 36.355469 13.234375 56.085937zm0 0" fill="#f5efca"/><g fill="#f9eab0"><path d="m185.523438 450.164062c-4.878907 0-8.828126-3.953124-8.828126-8.828124v-79.449219c0-4.875 3.949219-8.828125 8.828126-8.828125 4.875 0 8.824218 3.953125 8.824218 8.828125v79.449219c0 4.875-3.949218 8.828124-8.824218 8.828124zm0 0"/><path d="m256.140625 450.164062c-4.875 0-8.824219-3.953124-8.824219-8.828124v-132.414063c0-4.875 3.949219-8.828125 8.824219-8.828125 4.878906 0 8.828125 3.953125 8.828125 8.828125v132.414063c0 4.875-3.949219 8.828124-8.828125 8.828124zm0 0"/><path d="m326.761719 450.164062c-4.875 0-8.824219-3.953124-8.824219-8.828124v-79.449219c0-4.875 3.949219-8.828125 8.824219-8.828125s8.828125 3.953125 8.828125 8.828125v79.449219c0 4.875-3.953125 8.828124-8.828125 8.828124zm0 0"/><path d="m415.039062 441.335938v52.964843c-.027343 9.738281-7.917968 17.625-17.65625 17.65625h-17.652343v-70.621093zm0 0"/></g><path d="m344.417969 441.335938h35.3125v70.621093h-35.3125zm0 0" fill="#fac176"/><path d="m309.109375 441.335938h35.308594v70.621093h-35.308594zm0 0" fill="#f9eab0"/><path d="m273.796875 441.335938h35.3125v70.621093h-35.3125zm0 0" fill="#fac176"/><path d="m238.488281 441.335938h35.308594v70.621093h-35.308594zm0 0" fill="#f9eab0"/><path d="m203.175781 441.335938h35.3125v70.621093h-35.3125zm0 0" fill="#fac176"/><path d="m167.867188 441.335938h35.308593v70.621093h-35.308593zm0 0" fill="#f9eab0"/><path d="m132.554688 441.335938v70.621093h-17.652344c-9.738282-.03125-17.628906-7.917969-17.65625-17.65625v-52.964843zm0 0" fill="#f9eab0"/><path d="m132.554688 441.335938h35.3125v70.621093h-35.3125zm0 0" fill="#fac176"/><path d="m167.867188 97.058594c0-14.625-15.808594-26.484375-35.3125-26.484375-19.5 0-35.308594 11.859375-35.308594 26.484375s15.808594 26.484375 35.308594 26.484375c19.503906 0 35.3125-11.859375 35.3125-26.484375zm0 0" fill="#ecf0f1"/><path d="m61.9375 202.988281c0 9.753907-7.90625 17.65625-17.65625 17.65625s-17.65625-7.902343-17.65625-17.65625c0-9.75 7.90625-17.652343 17.65625-17.652343s17.65625 7.902343 17.65625 17.652343zm0 0" fill="#ecf0f1"/><path d="m291.453125 35.265625c0-9.75-15.808594-17.65625-35.3125-17.65625-19.5 0-35.308594 7.90625-35.308594 17.65625s15.808594 17.65625 35.308594 17.65625c19.503906 0 35.3125-7.90625 35.3125-17.65625zm0 0" fill="#ecf0f1"/></svg>