<svg height="512pt" viewBox="0 -71 512 512" width="512pt" xmlns="http://www.w3.org/2000/svg"><path d="m494.34375 335.449219-17.652344-35.3125-26.484375-52.964844v-194.207031c0-29.25-23.714843-52.964844-52.964843-52.964844h-282.484376c-29.25 0-52.964843 23.714844-52.964843 52.964844v194.207031l-26.484375 52.964844-17.652344 35.3125-17.65625 35.308593h512zm0 0" fill="#ff5364"/><path d="m494.34375 335.449219h-476.6875l17.652344-35.3125h441.382812zm0 0" fill="#df4d60"/><g fill="#ff5364"><path d="m477.90625 335.449219h-443.894531l16.515625-35.3125h410.945312zm0 0"/><path d="m476.691406 300.136719h-441.382812l26.484375-52.964844h388.414062zm0 0"/><path d="m512 370.757812h-512l17.65625-35.308593h476.6875zm0 0"/></g><path d="m461.472656 300.136719h-410.945312l24.65625-52.964844h361.632812zm0 0" fill="#fb7b76"/><path d="m494.34375 370.757812h-476.6875l16.4375-35.308593h443.8125zm0 0" fill="#fb7b76"/><path d="m450.207031 52.964844v132.414062h-388.414062v-132.414062c0-29.25 23.714843-52.964844 52.964843-52.964844h282.484376c29.25 0 52.964843 23.714844 52.964843 52.964844zm0 0" fill="#ff5364"/><path d="m432.550781 52.964844v132.414062h-353.101562v-132.414062c-1.246094-27.890625 20.269531-51.554688 48.152343-52.964844h256.796876c27.882812 1.410156 49.398437 25.074219 48.152343 52.964844zm0 0" fill="#fb7b76"/><path d="m97.101562 194.207031c-4.875 0-8.824218-3.953125-8.824218-8.828125v-132.414062c0-14.625 11.855468-26.480469 26.480468-26.480469h17.65625c4.875 0 8.828126 3.949219 8.828126 8.824219 0 4.878906-3.953126 8.828125-8.828126 8.828125h-17.65625c-4.875 0-8.828124 3.953125-8.828124 8.828125v132.414062c0 4.875-3.949219 8.828125-8.828126 8.828125zm0 0" fill="#ecf0f1"/><path d="m176.550781 44.136719h-8.828125c-4.875 0-8.824218-3.949219-8.824218-8.828125 0-4.875 3.949218-8.824219 8.824218-8.824219h8.828125c4.875 0 8.828125 3.949219 8.828125 8.824219 0 4.878906-3.953125 8.828125-8.828125 8.828125zm0 0" fill="#ecf0f1"/><path d="m61.792969 185.378906h388.414062v61.792969h-388.414062zm0 0" fill="#f0c419"/><path d="m79.449219 185.378906h353.101562v61.792969h-353.101562zm0 0" fill="#f3d55b"/></svg>