<svg height="512pt" viewBox="0 -53 512 512" width="512pt" xmlns="http://www.w3.org/2000/svg"><path d="m367.402344 156-1.410156-43.695312c-.089844-2.03125-.175782-4.0625-.355469-6.089844-2.144531 1.21875-4.589844 2.488281-7.246094 3.769531 2.648437-1.300781 5.09375-2.578125 7.246094-3.769531-3.308594-54.597656-45.199219-99.011719-99.511719-105.507813-6.75-.6874998-13.550781-.6874998-20.304688 0-54.285156 6.527344-96.144531 50.929688-99.457031 105.507813 2.144531 1.191406 4.605469 2.46875 7.238281 3.769531-2.648437-1.28125-5.09375-2.550781-7.238281-3.769531-.179687 2.027344-.265625 4.058594-.355469 6.089844l-1.410156 43.695312c-107.433594 11.832031-144.597656 38.402344-144.597656 38.402344 0 107.785156 26.484375 211.859375 256 211.859375s256-104.074219 256-211.859375c0 0-37.164062-26.570313-144.597656-38.402344zm-50.050782 114.140625c7.140626-.882813 14.0625-1.90625 20.832032-3.035156-6.769532 1.128906-13.679688 2.179687-20.832032 3.035156zm-122.703124 0c-7.152344-.882813-14.054688-1.90625-20.832032-3.035156 6.769532 1.128906 13.691406 2.164062 20.832032 3.035156zm145.847656-3.421875c6.816406-1.183594 13.453125-2.472656 19.847656-3.902344 3.53125-.707031 6.972656-1.503906 10.328125-2.382812-9.542969 2.371094-19.652344 4.464844-30.175781 6.285156zm16.050781-155.828125.546875-.246094zm-201.09375 0-.546875-.261719zm-3.796875 151.925781c6.394531 1.429688 13.03125 2.71875 19.847656 3.902344-10.523437-1.820312-20.632812-3.914062-30.175781-6.285156 3.355469.878906 6.796875 1.675781 10.328125 2.382812zm-150.730469-67.621094-.386719-.324218zm2.394531 1.960938-.230468-.1875zm0 0" fill="#e57e25"/><path d="m512 194.402344c0 107.785156-26.484375 211.859375-256 211.859375s-256-104.074219-256-211.859375c4.066406 3.480468 8.308594 6.75 12.710938 9.796875 2.03125 1.5 4.414062 3.089843 6.972656 4.855469l-2.027344 3 26.480469 70.621093 26.484375-44.136719 26.480468 79.449219 35.3125-52.964843 17.65625 79.445312 44.136719-70.621094 26.484375 88.277344 35.308594-88.277344 35.308594 88.277344 26.484375-88.277344 44.136719 70.621094 17.65625-79.445312 35.3125 52.964843 26.480468-79.449219 26.484375 44.136719 24.539063-73.707031c6.835937-4.4375 13.378906-9.300781 19.597656-14.566406zm0 0" fill="#f0c419"/><path d="m512 194.402344c0 107.785156-26.484375 211.859375-256 211.859375s-256-104.074219-256-211.859375l.265625.265625c3.355469 101.164062 39.015625 193.941406 255.734375 193.941406s252.46875-92.867187 255.734375-194.03125c.097656-.046875.1875-.105469.265625-.175781zm0 0" fill="#f29c1f"/><path d="m365.636719 106.214844c-33.730469 17.910156-71.449219 26.988281-109.636719 26.394531-38.1875.59375-75.90625-8.484375-109.636719-26.394531 4.851563-59.675782 52.257813-106.019532 109.636719-106.019532s104.785156 46.34375 109.636719 106.019532zm0 0" fill="#f29c1f"/><path d="m512 194.402344c-6.21875 5.265625-12.761719 10.128906-19.597656 14.566406 0 .023438-.007813.042969-.027344.058594-.015625.019531-.035156.027344-.058594.027344-16.394531 10.71875-33.671875 20.023437-51.644531 27.808593-20.273437 8.988281-41.269531 16.253907-62.761719 21.714844-2.382812.707031-4.769531 1.234375-7.238281 1.855469l-2.296875-74.59375-.972656-29.839844c107.433594 11.832031 144.597656 38.402344 144.597656 38.402344zm0 0" fill="#e57e25"/><path d="m144.597656 156-.972656 29.839844-2.296875 74.59375c-2.648437-.621094-5.207031-1.238282-7.765625-1.945313-21.292969-5.519531-42.105469-12.753906-62.234375-21.625-17.972656-7.785156-35.25-17.089843-51.644531-27.808593-6.859375-4.46875-13.433594-9.363282-19.683594-14.652344 0 0 37.164062-26.570313 144.597656-38.402344zm0 0" fill="#e57e25"/><path d="m146.363281 106.214844c2.644531 1.5 5.648438 3.089844 9.089844 4.675781l-1.765625 70.621094-10.0625 4.328125.972656-29.839844 1.410156-43.695312c.089844-2.03125.175782-4.0625.355469-6.089844zm0 0" fill="#4482c3"/><path d="m368.375 185.839844-10.0625-4.328125-1.765625-70.621094c3.441406-1.585937 6.445313-3.175781 9.089844-4.675781.179687 2.027344.265625 4.058594.355469 6.089844l1.410156 43.695312zm0 0" fill="#4482c3"/><path d="m143.625 185.839844 10.0625-4.328125-2.03125 81.304687c-3.53125-.707031-6.972656-1.503906-10.328125-2.382812zm0 0" fill="#f29c1f"/><path d="m370.671875 260.433594c-3.355469.878906-6.796875 1.675781-10.328125 2.382812l-2.03125-81.304687 10.0625 4.328125zm0 0" fill="#f29c1f"/><g fill="#e64c3c"><path d="m71.328125 236.863281-.707031 1.675781-26.484375 44.136719-31.425781-78.476562c2.03125 1.5 4.414062 3.089843 6.972656 4.855469 16.394531 10.71875 33.671875 20.023437 51.644531 27.808593zm0 0"/><path d="m133.5625 258.488281-1.148438 6.535157-35.3125 52.964843-26.480468-79.449219.707031-1.675781c20.128906 8.871094 40.941406 16.105469 62.234375 21.625zm0 0"/><path d="m194.648438 270.140625-.441407 3.707031-44.136719 70.621094-17.65625-79.445312 1.148438-6.535157c2.558594.707031 5.117188 1.324219 7.765625 1.945313 17.554687 4.335937 35.363281 7.578125 53.320313 9.707031zm0 0"/><path d="m256 273.847656-35.308594 88.277344-26.484375-88.277344.441407-3.707031c20.355468 2.507813 40.84375 3.746094 61.351562 3.707031zm0 0"/><path d="m441.378906 238.539062-26.480468 79.449219-35.3125-52.964843-17.65625 79.445312-44.136719-70.621094-26.484375 88.277344-35.308594-88.277344c20.507812.039063 40.996094-1.199218 61.351562-3.707031 17.957032-2.128906 35.765626-5.371094 53.320313-9.707031 2.46875-.621094 4.855469-1.148438 7.238281-1.855469 21.492188-5.460937 42.488282-12.726563 62.761719-21.714844zm0 0"/><path d="m492.402344 208.96875-24.539063 73.707031-26.484375-44.136719-.707031-1.675781c17.972656-7.785156 35.25-17.089843 51.644531-27.808593.046875 0 .085938-.039063.085938-.085938zm0 0"/></g><path d="m360.34375 262.816406c-13.417969 3-27.808594 5.472656-42.992188 7.324219-20.355468 2.507813-40.84375 3.746094-61.351562 3.707031-20.507812.039063-40.996094-1.199218-61.351562-3.707031-15.183594-1.851563-29.574219-4.324219-42.992188-7.324219l2.03125-81.304687 31.691406-13.59375 26.484375 44.136719 44.136719-35.308594 44.136719 35.308594 26.484375-44.136719 31.691406 13.59375zm0 0" fill="#f0c419"/><path d="m358.3125 181.511719-31.691406-13.59375-26.484375 44.136719-44.136719-35.308594-44.136719 35.308594-26.484375-44.136719-31.691406 13.59375 1.765625-70.621094c31.457031 14.710937 65.824219 22.132813 100.546875 21.71875 34.722656.414063 69.089844-7.007813 100.546875-21.71875zm0 0" fill="#2fa8cc"/><path d="m356.546875 110.890625c-31.457031 14.710937-65.824219 22.132813-100.546875 21.71875-34.722656.414063-69.089844-7.007813-100.546875-21.71875l.355469-12.976563c1.25-54.4375 45.738281-97.914062 100.191406-97.914062s98.941406 43.476562 100.191406 97.914062zm0 0" fill="#f0c419"/><path d="m308.964844 39.917969c0-17.0625-25.6875-30.894531-57.378906-30.894531-31.6875 0-57.378907 13.832031-57.378907 30.894531s25.691407 30.898437 57.378907 30.898437c31.691406 0 57.378906-13.835937 57.378906-30.898437zm0 0" fill="#f3d55b"/></svg>