<svg height="512pt" viewBox="0 -53 512 512" width="512pt" xmlns="http://www.w3.org/2000/svg"><path d="m512 258.941406s-44.136719 147.128906-256 147.128906-256-147.128906-256-147.128906l132.414062-64.734375h247.171876zm0 0" fill="#f29c1f"/><path d="m494.34375 256.246094s-41.089844 140.996094-238.34375 140.996094-238.34375-140.996094-238.34375-140.996094l123.285156-62.039063h230.117188zm0 0" fill="#f0c419"/><path d="m132.414062 132.414062h247.171876v61.792969h-247.171876zm0 0" fill="#c03a2b"/><path d="m150.070312 132.414062h211.859376v61.792969h-211.859376zm0 0" fill="#e64c3c"/><path d="m379.585938 123.585938v8.828124h-247.171876v-8.828124c0-68.253907 55.332032-123.585938 123.585938-123.585938s123.585938 55.332031 123.585938 123.585938zm0 0" fill="#f0c419"/><path d="m361.929688 123.585938v8.828124h-211.859376v-8.828124c0-68.238282 47.4375-123.585938 105.929688-123.585938s105.929688 55.347656 105.929688 123.585938zm0 0" fill="#f3d55b"/><g fill="#f9eab0"><path d="m300.136719 30.898438c0-12.191407-19.761719-22.070313-44.136719-22.070313s-44.136719 9.878906-44.136719 22.070313c0 12.1875 19.761719 22.066406 44.136719 22.066406s44.136719-9.878906 44.136719-22.066406zm0 0"/><path d="m44.136719 264.828125s44.140625 105.929687 194.207031 114.757813c-71.242188-14.308594-126.929688-69.996094-141.242188-141.242188zm0 0"/></g></svg>