<svg height="512pt" viewBox="0 0 512 512" width="512pt" xmlns="http://www.w3.org/2000/svg"><path d="m402.097656 286.898438c66.46875 22.332031 109.902344 59.496093 109.902344 101.515624 0 68.238282-114.582031 123.585938-256 123.585938s-256-55.347656-256-123.585938c0-51.464843 65.234375-95.691406 158.101562-114.230468zm0 0" fill="#2c3e50"/><path d="m392.023438 286.429688c61.882812 21.503906 102.320312 57.28125 102.320312 97.746093 0 65.703125-106.679688 118.996094-238.34375 118.996094s-238.34375-53.292969-238.34375-118.996094c0-49.558593 60.734375-92.140625 147.199219-109.992187zm0 0" fill="#35495e"/><path d="m406.070312 370.757812h-300.140624s41.3125-48.199218 50.9375-89.863281c1.304687-5.257812 1.984374-10.652343 2.03125-16.066406.550781-10.21875-1.644532-20.398437-6.359376-29.484375-.359374-.679688-.773437-1.328125-1.234374-1.941406-.292969-.492188-.617188-.964844-.972657-1.414063-.210937-.4375-.511719-.828125-.882812-1.148437-9.003907-11.472656-22.863281-16.949219-34.691407-36.632813-26.480468-44.136719 35.753907-79.449219 71.0625-105.929687 35.3125-26.484375 52.523438-61.792969 8.386719-88.277344 0 0 2.914063 0 7.945313.53125 17.867187 2.242188 35.199218 7.621094 51.199218 15.886719.28125.113281.550782.261719.792969.441406 13.710938 7.140625 26.246094 16.339844 37.164063 27.277344 32.132812 32.132812 8.125 50.230469-.441406 71.328125-.402344.890625-.757813 1.804687-1.058594 2.738281-2.78125 7.542969-2.238282 15.917969 1.5 23.039063 2.175781 4.054687 5.183594 7.605468 8.828125 10.414062 30.898437 25.511719 113.789062 38.578125 105.933593 219.101562zm0 0" fill="#3f5c6c"/><path d="m387.972656 370.757812h-264.386718s36.371093-48.199218 44.84375-89.863281c1.136718-5.28125 1.726562-10.664062 1.765624-16.066406.527344-10.132813-1.378906-20.242187-5.5625-29.484375-.296874-.675781-.652343-1.324219-1.058593-1.941406-.261719-.492188-.554688-.964844-.882813-1.414063-.179687-.433593-.453125-.824219-.792968-1.148437-7.945313-11.472656-20.128907-16.949219-30.542969-36.632813-23.304688-44.136719 31.511719-79.449219 62.585937-105.929687 30.898438-26.308594 46.082032-61.265625 8.210938-87.746094 17.867187 2.242188 35.199218 7.621094 51.199218 15.886719.28125.113281.550782.261719.792969.441406 12.304688 7.285156 23.363281 16.496094 32.753907 27.277344 28.246093 32.132812 7.148437 50.230469-.441407 71.328125-.347656.894531-.644531 1.808594-.882812 2.738281-3.941407 11.964844-.363281 25.128906 9.089843 33.453125 27.191407 25.511719 100.195313 38.578125 93.308594 219.101562zm0 0" fill="#547580"/><path d="m301.550781 178.492188c.820313 4.828124-2.417969 9.40625-7.238281 10.242187-.441406 0-.972656.085937-1.414062.085937-4.328126-.011718-8.019532-3.144531-8.738282-7.414062-4.066406-21.179688-2.109375-43.078125 5.648438-63.203125-2.78125 7.542969-2.238282 15.917969 1.5 23.039063 2.175781 4.054687 5.183594 7.605468 8.828125 10.414062-.621094 8.972656-.144531 17.984375 1.414062 26.835938zm0 0" fill="#3f5c6c"/><path d="m150.863281 232.605469c.179688.246093.328125.511719.441407.796875-.292969-.492188-.617188-.964844-.972657-1.414063.226563.160157.410157.371094.53125.617188zm0 0"/><path d="m406.070312 317.792969v82.890625c.003907 3.402344-1.957031 6.496094-5.03125 7.945312-26.8125 12.109375-55.34375 19.972656-84.570312 23.304688h-.089844l-6.175781-.175782-54.644531-1.5-60.910156-1.765624c-32.878907-5.933594-65.101563-15.039063-96.222657-27.191407-2.484375-.984375-4.390625-3.046875-5.183593-5.601562-.789063-2.558594-.375-5.332031 1.125-7.550781l46.875-70.355469s3.972656 1.414062 11.738281 3.441406c13.828125 3.53125 27.859375 6.1875 42.019531 7.945313l60.824219.972656 55.171875.882812 6.445312.085938c21.714844-1.941406 45.285156-5.03125 70.53125-9.796875 5.914063-1.058594 12.003906-2.207031 18.097656-3.53125zm0 0" fill="#894b9d"/><path d="m387.972656 321.324219v79.359375c.109375 3.261718-1.585937 6.316406-4.414062 7.945312-22.972656 11.792969-47.773438 19.613282-73.355469 23.128906-.355469.085938-.707031.085938-1.0625.175782h-.085937l-53.496094-1.675782-53.582032-1.765624c-29.089843-5.976563-57.445312-15.09375-84.570312-27.191407-2.265625-1.222656-3.9375-3.316406-4.621094-5.800781s-.320312-5.140625 1.003906-7.351562l39.191407-66.914063c13.828125 3.53125 27.859375 6.1875 42.019531 7.945313l60.824219.972656 54.199219.96875c.355468 0 .621093-.085938.972656-.085938l6.445312.085938c21.714844-1.941406 45.285156-5.03125 70.53125-9.796875zm0 0" fill="#955ba5"/><path d="m291.308594 308.964844h-70.617188c-14.628906 0-26.484375 11.855468-26.484375 26.484375v88.273437c0 14.628906 11.855469 26.484375 26.484375 26.484375h70.617188c14.628906 0 26.484375-11.855469 26.484375-26.484375v-88.273437c0-14.628907-11.855469-26.484375-26.484375-26.484375zm-8.824219 97.105468c0 4.875-3.953125 8.828126-8.828125 8.828126h-35.3125c-4.875 0-8.828125-3.953126-8.828125-8.828126v-52.96875c0-4.875 3.953125-8.824218 8.828125-8.824218h35.3125c4.875 0 8.828125 3.949218 8.828125 8.824218zm0 0" fill="#b19046"/><path d="m291.308594 308.964844h-70.617188c-14.628906 0-26.484375 11.855468-26.484375 26.484375v88.273437c0 14.628906 11.855469 26.484375 26.484375 26.484375h70.617188c14.628906 0 26.484375-11.855469 26.484375-26.484375v-88.273437c0-14.628907-11.855469-26.484375-26.484375-26.484375zm-1.234375 103.726562c-.105469 6.1875-5.199219 11.121094-11.386719 11.03125h-45.375c-6.1875.089844-11.28125-4.84375-11.386719-11.03125v-66.207031c.105469-6.1875 5.199219-11.125 11.386719-11.035156h45.375c6.1875-.089844 11.28125 4.847656 11.386719 11.035156zm0 0" fill="#e4c05c"/></svg>