<svg height="512pt" viewBox="0 -75 512.00095 512" width="512pt" xmlns="http://www.w3.org/2000/svg"><path d="m234.8125 158.898438h-173.019531c0-87.757813 71.140625-158.898438 158.898437-158.898438h70.621094c42.144531-.015625 82.570312 16.71875 112.375 46.523438 29.800781 29.800781 46.535156 70.226562 46.519531 112.375zm0 0" fill="#ff5364"/><path d="m236.738281 158.898438h-157.289062c0-87.746094 64.679687-158.898438 144.453125-158.898438h64.195312c39.105469.335938 76.234375 17.246094 102.160156 46.523438 27.539063 30.921874 42.609376 70.96875 42.292969 112.375zm0 0" fill="#fb7b76"/><path d="m512 220.691406v52.964844c.015625 16.394531-6.488281 32.121094-18.082031 43.710938-11.589844 11.59375-27.316407 18.097656-43.710938 18.082031h-388.414062c-27.332031.007812-51.421875-17.945313-59.234375-44.136719-1.710938-5.730469-2.574219-11.679688-2.558594-17.65625v-52.964844c-.015625-5.980468.847656-11.929687 2.558594-17.65625 7.8125-26.195312 31.902344-44.144531 59.234375-44.136718h388.414062c27.332031-.007813 51.425781 17.941406 59.234375 44.136718 1.714844 5.726563 2.574219 11.675782 2.558594 17.65625zm0 0" fill="#df4d60"/><path d="m494.34375 220.691406v52.964844c.011719 5.964844-.789062 11.90625-2.382812 17.65625-6.351563 25.445312-28.921876 43.515625-55.144532 44.136719h-361.632812c-26.21875-.621094-48.792969-18.691407-55.144532-44.136719-1.597656-5.75-2.402343-11.691406-2.382812-17.65625v-52.964844c-.019531-5.96875.785156-11.910156 2.382812-17.65625 6.351563-25.449218 28.925782-43.515625 55.144532-44.136718h361.632812c26.222656.621093 48.792969 18.6875 55.144532 44.136718 1.601562 5.746094 2.402343 11.6875 2.382812 17.65625zm0 0" fill="#ff5364"/><g fill="#f3d55b"><path d="m277.273438 158.367188-5.824219 29.042968-3.441407 17.300782h-24.011718l-3.445313-17.300782-5.824219-29.042968c-1.726562-8.613282 1.90625-17.417969 9.210938-22.300782 7.300781-4.886718 16.824219-4.886718 24.128906 0 7.300782 4.882813 10.9375 13.6875 9.207032 22.300782zm0 0"/><path d="m234.460938 208.597656-17.035157 17.035156-14.65625-9.796874-24.628906-16.421876c-7.289063-4.878906-10.921875-13.667968-9.207031-22.269531 1.714844-8.601562 8.4375-15.324219 17.039062-17.039062 8.601563-1.714844 17.390625 1.921875 22.269532 9.207031l16.421874 24.628906zm0 0"/><path d="m213.539062 235.167969v24.011719l-17.300781 3.441406-29.042969 5.828125c-8.613281 1.726562-17.417968-1.910157-22.300781-9.210938-4.886719-7.300781-4.886719-16.828125 0-24.128906 4.882813-7.300781 13.6875-10.9375 22.300781-9.210937l29.042969 5.828124zm0 0"/><path d="m234.460938 285.75-9.796876 14.652344-16.421874 24.628906c-4.878907 7.289062-13.667969 10.921875-22.269532 9.207031-8.601562-1.710937-15.324218-8.4375-17.039062-17.039062-1.714844-8.601563 1.917968-17.390625 9.207031-22.269531l24.628906-16.417969 14.65625-9.800781zm0 0"/><path d="m256 361.929688c-6.5.007812-12.664062-2.90625-16.785156-7.933594-4.121094-5.03125-5.769532-11.644532-4.488282-18.019532l5.824219-29.039062 3.445313-17.304688h24.011718l3.441407 17.304688 5.824219 29.039062c1.28125 6.375-.363282 12.988282-4.488282 18.019532-4.121094 5.027344-10.28125 7.941406-16.785156 7.933594zm0 0"/><path d="m337.125 328.296875c-4.582031 4.609375-10.992188 6.917969-17.457031 6.28125-6.46875-.632813-12.308594-4.136719-15.910157-9.546875l-16.417968-24.628906-9.800782-14.652344 17.039063-17.039062 14.652344 9.800781 24.628906 16.417969c5.410156 3.601562 8.914063 9.441406 9.546875 15.910156s-1.671875 12.878906-6.28125 17.457031zm0 0"/><path d="m370.757812 247.171875c.007813 6.503906-2.90625 12.664063-7.933593 16.789063-5.03125 4.121093-11.644531 5.769531-18.019531 4.488281l-29.042969-5.828125-17.300781-3.441406v-24.011719l17.300781-3.441407 29.042969-5.828124c6.375-1.28125 12.988281.367187 18.019531 4.488281 5.027343 4.121093 7.941406 10.285156 7.933593 16.785156zm0 0"/><path d="m333.859375 199.414062-24.628906 16.421876-14.652344 9.796874-17.039063-17.035156 9.800782-14.65625 16.417968-24.628906c4.878907-7.285156 13.667969-10.921875 22.269532-9.207031 8.601562 1.714843 15.324218 8.4375 17.039062 17.039062 1.714844 8.601563-1.917968 17.390625-9.207031 22.269531zm0 0"/></g><path d="m79.449219 282.484375c0 4.875-3.953125 8.828125-8.828125 8.828125h-68.0625c-1.710938-5.730469-2.574219-11.679688-2.558594-17.65625h70.621094c4.875 0 8.828125 3.953125 8.828125 8.828125zm0 0" fill="#df4d60"/><path d="m97.105469 211.863281c0 4.875-3.953125 8.828125-8.828125 8.828125h-88.277344c-.015625-5.980468.847656-11.929687 2.558594-17.65625h85.71875c4.875 0 8.828125 3.953125 8.828125 8.828125zm0 0" fill="#df4d60"/><path d="m512 273.65625c.011719 5.976562-.851562 11.925781-2.558594 17.65625h-68.0625c-4.875 0-8.828125-3.953125-8.828125-8.828125s3.953125-8.828125 8.828125-8.828125zm0 0" fill="#df4d60"/><path d="m512 220.691406h-88.273438c-4.878906 0-8.828124-3.953125-8.828124-8.828125s3.949218-8.828125 8.828124-8.828125h85.714844c1.714844 5.726563 2.574219 11.675782 2.558594 17.65625zm0 0" fill="#df4d60"/><path d="m213.539062 259.179688-17.300781 3.441406c-2.707031-10.121094-2.707031-20.777344 0-30.894532l17.300781 3.441407zm0 0" fill="#f0c419"/><path d="m217.425781 268.710938 17.035157 17.039062-9.796876 14.652344c-9.035156-5.324219-16.566406-12.859375-21.894531-21.890625zm0 0" fill="#f0c419"/><path d="m224.664062 193.941406 9.796876 14.65625-17.035157 17.035156-14.65625-9.796874c5.328125-9.035157 12.859375-16.566407 21.894531-21.894532zm0 0" fill="#f0c419"/><path d="m268.007812 289.632812 3.441407 17.304688c-10.121094 2.707031-20.777344 2.707031-30.898438 0l3.445313-17.304688zm0 0" fill="#f0c419"/><path d="m256 185.378906c5.214844 0 10.410156.683594 15.449219 2.03125l-3.441407 17.300782h-24.011718l-3.445313-17.300782c5.039063-1.347656 10.234375-2.03125 15.449219-2.03125zm0 0" fill="#f0c419"/><path d="m294.578125 268.710938 14.652344 9.800781c-5.324219 9.03125-12.859375 16.566406-21.890625 21.890625l-9.800782-14.652344zm0 0" fill="#f0c419"/><path d="m294.578125 225.632812-17.039063-17.035156 9.800782-14.65625c9.03125 5.328125 16.566406 12.859375 21.890625 21.894532zm0 0" fill="#f0c419"/><path d="m317.792969 247.171875c0 5.21875-.683594 10.410156-2.03125 15.449219l-17.300781-3.441406v-24.011719l17.300781-3.441407c1.347656 5.035157 2.03125 10.230469 2.03125 15.445313zm0 0" fill="#f0c419"/><path d="m300.136719 247.171875c0 24.378906-19.757813 44.140625-44.136719 44.140625-24.375 0-44.136719-19.761719-44.136719-44.140625 0-24.375 19.761719-44.136719 44.136719-44.136719 24.378906 0 44.136719 19.761719 44.136719 44.136719zm0 0" fill="#f29c1f"/><path d="m326.621094 22.070312c0-7.3125-31.617188-13.242187-70.621094-13.242187s-70.621094 5.929687-70.621094 13.242187 31.617188 13.242188 70.621094 13.242188 70.621094-5.929688 70.621094-13.242188zm0 0" fill="#fc9591"/></svg>