<svg height="512pt" viewBox="0 -46 512 511" width="512pt" xmlns="http://www.w3.org/2000/svg"><path d="m35.308594 265.328125-35.308594 105.933594h512l-35.308594-105.933594zm0 0" fill="#b19046"/><path d="m50.527344 265.328125-32.871094 105.933594h476.6875l-32.871094-105.933594zm0 0" fill="#e4c05c"/><path d="m476.691406 221.191406v44.136719h-441.382812v-44.136719c0-2.914062.089844-5.914062.179687-8.828125h441.023438c.089843 2.914063.179687 5.914063.179687 8.828125zm0 0" fill="#802d40"/><path d="m459.035156 221.191406v44.136719h-406.070312v-44.136719c0-2.914062.082031-5.914062.160156-8.828125h405.75c.078125 2.914063.160156 5.914063.160156 8.828125zm0 0" fill="#d75e72"/><path d="m216.980469 261.976562-23.125 3.882813h-.796875c-8.296875 1.097656-16.515625-2.515625-21.316406-9.371094-4.804688-6.855469-5.386719-15.816406-1.515626-23.238281 3.867188-7.421875 11.550782-12.070312 19.917969-12.058594 1.148438 0 2.207031.175782 3.355469.265625l.089844.085938c.085937 0 .085937.089843.175781.089843l19.15625 13.683594c-.714844 2.738282-1.074219 5.554688-1.058594 8.386719-.015625 6.445313 1.757813 12.769531 5.117188 18.273437zm0 0" fill="#802d40"/><g fill="#b19046"><path d="m238.785156 277.953125-13.683594 19.15625c0 .085937-.085937.085937-.085937.175781l-.089844.089844c-3.898437 5.222656-9.867187 8.503906-16.363281 8.996094-6.5.488281-12.894531-1.859375-17.535156-6.4375l-.085938-.089844c-7.890625-8.054688-8.679687-20.679688-1.855468-29.660156 1.179687-1.566406 2.511718-3.015625 3.972656-4.324219h.796875l23.125-3.882813c2.945312 4.882813 7.035156 8.972657 11.917969 11.914063 3.050781 1.890625 6.390624 3.265625 9.886718 4.0625zm0 0"/><path d="m247.171875 323.148438c-1.480469-.007813-2.957031-.15625-4.414063-.441407-11.792968-2.265625-19.675781-13.464843-17.832031-25.332031l.089844-.089844c0-.089844.085937-.089844.085937-.175781l13.683594-19.15625c9.074219 2.207031 18.65625.746094 26.660156-4.0625l3.882813 23.128906v.355469c.992187 6.457031-.890625 13.027344-5.148437 17.980469-4.261719 4.957031-10.472657 7.804687-17.007813 7.792969zm0 0"/><path d="m327.679688 371.261719c.707031-3.886719 1.234374-7.769531 1.675781-11.742188 1.589843-11.804687 1.261719-23.785156-.96875-35.488281-1.964844-10.058594-6.023438-19.59375-11.917969-27.980469-2.042969 4.203125-5.386719 7.640625-9.535156 9.796875l-.085938.089844c-5.804687 2.996094-12.621094 3.335938-18.695312.933594-6.074219-2.402344-10.8125-7.3125-12.996094-13.46875-.964844 6.460937-4.703125 12.179687-10.234375 15.65625-5.527344 3.480468-12.300781 4.371094-18.542969 2.4375-1.441406-.441406-2.832031-1.03125-4.148437-1.765625-2.488281 10.5-2.578125 21.421875-.265625 31.957031 2 9.398438 5.328125 18.464844 9.886718 26.925781.441407.882813.882813 1.765625 1.410157 2.648438zm0 0"/><path d="m476.511719 212.363281h-441.023438c4.734375-118.355469 102.0625-211.863281 220.511719-211.863281s215.777344 93.507812 220.511719 211.863281zm0 0"/></g><path d="m459.035156 212.363281h-406.070312c4.230468-117.847656 93.46875-211.863281 203.035156-211.863281s198.804688 94.015625 203.035156 211.863281zm0 0" fill="#e4c05c"/><path d="m335.449219 238.847656c-.011719 12.394532-10.03125 22.449219-22.421875 22.507813-1.148438 0-2.207032-.175781-3.355469-.261719l-.089844-.089844c-.085937 0-.085937-.089844-.175781-.089844l-19.15625-13.679687c2.207031-9.074219.75-18.65625-4.058594-26.660156l23.128906-3.886719h.351563c6.457031-.988281 13.027344.894531 17.984375 5.152344 4.953125 4.261718 7.800781 10.472656 7.792969 17.007812zm0 0" fill="#804169"/><path d="m225.808594 257.121094-23.128906 3.882812h-.792969c-8.296875 1.097656-16.515625-2.515625-21.320313-9.371094-4.800781-6.855468-5.382812-15.816406-1.515625-23.238281 3.871094-7.421875 11.550781-12.070312 19.921875-12.058593 1.148438 0 2.207032.175781 3.355469.265624l.089844.085938c.085937 0 .085937.089844.175781.089844l19.15625 13.683594c-.714844 2.738281-1.074219 5.554687-1.058594 8.386718-.015625 6.445313 1.757813 12.769532 5.117188 18.273438zm0 0" fill="#804169"/><path d="m291.308594 238.847656c-.058594 6.4375-1.824219 12.742188-5.117188 18.273438-2.941406 4.882812-7.035156 8.972656-11.917968 11.914062-11.246094 6.757813-25.300782 6.757813-36.546876 0-10.558593-6.398437-17.019531-17.839844-17.035156-30.1875-.015625-2.832031.34375-5.648437 1.058594-8.386718 3.859375-15.789063 17.996094-26.902344 34.25-26.925782 6.4375.058594 12.742188 1.828125 18.273438 5.121094 4.882812 2.941406 8.976562 7.03125 11.917968 11.917969 3.292969 5.53125 5.058594 11.835937 5.117188 18.273437zm0 0" fill="#f0c419"/><path d="m278.511719 181.820312c.011719 1.15625-.105469 2.3125-.355469 3.441407v.089843l-.085938.089844-13.683593 19.152344c-2.738281-.714844-5.558594-1.070312-8.386719-1.058594-6.449219-.023437-12.777344 1.75-18.273438 5.121094l-3.882812-23.128906v-.265625l-.089844-.085938c-1.246094-8.34375 2.277344-16.679687 9.128906-21.601562 6.847657-4.921875 15.875-5.597657 23.382813-1.753907s12.234375 11.566407 12.246094 20zm0 0" fill="#804169"/><path d="m237.726562 208.65625c-8.046874 4.816406-13.808593 12.679688-15.976562 21.804688l-19.15625-13.683594c-.089844 0-.089844-.089844-.175781-.089844l-.089844-.085938c-1.632813-1.207031-3.085937-2.632812-4.324219-4.238281-6.898437-8.941406-6.144531-21.597656 1.765625-29.660156l.085938-.089844c4.640625-4.578125 11.03125-6.925781 17.53125-6.433593 6.5.488281 12.46875 3.769531 16.367187 8.996093l.089844.085938v.265625zm0 0" fill="#cc66a1"/><path d="m247.613281 273.097656-13.683593 19.15625c0 .085938-.085938.085938-.085938.175782l-.089844.089843c-3.898437 5.222657-9.867187 8.503907-16.367187 8.996094-6.5.488281-12.890625-1.859375-17.53125-6.4375l-.085938-.089844c-7.890625-8.054687-8.679687-20.679687-1.855469-29.660156 1.179688-1.566406 2.511719-3.015625 3.972657-4.324219h.792969l23.128906-3.882812c2.941406 4.882812 7.035156 8.972656 11.917968 11.914062 3.050782 1.890625 6.390626 3.265625 9.886719 4.0625zm0 0" fill="#cc66a1"/><path d="m313.996094 212.363281c-1.234375 1.632813-2.691406 3.089844-4.324219 4.324219h-.351563l-23.128906 3.886719c-2.941406-4.886719-7.035156-8.976563-11.917968-11.917969-3.050782-1.890625-6.390626-3.261719-9.886719-4.0625l13.683593-19.152344.085938-.089844v-.089843c3.894531-5.253907 9.871094-8.5625 16.390625-9.070313 6.519531-.507812 12.9375 1.835938 17.597656 6.421875l.085938.089844c7.910156 8.0625 8.664062 20.71875 1.765625 29.660156zm0 0" fill="#cc66a1"/><path d="m256 318.292969c-1.480469-.007813-2.960938-.15625-4.414062-.441407-11.796876-2.265624-19.675782-13.464843-17.832032-25.332031l.089844-.089843c0-.089844.085938-.089844.085938-.175782l13.683593-19.15625c9.074219 2.207032 18.652344.75 26.660157-4.0625l3.882812 23.128906v.355469c.992188 6.457031-.890625 13.027344-5.152344 17.980469-4.257812 4.957031-10.46875 7.804688-17.003906 7.792969zm0 0" fill="#804169"/><path d="m318.410156 282.808594c-.722656 4.609375-2.886718 8.875-6.179687 12.179687l-.085938.089844c-4.65625 4.578125-11.0625 6.921875-17.574219 6.433594-6.511718-.492188-12.496093-3.769531-16.414062-8.992188v-.355469l-3.882812-23.128906c4.882812-2.941406 8.976562-7.03125 11.917968-11.914062 1.890625-3.050782 3.261719-6.390625 4.058594-9.886719l19.15625 13.679687c.089844 0 .089844.089844.175781.089844l.089844.089844c6.765625 5.015625 10.140625 13.40625 8.738281 21.714844zm0 0" fill="#cc66a1"/><path d="m426.195312 320.238281c-24.496093 10.132813-50.335937 16.644531-76.710937 19.332031-1.984375-11.746093-5.828125-23.097656-11.386719-33.632812-4.882812-8.996094-11.585937-16.875-19.6875-23.128906 1.402344-8.308594-1.972656-16.699219-8.738281-21.714844 1.148437.085938 2.207031.261719 3.355469.261719 7.660156-.019531 14.785156-3.945313 18.890625-10.414063l2.472656.527344c11.015625 3.046875 21.519531 7.71875 31.160156 13.859375 9.4375 5.890625 18.382813 12.53125 26.746094 19.863281 12.308594 10.664063 23.652344 22.390625 33.898437 35.046875zm0 0" fill="#4c8056"/><path d="m350.457031 419.988281c-26.65625-12.085937-51.09375-28.558593-72.300781-48.726562-6.800781-6.773438-12.648438-14.433594-17.390625-22.777344-5.296875-9.402344-8.433594-19.863281-9.179687-30.632813 1.453124.285157 2.933593.433594 4.414062.441407 6.535156.011719 12.746094-2.835938 17.003906-7.792969 4.261719-4.953125 6.144532-11.523438 5.152344-17.980469 3.917969 5.222657 9.902344 8.5 16.414062 8.992188 6.511719.488281 12.917969-1.855469 17.574219-6.433594l.085938-.089844c3.292969-3.304687 5.457031-7.570312 6.179687-12.179687 8.101563 6.253906 14.804688 14.132812 19.6875 23.128906 5.558594 10.535156 9.402344 21.886719 11.386719 33.632812 1.988281 10.453126 3.140625 21.050782 3.441406 31.691407.578125 16.28125-.25 32.585937-2.46875 48.726562zm0 0" fill="#4fba6f"/><path d="m317.792969 44.640625c0-19.503906-27.664063-35.3125-61.792969-35.3125s-61.792969 15.808594-61.792969 35.3125c0 19.5 27.664063 35.308594 61.792969 35.308594s61.792969-15.808594 61.792969-35.308594zm0 0" fill="#f9eab0"/></svg>