<svg height="512pt" viewBox="-44 0 512 512.00088" width="512pt" xmlns="http://www.w3.org/2000/svg"><path d="m189.792969 508.824219c-1.457031.351562-2.929688.667969-4.414063.96875-7.265625 1.460937-14.65625 2.203125-22.066406 2.207031-60.945312 0-110.347656-49.402344-110.347656-110.34375v-154.484375h97.105468l44.136719 256zm0 0" fill="#802f34"/><path d="m423.726562 132.414062v128.441407c-.15625 24.65625-17.210937 45.980469-41.226562 51.554687-26.394531 6.441406-55.878906 23.390625-55.878906 67.175782v22.070312c0 60.941406-49.402344 110.34375-110.34375 110.34375-2.648438 0-5.296875-.085938-7.945313-.351562-57.722656-4.085938-102.449219-52.125-102.402343-109.992188v-154.484375l-36.984376-220.246094c16.621094-17.226562 39.53125-26.9453122 63.46875-26.925781h158.898438c4.984375-.0195312 9.96875.277344 14.917969.882812 66.914062 7.589844 117.472656 64.1875 117.496093 131.53125zm0 0" fill="#c03a2b"/><path d="m407.746094 132.414062v128.441407c-.152344 24.65625-17.207032 45.980469-41.222656 51.554687-26.394532 6.441406-55.878907 23.390625-55.878907 67.175782v22.070312c-.007812 57.8125-44.652343 105.808594-102.3125 109.992188-57.722656-4.085938-102.449219-52.125-102.402343-109.992188v-154.484375l-36.984376-220.246094c16.621094-17.226562 39.53125-26.9453122 63.46875-26.925781h142.917969c4.988281-.0195312 9.96875.277344 14.917969.882812 66.914062 7.589844 117.476562 64.1875 117.496094 131.53125zm0 0" fill="#e64c3c"/><path d="m123.585938 88.277344v141.242187c-.027344 9.738281-7.914063 17.625-17.65625 17.652344h-88.273438c-9.738281-.027344-17.625-7.914063-17.65625-17.652344v-141.242187c-.0429688-30.71875 22.550781-56.777344 52.964844-61.085938 2.914062-.507812 5.871094-.742187 8.828125-.707031 34.128906 0 61.792969 27.664063 61.792969 61.792969zm0 0" fill="#f0785a"/><path d="m105.929688 88.277344v141.242187c-.027344 9.738281-7.914063 17.625-17.652344 17.652344h-70.621094c-9.738281-.027344-17.625-7.914063-17.65625-17.652344v-141.242187c-.0429688-30.71875 22.550781-56.777344 52.964844-61.085938 13.21875 1.804688 25.476562 7.917969 34.871094 17.390625 11.621093 11.5625 18.136718 27.296875 18.09375 43.695313zm0 0" fill="#f09372"/><g fill="#c03a2b"><path d="m141.242188 308.964844c-4.875 0-8.828126-3.949219-8.828126-8.824219v-8.828125c0-4.875 3.953126-8.828125 8.828126-8.828125s8.828124 3.953125 8.828124 8.828125v8.828125c0 4.875-3.953124 8.824219-8.828124 8.824219zm0 0"/><path d="m144.472656 432.289062c-3.890625 0-7.320312-2.546874-8.449218-6.269531-2.234376-7.359375-3.449219-14.988281-3.609376-22.675781-.046874-2.34375.839844-4.605469 2.460938-6.296875 1.621094-1.6875 3.847656-2.664063 6.191406-2.707031 4.835938 0 8.808594 3.816406 9.003906 8.648437.121094 6.070313 1.074219 12.09375 2.832032 17.902344.683594 2.242187.445312 4.660156-.65625 6.726563-1.101563 2.066406-2.980469 3.609374-5.222656 4.289062-.828126.25-1.6875.378906-2.550782.382812zm-3.230468-61.53125c-4.875 0-8.828126-3.949218-8.828126-8.824218v-20.585938c0-4.878906 3.953126-8.828125 8.828126-8.828125s8.828124 3.949219 8.828124 8.828125v20.585938c0 4.875-3.953124 8.824218-8.828124 8.824218zm0 0"/><path d="m223.550781 485.164062c-4.703125 0-8.582031-3.6875-8.816406-8.382812-.238281-4.699219 3.253906-8.757812 7.933594-9.226562 6.035156-.585938 11.960937-2.003907 17.609375-4.210938 4.542968-1.777344 9.664062.464844 11.441406 5.003906 1.777344 4.542969-.464844 9.664063-5.003906 11.441406-7.167969 2.785157-14.6875 4.566407-22.34375 5.296876-.253906.0625-.539063.078124-.820313.078124zm-40.050781-7.183593c-1.335938.003906-2.65625-.296875-3.859375-.882813-6.90625-3.363281-13.320313-7.65625-19.058594-12.765625-2.363281-2.097656-3.433593-5.292969-2.800781-8.390625s2.871094-5.621094 5.867188-6.621094c2.996093-1 6.300781-.324218 8.667968 1.769532 4.535156 4.039062 9.605469 7.4375 15.066406 10.097656 3.710938 1.796875 5.683594 5.921875 4.753907 9.9375-.929688 4.015625-4.515625 6.855469-8.636719 6.835938zm92.496094-22.121094c-3.363282.011719-6.441406-1.882813-7.941406-4.894531-1.5-3.007813-1.160157-6.609375.878906-9.285156 3.679687-4.824219 6.675781-10.132813 8.90625-15.773438 1.113281-2.996094 3.757812-5.15625 6.917968-5.648438 3.15625-.492187 6.335938.761719 8.304688 3.277344 1.972656 2.515625 2.429688 5.902344 1.195312 8.851563-2.820312 7.152343-6.617187 13.878906-11.28125 19.992187-1.660156 2.179688-4.242187 3.464844-6.980468 3.480469zm0 0"/><path d="m291.3125 397.242188c-4.878906 0-8.828125-3.953126-8.828125-8.828126v-8.828124c0-4.875 3.949219-8.828126 8.828125-8.828126 4.875 0 8.824219 3.953126 8.824219 8.828126v8.828124c0 4.875-3.949219 8.828126-8.824219 8.828126zm0 0"/><path d="m388.414062 194.207031h-17.65625c-4.875 0-8.828124-3.953125-8.828124-8.828125s3.953124-8.828125 8.828124-8.828125h17.65625c4.875 0 8.828126 3.953125 8.828126 8.828125s-3.953126 8.828125-8.828126 8.828125zm-52.964843 0h-17.65625c-4.875 0-8.828125-3.953125-8.828125-8.828125s3.953125-8.828125 8.828125-8.828125h17.65625c4.875 0 8.828125 3.953125 8.828125 8.828125s-3.953125 8.828125-8.828125 8.828125zm-52.964844 0h-17.65625c-4.875 0-8.828125-3.953125-8.828125-8.828125s3.953125-8.828125 8.828125-8.828125h17.65625c4.875 0 8.828125 3.953125 8.828125 8.828125s-3.953125 8.828125-8.828125 8.828125zm-52.964844 0h-17.65625c-4.875 0-8.828125-3.953125-8.828125-8.828125s3.953125-8.828125 8.828125-8.828125h17.65625c4.875 0 8.824219 3.953125 8.824219 8.828125s-3.949219 8.828125-8.824219 8.828125zm-52.96875 0h-17.652343c-4.875 0-8.828126-3.953125-8.828126-8.828125s3.953126-8.828125 8.828126-8.828125h17.652343c4.875 0 8.828125 3.953125 8.828125 8.828125s-3.953125 8.828125-8.828125 8.828125zm0 0"/><path d="m291.3125 0h-18.980469c-.898437 1.835938-1.144531 3.921875-.707031 5.914062.945312 4.007813 4.535156 6.828126 8.652344 6.796876.683594-.003907 1.367187-.09375 2.03125-.261719 5.382812-1.238281 11.03125-2.386719 16.683594-3.355469 4.070312-.640625 7.113281-4.089844 7.238281-8.210938-4.949219-.605468-9.933594-.9023432-14.917969-.882812zm-36.460938 11.210938c-.894531-2.167969-2.621093-3.890626-4.789062-4.785157-2.171875-.894531-4.609375-.886719-6.773438.019531-5.738281 2.382813-11.300781 5.03125-16.683593 7.769532-3.652344 1.867187-5.535157 6.003906-4.542969 9.984375.988281 3.980469 4.589844 6.757812 8.691406 6.699219 1.40625-.027344 2.792969-.359376 4.058594-.972657 4.945312-2.683593 10.046875-5.070312 15.273438-7.148437 2.167968-.898438 3.890624-2.625 4.785156-4.792969.894531-2.171875.886718-4.605469-.019532-6.773437zm-46.785156 24.628906c-1.464844-1.8125-3.597656-2.964844-5.921875-3.199219-2.320312-.230469-4.640625.476563-6.4375 1.964844-4.855469 3.972656-9.445312 8.210937-13.769531 12.535156-2.207031 2.253906-3.046875 5.515625-2.195312 8.554687.847656 3.039063 3.253906 5.394532 6.3125 6.179688 3.054687.785156 6.296874-.121094 8.503906-2.375 3.878906-3.964844 7.976562-7.707031 12.273437-11.210938 1.816407-1.484374 2.96875-3.632812 3.203125-5.96875.230469-2.335937-.476562-4.667968-1.96875-6.480468zm-36.898437 37.78125c-4.195313-2.484375-9.609375-1.101563-12.09375 3.089844-3.421875 5.5625-6.289063 11.445312-8.5625 17.570312-1.515625 4.625.957031 9.617188 5.558593 11.210938.917969.273437 1.871094.421874 2.828126.441406 3.792968.007812 7.171874-2.410156 8.386718-6.003906 1.847656-4.957032 4.183594-9.71875 6.972656-14.214844 2.484376-4.191406 1.101563-9.605469-3.089843-12.09375zm0 0"/></g><path d="m44.136719 101.519531c0-21.941406-7.902344-39.726562-17.652344-39.726562s-17.65625 17.785156-17.65625 39.726562c0 21.9375 7.90625 39.722657 17.65625 39.722657s17.652344-17.785157 17.652344-39.722657zm0 0" fill="#fdd7ad"/></svg>