<svg height="512pt" viewBox="0 -110 512.0008 512" width="512pt" xmlns="http://www.w3.org/2000/svg"><path d="m450.207031 44.136719c-4.875 0-8.828125-3.949219-8.828125-8.824219v-26.484375c0-4.875 3.953125-8.828125 8.828125-8.828125s8.828125 3.953125 8.828125 8.828125v26.484375c0 4.875-3.953125 8.824219-8.828125 8.824219zm0 0" fill="#35495e"/><path d="m512 76.710938v178.847656c.0625 9.425781-3.621094 18.488281-10.246094 25.195312-6.621094 6.707032-15.640625 10.503906-25.0625 10.558594h-158.898437l-220.691407-35.753906s-44.136718 0-44.136718-62.585938c.011718-2.421875.15625-4.835937.441406-7.238281 6.710938-56.851563 93.484375-75.035156 229.078125-117.9375 70.617187-22.335937 128-33.546875 167.722656-32.398437 5.9375.15625 11.863281.65625 17.742188 1.5 28.515625 4.238281 44.050781 17.304687 44.050781 39.8125zm0 0" fill="#35495e"/><path d="m512 76.710938v161.191406c.0625 9.425781-3.621094 18.488281-10.246094 25.195312-6.621094 6.707032-15.640625 10.503906-25.0625 10.558594h-158.898437l-220.691407-35.753906s-39.105468 0-43.695312-52.167969c6.710938-56.851563 93.484375-75.035156 229.078125-117.9375 70.617187-22.335937 128-33.546875 167.722656-32.398437 5.9375.15625 11.863281.65625 17.742188 1.5 28.515625 4.238281 44.050781 17.304687 44.050781 39.8125zm0 0" fill="#3f5c6c"/><path d="m379.410156 291.3125h-26.308594c.003907-3.542969 2.125-6.742188 5.386719-8.125 1.414063-.617188 100.105469-45.726562 91.71875-247.523438v-.265624c-.121093-4.875 3.730469-8.925782 8.605469-9.046876 4.875-.121093 8.925781 3.730469 9.050781 8.605469 0 .617188.085938 1.324219.085938 1.941407 6.535156 169.3125-58.789063 233.933593-88.539063 254.414062zm0 0" fill="#2c3e50"/><path d="m220.691406 264.828125c-4.878906 0-8.828125-3.953125-8.828125-8.828125 0-1.648438 2.699219-166.390625 236.046875-229.214844 3.046875-.820312 6.300782.046875 8.535156 2.273438 2.230469 2.230468 3.105469 5.480468 2.292969 8.527344-.8125 3.050781-3.191406 5.433593-6.234375 6.253906-220.433594 59.335937-222.988281 210.640625-222.988281 212.160156 0 4.875-3.949219 8.828125-8.824219 8.828125zm0 0" fill="#2c3e50"/><path d="m317.792969 291.3125h-317.792969c.0078125-6.203125 1.652344-12.292969 4.765625-17.65625 1.546875-2.664062 3.414063-5.125 5.5625-7.328125 6.640625-6.597656 15.621094-10.3125 24.980469-10.328125h247.175781c19.480469.050781 35.261719 15.828125 35.308594 35.3125zm0 0" fill="#2fa8cc"/><path d="m313.027344 273.65625h-308.261719c1.546875-2.664062 3.414063-5.125 5.5625-7.328125 6.640625-6.597656 15.621094-10.3125 24.980469-10.328125h247.175781c12.609375-.023438 24.265625 6.714844 30.542969 17.65625zm0 0" fill="#67b9cc"/></svg>