<svg height="512pt" viewBox="0 0 512 512" width="512pt" xmlns="http://www.w3.org/2000/svg"><path d="m256 0c58.53125 0 114.664062 23.25 156.050781 64.636719 41.386719 41.390625 64.640625 97.523437 64.640625 156.054687v114.757813h-441.382812v-114.757813c0-121.886718 98.808594-220.691406 220.691406-220.691406zm0 0" fill="#894b9d"/><path d="m256 0c112.132812 0 203.035156 90.902344 203.035156 203.035156v132.414063h-406.070312v-132.414063c0-112.132812 90.902344-203.035156 203.035156-203.035156zm0 0" fill="#955ba5"/><path d="m256 0c-82.882812 0-150.070312 98.808594-150.070312 220.691406v114.757813h300.140624v-114.757813c0-121.882812-67.1875-220.691406-150.070312-220.691406zm0 0" fill="#894b9d"/><path d="m256 0c-43.882812 0-79.449219 98.808594-79.449219 220.691406v114.757813h158.898438v-114.757813c0-121.882812-35.566407-220.691406-79.449219-220.691406zm0 0" fill="#955ba5"/><path d="m256 344.277344c-4.875 0-8.828125-3.953125-8.828125-8.828125v-273.65625c0-4.875 3.953125-8.828125 8.828125-8.828125s8.828125 3.953125 8.828125 8.828125v273.65625c0 4.875-3.953125 8.828125-8.828125 8.828125zm0 0" fill="#894b9d"/><path d="m35.308594 335.449219h441.382812c19.5 0 35.308594 15.808593 35.308594 35.308593v105.933594c0 19.5-15.808594 35.308594-35.308594 35.308594h-441.382812c-19.5 0-35.308594-15.808594-35.308594-35.308594v-105.933594c0-19.5 15.808594-35.308593 35.308594-35.308593zm0 0" fill="#7d6599"/><path d="m494.34375 370.757812v105.933594c.652344 18.820313-14.054688 34.613282-32.871094 35.308594h-410.945312c-18.816406-.695312-33.523438-16.488281-32.871094-35.308594v-105.933594c-.652344-18.820312 14.054688-34.613281 32.871094-35.308593h410.945312c18.816406.695312 33.523438 16.488281 32.871094 35.308593zm0 0" fill="#b49aca"/><g fill="#7d6599"><path d="m52.964844 379.585938v132.414062h-17.65625v-132.414062c0-4.875 3.953125-8.828126 8.828125-8.828126s8.828125 3.953126 8.828125 8.828126zm0 0"/><path d="m88.277344 379.585938v132.414062h-17.65625v-132.414062c0-4.875 3.953125-8.828126 8.828125-8.828126s8.828125 3.953126 8.828125 8.828126zm0 0"/><path d="m123.585938 379.585938v132.414062h-17.65625v-132.414062c0-4.875 3.953124-8.828126 8.828124-8.828126s8.828126 3.953126 8.828126 8.828126zm0 0"/><path d="m158.898438 379.585938v132.414062h-17.65625v-132.414062c0-4.875 3.953124-8.828126 8.828124-8.828126s8.828126 3.953126 8.828126 8.828126zm0 0"/><path d="m194.207031 379.585938v132.414062h-17.65625v-132.414062c0-4.875 3.953125-8.828126 8.828125-8.828126s8.828125 3.953126 8.828125 8.828126zm0 0"/><path d="m229.515625 379.585938v132.414062h-17.652344v-132.414062c0-4.875 3.949219-8.828126 8.828125-8.828126 4.875 0 8.824219 3.953126 8.824219 8.828126zm0 0"/><path d="m264.828125 379.585938v132.414062h-17.65625v-132.414062c0-4.875 3.953125-8.828126 8.828125-8.828126s8.828125 3.953126 8.828125 8.828126zm0 0"/><path d="m300.136719 379.585938v132.414062h-17.652344v-132.414062c0-4.875 3.949219-8.828126 8.824219-8.828126 4.878906 0 8.828125 3.953126 8.828125 8.828126zm0 0"/><path d="m335.449219 379.585938v132.414062h-17.65625v-132.414062c0-4.875 3.953125-8.828126 8.828125-8.828126s8.828125 3.953126 8.828125 8.828126zm0 0"/><path d="m370.757812 379.585938v132.414062h-17.65625v-132.414062c0-4.875 3.953126-8.828126 8.828126-8.828126s8.828124 3.953126 8.828124 8.828126zm0 0"/><path d="m406.070312 379.585938v132.414062h-17.65625v-132.414062c0-4.875 3.953126-8.828126 8.828126-8.828126s8.828124 3.953126 8.828124 8.828126zm0 0"/><path d="m441.378906 379.585938v132.414062h-17.65625v-132.414062c0-4.875 3.953125-8.828126 8.828125-8.828126s8.828125 3.953126 8.828125 8.828126zm0 0"/><path d="m476.691406 379.585938v132.414062h-17.65625v-132.414062c0-4.875 3.953125-8.828126 8.828125-8.828126s8.828125 3.953126 8.828125 8.828126zm0 0"/></g></svg>