<svg height="512pt" viewBox="0 0 511 512" width="512pt" xmlns="http://www.w3.org/2000/svg"><path d="m285.519531 171.253906c11.078125 2.394532 21.8125 6.160156 31.957031 11.210938l160.132813 79.273437c25.175781 11.953125 39 39.496094 33.542969 66.824219l-25.246094 130.472656h-459.035156l-23.746094-127.03125c-8.730469-28.734375 4.902344-59.53125 32.046875-72.382812l155.71875-77.15625c11.164063-5.5 23.007813-9.507813 35.21875-11.914063zm0 0" fill="#35495e"/><path d="m283.5 171.253906c10.363281 2.417969 20.367188 6.183594 29.75 11.210938l149.078125 79.273437c23.9375 13.019531 36.597656 40.109375 31.234375 66.824219l-23.546875 130.472656h-427.324219l-22.070312-127.03125c-8.367188-28.140625 4.0625-58.308594 29.828125-72.382812l144.941406-77.15625c10.324219-5.472656 21.363281-9.484375 32.796875-11.914063zm0 0" fill="#3f5c6c"/><g fill="#35495e"><path d="m71.011719 308.964844c-4.875 0-8.828125-3.953125-8.828125-8.828125s3.953125-8.828125 8.828125-8.828125c.933593 0 94.136719-.679688 143.835937-50.378906 3.464844-3.34375 8.96875-3.296876 12.375.109374 3.402344 3.40625 3.453125 8.910157.105469 12.375-54.933594 54.925782-152.203125 55.550782-156.316406 55.550782zm0 0"/><path d="m441.769531 308.964844c-4.113281 0-101.386719-.625-156.308593-55.550782-3.347657-3.464843-3.300782-8.96875.105468-12.375s8.910156-3.453124 12.375-.109374c49.804688 49.808593 142.945313 50.378906 143.828125 50.378906 4.875 0 8.828125 3.953125 8.828125 8.828125s-3.953125 8.828125-8.828125 8.828125zm0 0"/><path d="m256.390625 467.863281c-4.875 0-8.828125-3.953125-8.828125-8.828125v-70.621094c0-4.875 3.953125-8.828124 8.828125-8.828124s8.828125 3.953124 8.828125 8.828124v70.621094c0 4.875-3.953125 8.828125-8.828125 8.828125zm0 0"/><path d="m212.25 467.863281c-4.875 0-8.824219-3.953125-8.824219-8.828125v-26.484375c0-4.875 3.949219-8.828125 8.824219-8.828125 4.878906 0 8.828125 3.953125 8.828125 8.828125v26.484375c0 4.875-3.949219 8.828125-8.828125 8.828125zm0 0"/><path d="m300.527344 467.863281c-4.875 0-8.828125-3.953125-8.828125-8.828125v-26.484375c0-4.875 3.953125-8.828125 8.828125-8.828125s8.828125 3.953125 8.828125 8.828125v26.484375c0 4.875-3.953125 8.828125-8.828125 8.828125zm0 0"/></g><path d="m353.492188 97.101562c0 12.007813-19.332032 20.039063-23.65625 30.367188-.46875 1.164062-.792969 2.378906-.972657 3.621094-.554687 3.382812-.703125 6.820312-.441406 10.238281.441406 9.269531 1.855469 19.246094-3.351563 24.453125-8.125 8.121094-27.457031.265625-38.3125 4.769531-10.328124 4.324219-18.363281 23.65625-30.367187 23.65625-12.007813 0-20.039063-19.332031-30.367187-23.65625-10.859376-4.503906-30.191407 3.351563-38.3125-4.769531-5.207032-5.207031-3.796876-15.183594-3.355469-24.453125.261719-3.417969.113281-6.855469-.441407-10.238281-.175781-1.242188-.5-2.457032-.96875-3.621094-4.328124-10.328125-23.660156-18.359375-23.660156-30.367188.121094-3.246093 1.335938-6.355468 3.445313-8.824218 5.738281-7.59375 17.035156-13.949219 20.214843-21.539063 1.730469-6.957031 2.0625-14.191406.96875-21.277343-.261718-3.417969-.113281-6.855469.441407-10.238282.421875-2.546875 1.589843-4.914062 3.355469-6.796875 8.121093-8.121093 27.453124-.265625 38.3125-4.769531 10.328124-4.324219 18.359374-23.65625 30.367187-23.65625 12.003906 0 20.039063 19.332031 30.367187 23.65625 10.855469 4.503906 30.1875-3.351562 38.3125 4.769531 1.765626 1.882813 2.933594 4.25 3.351563 6.796875.554687 3.382813.703125 6.820313.441406 10.238282-1.089843 7.085937-.761719 14.320312.972657 21.277343 3.175781 7.589844 14.476562 13.945313 20.214843 21.539063 2.109375 2.46875 3.324219 5.578125 3.441407 8.824218zm0 0" fill="#547580"/><path d="m466.820312 512h-420.863281c-8.511719 0-16.507812-4.09375-21.484375-11-4.976562-6.90625-6.332031-15.785156-3.636718-23.859375l6.035156-18.105469h459.035156l6.039062 18.105469c2.691407 8.074219 1.339844 16.953125-3.636718 23.859375-4.980469 6.90625-12.972656 11-21.488282 11zm0 0" fill="#2c3e50"/><path d="m452.363281 512h-391.945312c-8.25-.433594-15.8125-4.722656-20.414063-11.582031-4.601562-6.855469-5.707031-15.480469-2.980468-23.277344l5.578124-18.105469h427.574219l5.613281 18.105469c2.730469 7.800781 1.621094 16.433594-2.988281 23.292969s-12.183593 11.144531-20.4375 11.566406zm0 0" fill="#35495e"/></svg>