<svg height="511pt" viewBox="0 -48 511.8229 511" width="511pt" xmlns="http://www.w3.org/2000/svg"><path d="m255.902344 79.867188c-4.875 0-8.828125-3.953126-8.828125-8.828126 0-2.023437.460937-49.824218 40.191406-69.695312 4.363281-2.179688 9.667969-.410156 11.847656 3.953125 2.179688 4.367187.410157 9.667969-3.953125 11.847656-30.085937 15.050781-30.429687 53.503907-30.429687 53.894531 0 4.875-3.953125 8.828126-8.828125 8.828126zm0 0" fill="#3e5f56"/><path d="m477.128906 165.085938-160.09375-79.296876c-39.917968-19.667968-86.707031-19.667968-126.625 0l-155.734375 77.136719c-27.140625 12.855469-40.777343 43.648438-32.054687 72.382813l23.765625 127.039062h459.03125l25.230469-130.480468c5.433593-27.308594-8.375-54.816407-33.519532-66.78125zm0 0" fill="#3e5f56"/><path d="m461.875 165.085938-149.0625-79.296876c-36.835938-19.667968-81.054688-19.667968-117.890625 0l-144.992187 77.136719c-25.769532 14.074219-38.203126 44.238281-29.839844 72.382813l22.125 127.039062h427.378906l23.488281-130.480468c5.34375-26.691407-7.300781-53.753907-31.207031-66.78125zm0 0" fill="#527f72"/><path d="m466.335938 415.3125h-420.867188c-8.511719 0-16.503906-4.089844-21.484375-10.996094-4.976563-6.910156-6.328125-15.785156-3.636719-23.863281l6.039063-18.105469h459.03125l6.039062 18.105469c2.695313 8.078125 1.339844 16.953125-3.636719 23.863281-4.976562 6.90625-12.972656 10.996094-21.484374 10.996094zm0 0" fill="#2f4741"/><g fill="#3e5f56"><path d="m451.875 415.3125h-391.945312c-8.246094-.429688-15.808594-4.722656-20.414063-11.578125-4.601563-6.859375-5.703125-15.484375-2.976563-23.28125l5.578126-18.105469h427.570312l5.617188 18.105469c2.726562 7.800781 1.617187 16.433594-2.992188 23.292969s-12.183594 11.144531-20.4375 11.566406zm0 0"/><path d="m70.523438 212.277344c-4.875 0-8.828126-3.949219-8.828126-8.824219s3.953126-8.828125 8.828126-8.828125c.9375 0 94.136718-.679688 143.835937-50.378906 3.464844-3.347656 8.96875-3.296875 12.375.105468 3.40625 3.40625 3.453125 8.910157.109375 12.375-54.9375 54.925782-152.207031 55.550782-156.320312 55.550782zm0 0"/><path d="m441.28125 212.277344c-4.113281 0-101.382812-.625-156.308594-55.550782-3.347656-3.464843-3.296875-8.96875.105469-12.375 3.40625-3.402343 8.914063-3.453124 12.375-.105468 49.804687 49.804687 142.945313 50.378906 143.828125 50.378906 4.875 0 8.828125 3.953125 8.828125 8.828125s-3.953125 8.824219-8.828125 8.824219zm0 0"/><path d="m255.902344 371.175781c-4.875 0-8.828125-3.953125-8.828125-8.828125v-70.621094c0-4.875 3.953125-8.828124 8.828125-8.828124s8.828125 3.953124 8.828125 8.828124v70.621094c0 4.875-3.953125 8.828125-8.828125 8.828125zm0 0"/><path d="m211.765625 371.175781c-4.875 0-8.828125-3.953125-8.828125-8.828125v-26.480468c0-4.878907 3.953125-8.828126 8.828125-8.828126s8.828125 3.949219 8.828125 8.828126v26.480468c0 4.875-3.953125 8.828125-8.828125 8.828125zm0 0"/><path d="m300.039062 371.175781c-4.875 0-8.824218-3.953125-8.824218-8.828125v-26.480468c0-4.878907 3.949218-8.828126 8.824218-8.828126s8.828126 3.949219 8.828126 8.828126v26.480468c0 4.875-3.953126 8.828125-8.828126 8.828125zm0 0"/></g></svg>