<svg height="512pt" viewBox="0 -61 512 512" width="512pt" xmlns="http://www.w3.org/2000/svg"><path d="m512 220.691406v79.445313c-.027344 9.738281-7.917969 17.628906-17.65625 17.65625h-250.703125l-13.503906-3.882813-141.859375-40.253906v-52.964844c0-102.382812 82.996094-185.382812 185.378906-185.382812h52.964844c49.164062 0 96.316406 19.53125 131.082031 54.296875s54.296875 81.917969 54.296875 131.085937zm0 0" fill="#c03a2b"/><path d="m494.34375 220.691406v79.445313c.359375 9.328125-6.859375 17.203125-16.179688 17.65625h-229.816406l-12.359375-3.882813-130.058593-40.253906v-52.964844c0-102.402344 76.070312-185.382812 169.933593-185.382812h48.550781c93.863282 0 169.929688 82.980468 169.929688 185.382812zm0 0" fill="#e64c3c"/><path d="m158.898438 291.308594c-4.878907 0-8.828126-3.949219-8.828126-8.824219v-52.96875c0-107.085937 59.398438-194.207031 132.414063-194.207031h35.308594c73.011719 0 132.414062 87.121094 132.414062 194.207031v26.484375c0 4.875-3.953125 8.828125-8.828125 8.828125s-8.828125-3.953125-8.828125-8.828125v-26.484375c0-97.347656-51.480469-176.550781-114.757812-176.550781h-35.308594c-63.277344 0-114.761719 79.203125-114.761719 176.550781v52.96875c0 4.875-3.949218 8.824219-8.824218 8.824219zm0 0" fill="#c03a2b"/><path d="m307.90625 35.308594h-15.535156c-41.226563 0-62.855469 97.722656-62.855469 194.207031v52.96875c0 4.195313 2.953125 7.808594 7.0625 8.648437.582031.109376 1.175781.167969 1.765625.175782 4.875 0 8.828125-3.949219 8.828125-8.824219v-52.96875c0-109.371094 26.394531-176.550781 45.199219-176.550781h15.535156c18.800781 0 45.195312 67.179687 45.195312 176.550781v79.449219c0 2.824218-.175781 5.914062-.441406 8.828125h17.832032c.179687-2.738281.265624-5.648438.265624-8.828125v-79.449219c0-96.484375-21.625-194.207031-62.851562-194.207031zm0 0" fill="#c03a2b"/><path d="m512 247.171875v35.3125h-88.277344c-9.71875-.074219-17.582031-7.9375-17.652344-17.65625.027344-9.738281 7.914063-17.625 17.652344-17.65625zm0 0" fill="#2c3e50"/><path d="m494.34375 247.171875v35.3125h-70.621094c-9.71875-.074219-17.582031-7.9375-17.652344-17.65625.027344-9.738281 7.914063-17.625 17.652344-17.65625zm0 0" fill="#35495e"/><path d="m291.308594 0h17.65625c9.75 0 17.65625 7.90625 17.65625 17.65625s-7.90625 17.652344-17.65625 17.652344h-17.65625c-9.75 0-17.652344-7.902344-17.652344-17.652344s7.902344-17.65625 17.652344-17.65625zm0 0" fill="#fb7b76"/><path d="m278.597656 281.777344c.289063 2.640625-.695312 5.261718-2.648437 7.0625-30.101563 28.6875-98.339844 88.804687-152.363281 99.574218-44.136719 8.828126-123.585938-8.828124-123.585938-44.136718.0195312-2.242188.347656-4.46875.972656-6.621094 9.355469-31.867188 82.183594-61.972656 87.039063-63.914062.082031-.046876.171875-.078126.265625-.085938h181.492187c.652344.011719 1.300781.070312 1.945313.175781 3.78125.859375 6.570312 4.078125 6.882812 7.945313zm0 0" fill="#2c3e50"/><path d="m278.597656 281.777344c-.261718 1.789062-1.210937 3.402344-2.648437 4.5-30.101563 23.746094-98.339844 73.625-152.363281 82.628906-41.3125 6.882812-113.609376-5.5625-122.613282-31.25 9.355469-31.867188 82.183594-61.972656 87.039063-63.914062.082031-.046876.171875-.078126.265625-.085938h181.492187c.652344.011719 1.300781.070312 1.945313.175781 4.03125.410157 7.050781 3.890625 6.882812 7.945313zm0 0" fill="#35495e"/></svg>