<svg height="512pt" viewBox="0 -97 512.00032 512" width="512pt" xmlns="http://www.w3.org/2000/svg"><path d="m512 220.691406v79.445313c-.027344 9.738281-7.917969 17.628906-17.65625 17.65625h-250.703125l-155.363281-44.136719v-52.964844c0-102.382812 82.996094-185.382812 185.378906-185.382812h52.964844c49.164062 0 96.316406 19.53125 131.082031 54.296875s54.296875 81.917969 54.296875 131.085937zm0 0" fill="#894b9d"/><path d="m494.34375 220.691406v79.445313c.378906 9.324219-6.832031 17.207031-16.152344 17.65625h-229.871094l-17.390624-5.382813-125-38.753906v-52.964844c0-102.402344 76.09375-185.382812 169.933593-185.382812h48.550781c93.835938 0 169.929688 82.980468 169.929688 185.382812zm0 0" fill="#955ba5"/><path d="m158.898438 291.308594c-4.875 0-8.828126-3.949219-8.828126-8.824219v-52.96875c0-107.085937 59.398438-194.207031 132.414063-194.207031h35.308594c73.011719 0 132.414062 87.121094 132.414062 194.207031v26.484375c0 4.875-3.953125 8.828125-8.828125 8.828125s-8.828125-3.953125-8.828125-8.828125v-26.484375c0-97.347656-51.480469-176.550781-114.757812-176.550781h-35.308594c-63.277344 0-114.761719 79.203125-114.761719 176.550781v52.96875c0 4.875-3.949218 8.824219-8.824218 8.824219zm0 0" fill="#894b9d"/><path d="m307.90625 35.308594h-15.535156c-41.226563 0-62.855469 97.722656-62.855469 194.207031v61.792969c0 4.878906 3.953125 8.828125 8.828125 8.828125s8.828125-3.949219 8.828125-8.828125v-61.792969c0-109.371094 26.394531-176.550781 45.199219-176.550781h15.535156c18.804688 0 45.199219 67.179687 45.199219 176.550781v79.449219c0 2.472656-.179688 5.5625-.355469 8.828125h17.832031c.089844-2.734375.175781-5.648438.175781-8.828125v-79.449219c0-96.484375-21.625-194.207031-62.851562-194.207031zm0 0" fill="#894b9d"/><path d="m512 247.171875v35.3125h-88.277344c-9.71875-.074219-17.582031-7.9375-17.652344-17.65625.027344-9.738281 7.914063-17.625 17.652344-17.65625zm0 0" fill="#2c3e50"/><path d="m494.34375 247.171875v35.3125h-70.621094c-9.71875-.074219-17.582031-7.9375-17.652344-17.65625.027344-9.738281 7.914063-17.625 17.652344-17.65625zm0 0" fill="#35495e"/><path d="m291.3125 0h17.652344c9.75 0 17.65625 7.90625 17.65625 17.65625s-7.90625 17.652344-17.65625 17.652344h-17.652344c-9.753906 0-17.65625-7.902344-17.65625-17.652344s7.902344-17.65625 17.65625-17.65625zm0 0" fill="#b49aca"/><path d="m247.171875 291.308594v26.484375h-225.101563c-5.855468 0-11.46875-2.324219-15.605468-6.464844-4.140625-4.136719-6.464844-9.75-6.464844-15.605469-.015625-3.039062.617188-6.046875 1.855469-8.824218 1.066406-2.546876 2.628906-4.855469 4.589843-6.800782 4.144532-4.132812 9.765626-6.453125 15.625-6.441406h207.445313c9.742187.027344 17.628906 7.914062 17.65625 17.652344zm0 0" fill="#2c3e50"/><path d="m247.171875 291.308594v8.828125h-225.101563c-8.777343.019531-16.722656-5.1875-20.214843-13.238281 1.066406-2.546876 2.628906-4.855469 4.589843-6.800782 4.144532-4.132812 9.765626-6.453125 15.625-6.441406h207.445313c9.742187.027344 17.628906 7.914062 17.65625 17.652344zm0 0" fill="#35495e"/></svg>