<svg height="512pt" viewBox="0 -137 512 512" width="512pt" xmlns="http://www.w3.org/2000/svg"><path d="m70.621094 150.070312v-123.585937c0-14.628906 11.855468-26.484375 26.480468-26.484375h317.796876c14.625 0 26.480468 11.855469 26.480468 26.484375v123.585937zm0 0" fill="#b19046"/><path d="m88.277344 150.070312v-123.585937c-.660156-13.917969 10.042968-25.753906 23.957031-26.484375h287.53125c13.914063.730469 24.617187 12.566406 23.957031 26.484375v123.585937zm0 0" fill="#e4c05c"/><path d="m379.585938 123.585938h61.792968c4.875 0 8.828125 3.953124 8.828125 8.828124v70.621094h-388.414062v-70.621094c0-4.875 3.953125-8.828124 8.828125-8.828124h61.792968l123.585938 26.484374zm0 0" fill="#802f34"/><path d="m368.347656 123.585938h56.179688c4.640625.246093 8.21875 4.183593 8.023437 8.828124v70.621094h-353.101562v-70.621094c-.195313-4.644531 3.382812-8.582031 8.023437-8.828124h56.179688l112.347656 26.484374zm0 0" fill="#c03a2b"/><path d="m379.585938 203.035156v-84.746094c0-6.253906-3.3125-12.039062-8.703126-15.210937-5.390624-3.171875-12.054687-3.253906-17.523437-.21875l-53.222656 29.554687h-88.273438l-53.222656-29.5625c-5.46875-3.039062-12.136719-2.953124-17.527344.21875-5.390625 3.171876-8.699219 8.964844-8.699219 15.21875v84.746094zm0 0" fill="#e64c3c"/><path d="m105.929688 88.277344c-4.875 0-8.828126-3.953125-8.828126-8.828125v-35.3125c0-9.75 7.90625-17.652344 17.65625-17.652344h26.484376c4.875 0 8.828124 3.949219 8.828124 8.824219 0 4.878906-3.953124 8.828125-8.828124 8.828125h-26.484376v35.3125c0 4.875-3.953124 8.828125-8.828124 8.828125zm0 0" fill="#f9eab0"/><path d="m194.207031 44.136719h-8.828125c-4.875 0-8.828125-3.949219-8.828125-8.828125 0-4.875 3.953125-8.824219 8.828125-8.824219h8.828125c4.875 0 8.828125 3.949219 8.828125 8.824219 0 4.878906-3.953125 8.828125-8.828125 8.828125zm0 0" fill="#f9eab0"/><path d="m234.328125 105.929688h43.335937c14.625 0 26.480469 11.859374 26.480469 26.484374v52.964844c0 14.625-11.855469 26.484375-26.480469 26.484375h-43.335937c-14.625 0-26.484375-11.859375-26.484375-26.484375v-52.964844c0-14.625 11.859375-26.484374 26.484375-26.484374zm0 0" fill="#c03a2b"/><path d="m17.65625 203.035156h476.6875c9.75 0 17.65625 7.902344 17.65625 17.65625 0 9.75-7.90625 17.652344-17.65625 17.652344h-476.6875c-9.75 0-17.65625-7.902344-17.65625-17.652344 0-9.753906 7.90625-17.65625 17.65625-17.65625zm0 0" fill="#b19046"/><path d="m35.308594 203.035156h441.382812c9.75 0 17.652344 7.902344 17.652344 17.65625 0 9.75-7.902344 17.652344-17.652344 17.652344h-441.382812c-9.75 0-17.652344-7.902344-17.652344-17.652344 0-9.753906 7.902344-17.65625 17.652344-17.65625zm0 0" fill="#e4c05c"/></svg>