<svg height="511pt" viewBox="0 -22 511.95427 511" width="511pt" xmlns="http://www.w3.org/2000/svg"><path d="m482.757812 341.308594-28.867187 35.488281-66.382813 81.742187c-5.027343 6.199219-12.585937 9.800782-20.566406 9.800782h-221.925781c-7.984375 0-15.539063-3.601563-20.570313-9.800782l-66.382812-81.742187-28.867188-35.488281h38.3125c5.914063 3.53125 12.625 7.0625 19.949219 10.683594 52.605469 25.054687 110.261719 37.679687 168.519531 36.898437 66.035157 1.308594 131.210938-15.125 188.734376-47.582031zm0 0" fill="#f0c419"/><path d="m482.757812 341.308594-28.867187 35.488281c-60.902344 32.277344-128.996094 48.589844-197.914063 47.40625-68.917968 1.183594-137.011718-15.128906-197.914062-47.40625l-28.867188-35.488281h38.3125c5.914063 3.53125 12.625 7.0625 19.949219 10.683594 52.605469 25.054687 110.261719 37.679687 168.519531 36.898437 66.035157 1.308594 131.210938-15.125 188.734376-47.582031zm0 0" fill="#f29c1f"/><path d="m485.496094 212.339844v81.917968c-1.339844.726563-2.558594 1.648438-3.621094 2.738282-.792969.707031-76.003906 74.238281-225.898438 74.238281-58.257812.78125-115.914062-11.84375-168.519531-36.898437-20.835937-9.628907-40.167969-22.238282-57.378906-37.429688-1.0625-1.0625-2.28125-1.957031-3.617187-2.648438v-81.917968c-.035157-85.402344 58.292968-159.769532 141.242187-180.082032l35.308594-5.03125c2.914062-.179687 5.824219-.265624 8.828125-.265624h88.273437c3.003907 0 5.917969.085937 8.828125.265624l35.3125 5.03125c82.949219 20.3125 141.277344 94.679688 141.242188 180.082032zm0 0" fill="#f29c1f"/><path d="m467.839844 226.597656v88.222656c-1.257813.800782-2.386719 1.796876-3.335938 2.945313-.742187.761719-70.164062 79.953125-208.527344 79.953125-54.441406.640625-108.089843-13.058594-155.558593-39.722656-19.589844-10.683594-37.449219-24.273438-52.964844-40.308594-.957031-1.125-2.082031-2.09375-3.339844-2.867188v-88.222656c0-93.925781 55.492188-172.644531 130.375-193.933594l32.601563-5.421874c2.648437-.183594 5.375-.28125 8.148437-.28125h81.476563c2.773437 0 5.464844.097656 8.148437.28125l32.601563 5.421874c74.882812 21.289063 130.375 100.007813 130.375 193.933594zm0 0" fill="#f0c419"/><g fill="#f3d55b"><path d="m506.769531 321.890625c-3.445312 3.53125-86.511719 84.65625-250.792969 84.65625s-247.347656-81.125-250.792968-84.65625c-6.277344-6.242187-6.933594-16.175781-1.535156-23.1875 5.402343-7.015625 15.175781-8.917969 22.8125-4.445313 1.335937.691407 2.554687 1.585938 3.617187 2.648438 17.210937 15.191406 36.542969 27.800781 57.378906 37.429688 52.605469 25.054687 110.261719 37.679687 168.519531 36.898437 149.894532 0 225.105469-73.53125 225.898438-74.238281 1.0625-1.089844 2.28125-2.011719 3.621094-2.738282 7.636718-4.472656 17.410156-2.570312 22.808594 4.445313 5.398437 7.011719 4.742187 16.945313-1.535157 23.1875zm0 0"/><path d="m255.976562.476562c9.75 0 17.65625 7.90625 17.65625 17.65625v176.550782c0 9.75-7.90625 17.65625-17.65625 17.65625s-17.65625-7.90625-17.65625-17.65625v-176.550782c0-9.75 7.90625-17.65625 17.65625-17.65625zm0 0"/><path d="m185.355469 9.304688c9.75 0 17.65625 7.90625 17.65625 17.65625v123.585937c0 9.75-7.90625 17.65625-17.65625 17.65625s-17.652344-7.90625-17.652344-17.65625v-123.585937c0-9.75 7.902344-17.65625 17.652344-17.65625zm0 0"/><path d="m326.597656 9.304688c9.75 0 17.65625 7.90625 17.65625 17.65625v123.585937c0 9.75-7.90625 17.65625-17.65625 17.65625s-17.65625-7.90625-17.65625-17.65625v-123.585937c0-9.75 7.90625-17.65625 17.65625-17.65625zm0 0"/><path d="m132.8125 94.757812c-17.945312-7.636718-44.871094 15.269532-60.136719 51.160157-15.269531 35.890625-13.101562 71.171875 4.84375 78.804687 17.945313 7.636719 44.871094-15.269531 60.136719-51.160156 15.269531-35.886719 13.101562-71.171875-4.84375-78.804688zm0 0"/></g></svg>