<svg height="512pt" viewBox="-61 0 511 512" width="512pt" xmlns="http://www.w3.org/2000/svg"><path d="m388.914062 423.722656v79.449219c0 4.875-3.953124 8.828125-8.828124 8.828125h-370.757813c-4.875 0-8.828125-3.953125-8.828125-8.828125v-79.449219zm0 0" fill="#2c3e50"/><path d="m371.257812 423.722656v79.449219c.195313 4.644531-3.382812 8.582031-8.023437 8.828125h-337.054687c-4.640626-.246094-8.21875-4.183594-8.023438-8.828125v-79.449219zm0 0" fill="#35495e"/><path d="m388.914062 167.722656v256h-388.414062v-256c0-92.628906 75.09375-167.722656 167.722656-167.722656h52.96875c92.628906 0 167.722656 75.09375 167.722656 167.722656zm0 0" fill="#35495e"/><path d="m371.257812 167.722656v256h-353.101562v-256c0-92.601562 68.289062-167.722656 152.476562-167.722656h48.148438c84.1875 0 152.476562 75.121094 152.476562 167.722656zm0 0" fill="#3f5c6c"/><path d="m50.585938 115.78125c-1.410157-.007812-2.800782-.359375-4.050782-1.023438-4.324218-2.246093-6.011718-7.570312-3.769531-11.898437 24.195313-46.964844 72.628906-76.449219 125.457031-76.375 4.875 0 8.828125 3.949219 8.828125 8.824219 0 4.878906-3.953125 8.828125-8.828125 8.828125-46.238281-.050781-88.621094 25.769531-109.789062 66.878906-1.515625 2.929687-4.542969 4.769531-7.847656 4.765625zm0 0" fill="#547580"/><g fill="#2c3e50"><path d="m44.636719 459.035156v52.964844h-17.652344v-52.964844c0-4.875 3.949219-8.828125 8.824219-8.828125 4.878906 0 8.828125 3.953125 8.828125 8.828125zm0 0"/><path d="m79.949219 459.035156v52.964844h-17.65625v-52.964844c0-4.875 3.953125-8.828125 8.828125-8.828125s8.828125 3.953125 8.828125 8.828125zm0 0"/><path d="m115.257812 459.035156v52.964844h-17.65625v-52.964844c0-4.875 3.953126-8.828125 8.828126-8.828125s8.828124 3.953125 8.828124 8.828125zm0 0"/><path d="m150.570312 459.035156v52.964844h-17.65625v-52.964844c0-4.875 3.953126-8.828125 8.828126-8.828125s8.828124 3.953125 8.828124 8.828125zm0 0"/><path d="m185.878906 459.035156v52.964844h-17.65625v-52.964844c0-4.875 3.953125-8.828125 8.828125-8.828125s8.828125 3.953125 8.828125 8.828125zm0 0"/><path d="m221.191406 459.035156v52.964844h-17.65625v-52.964844c0-4.875 3.953125-8.828125 8.828125-8.828125s8.828125 3.953125 8.828125 8.828125zm0 0"/><path d="m256.5 459.035156v52.964844h-17.65625v-52.964844c0-4.875 3.953125-8.828125 8.828125-8.828125s8.828125 3.953125 8.828125 8.828125zm0 0"/><path d="m291.808594 459.035156v52.964844h-17.652344v-52.964844c0-4.875 3.949219-8.828125 8.828125-8.828125 4.875 0 8.824219 3.953125 8.824219 8.828125zm0 0"/><path d="m327.121094 459.035156v52.964844h-17.65625v-52.964844c0-4.875 3.953125-8.828125 8.828125-8.828125s8.828125 3.953125 8.828125 8.828125zm0 0"/><path d="m362.429688 459.035156v52.964844h-17.652344v-52.964844c0-4.875 3.949218-8.828125 8.824218-8.828125 4.878907 0 8.828126 3.953125 8.828126 8.828125zm0 0"/></g><path d="m335.949219 194.207031v52.964844c0 29.253906-23.714844 52.964844-52.964844 52.964844h-26.484375c-2.179688 0-4.335938.421875-6.355469 1.238281-4.617187 1.792969-8.269531 5.445312-10.0625 10.0625-.816406 2.019531-1.238281 4.175781-1.238281 6.355469v8.828125c0 14.625-11.855469 26.480468-26.480469 26.480468h-35.3125c-1.152343 0-2.300781-.085937-3.441406-.261718-7.039063-.847656-13.421875-4.550782-17.65625-10.242188-3.492187-4.59375-5.386719-10.207031-5.382813-15.976562v-8.828125c-.074218-9.71875-7.9375-17.582031-17.65625-17.65625h-26.484374c-17.523438.019531-33.917969-8.644531-43.785157-23.128907-3.582031-5.285156-6.183593-11.175781-7.679687-17.386718-.996094-4.074219-1.5-8.253906-1.5-12.449219v-52.964844c0-29.253906 23.714844-52.964843 52.964844-52.964843h176.554687c6.179687-.007813 12.308594 1.097656 18.09375 3.265624 6.453125 2.277344 12.371094 5.855469 17.390625 10.503907 10.304688 9.097656 16.539062 21.941406 17.304688 35.664062.148437 1.171875.207031 2.351563.175781 3.53125zm0 0" fill="#35495e"/><path d="m145.449219 141.242188-91.984375 91.984374v-25.070312l66.914062-66.914062zm0 0" fill="#2c3e50"/><path d="m198.414062 141.242188-135.769531 135.765624c-3.582031-5.285156-6.183593-11.175781-7.679687-17.386718l118.378906-118.378906zm0 0" fill="#2c3e50"/><path d="m251.378906 141.242188-157.394531 157.394531c-6.21875-1.476563-12.109375-4.078125-17.390625-7.679688l149.714844-149.714843zm0 0" fill="#2c3e50"/><path d="m301.078125 144.507812-158.542969 158.542969c-2.851562-1.898437-6.195312-2.910156-9.621094-2.914062h-12.535156l158.894532-158.894531h3.710937c6.179687-.007813 12.308594 1.097656 18.09375 3.265624zm0 0" fill="#2c3e50"/><path d="m329.59375 168.960938-173.640625 173.636718c-3.492187-4.59375-5.386719-10.207031-5.382813-15.976562v-3.707032l167.898438-167.902343c4.484375 3.976562 8.246094 8.695312 11.125 13.949219zm0 0" fill="#2c3e50"/><path d="m335.949219 194.207031v21.363281l-85.804688 85.804688c-4.617187 1.792969-8.269531 5.445312-10.0625 10.0625l-41.667969 41.664062h-21.363281c-1.152343 0-2.300781-.085937-3.441406-.261718l162.164063-162.164063c.148437 1.171875.207031 2.351563.175781 3.53125zm0 0" fill="#2c3e50"/><path d="m35.808594 432.550781c-4.875 0-8.824219-3.953125-8.824219-8.828125v-52.964844c0-4.875 3.949219-8.828124 8.824219-8.828124 4.878906 0 8.828125 3.953124 8.828125 8.828124v52.964844c0 4.875-3.949219 8.828125-8.828125 8.828125zm0 0" fill="#35495e"/></svg>