<svg height="512pt" viewBox="0 0 512 512" width="512pt" xmlns="http://www.w3.org/2000/svg"><path d="m415.425781 370.492188c58.878907 14.480468 96.574219 36.902343 96.574219 62.058593 0 43.875-114.582031 79.449219-256 79.449219s-256-35.574219-256-79.449219c0-25.15625 37.695312-47.578125 96.574219-62.058593zm0 0" fill="#2c3e50"/><path d="m404.425781 370.492188c54.820313 13.578124 89.917969 34.597656 89.917969 58.183593 0 41.136719-106.679688 74.496094-238.34375 74.496094s-238.34375-33.359375-238.34375-74.496094c0-23.585937 35.097656-44.605469 89.917969-58.183593zm0 0" fill="#35495e"/><path d="m423.722656 432.550781c-5.847656 2.660157-11.863281 4.929688-18.007812 6.796875-25.75 8.015625-52.253906 13.367188-79.09375 15.980469h-141.242188c-26.839844-2.613281-53.34375-7.964844-79.09375-15.980469-6.144531-1.867187-12.160156-4.136718-18.007812-6.796875l13.417968-100.367187.882813.085937c4.058594 1.414063 9.003906 3.003907 14.828125 4.589844 18.097656 4.894531 36.5 8.578125 55.085938 11.035156 4.234374.53125 8.648437 1.058594 13.238281 1.589844h140.539062c4.589844-.53125 9.003907-1.058594 13.238281-1.589844 18.585938-2.457031 36.988282-6.140625 55.085938-11.035156 5.824219-1.585937 10.769531-3.175781 14.828125-4.589844l.882813-.085937zm0 0" fill="#7f5b53"/><path d="m405.714844 439.347656c-25.75 8.015625-52.253906 13.367188-79.09375 15.980469h-141.242188c-26.839844-2.613281-53.34375-7.964844-79.09375-15.980469l11.121094-102.488281c18.097656 4.894531 36.5 8.578125 55.085938 11.035156 6.441406 1.238281 13.328124 2.382813 20.65625 3.355469h125.703124c7.328126-.972656 14.214844-2.117188 20.65625-3.355469 18.585938-2.457031 36.988282-6.140625 55.085938-11.035156zm0 0" fill="#af8066"/><path d="m410.304688 332.183594-.882813.085937c-3.882813 1.324219-8.472656 2.824219-13.945313 4.328125-22.679687 6.167969-45.828124 10.480469-69.207031 12.886719h-140.539062c-23.378907-2.40625-46.527344-6.71875-69.207031-12.886719-5.472657-1.503906-10.0625-3.003906-13.945313-4.328125l-.882813-.085937 40.851563-296.875h228.210937zm0 0" fill="#2c3e50"/><path d="m395.476562 336.597656c-22.679687 6.167969-45.828124 10.480469-69.207031 12.886719h-140.539062c-23.378907-2.40625-46.527344-6.71875-69.207031-12.886719l34.429687-301.289062h210.09375zm0 0" fill="#35495e"/><path d="m308.964844 335.449219h-105.929688c-9.738281.027343-17.625 7.914062-17.65625 17.652343v105.933594c.03125 9.738282 7.917969 17.625 17.65625 17.65625h105.929688c9.738281-.03125 17.625-7.917968 17.65625-17.65625v-105.933594c-.03125-9.738281-7.917969-17.625-17.65625-17.652343zm-17.65625 97.101562c0 4.875-3.949219 8.828125-8.824219 8.828125h-52.96875c-4.875 0-8.824219-3.953125-8.824219-8.828125v-52.964843c0-4.875 3.949219-8.828126 8.824219-8.828126h52.96875c4.875 0 8.824219 3.953126 8.824219 8.828126zm0 0" fill="#b19046"/><path d="m308.964844 335.449219h-105.929688c-9.738281.027343-17.625 7.914062-17.65625 17.652343v105.933594c.03125 9.738282 7.917969 17.625 17.65625 17.65625h105.929688c9.738281-.03125 17.625-7.917968 17.65625-17.65625v-105.933594c-.03125-9.738281-7.917969-17.625-17.65625-17.652343zm-8.828125 103.722656c0 6.09375-4.9375 11.035156-11.035157 11.035156h-66.203124c-6.097657 0-11.035157-4.941406-11.035157-11.035156v-66.207031c0-6.09375 4.9375-11.035156 11.035157-11.035156h66.203124c6.097657 0 11.035157 4.941406 11.035157 11.035156zm0 0" fill="#e4c05c"/><path d="m370.757812 35.308594c0-19.5-51.085937-35.308594-114.105468-35.308594-63.019532 0-114.105469 15.808594-114.105469 35.308594 0 19.503906 51.085937 35.3125 114.105469 35.3125 63.019531 0 114.105468-15.808594 114.105468-35.3125zm0 0" fill="#3f5c6c"/></svg>