<svg height="512pt" viewBox="0 -97 512 512" width="512pt" xmlns="http://www.w3.org/2000/svg"><path d="m512 317.792969h-512l24.804688-26.484375 16.597656-17.652344 91.011718-97.105469h247.171876zm0 0" fill="#b19046"/><path d="m476.691406 317.792969h-442.359375l21.433594-26.484375 14.335937-17.652344 79.96875-97.105469h212.214844zm0 0" fill="#e4c05c"/><path d="m132.414062 132.414062h247.171876v44.136719h-247.171876zm0 0" fill="#ff5364"/><path d="m150.070312 132.414062h211.859376v44.136719h-211.859376zm0 0" fill="#fb7b76"/><path d="m379.585938 114.757812v17.65625h-247.171876v-17.65625c0-63.378906 51.378907-114.757812 114.757813-114.757812h17.65625c30.433594 0 59.625 12.089844 81.144531 33.613281 21.523438 21.519531 33.613282 50.710938 33.613282 81.144531zm0 0" fill="#b19046"/><path d="m361.929688 114.757812v17.65625h-211.859376v-17.65625c0-63.382812 44.039063-114.757812 98.363282-114.757812h15.132812c54.324219 0 98.363282 51.375 98.363282 114.757812zm0 0" fill="#e4c05c"/><g fill="#ff5364"><path d="m229.613281 157.511719-5.984375-4.167969-7.828125-5.4375c-6.773437-4.703125-10.292969-12.839844-9.085937-20.996094 1.207031-8.15625 6.933594-14.925781 14.777344-17.464844 7.84375-2.542968 16.449218-.417968 22.210937 5.480469.980469 1.058594 1.867187 2.203125 2.648437 3.417969l5.164063 8.015625 3.953125 6.125zm0 0"/><path d="m254.613281 185.28125-9.605469 13.816406c-4.703124 6.769532-12.839843 10.289063-20.996093 9.082032-8.15625-1.207032-14.921875-6.933594-17.464844-14.777344-2.539063-7.84375-.414063-16.449219 5.484375-22.207032 1.058594-.984374 2.199219-1.871093 3.414062-2.648437l14.125-9.121094zm0 0"/><path d="m282.386719 160.28125 13.8125 9.605469c6.773437 4.703125 10.292969 12.839843 9.085937 20.996093-1.207031 8.15625-6.933594 14.925782-14.777344 17.464844-7.84375 2.542969-16.449218.417969-22.210937-5.480468-.980469-1.058594-1.867187-2.203126-2.648437-3.417969l-9.117188-14.121094zm0 0"/><path d="m282.414062 158.410156c3.527344-2.3125 7.007813-4.5625 10.589844-6.804687 5.707032-2.90625 10.226563-7.707031 12.785156-13.578125 2.171876-7.789063.140626-16.148438-5.367187-22.066406-4.515625-4.683594-10.894531-7.089844-17.375-6.558594s-12.378906 3.941406-16.074219 9.292968l-9.605468 13.816407zm0 0"/></g><path d="m150.070312 282.484375c0 4.875-3.953124 8.824219-8.828124 8.824219h-116.4375l16.597656-17.652344h99.839844c4.875 0 8.828124 3.949219 8.828124 8.828125zm0 0" fill="#f9eab0"/><path d="m203.035156 291.308594h-8.828125c-4.875 0-8.828125-3.949219-8.828125-8.824219 0-4.878906 3.953125-8.828125 8.828125-8.828125h8.828125c4.875 0 8.828125 3.949219 8.828125 8.828125 0 4.875-3.953125 8.824219-8.828125 8.824219zm0 0" fill="#f9eab0"/><path d="m275.042969 140.492188c4.691406 4.789062 7.335937 11.214843 7.371093 17.917968.121094.617188.121094 1.253906 0 1.871094-.644531 13.886719-12.003906 24.859375-25.902343 25.027344-.617188.125-1.253907.125-1.871094 0-13.882813-.644532-24.859375-12-25.027344-25.898438-.175781-7.34375 2.730469-14.425781 8.011719-19.527344 5.28125-5.105468 12.457031-7.769531 19.789062-7.34375 6.683594.265626 13.003907 3.117188 17.628907 7.953126zm0 0" fill="#f3d55b"/></svg>