<svg height="512pt" viewBox="-106 0 512 512.00001" width="512pt" xmlns="http://www.w3.org/2000/svg"><path d="m194.207031 432.550781c-4.875 0-8.828125-3.953125-8.828125-8.828125v-79.445312c0-4.875 3.953125-8.828125 8.828125-8.828125s8.828125 3.953125 8.828125 8.828125v79.445312c0 4.875-3.953125 8.828125-8.828125 8.828125zm0 0" fill="#2c3e50"/><path d="m132.414062 432.550781c-4.875 0-8.828124-3.953125-8.828124-8.828125v-79.445312c0-4.875 3.953124-8.828125 8.828124-8.828125s8.828126 3.953125 8.828126 8.828125v79.445312c0 4.875-3.953126 8.828125-8.828126 8.828125zm0 0" fill="#2c3e50"/><path d="m163.308594 499.464844c-17.347656 16.914062-45.089844 16.683594-62.152344-.523438-17.0625-17.207031-17.0625-44.953125 0-62.15625 17.0625-17.207031 44.804688-17.441406 62.152344-.527344" fill="#802d40"/><path d="m167.722656 341.273438c-7.183594 1.996093-14.609375 3.007812-22.066406 3.003906-22.25.015625-43.589844-8.8125-59.320312-24.542969-15.730469-15.730469-24.5625-37.074219-24.542969-59.320313v-179.007812l101.515625 3.929688z" fill="#802f34"/><path d="m300.136719 105.929688v92.691406c0 7.3125-5.925781 13.242187-13.238281 13.242187-7.316407 0-13.242188 5.925781-13.242188 13.238281v35.3125c0 22.242188-8.835938 43.570313-24.5625 59.300782-15.726562 15.726562-37.058594 24.5625-59.300781 24.5625-3 0-5.914063-.179688-8.828125-.441406-42.667969-4.519532-75.046875-40.515626-75.035156-83.421876v-83.863281c.015624-25.757812-10.210938-50.464843-28.425782-68.675781-18.210937-18.214844-42.917968-28.441406-68.675781-28.425781-.59375-.011719-1.183594-.070313-1.765625-.175781-4.007812-1.007813-6.878906-4.523438-7.0625-8.652344 0-39.003906 31.617188-70.621094 70.621094-70.621094h123.585937c58.503907 0 105.929688 47.425781 105.929688 105.929688zm0 0" fill="#c03a2b"/><path d="m282.484375 105.929688v92.691406c0 7.3125-5.929687 13.242187-13.242187 13.242187s-13.242188 5.925781-13.242188 13.238281v35.3125c.011719 42.90625-32.363281 78.902344-75.035156 83.421876-42.667969-4.519532-75.046875-40.515626-75.035156-83.421876v-83.863281c.015624-25.757812-10.210938-50.464843-28.425782-68.675781-18.210937-18.214844-42.917968-28.441406-68.675781-28.425781-.59375-.011719-1.183594-.070313-1.765625-.175781-4.007812-1.007813-6.878906-4.523438-7.0625-8.652344 0-39.003906 31.617188-70.621094 70.621094-70.621094h105.929687c58.503907 0 105.933594 47.425781 105.933594 105.929688zm0 0" fill="#e64c3c"/><path d="m141.242188 238.34375c-4.875 0-8.828126-3.949219-8.828126-8.828125v-44.136719c0-4.875 3.953126-8.828125 8.828126-8.828125s8.828124 3.953125 8.828124 8.828125v44.136719c0 4.878906-3.953124 8.828125-8.828124 8.828125zm0 0" fill="#fb7b76"/><path d="m141.242188 282.484375c-4.875 0-8.828126-3.953125-8.828126-8.828125v-8.828125c0-4.875 3.953126-8.828125 8.828126-8.828125s8.828124 3.953125 8.828124 8.828125v8.828125c0 4.875-3.953124 8.828125-8.828124 8.828125zm0 0" fill="#fb7b76"/><path d="m238.34375 467.863281c0 24.375-19.761719 44.136719-44.136719 44.136719s-44.136719-19.761719-44.136719-44.136719c0-24.378906 19.761719-44.140625 44.136719-44.140625s44.136719 19.761719 44.136719 44.140625zm0 0" fill="#d75e72"/></svg>