<svg height="512pt" viewBox="0 -62 512.00022 512" width="512pt" xmlns="http://www.w3.org/2000/svg"><path d="m512 317.792969v17.65625c.007812 2.960937-.257812 5.914062-.792969 8.828125-.96875 6.238281-3.125 12.230468-6.355469 17.652344-9.433593 16.390624-26.90625 26.492187-45.816406 26.484374h-406.070312c-18.910156.007813-36.382813-10.09375-45.8125-26.484374-3.246094-5.414063-5.40625-11.410157-6.359375-17.652344-.535157-2.914063-.8007815-5.867188-.792969-8.828125v-17.65625zm0 0" fill="#b19046"/><path d="m494.34375 317.792969v17.65625c-.0625 9.234375-2.34375 18.316406-6.65625 26.480469-8.21875 16.042968-24.628906 26.230468-42.652344 26.484374h-378.070312c-18.023438-.253906-34.433594-10.441406-42.652344-26.484374-3.039062-5.46875-5.046875-11.457032-5.914062-17.652344-.5-2.917969-.75-5.871094-.742188-8.828125v-17.65625zm0 0" fill="#e4c05c"/><path d="m26.484375 229.515625v-52.964844c-.015625-46.828125 18.582031-91.742187 51.695313-124.855469 33.113281-33.113281 78.027343-51.710937 124.855468-51.695312h105.929688c46.828125-.015625 91.746094 18.582031 124.855468 51.695312 33.113282 33.113282 51.710938 78.027344 51.695313 124.855469v52.964844zm0 0" fill="#b19046"/><path d="m44.136719 229.515625v-52.964844c0-97.542969 72.933593-176.550781 162.976562-176.550781h97.773438c90.042969 0 162.976562 79.007812 162.976562 176.550781v52.964844zm0 0" fill="#e4c05c"/><path d="m61.792969 185.378906c-4.875 0-8.828125-3.953125-8.828125-8.828125.09375-82.839843 67.226562-149.976562 150.070312-150.066406 4.875 0 8.828125 3.949219 8.828125 8.824219 0 4.878906-3.953125 8.828125-8.828125 8.828125-73.097656.085937-132.332031 59.320312-132.414062 132.414062 0 4.875-3.953125 8.828125-8.828125 8.828125zm0 0" fill="#f9eab0"/><path d="m123.585938 229.515625h-105.929688c-4.875 0-8.828125 3.953125-8.828125 8.828125v79.449219h494.34375v-79.449219c0-4.875-3.953125-8.828125-8.828125-8.828125zm0 0" fill="#7d6599"/><path d="m133.039062 229.515625h-98.355468c-4.695313.191406-8.355469 4.132813-8.199219 8.828125v79.449219h459.03125v-79.449219c.15625-4.695312-3.503906-8.636719-8.199219-8.828125zm0 0" fill="#b49aca"/><path d="m388.414062 317.792969v-88.683594c-.007812-5.851563-2.917968-11.320313-7.769531-14.601563-4.847656-3.277343-11.007812-3.9375-16.445312-1.761718l-64.0625 25.597656h-88.273438l-64.0625-25.597656c-5.4375-2.175782-11.59375-1.515625-16.445312 1.761718-4.851563 3.28125-7.761719 8.75-7.769531 14.601563v88.683594zm0 0" fill="#955ba5"/><path d="m238.34375 353.105469c0 4.875-3.949219 8.824219-8.828125 8.824219h-222.363281c-3.246094-5.414063-5.40625-11.410157-6.359375-17.652344h228.722656c4.878906 0 8.828125 3.949218 8.828125 8.828125zm0 0" fill="#b19046"/><path d="m511.207031 344.277344c-.96875 6.238281-3.125 12.230468-6.355469 17.652344h-222.367187c-4.875 0-8.828125-3.949219-8.828125-8.824219 0-4.878907 3.953125-8.828125 8.828125-8.828125zm0 0" fill="#b19046"/><path d="m247.171875 44.136719h-8.828125c-4.875 0-8.828125-3.949219-8.828125-8.828125 0-4.875 3.953125-8.824219 8.828125-8.824219h8.828125c4.875 0 8.828125 3.949219 8.828125 8.824219 0 4.878906-3.953125 8.828125-8.828125 8.828125zm0 0" fill="#f9eab0"/><path d="m229.515625 220.691406h52.96875c9.75 0 17.652344 7.902344 17.652344 17.652344v61.792969c0 9.753906-7.902344 17.65625-17.652344 17.65625h-52.96875c-9.75 0-17.652344-7.902344-17.652344-17.65625v-61.792969c0-9.75 7.902344-17.652344 17.652344-17.652344zm0 0" fill="#894b9d"/></svg>