<svg height="512pt" viewBox="0 0 512.00574 512" width="512pt" xmlns="http://www.w3.org/2000/svg"><path d="m397.246094 114.761719v105.929687l-141.242188 97.105469-141.242187-97.105469v-105.929687c-.003907-3.480469.175781-6.957031.53125-10.417969.457031-5.289062 1.28125-10.539062 2.46875-15.710938l7.328125-17.832031 6.53125-15.800781c20.761718-34.203125 57.890625-55.0625 97.898437-54.99609375h52.964844c40.007813-.06640625 77.140625 20.79296875 97.898437 54.99609375l6.53125 15.800781 7.328126 17.832031c1.1875 5.171876 2.015624 10.421876 2.472656 15.710938.355468 3.460938.53125 6.9375.53125 10.417969zm0 0" fill="#f0c419"/><path d="m379.589844 245.214844v-117.707032c-.003906-9.734374-.890625-19.449218-2.648438-29.023437l-12.101562-37.375c-17.535156-36.679687-49.367188-61.10546875-85.664063-61.10546875h-46.34375c-36.300781 0-68.125 24.42578175-85.628906 61.10546875l-12.136719 37.375c-1.757812 9.574219-2.644531 19.289063-2.648437 29.023437v117.707032l123.585937 107.890625zm0 0" fill="#f3d55b"/><path d="m512.003906 326.625c0 52.964844-70.621094-35.3125-97.105468 17.652344-26.480469 52.96875-35.308594 167.726562-158.894532 167.726562-123.585937 0-132.414062-114.757812-158.898437-167.726562-26.480469-52.964844-97.10156275 35.3125-97.10156275-17.652344-.03125005-2.285156.20312475-4.566406.70703175-6.796875 6.796874-36.8125 67.527343-64.265625 97.453124-75.652344h315.675782c29.925781 11.386719 90.660156 38.839844 97.457031 75.652344.5 2.230469.738281 4.511719.707031 6.796875zm0 0" fill="#f0c419"/><path d="m511.296875 319.828125c-7.328125 35.308594-71.414063-40.078125-96.398437 9.796875-26.480469 52.964844-35.308594 167.722656-158.894532 167.722656-123.585937 0-132.414062-114.757812-158.898437-167.722656-24.980469-49.875-89.070313 25.511719-96.394531-9.796875 6.796874-36.8125 67.527343-64.265625 97.453124-75.652344h315.675782c29.925781 11.386719 90.660156 38.839844 97.457031 75.652344zm0 0" fill="#f3d55b"/><path d="m256.003906 485.519531c-74.082031 0-96.011718-46.308593-118.910156-111.722656-4.582031-14.105469-10.023438-27.921875-16.292969-41.363281-1.441406-2.824219-1.253906-6.207032.484375-8.855469 1.742188-2.648437 4.769532-4.164063 7.933594-3.964844s5.976562 2.082031 7.375 4.925781c6.601562 14.070313 12.324219 28.539063 17.132812 43.316407 21.796876 62.273437 39.539063 100.007812 102.277344 100.007812 4.875 0 8.828125 3.953125 8.828125 8.828125s-3.953125 8.828125-8.828125 8.828125zm0 0" fill="#f9eab0"/><g fill="#f0c419"><path d="m256.003906 317.796875c-103.230468 0-151.722656-47.300781-153.726562-49.3125-6.441406-6.9375-6.265625-17.722656.402344-24.445313 6.664062-6.722656 17.449218-6.988281 24.441406-.605468.828125.757812 41.710937 39.050781 128.882812 39.050781 88.769532 0 128.371094-38.574219 128.757813-38.964844 6.929687-6.691406 17.941406-6.59375 24.75.214844 6.808593 6.8125 6.90625 17.824219.214843 24.75-2.003906 2.011719-50.492187 49.3125-153.722656 49.3125zm0 0"/><path d="m396.714844 104.34375c-12.625 9.976562-54.820313 36.902344-140.710938 36.902344-85.894531 0-128.089844-26.925782-140.710937-36.902344.457031-5.289062 1.28125-10.539062 2.46875-15.710938l7.328125-17.832031c4.085937.261719 7.941406 1.984375 10.859375 4.855469.882812.882812 33.894531 30.277344 120.054687 30.277344 87.304688 0 119.613282-29.835938 119.964844-30.101563 2.914062-2.957031 6.808594-4.746093 10.945312-5.03125l7.328126 17.832031c1.1875 5.171876 2.015624 10.421876 2.472656 15.710938zm0 0"/><path d="m397.246094 158.988281v38.574219c-19.597656 11.390625-65.589844 31.957031-141.242188 31.957031s-121.644531-20.566406-141.242187-31.957031v-38.664062c3.972656-.007813 7.832031 1.328124 10.945312 3.796874.882813.617188 42.195313 31.515626 130.296875 31.515626 88.628906 0 129.941406-31.25 130.292969-31.515626 3.148437-2.394531 6.992187-3.695312 10.949219-3.707031zm0 0"/></g><path d="m256.003906 300.140625c-103.230468 0-151.722656-47.296875-153.726562-49.3125-6.441406-6.9375-6.265625-17.71875.402344-24.441406 6.664062-6.726563 17.449218-6.992188 24.441406-.609375.828125.757812 41.710937 39.054687 128.882812 39.054687 88.769532 0 128.371094-38.578125 128.757813-38.964843 6.929687-6.691407 17.941406-6.597657 24.75.214843 6.808593 6.808594 6.90625 17.820313.214843 24.746094-2.003906 2.015625-50.492187 49.3125-153.722656 49.3125zm0 0" fill="#d75e72"/><path d="m256.003906 123.589844c-103.230468 0-143.246094-38.84375-144.898437-40.484375-6.9375-6.859375-7.003907-18.046875-.144531-24.984375 6.859374-6.941406 18.046874-7.007813 24.988281-.148438.882812.867188 33.933593 30.304688 120.054687 30.304688 87.390625 0 119.628906-29.835938 119.929688-30.136719 4.433594-4.589844 10.996094-6.429687 17.171875-4.8125 6.171875 1.613281 10.992187 6.433594 12.609375 12.609375 1.613281 6.171875-.226563 12.734375-4.816406 17.167969-1.648438 1.640625-41.664063 40.484375-144.894532 40.484375zm0 0" fill="#d75e72"/><path d="m256.003906 211.863281c-102.117187 0-150.265625-37.578125-152.269531-39.175781-7.425781-6.121094-8.578125-17.0625-2.59375-24.601562 5.984375-7.535157 16.902344-8.890626 24.550781-3.046876.863282.617188 42.203125 31.515626 130.3125 31.515626 88.601563 0 129.914063-31.214844 130.320313-31.523438 7.648437-5.871094 18.589843-4.519531 24.582031 3.03125s4.816406 18.511719-2.636719 24.625c-2.003906 1.597656-50.148437 39.175781-152.265625 39.175781zm0 0" fill="#d75e72"/></svg>