<svg height="511pt" viewBox="-17 0 511 511.6469" width="511pt" xmlns="http://www.w3.org/2000/svg"><path d="m376.644531 367.492188c60.734375 14.300781 100.367188 37.957031 100.367188 64.707031 0 43.871093-106.722657 79.449219-238.34375 79.449219-131.617188 0-238.34375-35.578126-238.34375-79.449219 0-26.75 39.636719-50.40625 100.367187-64.707031zm0 0" fill="#285680"/><path d="m366.421875 367.492188c56.238281 13.425781 92.9375 35.636718 92.9375 60.742187 0 41.191406-98.816406 74.585937-220.691406 74.585937s-220.6875-33.394531-220.6875-74.585937c0-25.105469 36.695312-47.316406 92.933593-60.742187zm0 0" fill="#4482c3"/><path d="m391.207031 435.90625c-2.824219 1.5-6.617187 3.355469-11.386719 5.472656-44.726562 18.414063-92.796874 27.316406-141.152343 26.128906-48.355469 1.1875-96.425781-7.714843-141.152344-26.128906-4.765625-2.03125-8.5625-3.972656-11.386719-5.472656-3.757812-2.023438-5.511718-6.460938-4.148437-10.503906l27.453125-85.097656c5.03125 1.941406 10.679687 3.882812 17.035156 5.824218 15.558594 4.664063 31.429688 8.203125 47.492188 10.59375 1.5.265625 3.003906.53125 4.589843.707032l17.570313 1.058593 50.402344 3c35.332031-.199219 70.457031-5.371093 104.34375-15.359375 6.355468-1.941406 12.003906-3.882812 17.035156-5.824218l27.457031 85.097656c1.359375 4.042968-.390625 8.480468-4.152344 10.503906zm0 0" fill="#2fa8cc"/><path d="m379.820312 441.378906c-44.726562 18.414063-92.796874 27.316406-141.152343 26.128906-48.355469 1.1875-96.425781-7.714843-141.152344-26.128906-.144531-1.390625-.023437-2.800781.351563-4.148437l28.601562-91.101563c15.558594 4.664063 31.429688 8.203125 47.492188 10.59375 3.445312 1.394532 7.023437 2.429688 10.683593 3.089844l11.476563-1.324219 50.402344 3c35.332031-.199219 70.457031-5.371093 104.34375-15.359375l28.601562 91.101563c.375 1.347656.496094 2.757812.351562 4.148437zm0 0" fill="#67b9cc"/><path d="m367.902344 340.304688c-5.117188 1.941406-10.945313 3.972656-17.386719 5.914062-33.777344 9.933594-68.785156 15.074219-103.992187 15.269531l-67.972657-4.058593c-17.503906-2.398438-34.800781-6.148438-51.726562-11.210938-6.445313-1.941406-12.273438-3.972656-17.390625-5.914062l104.339844-323.003907c3.292968-9.320312 11.625-15.9375 21.453124-17.035156 2.28125-.3554688 4.601563-.3554688 6.882813 0 9.828125 1.097656 18.160156 7.714844 21.453125 17.035156zm0 0" fill="#285680"/><path d="m350.515625 346.21875c-33.777344 9.933594-68.785156 15.074219-103.992187 15.269531l-67.972657-4.058593c-17.503906-2.398438-34.800781-6.148438-51.726562-11.210938l89.773437-328.035156c2.21875-9.074219 9.472656-16.054688 18.628906-17.917969 2.28125-.3554688 4.601563-.3554688 6.882813 0 9.15625 1.863281 16.410156 8.84375 18.628906 17.917969zm0 0" fill="#4482c3"/><g fill="#f0c419"><path d="m216.132812 276.019531 14.121094 28.082031c.652344 1.289063 1.890625 2.179688 3.320313 2.382813l31.425781 4.484375c1.671875.238281 3.0625 1.414062 3.578125 3.019531.515625 1.609375.070313 3.371094-1.148437 4.539063l-22.636719 21.660156c-1.0625 1.019531-1.546875 2.496094-1.296875 3.945312l5.359375 30.667969c.292969 1.652344-.378907 3.328125-1.730469 4.324219-1.351562.992188-3.152344 1.136719-4.644531.363281l-28.246094-14.589843c-1.269531-.65625-2.777344-.65625-4.042969 0l-28.25 14.589843c-1.488281.773438-3.289062.628907-4.640625-.363281-1.351562-.996094-2.023437-2.671875-1.730469-4.324219l5.355469-30.667969c.253907-1.449218-.234375-2.925781-1.296875-3.945312l-22.632812-21.660156c-1.21875-1.167969-1.664063-2.929688-1.148438-4.539063.515625-1.605469 1.902344-2.78125 3.574219-3.019531l31.425781-4.484375c1.429688-.203125 2.671875-1.09375 3.320313-2.382813l14.125-28.082031c.757812-1.464843 2.269531-2.382812 3.917969-2.382812 1.648437 0 3.160156.917969 3.921874 2.382812zm0 0"/><path d="m261.300781 208.304688 9.351563 8.582031c1.046875.957031 2.492187 1.355469 3.882812 1.066406l12.597656-2.648437c1.679688-.351563 3.410157.304687 4.4375 1.683593 1.027344 1.375 1.160157 3.222657.347657 4.734375l-5.640625 10.441406c-.726563 1.347657-.703125 2.976563.058594 4.300782l5.863281 10.179687c.832031 1.441407.777343 3.234375-.140625 4.625-.914063 1.394531-2.539063 2.152344-4.195313 1.957031l-13.285156-1.527343c-1.351563-.15625-2.699219.320312-3.652344 1.289062l-9.375 9.542969c-1.167969 1.1875-2.90625 1.617188-4.492187 1.109375-1.585938-.507813-2.75-1.867187-3.011719-3.507813l-1.847656-11.546874c-.234375-1.511719-1.238281-2.789063-2.648438-3.382813l-10.945312-4.582031c-1.582031-.664063-2.636719-2.183594-2.703125-3.898438s.867187-3.3125 2.394531-4.097656l11.476563-5.871094c1.265624-.648437 2.136718-1.867187 2.347656-3.273437l1.878906-12.554688c.25-1.597656 1.347656-2.933593 2.871094-3.480469 1.523437-.546874 3.222656-.21875 4.429687.859376zm0 0"/><path d="m251.910156 114.042969 1.464844 10.859375c.195312 1.417968 1.066406 2.65625 2.339844 3.316406l9.710937 5.085938c1.496094.792968 2.410157 2.371093 2.347657 4.066406-.0625 1.691406-1.089844 3.199218-2.640626 3.878906l-9.558593 4.140625c-1.394531.582031-2.394531 1.839844-2.648438 3.328125l-1.703125 10.238281c-.277344 1.648438-1.457031 3-3.050781 3.492188-1.597656.492187-3.332031.042969-4.488281-1.160157l-7.839844-8.191406c-.964844-1.007812-2.351562-1.5-3.734375-1.324218l-11.246094 1.394531c-1.667969.222656-3.316406-.519531-4.253906-1.914063-.9375-1.398437-1-3.207031-.160156-4.664062l5.164062-9.011719c.742188-1.304687.773438-2.898437.078125-4.230469l-4.675781-9.230468c-.785156-1.511719-.632813-3.339844.398437-4.699219 1.027344-1.355469 2.742188-2.003907 4.410157-1.65625l10.769531 2.222656c1.40625.292969 2.863281-.117187 3.910156-1.09375l8-7.488281c1.207032-1.136719 2.949219-1.503906 4.511719-.945313 1.5625.554688 2.679687 1.941407 2.894531 3.585938zm0 0"/></g></svg>