<svg height="511pt" viewBox="0 -13 511.82345 511" width="511pt" xmlns="http://www.w3.org/2000/svg"><path d="m437.496094 320.148438-9.976563 24.097656-3.882812 9.269531s-61.792969-44.136719-167.726563-44.136719c-105.929687 0-167.722656 44.136719-167.722656 44.136719l-3.882812-9.269531-9.976563-24.097656c56.28125-28.851563 118.355469-44.605469 181.582031-46.082032 63.230469 1.476563 125.304688 17.230469 181.585938 46.082032zm0 0" fill="#bdc3c7"/><path d="m511.824219 141.742188-74.328125 178.40625c-3.003906-1.503907-6.445313-3.269532-10.417969-5.121094-53.46875-25.742188-111.835937-39.710938-171.167969-40.960938-59.328125 1.25-117.695312 15.21875-171.164062 40.960938-3.972656 1.851562-7.417969 3.617187-10.417969 5.121094l-74.328125-178.40625c4.953125 1.777343 10.117188 2.90625 15.359375 3.355468 19.507813 1.765625 51.996094-5.121094 64-65.238281 11.203125 6.082031 20.402344 15.28125 26.484375 26.484375 0 0 35.308594-70.621094 150.066406-105.933594 114.761719 35.3125 150.070313 105.933594 150.070313 105.933594 6.082031-11.203125 15.28125-20.402344 26.484375-26.484375 12.003906 60.117187 44.488281 67.003906 64 65.238281 5.242187-.449218 10.40625-1.578125 15.359375-3.355468zm0 0" fill="#35495e"/><path d="m496.464844 145.097656-69.386719 169.929688c-53.46875-25.742188-111.835937-39.710938-171.167969-40.960938-59.328125 1.25-117.695312 15.21875-171.164062 40.960938l-69.386719-169.929688c19.507813 1.765625 51.996094-5.121094 64-65.238281 11.203125 6.082031 20.402344 15.28125 26.484375 26.484375 0 0 35.308594-70.621094 150.066406-105.933594 114.761719 35.3125 150.070313 105.933594 150.070313 105.933594 6.082031-11.203125 15.28125-20.402344 26.484375-26.484375 12.003906 60.117187 44.488281 67.003906 64 65.238281zm0 0" fill="#3f5c6c"/><path d="m330.59375 145.449219c7.503906 30.277343 14.917969 60.558593-7.414062 83.242187-22.335938 22.6875-59.765626 22.6875-67.269532 45.375-7.5-22.6875-44.84375-22.6875-67.265625-45.375-22.421875-22.683594-14.917969-52.964844-7.414062-83.242187 7.503906-30.277344-22.421875-45.375-22.421875-45.375 6.195312 1.441406 12.648437 1.351562 18.800781-.265625 3.664063-.914063 7.109375-2.535156 10.152344-4.765625h.175781c7.914062-6.421875 13.445312-15.3125 15.714844-25.246094 1.855468 1.148437 3.621094 2.117187 5.386718 3 21.539063 10.859375 34.867188 3.265625 41.398438-3.53125.53125-.527344 1.058594-.96875 1.5-1.5.621094-.707031 1.148438-1.324219 1.589844-1.851563.894531-1.171874 1.691406-2.410156 2.382812-3.710937.695313 1.300781 1.492188 2.539063 2.386719 3.710937.441406.527344.96875 1.144532 1.585937 1.851563 6.09375 7.0625 19.6875 16.683594 42.902344 5.03125 1.765625-.882813 3.53125-1.851563 5.386719-3 2.265625 9.933594 7.800781 18.824219 15.710937 25.246094h.179688c3.042969 2.230469 6.488281 3.851562 10.148438 4.765625 6.15625 1.617187 12.609374 1.707031 18.804687.265625 0 0-29.835937 15.097656-22.421875 45.375zm0 0" fill="#95a5a5"/><path d="m321.234375 135.03125c6.535156 26.484375 13.066406 52.964844-6.53125 72.828125s-52.257813 19.863281-58.792969 39.726563c-6.53125-19.863282-39.191406-19.863282-58.789062-39.726563s-13.066406-46.34375-6.535156-72.828125c3.179687-13.28125-1.9375-27.175781-12.976563-35.222656 3.664063-.914063 7.109375-2.535156 10.152344-4.765625h.175781c10.210938-3.578125 18.066406-11.863281 21.101562-22.246094 21.539063 10.859375 34.867188 3.265625 41.398438-3.53125.53125-.527344 1.058594-.96875 1.5-1.5.621094-.707031 1.148438-1.324219 1.589844-1.851563.894531-1.171874 1.691406-2.410156 2.382812-3.710937.695313 1.300781 1.492188 2.539063 2.386719 3.710937.441406.527344.96875 1.144532 1.585937 1.851563 6.09375 7.0625 19.6875 16.683594 42.902344 5.03125 3.035156 10.382813 10.890625 18.667969 21.097656 22.246094h.179688c3.042969 2.230469 6.488281 3.851562 10.148438 4.765625-11.035157 8.046875-16.152344 21.941406-12.976563 35.222656zm0 0" fill="#bdc3c7"/><path d="m291.222656 159.308594c0 19.5-15.808594 35.308594-35.3125 35.308594-19.5 0-35.308594-15.808594-35.308594-35.308594s15.808594-35.3125 35.308594-35.3125c19.503906 0 35.3125 15.8125 35.3125 35.3125zm0 0" fill="#95a5a5"/><path d="m433.347656 483.988281c-47.050781-19.15625-112.289062-39.460937-177.4375-39.460937-65.144531 0-130.382812 20.304687-177.433594 39.460937-9.773437 3.636719-20.769531 1.273438-28.191406-6.050781-7.421875-7.328125-9.921875-18.292969-6.410156-28.113281.402344-1.441407.964844-2.832031 1.675781-4.148438l42.636719-92.160156s61.792969-44.136719 167.722656-44.136719c105.933594 0 167.726563 44.136719 167.726563 44.136719l42.636719 92.160156c.707031 1.316407 1.269531 2.707031 1.675781 4.148438 3.511719 9.820312 1.011719 20.785156-6.410157 28.113281-7.421874 7.324219-18.417968 9.6875-28.191406 6.050781zm0 0" fill="#3f5c6c"/><path d="m467.949219 449.824219c-2.171875 6.941406-7.136719 12.667969-13.699219 15.800781-6.566406 3.132812-14.140625 3.386719-20.902344.707031-47.050781-19.15625-112.289062-39.460937-177.4375-39.460937-65.144531 0-130.382812 20.304687-177.433594 39.460937-6.761718 2.679688-14.335937 2.425781-20.902343-.707031-6.566407-3.132812-11.53125-8.859375-13.699219-15.800781.402344-1.441407.964844-2.832031 1.675781-4.148438l42.636719-92.160156s61.792969-44.136719 167.722656-44.136719c105.933594 0 167.726563 44.136719 167.726563 44.136719l42.636719 92.160156c.707031 1.316407 1.269531 2.707031 1.675781 4.148438zm0 0" fill="#547580"/><path d="m427.519531 344.246094-3.882812 9.269531s-61.792969-44.136719-167.726563-44.136719c-105.929687 0-167.722656 44.136719-167.722656 44.136719l-3.882812-9.269531 3.882812-8.386719s61.792969-44.136719 167.722656-44.136719c105.933594 0 167.726563 44.136719 167.726563 44.136719zm0 0" fill="#95a5a5"/><g fill="#3f5c6c"><path d="m132.324219 432.964844c-4.390625-.015625-8.105469-3.261719-8.710938-7.613282-.605469-4.351562 2.082031-8.484374 6.300781-9.699218 41.101563-11.144532 83.417969-17.191406 125.996094-18 4.875 0 8.828125 3.953125 8.828125 8.828125s-3.953125 8.828125-8.828125 8.828125c-40.933594.894531-81.617187 6.707031-121.164062 17.3125-.789063.230468-1.601563.34375-2.421875.34375zm0 0"/><path d="m379.496094 432.964844c-.816406 0-1.632813-.113282-2.417969-.34375-39.550781-10.597656-80.230469-16.40625-121.167969-17.3125-4.875 0-8.824218-3.953125-8.824218-8.828125s3.949218-8.828125 8.824218-8.828125c42.582032.808594 84.902344 6.855468 126.007813 18 4.222656 1.214844 6.910156 5.351562 6.300781 9.707031-.609375 4.351563-4.324219 7.59375-8.722656 7.605469zm0 0"/></g></svg>