<svg height="510pt" viewBox="0 0 510.98703 510" width="510pt" xmlns="http://www.w3.org/2000/svg"><path d="m81.894531 247.585938c-13.394531-65.960938 11.882813-133.796876 65.171875-174.914063 53.289063-41.117187 125.320313-48.355469 185.726563-18.667969 60.40625 29.691406 98.675781 91.140625 98.675781 158.449219-1.773438 17.832031-4.722656 35.523437-8.828125 52.964844l35.839844 5.648437c24.953125-86.523437-7.511719-179.367187-80.949219-231.484375-73.4375-52.117187-171.792969-52.117187-245.230469 0-73.4375 52.117188-105.90625 144.960938-80.949219 231.484375zm0 0" fill="#802d40"/><path d="m466.777344 212.453125c0 2.824219-.089844 5.738281-.265625 8.5625-4.855469-113.339844-98.152344-202.722656-211.597657-202.722656-113.441406 0-206.738281 89.382812-211.59375 202.722656-.179687-2.824219-.265624-5.738281-.265624-8.5625 0-117.007813 94.851562-211.863281 211.859374-211.863281 117.007813 0 211.863282 94.855468 211.863282 211.863281zm0 0" fill="#d75e72"/><path d="m210.160156 383.796875 13.242188 25.316406c.953125 1.816407.527344 4.054688-1.023438 5.394531l-6.964844 6.011719-12.820312 11.113281c-1.09375.945313-1.652344 2.367188-1.5 3.804688l2.796875 26.007812c.230469 2.117188-1.082031 4.09375-3.125 4.703126l-25.070313 7.433593c-1.285156.382813-2.328124 1.332031-2.832031 2.578125l-9.710937 24.035156c-.84375 2.09375-3.125 3.210938-5.296875 2.597657l-25.015625-6.972657c-1.203125-.324218-2.484375-.125-3.53125.546876l-21.867188 14.121093c-1.875 1.222657-4.371094.839844-5.800781-.882812l-16.460937-20.046875c-.851563-1.03125-2.125-1.621094-3.460938-1.605469l-26.164062.28125c-2.132813.042969-3.988282-1.441406-4.414063-3.53125l-5.03125-25.597656c-.28125-1.417969-1.234375-2.605469-2.550781-3.1875l-24.003906-10.59375c-1.871094-.824219-2.929688-2.824219-2.558594-4.835938l4.757812-25.722656c.269532-1.472656-.222656-2.980469-1.308594-4.007813l-19.066406-18.054687c-1.4687498-1.390625-1.804687-3.601563-.8125-5.367187l12.851563-22.890626c.734375-1.304687.753906-2.894531.054687-4.21875l-12.128906-23.117187c-.960938-1.816406-.542969-4.050781 1.003906-5.394531l19.8125-17.207032c1.082032-.949218 1.632813-2.371093 1.472656-3.804687l-2.796874-25.925781c-.230469-2.113282 1.078124-4.09375 3.113281-4.703125l27.050781-8.125.351562-.882813 10.238282-25.070312c.851562-2.082032 3.132812-3.191406 5.296875-2.574219l15.007812 4.15625 10.003907 2.816406c1.21875.339844 2.527343.140625 3.589843-.546875l21.761719-14.082031c1.878906-1.222656 4.378906-.84375 5.808594.882813l16.460937 20.039062c.851563 1.03125 2.125 1.625 3.460938 1.605469l26.167969-.28125c2.128906-.042969 3.984374 1.441406 4.414062 3.53125l5.019531 25.554687c.28125 1.425782 1.242188 2.617188 2.570313 3.195313l24.0625 10.472656c1.886718.820313 2.957031 2.832031 2.578125 4.855469l-4.757813 25.792968c-.269531 1.46875.222656 2.980469 1.308594 4.007813l18.988281 17.972656c1.460938 1.386719 1.800781 3.585938.820313 5.347657l-13.726563 24.613281zm0 0" fill="#df4d60"/><path d="m182.40625 380.769531 9.515625 18.132813c.683594 1.300781.378906 2.902344-.734375 3.863281l-4.984375 4.300781-9.191406 7.945313c-.78125.675781-1.179688 1.699219-1.066407 2.726562l2.003907 18.617188c.167969 1.519531-.777344 2.941406-2.242188 3.371093l-17.957031 5.296876c-.921875.277343-1.667969.957031-2.03125 1.847656l-6.964844 17.210937c-.605468 1.488281-2.230468 2.289063-3.777344 1.855469l-17.917968-4.988281c-.871094-.246094-1.804688-.105469-2.5625.390625l-15.660156 10.089844c-1.347657.871093-3.136719.59375-4.15625-.644532l-11.785157-14.355468c-.609375-.742188-1.523437-1.167969-2.480469-1.15625l-18.742187.203124c-1.523437.019532-2.84375-1.054687-3.132813-2.550781l-3.601562-18.308593c-.203125-1.011719-.882812-1.863282-1.828125-2.277344l-17.195313-7.566406c-1.34375-.589844-2.105468-2.027344-1.835937-3.46875l3.390625-18.359376c.191406-1.058593-.160156-2.140624-.9375-2.878906l-13.636719-12.925781c-1.050781-1-1.289062-2.582031-.585937-3.847656l9.207031-16.355469c.527344-.933594.542969-2.070312.046875-3.019531l-8.722656-16.5625c-.679688-1.296875-.378906-2.894531.722656-3.855469l14.1875-12.359375c.78125-.675781 1.183594-1.691406 1.078125-2.71875l-2.015625-18.539063c-.160156-1.515624.777344-2.929687 2.234375-3.371093l19.359375-5.816407.257812-.628906 7.34375-17.953125c.605469-1.484375 2.226563-2.28125 3.769532-1.847656l10.761718 2.976563 7.15625 2.019531c.875.25 1.816407.105469 2.578126-.386719l15.589843-10.089844c1.351563-.871094 3.140625-.589844 4.15625.652344l11.796875 14.355469c.605469.738281 1.515625 1.160156 2.46875 1.144531l18.742188-.203125c1.523437-.015625 2.84375 1.058594 3.144531 2.554687l3.589844 18.296876c.207031 1.019531.894531 1.871093 1.847656 2.289062l17.230469 7.5c1.34375.59375 2.109375 2.03125 1.84375 3.480469l-3.40625 18.476562c-.191406 1.050781.160156 2.132813.933594 2.867188l13.597656 12.871093c1.050781.992188 1.292968 2.570313.589844 3.832032l-9.808594 17.582031zm0 0" fill="#ff5364"/><path d="m130.578125 350.164062 4.414063 8.410157c.300781.601562.160156 1.324219-.34375 1.765625l-2.3125 1.996094-4.265626 3.691406c-.359374.316406-.542968.792968-.492187 1.269531l.882813 8.644531c.078124.703125-.363282 1.367188-1.042969 1.570313l-8.332031 2.472656c-.4375.128906-.785157.457031-.945313.882813l-3.230469 7.988281c-.273437.707031-1.039062 1.085937-1.765625.882812l-8.316406-2.3125c-.402344-.117187-.835937-.050781-1.191406.175781l-7.273438 4.6875c-.625.40625-1.453125.277344-1.925781-.300781l-5.480469-6.664062c-.28125-.347657-.703125-.546875-1.148437-.539063l-8.703125.097656c-.707031.003907-1.316407-.492187-1.457031-1.183593l-1.667969-8.5c-.09375-.480469-.425781-.878907-.882813-1.058594l-7.945312-3.53125c-.636719-.261719-1.003906-.929687-.882813-1.609375l1.582031-8.550781c.09375-.492188-.070312-.996094-.433593-1.335938l-6.339844-6c-.476563-.460937-.589844-1.183593-.273437-1.765625l4.273437-7.621094c.238281-.4375.238281-.964843 0-1.402343l-4.050781-7.679688c-.304688-.597656-.167969-1.324219.335937-1.765625l6.585938-5.71875c.359375-.320312.546875-.792968.5-1.273437l-.933594-8.625c-.050781-.71875.433594-1.367188 1.136719-1.527344l8.988281-2.699219.113281-.292968 3.410156-8.332032c.273438-.703125 1.035157-1.085937 1.765626-.882812l4.996093 1.378906 3.316407.941406c.410156.109375.84375.042969 1.203124-.183594l7.238282-4.679687c.621094-.410156 1.457031-.28125 1.921875.300781l5.472656 6.664063c.285156.34375.710937.539062 1.160156.53125l8.703125-.097657c.707032-.003906 1.316406.496094 1.445313 1.191407l1.679687 8.492187c.09375.484375.425782.886719.882813 1.066406l7.996093 3.480469c.636719.265625 1.003907.9375.882813 1.613281l-1.578125 8.582032c-.09375.484375.070312.984375.429688 1.324218l6.3125 5.984376c.480468.457031.59375 1.183593.273437 1.765624l-4.554687 8.164063zm0 0" fill="#fb7b76"/><path d="m494.003906 348.222656 9.25-24.460937c.726563-1.917969.035156-4.085938-1.667968-5.226563l-21.742188-14.644531c-1.195312-.808594-1.921875-2.152344-1.941406-3.59375l-.40625-26.050781c-.035156-2.128906-1.585938-3.929688-3.683594-4.28125l-25.800781-4.414063c-1.320313-.222656-2.464844-1.03125-3.117188-2.199219l-12.640625-22.648437c-1.097656-1.957031-3.484375-2.78125-5.554687-1.917969l-24.019531 9.984375c-1.164063.480469-2.476563.441407-3.609376-.105469l-23.375-11.300781c-2.023437-.980469-4.460937-.285156-5.660156 1.617188l-13.839844 21.925781c-.71875 1.136719-1.914062 1.882812-3.25 2.03125l-25.988281 2.871094c-2.117187.230468-3.765625 1.945312-3.917969 4.066406l-1.863281 26.097656c-.105469 1.441406-.910156 2.738282-2.152343 3.476563l-14.585938 8.660156-7.945312 4.667969c-1.769532 1.042968-2.585938 3.171875-1.96875 5.128906l8.582031 27.277344-.335938.390625-17.839843 21.769531c-1.28125 1.554688-1.34375 3.78125-.148438 5.410156l15.492188 21.0625c.882812 1.203125 1.101562 2.777344.570312 4.175782l-9.230469 24.558593c-.726562 1.917969-.03125 4.085938 1.675781 5.226563l21.8125 14.582031c1.207032.804687 1.9375 2.152344 1.960938 3.601563l.40625 26.039062c.035156 2.128906 1.582031 3.929688 3.679688 4.28125l25.804687 4.363281c1.320313.222657 2.464844 1.035157 3.113281 2.207031l12.644532 22.640626c1.089843 1.960937 3.480468 2.789062 5.550781 1.925781l23.921875-9.992188c1.167968-.488281 2.492187-.449219 3.628906.105469l9.339844 4.546875 14.042968 6.761719c2.015626.972656 4.441407.28125 5.640626-1.605469l14.578124-22.890625.5-.8125 28.046876-3.195312c2.109374-.242188 3.75-1.953126 3.902343-4.070313l1.84375-26.015625c.105469-1.441406.910157-2.742188 2.152344-3.476562l22.546875-13.410157c1.765625-1.046875 2.570312-3.171875 1.953125-5.128906l-7.875-24.910156c-.445313-1.414063-.15625-2.953125.777344-4.105469l16.71875-20.242188c1.285156-1.558593 1.347656-3.792968.148437-5.421874l-15.554687-21.183594c-.875-1.199219-1.089844-2.757813-.570313-4.148438zm0 0" fill="#df4d60"/><path d="m465.199219 400.585938 5.824219 19.632812c.414062 1.414062-.195313 2.925781-1.472657 3.65625l-5.730469 3.246094-10.550781 6.023437c-.898437.511719-1.492187 1.4375-1.578125 2.46875l-1.640625 18.652344c-.132812 1.523437-1.332031 2.730469-2.851562 2.878906l-18.652344 1.765625c-.957031.097656-1.820313.621094-2.347656 1.421875l-10.171875 15.535157c-.882813 1.34375-2.632813 1.816406-4.070313 1.09375l-16.601562-8.375c-.808594-.414063-1.753907-.460938-2.597657-.132813l-17.308593 6.867187c-1.492188.597657-3.195313-.023437-3.957031-1.4375l-8.828126-16.367187c-.453124-.84375-1.265624-1.4375-2.207031-1.617187l-18.429687-3.433594c-1.5-.277344-2.582032-1.582032-2.578125-3.105469v-18.660156c0-1.035157-.503907-2.003907-1.351563-2.597657l-15.402344-10.742187c-1.203124-.84375-1.667968-2.398437-1.121093-3.761719l6.910156-17.40625c.390625-1 .253906-2.125-.363281-3.003906l-10.890625-15.332031c-.839844-1.183594-.765625-2.78125.175781-3.882813l12.207031-14.300781c.695313-.816406.929688-1.925781.628907-2.949219l-5.296876-17.9375c-.40625-1.40625.203126-2.90625 1.472657-3.628906l16.304687-9.332031c.898438-.515625 1.488282-1.4375 1.582032-2.46875l1.625-18.609375c.132812-1.515625 1.324218-2.722656 2.839843-2.871094l20.128907-1.957031.371093-.566407 10.679688-16.191406c.886719-1.335937 2.628906-1.796875 4.0625-1.074218l9.972656 5.003906 6.640625 3.363281c.804688.414063 1.75.460937 2.59375.125l17.25-6.878906c1.492188-.59375 3.195312.03125 3.953125 1.449219l8.828125 16.367187c.457031.835937 1.269531 1.425781 2.207031 1.605469l18.433594 3.433594c1.492187.28125 2.578125 1.585937 2.578125 3.109374v18.652344c-.015625 1.050782.492188 2.042969 1.359375 2.648438l15.394531 10.636718c1.207032.835938 1.679688 2.394532 1.136719 3.757813l-6.929687 17.472656c-.390626.992188-.253907 2.117188.363281 2.992188l10.847656 15.269531c.839844 1.179688.769531 2.773438-.167969 3.875l-13.027344 15.34375zm0 0" fill="#ff5364"/><path d="m420.292969 360.542969 2.699219 9.113281c.195312.652344-.085938 1.355469-.679688 1.695312l-2.648438 1.507813-4.898437 2.796875c-.414063.242188-.6875.671875-.734375 1.148438l-.757812 8.667968c-.0625.707032-.617188 1.269532-1.324219 1.335938l-8.660157.808594c-.445312.042968-.847656.28125-1.09375.65625l-4.722656 7.210937c-.40625.628906-1.222656.847656-1.890625.511719l-7.707031-3.894532c-.375-.183593-.808594-.203124-1.199219-.050781l-8.042969 3.195313c-.691406.273437-1.480468-.015625-1.835937-.671875l-4.078125-7.601563c-.207031-.394531-.585938-.667968-1.023438-.75l-8.554687-1.597656c-.695313-.121094-1.203125-.730469-1.199219-1.4375v-8.667969c-.003906-.480469-.234375-.925781-.625-1.203125l-7.152344-4.984375c-.566406-.394531-.785156-1.128906-.519531-1.765625l3.203125-8.085937c.1875-.460938.125-.984375-.167968-1.386719l-5.058594-7.125c-.371094-.539062-.335938-1.265625.089844-1.765625l5.667968-6.636719c.320313-.382812.429688-.898437.289063-1.378906l-2.480469-8.324219c-.195312-.652343.082031-1.351562.671875-1.695312l7.574219-4.332031c.414062-.238282.6875-.664063.730468-1.140626l.761719-8.640624c.058594-.703126.613281-1.265626 1.316407-1.335938l9.347656-.878906.167968-.265625 4.960938-7.511719c.40625-.625 1.214844-.84375 1.878906-.503906l4.632813 2.320312 3.082031 1.5625c.375.195313.820312.214844 1.210938.054688l8.003906-3.1875c.695312-.277344 1.484375.011718 1.839844.671875l4.078124 7.597656c.210938.390625.585938.664063 1.023438.75l8.554688 1.589844c.695312.128906 1.203124.738281 1.199218 1.449219v8.660156c0 .480468.238282.925781.636719 1.199218l7.175781 4.96875c.566406.394532.785156 1.128907.519532 1.765626l-3.210938 8.113281c-.179688.460937-.117188.980469.167969 1.386719l5.039062 7.0625c.367188.539062.335938 1.257812-.078125 1.765624l-6.046875 7.125zm0 0" fill="#fb7b76"/></svg>