<svg height="512pt" viewBox="0 -53 512 512" width="512pt" xmlns="http://www.w3.org/2000/svg"><path d="m96.839844 234.636719c2.910156 1.855469 5.914062 3.707031 9.089844 5.386719v97.015624c-6.066407-3.3125-11.960938-6.9375-17.652344-10.859374v-97.105469c2.734375 1.855469 5.558594 3.796875 8.5625 5.5625zm0 0" fill="#2c3e50"/><path d="m423.722656 158.898438v70.175781c-2.734375 1.855469-5.558594 3.796875-8.5625 5.5625-3 1.765625-5.914062 3.621093-9.089844 5.386719-3.179687 1.765624-6.710937 3.617187-10.152343 5.296874-1.058594.527344-2.296875 1.058594-3.445313 1.675782-2.117187.972656-4.234375 1.855468-6.441406 2.824218-2.472656 1.175782-5.03125 2.238282-7.679688 3.179688-4.769531 1.941406-9.710937 3.707031-14.917968 5.296875-2.207032.792969-4.503906 1.5-6.800782 2.117187-8.824218 2.648438-18.09375 4.855469-28.070312 6.796876-2.914062.53125-5.824219 1.058593-8.828125 1.5-2.117187.355468-4.148437.707031-6.355469.972656-1.675781.265625-3.441406.527344-5.207031.707031-2.648437.351563-5.386719.703125-8.210937.96875h-87.921876c-2.824218-.265625-5.5625-.617187-8.210937-.96875-1.765625-.179687-3.53125-.441406-5.207031-.707031-2.207032-.265625-4.238282-.617188-6.355469-.972656-3.003906-.441407-5.914063-.96875-8.828125-1.5-9.976562-1.941407-19.246094-4.148438-28.070312-6.796876-2.296876-.617187-4.59375-1.324218-6.800782-2.117187-5.207031-1.589844-10.148437-3.355469-14.917968-5.296875-2.648438-.972656-5.207032-2.03125-7.679688-3.179688-2.207031-.96875-4.324219-1.851562-6.441406-2.824218-1.148438-.617188-2.386719-1.148438-3.445313-1.675782-3.53125-1.765624-6.886719-3.53125-10.152343-5.296874-3.265626-1.765626-6.179688-3.53125-9.089844-5.386719-2.914063-1.851563-5.828125-3.707031-8.5625-5.5625v-70.175781c0-87.757813 71.140625-158.898438 158.894531-158.898438h17.65625c87.753906 0 158.894531 71.140625 158.894531 158.898438zm0 0" fill="#35495e"/><path d="m406.070312 240.023438v97.015624c-35.578124 19.773438-84.039062 33.71875-150.070312 33.71875s-114.492188-13.945312-150.070312-33.71875v-97.015624c3.265624 1.765624 6.621093 3.53125 10.152343 5.296874 1.058594.527344 2.296875 1.058594 3.445313 1.675782 2.117187.972656 4.234375 1.941406 6.441406 2.824218 2.472656 1.175782 5.03125 2.238282 7.679688 3.179688 4.769531 1.941406 9.710937 3.707031 14.917968 5.296875 2.207032.792969 4.503906 1.5 6.800782 2.117187 8.824218 2.648438 18.09375 4.855469 28.070312 6.796876 2.914062.53125 5.824219 1.058593 8.828125 1.5 2.03125.355468 4.148437.707031 6.355469.972656 1.675781.265625 3.441406.527344 5.207031.707031 2.648437.351563 5.386719.703125 8.210937.96875h87.921876c2.824218-.265625 5.5625-.617187 8.210937-.96875 1.765625-.179687 3.53125-.441406 5.207031-.707031 2.207032-.265625 4.324219-.617188 6.355469-.972656 3.003906-.441407 5.914063-.96875 8.828125-1.5 9.976562-1.941407 19.246094-4.148438 28.070312-6.796876 2.296876-.617187 4.59375-1.324218 6.800782-2.117187 5.207031-1.589844 10.148437-3.355469 14.917968-5.296875 2.648438-.972656 5.207032-2.03125 7.679688-3.179688 2.207031-.882812 4.324219-1.851562 6.441406-2.824218 1.148438-.617188 2.386719-1.148438 3.445313-1.675782 3.53125-1.765624 6.886719-3.53125 10.152343-5.296874zm0 0" fill="#35495e"/><path d="m406.070312 150.070312v89.953126c-3.265624 1.851562-6.710937 3.617187-10.152343 5.296874-1.058594.527344-2.296875 1.058594-3.445313 1.675782-2.117187.972656-4.234375 1.855468-6.441406 2.824218-2.472656 1.175782-5.03125 2.238282-7.679688 3.179688-4.769531 1.941406-9.710937 3.707031-14.917968 5.296875-2.207032.792969-4.503906 1.5-6.800782 2.117187-8.824218 2.648438-18.09375 4.855469-28.070312 6.796876-2.914062.53125-5.824219 1.058593-8.828125 1.5-2.117187.355468-4.148437.707031-6.355469.972656-1.675781.265625-3.441406.527344-5.207031.707031-2.648437.351563-5.386719.703125-8.210937.96875h-87.921876c-2.824218-.265625-5.5625-.617187-8.210937-.96875-1.765625-.179687-3.53125-.441406-5.207031-.707031-2.207032-.265625-4.238282-.617188-6.355469-.972656-3.003906-.441407-5.914063-.96875-8.828125-1.5-9.976562-1.941407-19.246094-4.148438-28.070312-6.796876-2.296876-.617187-4.59375-1.324218-6.800782-2.117187-5.207031-1.589844-10.148437-3.355469-14.917968-5.296875-2.648438-.972656-5.207032-2.03125-7.679688-3.179688-2.207031-.96875-4.324219-1.851562-6.441406-2.824218-1.148438-.617188-2.386719-1.148438-3.445313-1.675782-3.53125-1.765624-6.886719-3.53125-10.152343-5.296874v-89.953126c0-82.882812 67.191406-150.070312 150.070312-150.070312s150.070312 67.1875 150.070312 150.070312zm0 0" fill="#3f5c6c"/><path d="m512 229.515625c0 97.546875-114.582031 176.554687-256 176.554687s-256-79.007812-256-176.554687c.0195312-7.339844.671875-14.664063 1.941406-21.890625.539063-3.324219 2.945313-6.039062 6.179688-6.972656h.089844l.617187 2.382812c8.640625 50.140625 37.324219 94.601563 79.449219 123.144532 36.632812 25.335937 90.039062 44.578124 167.722656 44.578124s131.089844-19.242187 167.722656-44.578124c42.125-28.542969 70.808594-73.003907 79.449219-123.144532l.617187-2.382812h.089844c3.234375.933594 5.640625 3.648437 6.179688 6.972656 1.269531 7.226562 1.921875 14.550781 1.941406 21.890625zm0 0" fill="#3f5c6c"/><path d="m88.277344 279.128906v47.050782c-42.125-28.542969-70.808594-73.003907-79.449219-123.144532l-.617187-2.382812c3.992187-1.359375 8.371093.453125 10.238281 4.234375 16.671875 30.222656 40.683593 55.753906 69.828125 74.242187zm0 0" fill="#35495e"/><path d="m503.789062 200.652344-.617187 2.382812c-8.640625 50.140625-37.324219 94.601563-79.449219 123.144532v-47.050782c29.144532-18.488281 53.15625-44.019531 69.828125-74.242187 1.867188-3.78125 6.246094-5.59375 10.238281-4.234375zm0 0" fill="#35495e"/><path d="m423.722656 229.074219v97.105469c-5.691406 3.921874-11.585937 7.546874-17.652344 10.859374v-97.015624c3.175782-1.765626 6.179688-3.53125 9.089844-5.386719 2.914063-1.851563 5.828125-3.707031 8.5625-5.5625zm0 0" fill="#2c3e50"/><path d="m238.34375 247.171875h35.3125c14.625 0 26.480469 11.855469 26.480469 26.484375v70.621094c0 14.625-11.855469 26.480468-26.480469 26.480468h-35.3125c-14.625 0-26.480469-11.855468-26.480469-26.480468v-70.621094c0-14.628906 11.855469-26.484375 26.480469-26.484375zm0 0" fill="#2c3e50"/><path d="m256 326.621094c-4.875 0-8.828125-3.953125-8.828125-8.828125v-26.484375c0-4.875 3.953125-8.824219 8.828125-8.824219s8.828125 3.949219 8.828125 8.824219v26.484375c0 4.875-3.953125 8.828125-8.828125 8.828125zm0 0" fill="#35495e"/><path d="m317.792969 48.550781c0-21.9375-31.617188-39.722656-70.621094-39.722656s-70.621094 17.785156-70.621094 39.722656c0 21.941407 31.617188 39.726563 70.621094 39.726563s70.621094-17.785156 70.621094-39.726563zm0 0" fill="#547580"/></svg>