<svg height="506pt" viewBox="0 -6 506.49801 506" width="506pt" xmlns="http://www.w3.org/2000/svg"><path d="m426.964844 171.390625v264.226563c0 7.066406-4.054688 13.5-10.425782 16.550781l-18.46875 8.777343c-76.554687 36.25-163.917968 42.480469-244.84375 17.460938l-73.691406-81.097656v-225.917969zm0 0" fill="#2c3e50"/><path d="m408.675781 171.390625v264.226563c.148438 6.808593-3.425781 13.152343-9.324219 16.550781l-16.519531 8.777343c-67.382812 36.164063-146.816406 42.496094-219.074219 17.460938l-65.9375-81.097656v-225.917969zm0 0" fill="#35495e"/><g fill="#2c3e50"><path d="m362.964844 300.945312c-5.050782 0-9.144532-4.09375-9.144532-9.144531v-89.507812c0-5.050781 4.09375-9.144531 9.144532-9.144531 5.046875 0 9.140625 4.09375 9.140625 9.144531v89.507812c0 5.050781-4.09375 9.144531-9.140625 9.144531zm0 0"/><path d="m326.390625 273.515625c-5.046875 0-9.140625-4.09375-9.140625-9.140625v-44.4375c0-5.046875 4.09375-9.140625 9.140625-9.140625 5.050781 0 9.144531 4.09375 9.144531 9.140625v44.4375c0 5.046875-4.09375 9.140625-9.144531 9.140625zm0 0"/><path d="m289.820312 328.375c-5.050781 0-9.144531-4.09375-9.144531-9.144531v-81.644531c0-5.050782 4.09375-9.144532 9.144531-9.144532 5.050782 0 9.144532 4.09375 9.144532 9.144532v81.644531c0 5.050781-4.09375 9.144531-9.144532 9.144531zm0 0"/></g><path d="m501.339844 135.457031-244.113282 117.851563c-2.511718 1.214844-5.441406 1.214844-7.953124 0l-244.117188-117.851563c-3.152344-1.527343-5.15625-4.722656-5.15625-8.226562 0-3.503907 2.003906-6.703125 5.15625-8.230469l244.117188-117.839844c2.511718-1.2148435 5.441406-1.2148435 7.953124 0l244.113282 117.839844c3.15625 1.527344 5.15625 4.726562 5.15625 8.230469 0 3.503906-2 6.699219-5.15625 8.226562zm0 0" fill="#3f5c6c"/><path d="m116.105469 392.375c-5.046875 0-9.140625-4.09375-9.140625-9.144531v-192c0-3.550781 2.054687-6.78125 5.273437-8.285157l137.144531-64c2.96875-1.441406 6.480469-1.171874 9.195313.707032s4.203125 5.070312 3.902344 8.359375c-.304688 3.285156-2.351563 6.152343-5.363281 7.5l-131.867188 61.542969v186.175781c0 5.050781-4.09375 9.144531-9.144531 9.144531zm0 0" fill="#b19046"/><path d="m170.964844 438.085938c0 30.296874-24.5625 54.859374-54.859375 54.859374s-54.855469-24.5625-54.855469-54.859374c0-30.296876 24.558594-54.855469 54.855469-54.855469s54.859375 24.558593 54.859375 54.855469zm0 0" fill="#b19046"/><path d="m161.820312 429.792969c0-25.402344-20.46875-45.996094-45.714843-45.996094-25.246094 0-45.714844 20.59375-45.714844 45.996094 0 25.40625 20.46875 46 45.714844 46 25.246093 0 45.714843-20.59375 45.714843-46zm0 0" fill="#e4c05c"/><path d="m134.390625 415.796875c0-12.625-12.277344-22.855469-27.425781-22.855469-15.148438 0-27.429688 10.230469-27.429688 22.855469s12.28125 22.855469 27.429688 22.855469c15.148437 0 27.425781-10.230469 27.425781-22.855469zm0 0" fill="#f9eab0"/></svg>