<svg height="512pt" viewBox="0 -60 512 512" width="512pt" xmlns="http://www.w3.org/2000/svg"><path d="m512 123.585938c-35.308594 35.3125-44.136719 132.414062-44.136719 132.414062h-423.726562s-8.828125-97.101562-44.136719-132.414062c0 0 7.679688-2.292969 19.597656-6.707032 28.511719-10.417968 81.65625-32.753906 112.816406-63.914062 44.136719-44.136719 79.449219-52.964844 123.585938-52.964844s79.449219 8.828125 123.585938 52.964844c31.160156 31.160156 84.304687 53.496094 112.816406 63.914062 11.917968 4.414063 19.597656 6.707032 19.597656 6.707032zm0 0" fill="#285680"/><path d="m492.402344 116.878906c-31.25 39.457032-42.195313 139.121094-42.195313 139.121094h-388.414062s-10.945313-99.664062-42.195313-139.121094c28.511719-10.417968 81.65625-32.753906 112.816406-63.914062 44.136719-44.136719 79.449219-52.964844 123.585938-52.964844s79.449219 8.828125 123.585938 52.964844c31.160156 31.160156 84.304687 53.496094 112.816406 63.914062zm0 0" fill="#4482c3"/><path d="m44.136719 256h423.726562v35.308594h-423.726562zm0 0" fill="#f29c1f"/><path d="m61.792969 256h388.414062v35.308594h-388.414062zm0 0" fill="#f0c419"/><path d="m466.625 348.601562-13.238281 3.089844-145.746094 33.632813c-33.980469 7.855469-69.300781 7.855469-103.28125 0l-145.746094-33.632813-13.238281-3.089844c-4.851562-1.101562-9.007812-4.210937-11.429688-8.554687-2.425781-4.34375-2.890624-9.511719-1.285156-14.21875l11.476563-34.519531h423.726562l11.476563 34.519531c1.605468 4.707031 1.140625 9.875-1.285156 14.21875-2.421876 4.34375-6.578126 7.453125-11.429688 8.554687zm0 0" fill="#285680"/><path d="m453.386719 351.691406-145.746094 33.632813c-33.980469 7.855469-69.300781 7.855469-103.28125 0l-145.746094-33.632813c-8.015625-4.585937-11.734375-14.15625-8.914062-22.953125l12.09375-37.429687h388.414062l12.09375 37.429687c2.820313 8.796875-.898437 18.367188-8.914062 22.953125zm0 0" fill="#4482c3"/><path d="m219.453125 196.679688 36.546875-20.128907 36.546875 20.128907 7.855469-9.09375-9.09375-38.488282 31.074218-22.597656-4.5-10.152344-40.695312-5.121094-17.566406-40.957031h-7.242188l-17.566406 40.957031-40.695312 5.121094-4.5 10.152344 31.074218 22.597656-9.09375 38.488282zm0 0" fill="#f0c419"/><g fill="#f29c1f"><path d="m273.65625 52.964844c0 9.75-7.90625 17.65625-17.65625 17.65625s-17.65625-7.90625-17.65625-17.65625 7.90625-17.65625 17.65625-17.65625 17.65625 7.90625 17.65625 17.65625zm0 0"/><path d="m353.101562 114.757812c0 9.75-7.902343 17.65625-17.652343 17.65625s-17.65625-7.90625-17.65625-17.65625 7.90625-17.65625 17.65625-17.65625 17.652343 7.90625 17.652343 17.65625zm0 0"/><path d="m326.621094 203.035156c0 9.75-7.90625 17.65625-17.65625 17.65625s-17.65625-7.90625-17.65625-17.65625 7.90625-17.65625 17.65625-17.65625 17.65625 7.90625 17.65625 17.65625zm0 0"/><path d="m220.691406 203.035156c0 9.75-7.90625 17.65625-17.65625 17.65625s-17.65625-7.90625-17.65625-17.65625 7.90625-17.65625 17.65625-17.65625 17.65625 7.90625 17.65625 17.65625zm0 0"/><path d="m194.207031 114.757812c0 9.75-7.90625 17.65625-17.65625 17.65625s-17.652343-7.90625-17.652343-17.65625 7.902343-17.65625 17.652343-17.65625 17.65625 7.90625 17.65625 17.65625zm0 0"/></g><path d="m229.515625 326.621094h-97.101563c-4.875 0-8.828124-3.953125-8.828124-8.828125s3.953124-8.828125 8.828124-8.828125h97.101563c4.878906 0 8.828125 3.953125 8.828125 8.828125s-3.949219 8.828125-8.828125 8.828125zm0 0" fill="#3b97d3"/><path d="m282.484375 167.722656-26.148437-13.238281-25.734376 14.027344 4.511719-28.957031-21.292969-20.144532 28.9375-4.652344 12.570313-26.472656 13.375 26.078125 29.058594 3.777344-20.671875 20.769531zm0 0" fill="#f3d55b"/></svg>