<svg height="512pt" viewBox="0 -35 512 512" width="512pt" xmlns="http://www.w3.org/2000/svg"><path d="m498.40625 53.847656c-72.34375 46.230469-156.554688 70.457032-242.40625 69.738282-85.851562.71875-170.0625-23.507813-242.40625-69.738282l.882812-1.324218c6.355469-.265626 14.390626-.792969 23.570313-1.589844 30.277344-2.648438 72.652344-9.089844 103.195313-24.449219 36.050781-16.546875 75.101562-25.558594 114.757812-26.484375 39.65625.925781 78.707031 9.9375 114.757812 26.484375 30.542969 15.359375 72.917969 21.800781 103.195313 24.449219 9.179687.796875 17.214844 1.324218 23.570313 1.589844zm0 0" fill="#67b9cc"/><path d="m512 406.070312-35.308594-17.65625s0 17.65625-17.65625 52.964844c0 0 0-35.308594-35.3125-88.277344-10.214844-15.441406-22.414062-29.480468-36.28125-41.753906-5.390625-4.84375-11.046875-9.382812-16.949218-13.59375l78.566406-28.511718c3.445312 3.441406 6.886718 7.148437 10.417968 11.121093 30.855469 34.988281 49.3125 79.167969 52.523438 125.707031zm0 0" fill="#4482c3"/><path d="m459.476562 280.363281c-22.058593 14.378907-46.425781 24.859375-72.035156 30.984375-5.390625-4.84375-11.046875-9.382812-16.949218-13.59375l78.566406-28.511718c3.445312 3.441406 6.886718 7.148437 10.417968 11.121093zm0 0" fill="#285680"/><path d="m512 44.136719-44.136719 211.863281c-4.609375 4.1875-9.636719 7.886719-15.007812 11.035156-25.160157 15.449219-84.570313 41.929688-196.855469 41.929688s-171.695312-26.480469-196.855469-41.929688c-5.371093-3.148437-10.398437-6.847656-15.007812-11.035156l-44.136719-211.863281s4.679688 3.796875 13.59375 9.710937c2.824219 1.855469 6.089844 3.972656 9.800781 6.269532 70.257813 42.058593 150.71875 64.011718 232.605469 63.46875 81.886719.542968 162.347656-21.410157 232.605469-63.46875 3.710937-2.296876 6.976562-4.414063 9.800781-6.269532 8.914062-5.914062 13.59375-9.710937 13.59375-9.710937zm0 0" fill="#84b5cb"/><path d="m488.605469 60.117188-35.398438 206.476562c-.09375.164062-.214843.3125-.351562.441406-25.160157 15.449219-84.570313 41.929688-196.855469 41.929688s-171.695312-26.480469-196.855469-41.929688c-.136719-.128906-.257812-.277344-.351562-.441406l-35.398438-206.476562c70.257813 42.058593 150.71875 64.011718 232.605469 63.46875 81.886719.542968 162.347656-21.410157 232.605469-63.46875zm0 0" fill="#9fc9d3"/><path d="m498.40625 53.847656c-72.34375 46.230469-156.554688 70.457032-242.40625 69.738282-85.851562.71875-170.0625-23.507813-242.40625-69.738282l.882812-1.324218c6.355469-.265626 14.390626-.792969 23.570313-1.589844 66.847656 36.429687 141.824219 55.351562 217.953125 54.996094 76.128906.355468 151.105469-18.566407 217.953125-54.996094 9.179687.796875 17.214844 1.324218 23.570313 1.589844zm0 0" fill="#2fa8cc"/><path d="m76.03125 244.832031c-4.1875-.007812-7.792969-2.957031-8.632812-7.0625l-25.28125-121.316406c-.996094-4.773437 2.066406-9.449219 6.839843-10.441406 4.773438-.996094 9.449219 2.066406 10.445313 6.839843l25.28125 121.351563c.476562 2.292969.023437 4.679687-1.257813 6.640625-1.285156 1.957031-3.292969 3.328125-5.585937 3.804688-.59375.125-1.199219.1875-1.808594.183593zm0 0" fill="#ecf0f1"/><g fill="#285680"><path d="m256 203.035156c-14.625 0-26.484375-11.855468-26.484375-26.484375 0-14.625 11.859375-26.480469 26.484375-26.480469s26.484375 11.855469 26.484375 26.480469c0 14.628907-11.859375 26.484375-26.484375 26.484375zm0-35.3125c-4.875 0-8.828125 3.953125-8.828125 8.828125s3.953125 8.828125 8.828125 8.828125 8.828125-3.953125 8.828125-8.828125-3.953125-8.828125-8.828125-8.828125zm0 0"/><path d="m256 282.484375c-4.875 0-8.828125-3.953125-8.828125-8.828125v-79.449219c0-4.875 3.953125-8.828125 8.828125-8.828125s8.828125 3.953125 8.828125 8.828125v79.449219c0 4.875-3.953125 8.828125-8.828125 8.828125zm0 0"/><path d="m256 282.484375c-61.085938 0-61.792969-43.699219-61.792969-44.140625-.027343-4.875 3.902344-8.847656 8.777344-8.875s8.851563 3.902344 8.878906 8.777344c.078125 2.800781 2.011719 26.582031 44.136719 26.582031 4.875 0 8.828125 3.953125 8.828125 8.828125s-3.953125 8.828125-8.828125 8.828125zm0 0"/><path d="m185.378906 264.828125c-3.570312 0-6.789062-2.152344-8.152344-5.449219-1.367187-3.300781-.613281-7.09375 1.910157-9.621094l17.65625-17.652343c3.464843-3.347657 8.96875-3.300781 12.375.105469s3.453125 8.910156.109375 12.375l-17.65625 17.65625c-1.65625 1.65625-3.902344 2.585937-6.242188 2.585937zm0 0"/><path d="m256 282.484375c-4.875 0-8.828125-3.953125-8.828125-8.828125s3.953125-8.828125 8.828125-8.828125c42.203125 0 44.066406-23.835937 44.136719-26.597656.253906-4.78125 4.15625-8.554688 8.945312-8.652344 4.816407.035156 8.707031 3.949219 8.710938 8.765625 0 .441406-.707031 44.140625-61.792969 44.140625zm0 0"/><path d="m326.621094 264.828125c-2.339844 0-4.585938-.929687-6.242188-2.585937l-17.65625-17.65625c-3.34375-3.464844-3.296875-8.96875.109375-12.375s8.910157-3.453126 12.375-.105469l17.65625 17.652343c2.523438 2.527344 3.277344 6.320313 1.910157 9.621094-1.363282 3.296875-4.582032 5.449219-8.152344 5.449219zm0 0"/><path d="m264.828125 229.515625h-17.65625c-4.875 0-8.828125-3.949219-8.828125-8.824219 0-4.878906 3.953125-8.828125 8.828125-8.828125h17.65625c4.875 0 8.828125 3.949219 8.828125 8.828125 0 4.875-3.953125 8.824219-8.828125 8.824219zm0 0"/></g></svg>