<svg height="512pt" viewBox="0 0 512 512" width="512pt" xmlns="http://www.w3.org/2000/svg"><path d="m512 229.515625c0 114.761719-70.621094 141.242187-70.621094 141.242187v-61.792968c-57.578125-28.769532-121.015625-43.875-185.378906-44.136719-64.363281.261719-127.800781 15.367187-185.378906 44.136719v61.792968s-70.621094-26.480468-70.621094-141.242187c0-114.757813 167.722656-229.515625 256-229.515625s256 114.757812 256 229.515625zm0 0" fill="#35495e"/><path d="m494.34375 229.515625c0 114.761719-65.746094 141.242187-65.746094 141.242187v-61.792968c-53.066406-28.578125-112.324218-43.730469-172.597656-44.136719-60.273438.40625-119.53125 15.558594-172.597656 44.136719v61.792968s-65.746094-26.480468-65.746094-141.242187c0-114.757813 156.160156-229.515625 238.34375-229.515625s238.34375 114.757812 238.34375 229.515625zm0 0" fill="#3f5c6c"/><path d="m70.292969 326.621094c-3.945313 0-24.582031-2.402344-43.511719-49.691406-1.808594-4.527344.394531-9.667969 4.921875-11.480469 4.53125-1.808594 9.671875.394531 11.480469 4.921875 14.425781 36.085937 27.632812 38.59375 27.765625 38.59375 2.308593.007812 4.515625.953125 6.117187 2.617187 1.601563 1.660157 2.460938 3.902344 2.382813 6.210938-.144531 4.941406-4.210938 8.863281-9.15625 8.828125zm0 0" fill="#35495e"/><path d="m441.378906 326.621094c-4.875.160156-8.957031-3.660156-9.117187-8.535156-.164063-4.875 3.660156-8.960938 8.535156-9.121094 1.050781-.238282 13.804687-3.875 27.691406-38.609375 1.8125-4.53125 6.957031-6.730469 11.484375-4.917969 4.53125 1.8125 6.730469 6.953125 4.917969 11.484375-18.925781 47.304687-39.566406 49.699219-43.511719 49.699219zm0 0" fill="#35495e"/><path d="m443.585938 498.847656c-2.117188 5.472656-4.765626 13.152344-10.417969 13.152344-1.675781 0-3.265625-.089844-4.941407-.175781-25.777343-2.03125-47.933593-19.507813-67.53125-37.519531-29.394531-27.097657-64.617187-61.171876-104.605468-61.261719h-.089844c-39.988281 0-75.300781 34.164062-104.695312 61.261719-19.597657 18.011718-41.753907 35.488281-67.53125 37.519531-1.675782.085937-3.265626.175781-4.941407.175781-5.652343 0-8.300781-7.679688-10.417969-13.152344-14.566406-36.457031-4.503906-105.226562 2.207032-128.089844 0 0 8.03125-4.414062 22.332031-10.503906 51.621094-21.785156 107.019531-33.210937 163.046875-33.632812 56.027344.421875 111.425781 11.847656 163.046875 33.632812 14.300781 6.089844 22.332031 10.503906 22.332031 10.503906 6.710938 22.863282 16.773438 91.632813 2.207032 128.089844zm0 0" fill="#2c3e50"/><path d="m428.226562 511.824219c-25.777343-2.03125-47.933593-19.507813-67.53125-37.519531-29.394531-27.097657-64.617187-61.171876-104.605468-61.261719h-.089844c-39.988281 0-75.300781 34.164062-104.695312 61.261719-19.597657 18.011718-41.753907 35.488281-67.53125 37.519531-9.445313-46.785157-1.234376-121.910157 4.414062-148.214844 0 0 1.675781-1.238281 4.765625-3.355469 51.621094-21.785156 107.019531-33.210937 163.046875-33.632812 56.027344.421875 111.425781 11.847656 163.046875 33.632812 3.089844 2.117188 4.765625 3.355469 4.765625 3.355469 5.648438 26.304687 13.859375 101.429687 4.414062 148.214844zm0 0" fill="#35495e"/><path d="m441.378906 308.964844v61.792968s-6.265625-3.53125-17.65625-8.472656c-52.917968-23.109375-109.976562-35.242187-167.722656-35.664062-57.746094.421875-114.804688 12.554687-167.722656 35.664062-11.390625 4.941406-17.65625 8.472656-17.65625 8.472656v-61.792968s6.265625-3.53125 17.65625-8.472656c52.917968-23.109376 109.976562-35.242188 167.722656-35.664063 57.746094.421875 114.804688 12.554687 167.722656 35.664063 11.390625 4.941406 17.65625 8.472656 17.65625 8.472656zm0 0" fill="#b19046"/><path d="m423.722656 300.492188v61.792968c-52.917968-23.109375-109.976562-35.242187-167.722656-35.664062-57.746094.421875-114.804688 12.554687-167.722656 35.664062v-61.792968c52.917968-23.109376 109.976562-35.242188 167.722656-35.664063 57.746094.421875 114.804688 12.554687 167.722656 35.664063zm0 0" fill="#e4c05c"/><path d="m317.792969 406.070312c-2.308594 0-4.527344-.902343-6.179688-2.515624-.441406-.417969-16.703125-15.140626-55.613281-15.140626-39.273438 0-55.464844 15.007813-55.613281 15.140626-3.496094 3.242187-8.933594 3.125-12.285157-.265626-3.351562-3.394531-3.402343-8.832031-.117187-12.289062.8125-.820312 20.761719-20.242188 68.015625-20.242188s67.203125 19.421876 68.035156 20.242188c2.523438 2.523438 3.277344 6.320312 1.910156 9.621094-1.363281 3.296875-4.582031 5.445312-8.152343 5.449218zm0 0" fill="#3f5c6c"/><path d="m291.308594 194.207031c0 19.5-15.808594 35.308594-35.308594 35.308594s-35.308594-15.808594-35.308594-35.308594 15.808594-35.308593 35.308594-35.308593 35.308594 15.808593 35.308594 35.308593zm0 0" fill="#b19046"/><g fill="#e4c05c"><path d="m185.378906 97.101562c19.5 0 35.3125 15.8125 35.3125 35.3125v52.964844c-.007812 3.101563-.828125 6.144532-2.386718 8.828125l-2.824219 3.621094c-3.269531 3.351563-7.761719 5.230469-12.445313 5.207031h-16.667968c-9.390626.183594-17.398438-6.769531-18.539063-16.09375-.402344-4.921875 1.257813-9.789062 4.585937-13.433594 3.332032-3.644531 8.027344-5.742187 12.964844-5.785156h-25.492187c-9.394531.183594-17.402344-6.765625-18.539063-16.089844-.40625-4.921874 1.257813-9.789062 4.585938-13.433593 3.328125-3.648438 8.027344-5.742188 12.964844-5.785157h-25.496094c-9.390625.183594-17.398438-6.769531-18.539063-16.09375-.402343-4.921874 1.257813-9.789062 4.585938-13.433593 3.332031-3.644531 8.027343-5.742188 12.964843-5.785157zm0 0"/><path d="m326.621094 97.101562c-19.5 0-35.3125 15.8125-35.3125 35.3125v52.964844c.007812 3.101563.828125 6.144532 2.386718 8.828125l2.824219 3.621094c3.269531 3.351563 7.761719 5.230469 12.445313 5.207031h16.667968c9.390626.183594 17.398438-6.769531 18.539063-16.09375.402344-4.921875-1.257813-9.789062-4.585937-13.433594-3.332032-3.644531-8.027344-5.742187-12.964844-5.785156h25.492187c9.394531.183594 17.402344-6.765625 18.539063-16.089844.40625-4.921874-1.257813-9.789062-4.585938-13.433593-3.328125-3.648438-8.027344-5.742188-12.964844-5.785157h25.496094c9.390625.183594 17.398438-6.769531 18.539063-16.09375.402343-4.921874-1.257813-9.789062-4.585938-13.433593-3.332031-3.644531-8.027343-5.742188-12.964843-5.785157zm0 0"/></g></svg>