<svg height="512pt" viewBox="0 0 512 512.00023" width="512pt" xmlns="http://www.w3.org/2000/svg"><path d="m454.53125 30.984375c-19.859375-19.890625-46.835938-31.0429688-74.945312-30.984375h-17.65625c-58.503907 0-105.929688 47.425781-105.929688 105.929688v141.242187c0-58.503906-47.425781-105.929687-105.929688-105.929687h-17.65625c-28.105468-.039063-55.070312 11.109374-74.945312 30.984374s-31.023438 46.839844-30.984375 74.945313h26.480469c34.128906 0 61.792968 27.667969 61.792968 61.792969v194.207031c0 4.875 3.953126 8.828125 8.828126 8.828125h264.828124c4.875 0 8.828126-3.953125 8.828126-8.828125v-335.449219c0-34.125 27.664062-61.792968 61.792968-61.792968h26.480469c.0625-28.109376-11.089844-55.082032-30.984375-74.945313zm-39.632812 30.808594c-3.171876-.003907-6.339844.171875-9.492188.53125 3.152344-.347657 6.320312-.523438 9.492188-.53125zm-32.980469 6.4375c-1.113281.449219-2.199219.933593-3.285157 1.429687 1.085938-.496094 2.171876-.980468 3.285157-1.429687zm15.683593-4.671875c-1.136718.222656-2.242187.546875-3.363281.8125 1.121094-.316406 2.226563-.625 3.363281-.8125zm-7.941406 2.003906c-1.167968.34375-2.296875.757812-3.445312 1.148438 1.113281-.433594 2.242187-.847657 3.410156-1.191407zm-15.125 6.125c-1.011718.53125-2.027344 1.070312-3.027344 1.632812.964844-.605468 1.96875-1.144531 2.992188-1.675781zm-7.113281 4.113281c-.882813.585938-1.765625 1.140625-2.648437 1.765625.8125-.667968 1.710937-1.226562 2.613281-1.808594zm-6.921875 4.925781c-.695312.550782-1.421875 1.0625-2.101562 1.625.644531-.609374 1.371093-1.136718 2.066406-1.667968zm-206.898438 142.824219c-.679687-.566406-1.40625-1.078125-2.101562-1.625.730469.53125 1.457031 1.058594 2.101562 1.625zm-20.304687-12.652343c-1.085937-.492188-2.171875-.976563-3.285156-1.429688 1.183593.453125 2.269531.9375 3.355469 1.429688zm13.921875 7.847656c-.882812-.605469-1.765625-1.164063-2.648438-1.765625.945313.601562 1.84375 1.160156 2.71875 1.765625zm-6.761719-4.226563c-1-.566406-2.015625-1.105469-3.027343-1.632812 1.09375.527343 2.097656 1.066406 3.097656 1.625zm-14.707031-6.613281c-1.148438-.386719-2.277344-.800781-3.445312-1.144531 1.28125.34375 2.367187.757812 3.515624 1.144531zm-8.058594-2.339844c-1.121094-.261718-2.226562-.589844-3.363281-.808594 1.207031.226563 2.3125.535157 3.433594.808594zm-11.167968-2.003906c-3.128907-.351562-6.273438-.53125-9.417969-.527344 3.167969.007813 6.335937.183594 9.488281.527344zm0 0" fill="#4482c3"/><path d="m114.757812 459.035156h282.484376v44.136719c0 4.875-3.953126 8.828125-8.828126 8.828125h-264.828124c-4.875 0-8.828126-3.953125-8.828126-8.828125zm0 0" fill="#d25627"/><path d="m132.414062 459.035156h247.171876v44.136719c0 4.875-3.953126 8.828125-8.828126 8.828125h-229.515624c-4.875 0-8.828126-3.953125-8.828126-8.828125zm0 0" fill="#e57e25"/><path d="m256 247.171875v211.863281h-70.621094v-167.722656c0-48.753906-39.523437-88.277344-88.273437-88.277344-28.785157.003906-54.691407 17.460938-65.503907 44.136719h-5.117187c-.039063-28.105469 11.109375-55.070313 30.984375-74.945313s46.839844-31.023437 74.945312-30.984374h17.65625c28.09375 0 55.039063 11.160156 74.902344 31.027343 19.867188 19.863281 31.027344 46.808594 31.027344 74.902344zm0 0" fill="#285680"/><path d="m485.515625 105.929688h-5.117187c-10.8125-26.675782-36.71875-44.128907-65.5-44.136719-48.753907 0-88.277344 39.523437-88.277344 88.277343v308.964844h-70.621094v-353.105468c0-58.503907 47.425781-105.929688 105.929688-105.929688h17.65625c28.105468-.0390625 55.074218 11.109375 74.945312 30.984375 19.875 19.875 31.023438 46.839844 30.984375 74.945313zm0 0" fill="#f0c419"/><path d="m459.035156 105.929688c-34.128906 0-61.792968 27.667968-61.792968 61.792968v291.3125h-17.65625v-291.3125c0-34.125 27.667968-61.792968 61.792968-61.792968zm0 0" fill="#e57e25"/><path d="m480.398438 105.929688h-39.019532c-34.125 0-61.792968 27.667968-61.792968 61.792968v291.3125h-52.964844v-308.964844c.007812-45.058593 33.945312-82.882812 78.742187-87.746093 3.164063-.359375 6.347657-.535157 9.535157-.53125 28.78125.007812 54.6875 17.460937 65.5 44.136719zm0 0" fill="#f29c1f"/><path d="m132.414062 308.964844v150.070312h-17.65625v-150.070312c0-34.125-27.664062-61.792969-61.792968-61.792969h17.65625c34.128906 0 61.792968 27.667969 61.792968 61.792969zm0 0" fill="#285680"/><path d="m185.378906 291.3125v167.722656h-52.964844v-150.070312c0-34.125-27.664062-61.792969-61.792968-61.792969h-39.019532c10.8125-26.675781 36.71875-44.132813 65.503907-44.136719 3.183593-.003906 6.367187.171875 9.53125.527344 44.796875 4.867188 78.734375 42.691406 78.742187 87.75zm0 0" fill="#4482c3"/><path d="m512 132.414062c0 14.625-11.855469 26.484376-26.484375 26.484376-14.625 0-26.480469-11.859376-26.480469-26.484376s11.855469-26.484374 26.480469-26.484374c14.628906 0 26.484375 11.859374 26.484375 26.484374zm0 0" fill="#e64c3c"/><path d="m52.964844 273.65625c0 14.625-11.855469 26.480469-26.480469 26.480469-14.628906 0-26.484375-11.855469-26.484375-26.480469s11.855469-26.484375 26.484375-26.484375c14.625 0 26.480469 11.859375 26.480469 26.484375zm0 0" fill="#2fa8cc"/></svg>