<svg height="512pt" viewBox="0 -18 512 512" width="512pt" xmlns="http://www.w3.org/2000/svg"><path d="m509.988281 139.003906c.40625-.597656.773438-1.222656 1.09375-1.871094l.070313-.167968c.21875-.464844.402344-.941406.554687-1.429688v-.097656c.117188-.3125.214844-.628906.292969-.953125v-.414063c-26.484375-132.414062-238.34375-150.070312-300.136719-123.585937-149.1875 63.910156-211.863281 229.515625-211.863281 229.515625 1.429688 1.101562 2.933594 2.105469 4.503906 3v-.042969c17.882813 9.3125 37.578125 14.621094 57.722656 15.554688h-.1875c-.175781 3.53125-.261718 7.0625-.261718 10.679687.015625 114.609375 77.082031 207.476563 172.152344 207.476563 72.742187 0 134.796874-54.289063 160.132812-131.089844v-.054687c28.929688 22.847656 64.972656 27.261718 64.972656-8.421876v-114.757812c16.152344-5.382812 12.621094-27.277344 7.328125-43.429688-1.492187-4.601562-1.042969-9.609374 1.238281-13.871093 2.28125-4.265625 6.199219-7.414063 10.855469-8.726563 20.238281-5.597656 28.246094-12.527344 31.414063-17.152344zm-220.003906 96.582032c-1.628906-1.980469-3.019531-4.140626-4.148437-6.445313 1.132812 2.300781 2.527343 4.460937 4.148437 6.445313zm5.15625 5.296874c-1.296875-1.164062-2.523437-2.402343-3.679687-3.707031 1.15625 1.3125 2.386718 2.558594 3.679687 3.734375zm-61.210937 200.472657c-75.472657 0-136.828126-77.238281-136.828126-172.136719 0-.316406.097657-1.660156.238282-3.398438 77.933594 15.410157 158.15625 15.15625 235.988281-.75 13.425781 8.640626 23.511719 21.589844 28.601563 36.722657 1.230468 3.636719 2.726562 7.175781 4.476562 10.59375-15.296875 74.105469-68.855469 128.96875-132.476562 128.96875zm63.65625-198.453125c1.820312 1.421875 3.707031 2.800781 5.738281 4.105468-2.011719-1.304687-3.929688-2.683593-5.738281-4.105468zm7.25 5.113281c6.175781 3.847656 13.035156 7.476563 19.90625 11.589844-6.878907-4.105469-13.746094-7.722657-19.90625-11.574219zm0 0" fill="#2fa8cc"/><path d="m366.433594 312.210938v.085937c-15.273438 74.152344-68.855469 129.058594-132.503906 129.058594-75.472657 0-136.828126-77.238281-136.828126-172.136719 0-1.148438 1.21875-14.9375 1.308594-15.996094l-36.351562 5.296875c-.175782 3.53125-.265625 7.0625-.265625 10.683594 0 114.597656 77.066406 207.464844 172.136719 207.464844 72.742187 0 134.796874-54.289063 160.132812-131.089844v-.089844zm0 0" fill="#2c3e50"/><path d="m459.035156 222.34375v114.757812c0 52.96875-79.449218 17.65625-97.105468-35.308593-5.089844-15.132813-15.175782-28.082031-28.601563-36.722657-12.976563-9.09375-27.277344-14.917968-37.339844-23.304687-4.234375-3.449219-7.691406-7.75-10.152343-12.625l82.007812-16.507813zm0 0" fill="#547580"/><path d="m333.328125 265.070312c-124.554687 27.894532-242.582031.265626-266.945313-6.179687 55.046876 2.664063 110.15625-3.714844 163.132813-18.890625 18.484375-4.984375 37.308594-8.613281 56.320313-10.859375 7.945312 16.6875 28.957031 23.042969 47.492187 35.929687zm0 0" fill="#2c3e50"/><path d="m423.722656 273.632812c0 9.75-7.902344 17.65625-17.652344 17.65625-9.753906 0-17.65625-7.90625-17.65625-17.65625s7.902344-17.65625 17.65625-17.65625c9.75 0 17.652344 7.90625 17.652344 17.65625zm0 0" fill="#3f5c6c"/><path d="m459.035156 222.34375v13.773438c-20.480468 6.882812-88.363281-2.121094-163.046875 5.648437-4.234375-3.449219-7.691406-7.75-10.152343-12.625l82.007812-16.507813zm0 0" fill="#3f5c6c"/><path d="m512 134.070312s0 12.976563-33.542969 22.246094c-4.65625 1.3125-8.574219 4.460938-10.855469 8.726563-2.28125 4.261719-2.730468 9.269531-1.238281 13.871093 5.292969 16.152344 8.824219 38.046876-7.328125 43.429688-21.363281 7.152344-94.632812-3-173.199218 6.796875-19.011719 2.246094-37.835938 5.875-56.320313 10.859375-52.976563 15.175781-108.085937 21.554688-163.132813 18.890625h-.175781c-29.132812-2.207031-52.347656-8.5625-66.207031-18.890625 0 0 62.675781-165.605469 211.863281-229.515625 61.792969-26.484375 273.652344-8.828125 300.136719 123.585937zm0 0" fill="#2fa8cc"/><path d="m512 134.070312c-.21875 1.867188-.953125 3.640626-2.117188 5.117188-33.722656-124.554688-237.640624-140.796875-298.019531-114.933594-126.324219 54.113282-190.589843 181.054688-207.359375 218.746094-1.570312-.894531-3.074218-1.898438-4.503906-3 0 0 62.675781-165.605469 211.863281-229.515625 61.792969-26.484375 273.652344-8.828125 300.136719 123.585937zm0 0" fill="#67b9cc"/><path d="m110.34375 229.496094c-14.929688.652344-29.824219-1.925782-43.667969-7.558594-4.253906-2.222656-5.949219-7.4375-3.820312-11.738281 2.128906-4.300781 7.300781-6.113281 11.648437-4.078125.882813.394531 51.617188 23.277344 151.066406-26.484375 64.328126-32.671875 136.996094-45.246094 208.5625-36.097657 4.796876.871094 7.980469 5.464844 7.109376 10.265626-.871094 4.796874-5.464844 7.980468-10.261719 7.109374-67.800781-8.089843-136.480469 3.914063-197.515625 34.523438-54.222656 27.136719-95.296875 34.058594-123.121094 34.058594zm0 0" fill="#285680"/><path d="m167.722656 88.253906c-.8125 5.089844-2.023437 10.105469-3.617187 15.007813-9.015625 31.183593-31.816407 56.523437-61.882813 68.765625-4.535156 1.828125-9.195312 3.332031-13.945312 4.503906 13.097656-39.167969 41.871094-71.140625 79.445312-88.277344zm0 0" fill="#3f5c6c"/><path d="m164.105469 103.261719c-9.015625 31.183593-31.816407 56.523437-61.882813 68.765625 12.792969-28.917969 34.46875-53.007813 61.882813-68.765625zm0 0" fill="#35495e"/><path d="m300.136719 30.609375c-2.242188 2.742187-4.660157 5.335937-7.238281 7.769531-23.96875 24.328125-58.101563 35.769532-91.894532 30.808594-4.84375-.730469-9.621094-1.820312-14.300781-3.265625 31.300781-26.953125 72.367187-39.734375 113.433594-35.3125zm0 0" fill="#3f5c6c"/><path d="m292.898438 38.378906c-23.96875 24.328125-58.101563 35.769532-91.894532 30.808594 26.390625-20.136719 58.703125-30.972656 91.894532-30.808594zm0 0" fill="#35495e"/><path d="m176.550781 165.460938c21.492188-35.269532 56.65625-60.03125 97.105469-68.378907 0 0-24.328125 66.886719-97.105469 68.378907zm0 0" fill="#3f5c6c"/><path d="m459.035156 132.390625c-3.53125 0-6.722656-2.101563-8.113281-5.347656-24.3125-56.71875-107.527344-74.097657-108.410156-74.277344-4.777344-.972656-7.863281-5.636719-6.886719-10.414063.976562-4.777343 5.636719-7.863281 10.417969-6.886718 3.792969.75 93.148437 19.316406 121.140625 84.621094 1.171875 2.734374.886718 5.871093-.753906 8.351562-1.640626 2.480469-4.421876 3.964844-7.394532 3.953125zm0 0" fill="#285680"/><path d="m273.65625 97.082031c-1.71875 4.296875-3.753906 8.457031-6.09375 12.445313-15.460938 28.742187-43.242188 48.8125-75.386719 54.46875-5.160156.917968-10.382812 1.417968-15.625 1.5 21.496094-35.269532 56.65625-60.042969 97.105469-68.414063zm0 0" fill="#3f5c6c"/><path d="m267.5625 109.527344c-15.460938 28.742187-43.242188 48.8125-75.386719 54.46875 18.746094-25.664063 45.136719-44.730469 75.386719-54.46875zm0 0" fill="#35495e"/></svg>