<svg height="512pt" viewBox="-44 0 512 512" width="512pt" xmlns="http://www.w3.org/2000/svg"><path d="m256.203125 167.722656.089844.707032-10.859375 1.058593c-11.085938 1.132813-22.222656 1.691407-33.367188 1.679688-11.144531.011719-22.28125-.546875-33.371094-1.679688l-10.855468-1.058593.085937-.707032c0-22.332031-.441406-43.253906-1.234375-62.234375 27.101563-21.804687 39.636719-51.023437 28.25-70.621093-7.621094-11.324219-20.425781-18.0625-34.078125-17.917969-.792969-8.5625-1.5-14.125-1.675781-16.15625 5.738281-.527344 11.476562-.792969 17.390625-.792969h70.972656c5.914063 0 11.652344.265625 17.390625.792969-5.980468 55.441406-8.898437 111.167969-8.738281 166.929687zm0 0" fill="#f0c419"/><path d="m423.925781 184.9375-.527343 11.917969v.175781l-3.707032 77.507812c-2.9375 61.355469-31.3125 118.714844-78.300781 158.277344l-81.65625 68.765625c-7.964844 6.695313-18.023437 10.382813-28.425781 10.417969h-38.488282c-10.402343-.035156-20.460937-3.722656-28.425781-10.417969l-81.652343-68.765625c-46.992188-39.5625-75.367188-96.921875-78.300782-158.277344l-3.445312-73.359374-.175782-4.148438-.617187-12.09375c-4.472656-93.914062 65.421875-174.867188 158.984375-184.144531 5.980469 55.441406 8.898438 111.167969 8.738281 166.929687l-.085937.707032-92.425782-9.355469c-10.21875-.972657-20.375 2.410156-27.972656 9.316406s-11.925781 16.699219-11.929687 26.964844c.003906 1.386719.089843 2.773437.265625 4.148437l3.796875 25.863282c8.199219 54.6875 51.703125 97.289062 106.550781 104.34375l28.863281 3.707031c12.316407 1.335937 24.691407 2.015625 37.078125 2.03125 12.382813-.015625 24.761719-.695313 37.074219-2.03125l28.867187-3.707031c54.847657-7.054688 98.347657-49.65625 106.546876-104.34375l3.796874-25.863282c.175782-1.375.265626-2.761718.265626-4.148437 0-10.265625-4.332032-20.058594-11.929688-26.964844-7.59375-6.90625-17.75-10.289063-27.972656-9.316406l-92.421875 9.355469-.089844-.707032c-.160156-55.761718 2.757813-111.488281 8.738281-166.929687 93.566406 9.277343 163.457032 90.230469 158.984375 184.144531zm0 0" fill="#e64c3c"/><path d="m423.925781 167.8125c.265625 5.648438.265625 11.386719 0 17.125l-.527343 11.917969v.175781l-3.707032 77.507812c-2.9375 61.355469-31.3125 118.714844-78.300781 158.277344l-81.65625 68.765625c-7.964844 6.695313-18.023437 10.382813-28.425781 10.417969h-38.488282c-10.402343-.035156-20.460937-3.722656-28.425781-10.417969l-81.652343-68.765625c-46.992188-39.5625-75.367188-96.921875-78.300782-158.277344l-3.445312-73.359374-.175782-4.148438-.617187-12.09375c-.265625-5.738281-.265625-11.476562 0-17.125l.617187 11.5625.175782 4.152344.621094 13.417968 2.824218 59.9375c2.933594 61.359376 31.308594 118.714844 78.300782 158.277344l81.652343 68.769532c7.964844 6.691406 18.023438 10.378906 28.425781 10.414062h38.488282c10.402344-.035156 20.460937-3.722656 28.425781-10.414062l81.65625-68.769532c46.988281-39.5625 75.363281-96.917968 78.300781-158.277344l2.824219-59.9375.882813-17.570312v-.175781zm0 0" fill="#c03a2b"/><path d="m388.617188 195.355469c0 1.386719-.089844 2.773437-.265626 4.148437l-3.796874 25.863282c-8.199219 54.6875-51.699219 97.289062-106.546876 104.34375l-28.867187 3.707031c-12.3125 1.335937-24.691406 2.015625-37.074219 2.03125-12.386718-.015625-24.761718-.695313-37.078125-2.03125l-28.863281-3.707031c-34.296875-4.367188-65.175781-22.945313-85.101562-51.199219-11.289063-15.75-18.644532-33.972657-21.449219-53.144531l-3.796875-25.863282c-.175782-1.375-.261719-2.761718-.265625-4.148437.003906-10.265625 4.332031-20.058594 11.929687-26.964844s17.753906-10.289063 27.972656-9.316406l92.425782 9.355469 10.855468 1.058593c11.089844 1.132813 22.226563 1.691407 33.371094 1.679688 11.144532.011719 22.28125-.546875 33.367188-1.679688l10.859375-1.058593 92.421875-9.355469c9.925781-.9375 19.796875 2.234375 27.320312 8.773437 7.523438 6.539063 12.039063 15.871094 12.492188 25.828125.074218.558594.105468 1.117188.089844 1.679688zm0 0" fill="#67b9cc"/><path d="m388.617188 195.355469c0 1.386719-.089844 2.773437-.265626 4.148437l-3.796874 25.863282c-8.199219 54.6875-51.699219 97.289062-106.546876 104.34375l-28.867187 3.707031c-12.3125 1.335937-24.691406 2.015625-37.074219 2.03125-12.386718-.015625-24.761718-.695313-37.078125-2.03125l-28.863281-3.707031c-34.296875-4.367188-65.175781-22.945313-85.101562-51.199219 38.3125-26.660157 143.804687-85.539063 327.503906-84.835938.074218.558594.105468 1.117188.089844 1.679688zm0 0" fill="#2fa8cc"/><path d="m212.066406 476.691406h19.171875c4.683594-.003906 9.171875-1.863281 12.484375-5.175781l16.136719-16.136719c3.308594-3.308594 5.171875-7.800781 5.171875-12.480468v-60.125c0-5.191407-2.285156-10.117188-6.242188-13.472657-3.960937-3.355469-9.199218-4.796875-14.316406-3.945312l-29.503906 4.917969c-1.921875.316406-3.882812.316406-5.808594 0l-29.5-4.917969c-5.121094-.851563-10.355468.589843-14.316406 3.945312s-6.246094 8.28125-6.242188 13.472657v60.125c0 4.679687 1.859376 9.171874 5.171876 12.480468l16.136718 16.136719c3.308594 3.3125 7.800782 5.171875 12.480469 5.175781zm0 0" fill="#35495e"/><path d="m212.066406 414.898438c-1.367187.011718-2.71875-.289063-3.945312-.882813l-17.65625-8.828125c-4.363282-2.179688-6.136719-7.484375-3.957032-11.847656 2.179688-4.363282 7.484376-6.132813 11.847657-3.953125l13.710937 6.8125 13.707032-6.859375c2.824218-1.410156 6.183593-1.207032 8.816406.535156 2.632812 1.738281 4.136718 4.75 3.945312 7.898438-.191406 3.148437-2.046875 5.957031-4.867187 7.367187l-17.65625 8.828125c-1.226563.613281-2.578125.929688-3.945313.929688zm0 0" fill="#2c3e50"/><path d="m212.066406 459.035156c-1.367187.015625-2.71875-.289062-3.945312-.882812l-17.65625-8.828125c-4.363282-2.179688-6.136719-7.484375-3.957032-11.847657 2.179688-4.363281 7.484376-6.132812 11.847657-3.953124l13.710937 6.8125 13.707032-6.855469c2.824218-1.410157 6.183593-1.207031 8.816406.53125 2.632812 1.738281 4.136718 4.75 3.945312 7.902343-.191406 3.148438-2.046875 5.957032-4.867187 7.367188l-17.65625 8.828125c-1.226563.609375-2.578125.925781-3.945313.925781zm0 0" fill="#2c3e50"/><path d="m166.691406 105.488281c-1.414062-39.457031-4.0625-70.621093-5.828125-88.539062 13.652344-.144531 26.457031 6.59375 34.078125 17.917969 11.386719 19.597656-1.148437 48.816406-28.25 70.621093zm0 0" fill="#f3d55b"/><path d="m166.691406 105.488281c-5.121094 4.121094-10.550781 7.839844-16.242187 11.125-38.046875 21.980469-79.714844 20.921875-93.132813-2.296875-13.417968-23.214844 6.535156-59.851562 44.582032-81.832031 17.730468-10.785156 38.21875-16.183594 58.964843-15.535156 1.765625 17.917969 4.414063 49.082031 5.828125 88.539062zm0 0" fill="#fb7b76"/></svg>