<svg height="511pt" viewBox="0 -30 511.82583 511" width="511pt" xmlns="http://www.w3.org/2000/svg"><path d="m444.429688 269.441406c-.929688 0-1.851563-.152344-2.734376-.441406-60.996093-16.832031-124.523437-22.5625-187.546874-16.914062-4.792969.359374-8.96875-3.234376-9.328126-8.027344-.359374-4.792969 3.234376-8.96875 8.027344-9.328125 113.28125-8.679688 191.070313 16.6875 194.324219 17.78125 4.070313 1.320312 6.566406 5.414062 5.882813 9.640625-.683594 4.222656-4.34375 7.320312-8.625 7.289062zm0 0" fill="#35495e"/><path d="m401.066406 156.628906c-.066406 4.832032-4.019531 8.707032-8.851562 8.675782h-79.839844c-16.289062-.191407-31.984375 6.105468-43.625 17.503906-11.640625 11.394531-18.265625 26.953125-18.421875 43.242187v63.523438c-.007813 38.5-4.582031 76.863281-13.625 114.289062l-3.644531 15.011719c-13.597656 15.398438-33.171875 24.191406-53.714844 24.125h-62.132812c-4.707032.011719-9.222657-1.828125-12.585938-5.117188-1.484375-1.53125-2.710938-3.289062-3.644531-5.207031-.976563-2.214843-1.480469-4.609375-1.472657-7.03125-.082031-6.753906-4.03125-12.859375-10.15625-15.707031-2.367187-1.085938-4.941406-1.648438-7.546874-1.648438h-21.4375c-13.96875.054688-27.152344-6.472656-35.578126-17.617187-.046874-.046875-.109374-.078125-.171874-.085937-4.789063-6.429688-7.703126-14.058594-8.417969-22.042969l-15.707031-179.804688c-3.671876-48.96875 13.371093-97.226562 46.976562-133.027343 33.605469-35.800782 80.691406-55.855469 129.792969-55.285157h64.128906c40.78125-.097656 80.074219 15.285157 109.949219 43.042969 31.675781 29.101562 49.710937 70.144531 49.726562 113.160156zm0 0" fill="#c03a2b"/><path d="m392.386719 147.949219c-.066407 4.832031-4.015625 8.707031-8.851563 8.679687h-79.835937c-16.289063-.191406-31.984375 6.105469-43.625 17.5-11.640625 11.394532-18.269531 26.957032-18.421875 43.246094v63.523438c.03125 38.5-4.542969 76.871093-13.625 114.285156l-3.644532 15.015625c-13.597656 15.398437-33.175781 24.1875-53.71875 24.125h-62.132812c-2.605469-.003907-5.179688-.5625-7.550781-1.648438-.976563-2.214843-1.480469-4.609375-1.472657-7.03125-.082031-6.753906-4.03125-12.859375-10.15625-15.707031-2.929687-6.3125-9.265624-10.34375-16.226562-10.328125h-21.433594c-9.703125.03125-19.148437-3.105469-26.902344-8.9375-.046874-.046875-.109374-.078125-.171874-.085937-4.789063-6.429688-7.703126-14.058594-8.417969-22.042969l-15.707031-179.804688c-3.671876-48.96875 13.371093-97.226562 46.976562-133.027343 33.605469-35.800782 80.691406-55.855469 129.792969-55.285157h64.128906c40.78125-.097656 80.074219 15.285157 109.949219 43.042969 26.375 28.398438 41.039062 65.722656 41.046875 104.480469zm0 0" fill="#e64c3c"/><g fill="#3f5c6c"><path d="m365.597656 451.679688c-7.601562 0-15.164062-.230469-22.683594-.695313-30.007812-1.707031-59.664062-7.367187-88.195312-16.828125-6.429688-2.132812-13.015625-4.570312-19.453125-7.246094-33.308594-13.585937-64.164063-32.550781-91.328125-56.136718-2.59375-1.941407-3.886719-5.164063-3.359375-8.359376.527344-3.195312 2.789063-5.832031 5.867187-6.835937 3.082032-1.003906 6.460938-.210937 8.773438 2.058594 25.757812 22.347656 55.011719 40.316406 86.589844 53.195312 6.152344 2.542969 12.304687 4.84375 18.351562 6.839844 27.097656 8.976563 55.261719 14.347656 83.761719 15.972656 24.40625 1.46875 48.894531.476563 73.101563-2.964843 18.570312-2.507813 36.890624-6.617188 54.75-12.289063 14.859374-20.429687 22.785156-45.082031 22.625-70.34375-1.832032-42.773437-34.921876-70.292969-45.203126-77.816406-12.261718 3.402343-24.371093 6.214843-36.042968 8.359375-21.0625 4.0625-42.394532 6.601562-63.824219 7.589844-20.785156.984374-41.613281.570312-62.34375-1.238282-10.265625-.78125-20.957031-2.058594-32.585937-3.898437-18.679688-2.804688-37.15625-6.824219-55.3125-12.035157-3.070313-.78125-5.476563-3.171874-6.269532-6.242187-.792968-3.066406.152344-6.324219 2.460938-8.492187 2.3125-2.171876 5.621094-2.910157 8.632812-1.925782 17.449219 4.988282 35.199219 8.847656 53.144532 11.546875 11.210937 1.738281 21.453124 2.996094 31.355468 3.75 19.980469 1.757813 40.058594 2.160157 60.09375 1.199219 20.621094-.960938 41.148438-3.402344 61.421875-7.308594 12.460938-2.296875 25.367188-5.351562 38.445313-9.109375 2.347656-.667969 4.867187-.316406 6.941406.96875 2.195312 1.371094 53.800781 34.175781 56.40625 93.863281.316406 30-9.242188 59.273438-27.195312 83.308594-1.019532 1.484375-2.464844 2.621094-4.148438 3.253906-19.804688 6.683594-40.21875 11.398438-60.945312 14.082032-17.835938 2.507812-35.820313 3.769531-53.832032 3.777344zm0 0"/><path d="m370.207031 365.878906c-25.820312.101563-51.621093-1.496094-77.234375-4.78125l-1.988281-.257812c-14.335937-2.03125-27.203125-4.445313-38.425781-7.214844-15.019532-3.480469-29.667969-8.402344-43.746094-14.699219-4.3125-2.03125-6.179688-7.167969-4.175781-11.496093 2.003906-4.328126 7.125-6.230469 11.464843-4.253907 13.082032 5.832031 26.695313 10.386719 40.648438 13.597657 10.683594 2.605468 22.980469 4.929687 36.578125 6.863281l2.015625.253906c26.671875 3.398437 53.546875 4.941406 80.433594 4.605469h4.410156c20.496094-.171875 43.101562-1.335938 67.105469-3.46875l6.300781-.53125c15.621094-1.40625 31.953125-3.261719 48.386719-5.5 3.078125-.414063 6.140625.847656 8.039062 3.304687 1.894531 2.460938 2.332031 5.742188 1.152344 8.613281-1.179687 2.871094-3.804687 4.894532-6.882813 5.308594-16.6875 2.28125-33.261718 4.15625-49.246093 5.597656l-6.328125.527344c-24.402344 2.136719-47.46875 3.316406-68.484375 3.472656h-4.417969zm0 0"/><path d="m412.605469 447.949219c-3.378907-.003907-6.453125-1.972657-7.871094-5.042969s-.921875-6.683594 1.269531-9.261719c22.925782-26.898437 34.136719-53.722656 33.339844-79.671875-1.117188-33.992187-21.503906-60.484375-38.410156-76.816406-3.421875-3.335938-3.503906-8.8125-.183594-12.246094 3.324219-3.4375 8.796875-3.542968 12.246094-.234375 19.207031 18.554688 42.375 48.929688 43.695312 88.222657.9375 30.9375-11.671875 61.707031-37.480468 91.984374-1.644532 1.941407-4.058594 3.0625-6.605469 3.066407zm0 0"/><path d="m339.625 450.722656c-3.515625-.007812-6.683594-2.136718-8.011719-5.390625-1.332031-3.257812-.566406-6.996093 1.9375-9.464843 22.230469-19.820313 34.539063-48.46875 33.617188-78.238282-2.539063-27.222656-12.710938-53.171875-29.347657-74.867187-1.839843-2.511719-2.195312-5.820313-.921874-8.664063 1.269531-2.847656 3.964843-4.792968 7.066406-5.097656 3.101562-.308594 6.128906 1.070312 7.929687 3.609375 18.613281 24.410156 29.921875 53.597656 32.613281 84.175781 1.734376 33.558594-11.28125 64.339844-38.753906 91.449219-1.636718 1.605469-3.835937 2.5-6.128906 2.488281zm0 0"/><path d="m255.710938 433.976562c-3.472657-.003906-6.609376-2.074218-7.972657-5.265624-1.367187-3.191407-.699219-6.886719 1.695313-9.402344 18.078125-18.488282 29.953125-42.144532 33.984375-67.6875.015625-.242188.039062-.488282.078125-.726563 3.28125-24.210937.90625-48.847656-6.941406-71.984375-.941407-2.957031-.230469-6.1875 1.855468-8.476562 2.089844-2.292969 5.242188-3.292969 8.273438-2.628906 3.027344.664062 5.472656 2.890624 6.410156 5.847656 8.59375 25.53125 11.1875 52.703125 7.585938 79.402344 0 .269531-.042969.539062-.078126.746093-4.46875 29.230469-17.984374 56.328125-38.644531 77.484375-1.628906 1.710938-3.886719 2.683594-6.246093 2.691406zm0 0"/></g><path d="m201.648438 39.8125c-15.761719-29.617188-62.835938-35.371094-105.144532-12.855469-42.308594 22.519531-63.828125 64.78125-48.066406 94.398438 15.761719 29.613281 62.839844 35.367187 105.148438 12.851562 42.304687-22.519531 63.828124-64.78125 48.0625-94.394531zm0 0" fill="#fb7b76"/><path d="m225.511719 304.152344c.023437 10.367187-2.382813 20.59375-7.03125 29.863281-11.335938 23-34.753907 37.566406-60.398438 37.566406-3.164062.035157-6.324219-.222656-9.441406-.773437-35.558594-5.105469-60.84375-37.238282-57.441406-73 3.40625-35.761719 34.296875-62.550782 70.179687-60.855469 35.886719 1.695313 64.113282 31.273437 64.132813 67.199219zm0 0" fill="#35495e"/><path d="m218.828125 304.152344c.023437 9.339844-2.144531 18.554687-6.335937 26.902344-10.210938 20.722656-31.308594 33.847656-54.410157 33.84375-2.847656.03125-5.695312-.199219-8.503906-.691407-32.042969-4.597656-54.824219-33.546875-51.761719-65.769531 3.066406-32.226562 30.898438-56.363281 63.234375-54.832031 32.332031 1.527343 57.765625 28.179687 57.777344 60.546875zm0 0" fill="#2c3e50"/><path d="m175.4375 304.152344c0 9.585937-7.769531 17.355468-17.355469 17.355468-9.585937 0-17.355469-7.769531-17.355469-17.355468 0-9.585938 7.769532-17.355469 17.355469-17.355469 9.585938 0 17.355469 7.769531 17.355469 17.355469zm0 0" fill="#547580"/></svg>