<svg height="512pt" viewBox="0 -9 512 512" width="512pt" xmlns="http://www.w3.org/2000/svg"><path d="m308.964844 203.035156c37.234375 23.5 77.390625 42.019532 119.4375 55.082032l13.59375-55.523438c-31.96875-27.453125-59.042969-60.140625-80.066406-96.664062-24.511719-41.863282-61.140626-75.320313-105.046876-95.953126zm0 0" fill="#c03a2b"/><path d="m512 247.171875c0 29.253906-23.714844 52.964844-52.964844 52.964844-29.253906 0-52.964844-23.710938-52.964844-52.964844 0-29.25 23.710938-52.964844 52.964844-52.964844 29.25 0 52.964844 23.714844 52.964844 52.964844zm0 0" fill="#bdc3c7"/><path d="m494.34375 233.929688c0 21.941406-17.785156 39.726562-39.722656 39.726562s-39.722656-17.785156-39.722656-39.726562c0-21.9375 17.785156-39.722657 39.722656-39.722657s39.722656 17.785157 39.722656 39.722657zm0 0" fill="#e6e7e8"/><path d="m361.929688 176.550781c-1.738282 0-3.441407-.515625-4.890626-1.480469-24.5-16.742187-45.921874-37.59375-63.320312-61.636718-1.859375-2.546875-2.21875-5.894532-.941406-8.78125 1.273437-2.882813 3.996094-4.871094 7.132812-5.207032 3.136719-.335937 6.214844 1.023438 8.074219 3.574219 16.164063 22.375 36.074219 41.789063 58.855469 57.378907 3.21875 2.164062 4.648437 6.179687 3.523437 9.890624-1.128906 3.714844-4.550781 6.257813-8.433593 6.261719zm0 0" fill="#802f34"/><path d="m26.484375 370.757812h335.445313c14.628906 0 26.484374 11.859376 26.484374 26.484376v70.621093c0 14.625-11.855468 26.480469-26.484374 26.480469h-335.445313c-14.628906 0-26.484375-11.855469-26.484375-26.480469v-70.621093c0-14.625 11.855469-26.484376 26.484375-26.484376zm0 0" fill="#bdc3c7"/><path d="m44.136719 370.757812h300.140625c14.625 0 26.480468 11.859376 26.480468 26.484376v70.621093c0 14.625-11.855468 26.480469-26.480468 26.480469h-300.140625c-14.625 0-26.480469-11.855469-26.480469-26.480469v-70.621093c0-14.625 11.855469-26.484376 26.480469-26.484376zm0 0" fill="#e6e7e8"/><path d="m123.585938 467.863281h-88.277344c-4.875 0-8.824219-3.953125-8.824219-8.828125s3.949219-8.828125 8.824219-8.828125h88.277344c4.875 0 8.828124 3.953125 8.828124 8.828125s-3.953124 8.828125-8.828124 8.828125zm0 0" fill="#bdc3c7"/><path d="m185.378906 467.863281h-17.65625c-4.875 0-8.824218-3.953125-8.824218-8.828125s3.949218-8.828125 8.824218-8.828125h17.65625c4.875 0 8.828125 3.953125 8.828125 8.828125s-3.953125 8.828125-8.828125 8.828125zm0 0" fill="#bdc3c7"/><path d="m367.050781 353.101562c-1.234375 5.386719-3 11.214844-5.121093 17.65625h-335.445313s0-6.621093.703125-17.65625c2.296875-35.132812 11.917969-115.109374 52.261719-169.398437 52.964843-71.238281 61.792969-151.304687 97.101562-169.136719 35.3125-17.832031 88.277344-35.664062 114.757813 53.40625 26.484375 89.070313-8.824219 53.40625 26.484375 142.476563 32.484375 81.921875 64.972656 80.949219 49.257812 142.652343zm0 0" fill="#c03a2b"/><path d="m367.050781 353.101562h-339.863281c2.296875-35.132812 11.917969-115.109374 52.261719-169.398437 52.964843-71.238281 61.792969-151.304687 97.101562-169.136719 35.3125-17.832031 88.277344-35.664062 114.757813 53.40625 26.484375 89.070313-8.824219 53.40625 26.484375 142.476563 32.484375 81.921875 64.972656 80.949219 49.257812 142.652343zm0 0" fill="#e64c3c"/><path d="m97.101562 247.003906h-.324218c-4.714844-.101562-8.488282-3.945312-8.5-8.660156 0-3.46875 1.765625-22.996094 37.242187-67.308594 20.042969-24.78125 34.496094-53.601562 42.371094-84.488281 1.09375-4.632813 5.660156-7.5625 10.324219-6.628906 4.664062.933593 7.75 5.394531 6.980468 10.089843-8.347656 33.6875-24.019531 65.121094-45.90625 92.0625-31.777343 39.722657-33.375 56.496094-33.382812 56.617188-.34375 4.632812-4.160156 8.238281-8.804688 8.316406zm0 0" fill="#c03a2b"/></svg>