<svg height="512pt" viewBox="-62 0 512 512.04838" width="512pt" xmlns="http://www.w3.org/2000/svg"><path d="m79.472656 414.898438c26.484375 88.277343-35.308594 97.105468-35.308594 97.105468-12.667968.546875-25.039062-3.925781-34.429687-12.445312-4.277344-3.867188-7.601563-8.671875-9.7109375-14.039063 35.3125005-8.828125 44.1406245-35.308593 26.4843745-88.273437-13.332031-39.988282 13.503907-54.820313 27.542969-59.675782l21.097657 5.472657 18.359374 4.769531c-15.09375 12.796875-24.097656 33.632812-14.035156 67.085938zm0 0" fill="#f29c1f"/><path d="m65.4375 406.074219c26.480469 88.273437-35.3125 97.101562-35.3125 97.101562-6.964844.109375-13.886719-1.117187-20.390625-3.617187-4.277344-3.867188-7.601563-8.671875-9.7109375-14.039063 35.3125005-8.828125 44.1406245-35.308593 26.4843745-88.273437-13.332031-39.988282 13.503907-54.820313 27.542969-59.675782l21.097657 5.472657c-12.359376 13.066406-18.804688 32.925781-9.710938 63.03125zm0 0" fill="#f0c419"/><path d="m388.4375 485.519531c-2.109375 5.367188-5.433594 10.171875-9.710938 14.039063-9.386718 8.519531-21.757812 12.992187-34.425781 12.445312 0 0-61.792969-8.828125-35.3125-97.105468 10.066407-33.453126 1.0625-54.289063-14.035156-67.085938l18.363281-4.769531 21.097656-5.472657c14.035157 4.855469 40.871094 19.6875 27.542969 59.675782-17.65625 52.964844-8.828125 79.445312 26.480469 88.273437zm0 0" fill="#f29c1f"/><path d="m388.4375 485.519531c-2.109375 5.367188-5.433594 10.171875-9.710938 14.039063-6.5 2.5-13.425781 3.726562-20.390624 3.617187 0 0-61.792969-8.828125-35.308594-97.101562 9.089844-30.105469 2.648437-49.964844-9.710938-63.03125l21.097656-5.472657c14.035157 4.855469 40.871094 19.6875 27.542969 59.675782-17.65625 52.964844-8.828125 79.445312 26.480469 88.273437zm0 0" fill="#f0c419"/><path d="m141.089844 319.121094c-51.730469 2.648437-88.101563 9.003906-88.101563 16.332031-10.289062-18.386719-19.601562-37.304687-27.894531-56.675781 1.765625-.792969 3.796875-1.675782 6.179688-2.734375 2.382812-1.058594 4.945312-2.03125 7.855468-3.179688.972656-.351562 1.945313-.792969 3.003906-1.148437 1.058594-.351563 2.207032-.792969 3.351563-1.234375.429687-.1875.871094-.332031 1.324219-.441407.265625-.085937.621094-.265624.972656-.351562 0 0 0-.089844.089844 0 1.410156-.441406 2.824218-.972656 4.324218-1.5.335938-.078125.664063-.199219.972657-.355469.617187-.175781 1.324219-.441406 2.027343-.617187.339844-.078125.664063-.195313.972657-.351563.222656-.101562.460937-.160156.707031-.179687.96875-.261719 1.941406-.617188 3-.96875.53125-.175782 1.058594-.355469 1.675781-.53125h.179688c.703125-.175782 1.5-.441406 2.292969-.707032l2.824218-.792968 1.945313-.53125c.527343-.175782 1.058593-.351563 1.675781-.527344 6.003906-1.589844 12.535156-3.265625 19.597656-4.765625 10.96875 24.773437 28.640625 45.992187 51.023438 61.261719zm0 0" fill="#f29c1f"/><path d="m363.015625 278.601562c-8.226563 19.269532-17.449219 38.097657-27.632813 56.410157-1.410156-7.152344-37.25-13.332031-87.746093-15.890625 22.242187-15.316406 39.8125-36.488282 50.761719-61.175782-.179688-.085937-.265626-.175781-.441407-.175781.152344-.015625.304688.015625.441407.089844.65625.09375 1.304687.242187 1.941406.441406.703125.175781 1.410156.351563 2.027344.527344 5.5625 1.234375 10.773437 2.472656 15.625 3.882813l1.0625.265624h.085937c.175781.089844.265625.089844.441406.175782.246094.019531.484375.078125.707031.179687h.089844c.402344.144531.8125.261719 1.234375.351563 6.179688 1.765625 11.828125 3.53125 16.773438 5.207031.269531.078125.53125.164063.792969.265625.308593.078125.605468.199219.882812.355469 1.234375.351562 2.472656.792969 3.707031 1.234375 1.679688.617187 3.265625 1.234375 4.769531 1.765625.351563.175781.703126.265625 1.058594.441406.792969.265625 1.589844.617187 2.292969.882813h.089844c.085937.085937.085937.085937.175781.085937.046875.050781.109375.082031.175781.089844.089844 0 .089844 0 .175781.089843.097657-.011718.195313.019532.265626.085938.089843.089844.175781.175781.265624.175781h.089844l.085938.089844h.175781c1.238281.441406 2.386719.972656 3.53125 1.414063 2.296875 1.058593 4.328125 1.941406 6.09375 2.734374zm0 0" fill="#f29c1f"/><path d="m97.746094 256.269531 2.472656-.53125v.089844c-.832031.09375-1.660156.242187-2.472656.441406zm0 0" fill="#f0c419"/><path d="m150.09375 22.515625v11.210937c-27.035156 24.789063-51.574219 52.167969-73.269531 81.742188l-.089844.089844c-4.082031 17.085937-6.128906 34.597656-6.089844 52.167968 0 2.207032 0 4.414063.175781 6.621094v.089844c.351563 14.59375 2.1875 29.117188 5.472657 43.34375 3.136719 13.816406 7.75 27.253906 13.773437 40.078125-7.0625 1.5-13.59375 3.175781-19.597656 4.765625-.617188.175781-1.148438.351562-1.675781.527344h-.265625c-.53125.179687-1.148438.355468-1.679688.53125l-2.824218.792968c-.792969.179688-1.5.441407-2.207032.621094l-.085937.085938h-.179688c-.617187.175781-1.144531.355468-1.675781.53125l-2.648438.792968c-.085937.089844-.265624.089844-.351562.175782-.246094.019531-.484375.078125-.707031.179687-.351563.085938-.707031.261719-.972657.351563-.6875.164062-1.363281.371094-2.027343.617187-.355469.089844-.621094.265625-.972657.355469-1.148437.351562-2.207031.703125-3.265624 1.058594-.441407.175781-.707032.265625-1.058594.441406h-.089844c-.351562.085938-.707031.265625-.972656.351562-.441406.175782-.882813.265626-1.324219.441407-1.144531.441406-2.292969.792969-3.351563 1.234375-1.058593.441406-2.03125.796875-3.003906 1.148437-1.203125.402344-2.382812.875-3.53125 1.414063-.210937.070312-.417968.160156-.617187.265625-.394531.105469-.78125.253906-1.148438.441406h-.085937c-.882813.351563-1.679688.703125-2.472656 1.058594-2.382813 1.058593-4.414063 1.941406-6.179688 2.734375-6.96875-15.863282-12.410156-32.355469-16.242188-49.257813-4.589843-23.125 32.132813-85.273437 75.742188-139.121093 19.527344-24.742188 41.46875-47.484376 65.5-67.882813zm0 0" fill="#f29c1f"/><path d="m90.066406 257.859375c-7.0625 1.5-13.59375 3.175781-19.597656 4.765625-.707031.175781-1.324219.351562-1.941406.527344-.617188.179687-1.148438.355468-1.679688.53125l-2.824218.792968c-.792969.179688-1.5.441407-2.207032.621094l-.085937.085938h-.179688c-.617187.175781-1.144531.355468-1.675781.53125l-2.648438.792968c-.085937.089844-.265624.089844-.351562.175782-.246094.019531-.484375.078125-.707031.179687-.351563.085938-.707031.261719-.972657.351563-.6875.164062-1.363281.371094-2.027343.617187-.355469.089844-.621094.265625-.972657.355469-1.148437.351562-2.207031.703125-3.265624 1.058594-.441407.175781-.707032.265625-1.058594.441406h-.089844c-.351562.085938-.707031.265625-.972656.351562-.441406.175782-.882813.265626-1.324219.441407-1.144531.441406-2.292969.792969-3.351563 1.234375-1.058593.441406-2.03125.796875-3.003906 1.148437-1.941406.707031-3.617187 1.414063-5.296875 2.121094h-.085937c-.882813.351563-1.679688.703125-2.472656 1.058594-5.8125-13.832031-10.363282-28.164063-13.59375-42.816407-3.972657-20.125 23.214843-69.734374 59.054687-117.667968-4.082031 17.085937-6.128906 34.597656-6.089844 52.167968 0 2.207032 0 4.414063.175781 6.621094v.089844c.351563 14.59375 2.1875 29.117188 5.472657 43.34375 3.136719 13.816406 7.75 27.253906 13.773437 40.078125zm0 0" fill="#d1d4d1"/><path d="m379.257812 229.519531c-3.820312 16.847657-9.261718 33.285157-16.242187 49.082031-1.765625-.792968-3.796875-1.675781-6.09375-2.734374-1.144531-.441407-2.292969-.972657-3.53125-1.414063h-.175781l-.085938-.089844h-.089844v-.085937c-.089843-.089844-.089843-.089844-.175781 0l-.089843-.089844c-.070313-.066406-.167969-.097656-.265626-.085938-.085937-.089843-.085937-.089843-.175781-.089843-.066406-.007813-.128906-.039063-.175781-.089844-.089844 0-.089844-.085937-.175781-.085937h-.089844c-.703125-.265626-1.5-.617188-2.292969-.882813-.355468-.175781-.707031-.265625-1.058594-.441406-1.503906-.53125-3.089843-1.148438-4.769531-1.765625-1.410156-.53125-3-1.058594-4.5-1.589844h-.089843c-.261719-.101562-.523438-.1875-.792969-.265625-4.945313-1.675781-10.59375-3.441406-16.773438-5.207031-.421875-.089844-.832031-.207032-1.234375-.351563h-.089844c-.222656-.101562-.460937-.160156-.707031-.179687-.175781-.085938-.265625-.085938-.441406-.175782h-.085937l-1.0625-.265624c-4.851563-1.410157-10.0625-2.648438-15.625-3.882813-.617188-.175781-1.324219-.351563-2.027344-.527344-.636719-.171875-1.289063-.289062-1.941406-.355469-.179688-.085937-.265626-.175781-.441407-.175781.152344-.015625.304688.015625.441407.089844 6.007812-12.839844 10.65625-26.269531 13.859374-40.078125 3.210938-14.238281 5.015626-28.753906 5.382813-43.34375v-.089844c.175781-2.207031.175781-4.414062.175781-6.621094.050782-17.238281-1.9375-34.425781-5.914062-51.199218v-.085938c-1.972656-8.527344-4.539063-16.902344-7.679688-25.070312 43.34375 53.492187 79.625 115.109375 75.035156 138.148437zm0 0" fill="#f29c1f"/><path d="m370.429688 233.40625c-3.230469 14.527344-7.75 28.734375-13.507813 42.460938-1.144531-.441407-2.292969-.972657-3.53125-1.414063h-.175781l-.085938-.089844h-.089844v-.085937c-.089843-.089844-.089843-.089844-.175781 0l-.089843-.089844c-.070313-.066406-.167969-.097656-.265626-.085938-.085937-.089843-.085937-.089843-.175781-.089843-.066406-.007813-.128906-.039063-.175781-.089844-.089844 0-.089844-.085937-.175781-.085937h-.089844c-.703125-.265626-1.5-.617188-2.292969-.882813-.355468-.175781-.707031-.265625-1.058594-.441406-1.503906-.53125-3.089843-1.148438-4.769531-1.765625-1.234375-.441406-2.472656-.882813-3.707031-1.234375-.246094-.15625-.515625-.273438-.792969-.355469h-.089843c-.261719-.101562-.523438-.1875-.792969-.265625-4.945313-1.675781-10.59375-3.441406-16.773438-5.207031-.421875-.089844-.832031-.207032-1.234375-.351563h-.089844c-.222656-.101562-.460937-.160156-.707031-.179687-.175781-.085938-.265625-.085938-.441406-.175782h-.085937l-1.0625-.265624c-4.851563-1.410157-10.0625-2.648438-15.625-3.882813-.617188-.175781-1.324219-.351563-2.027344-.527344-.636719-.171875-1.289063-.289062-1.941406-.355469-.179688-.085937-.265626-.175781-.441407-.175781.152344-.015625.304688.015625.441407.089844 6.007812-12.839844 10.65625-26.269531 13.859374-40.078125 3.210938-14.238281 5.015626-28.753906 5.382813-43.34375v-.089844c.175781-2.207031.175781-4.414062.175781-6.621094.050782-17.238281-1.9375-34.425781-5.914062-51.199218 35.574218 47.667968 62.5 96.839844 58.527344 116.878906zm0 0" fill="#d1d4d1"/><path d="m335.472656 335.453125c0 9.710937-63.207031 17.652344-141.242187 17.652344-78.035157 0-141.242188-7.941407-141.242188-17.652344s63.207031-17.65625 141.242188-17.65625c76.800781 0 139.300781 7.679687 141.152343 17.214844.074219.132812.101563.289062.089844.441406zm0 0" fill="#2c3e50"/><path d="m76.292969 217.78125c-8.910157-4.46875-14.523438-13.601562-14.476563-23.570312-.046875-7.59375 3.246094-14.824219 9.003906-19.773438.351563 14.59375 2.1875 29.117188 5.472657 43.34375zm0 0" fill="#c03a2b"/><path d="m326.644531 194.210938c.023438 9.9375-5.539062 19.046874-14.386719 23.570312 3.210938-14.238281 5.015626-28.753906 5.382813-43.34375 5.757813 4.949219 9.050781 12.179688 9.003906 19.773438zm0 0" fill="#c03a2b"/><path d="m220.714844 291.3125h-52.964844c-4.878906 0-8.828125-3.949219-8.828125-8.824219 0-4.878906 3.949219-8.828125 8.828125-8.828125h52.964844c4.875 0 8.828125 3.949219 8.828125 8.828125 0 4.875-3.953125 8.824219-8.828125 8.824219zm0 0" fill="#4482c3"/><path d="m298.398438 257.945312c-10.949219 24.6875-28.519532 45.859376-50.761719 61.175782h-.175781c-16.417969-.882813-34.425782-1.324219-53.230469-1.324219-18.800781 0-36.722657.441406-53.140625 1.324219-22.382813-15.269532-40.054688-36.488282-51.023438-61.261719.132813-.082031.289063-.113281.441406-.089844 2.292969-.53125 4.765626-1.058593 7.238282-1.5.8125-.199219 1.640625-.347656 2.472656-.441406.488281-.160156.988281-.277344 1.5-.355469h.265625c.222656-.097656.460937-.160156.703125-.175781.972656-.175781 1.855469-.351563 2.914062-.527344 2.648438-.53125 5.472657-.972656 8.296876-1.414062 4.0625-.707031 8.210937-1.324219 12.449218-1.855469l6.53125-.792969c5.5625-.707031 11.300782-1.234375 17.214844-1.765625 13.683594-1.148437 28.425781-1.765625 44.136719-1.765625 15.714843 0 30.457031.617188 44.136719 1.765625 3.710937.351563 7.328124.617188 10.859374 1.058594 1.765626.175781 3.53125.355469 5.296876.617188 2.472656.265624 4.945312.53125 7.414062.882812 5.03125.621094 9.886719 1.414062 14.65625 2.207031 1.324219.179688 2.734375.441407 4.058594.707031.152344-.003906.304687.023438.441406.089844 1.148438.175782 2.296875.351563 3.445312.617188 1.144532.265625 2.292969.351562 3.441407.617187.800781.105469 1.597656.253907 2.382812.441407l2.382813.53125c.714844.105468 1.421875.25 2.121094.441406l2.648437.527344c.132813.074218.285156.101562.441406.089843.175781 0 .261719.089844.441407.175781zm0 0" fill="#f0c419"/><path d="m150.09375 33.726562v215.214844c-5.914062.53125-11.652344 1.058594-17.214844 1.765625l-6.53125.792969c-4.238281.53125-8.386718 1.148438-12.449218 1.855469-2.824219.441406-5.648438.882812-8.296876 1.414062-1.058593.175781-1.941406.351563-2.914062.527344-.242188.015625-.480469.078125-.703125.175781h-.179687c-.535157.046875-1.066407.136719-1.585938.265625l-2.472656.53125c-2.472656.441407-4.945313.96875-7.238282 1.5-.152343-.023437-.308593.007813-.441406.089844-6.023437-12.824219-10.636718-26.261719-13.773437-40.078125 11.886719 6.074219 26.4375 2.355469 33.949219-8.679688 7.511718-11.039062 5.632812-25.9375-4.378907-34.765624-10.015625-8.828126-25.035156-8.824219-35.042969.011718-.175781-2.207031-.175781-4.414062-.175781-6.621094-.039062-17.570312 2.007813-35.082031 6.089844-52.167968l.089844-.089844c21.695312-29.574219 46.234375-56.953125 73.269531-81.742188zm0 0" fill="#e6e7e8"/><path d="m100.21875 255.738281c.550781-.128906 1.109375-.21875 1.675781-.265625-.566406.078125-1.128906.195313-1.675781.355469-.832031.09375-1.660156.242187-2.472656.441406zm0 0" fill="#f0c419"/><path d="m114.78125 194.210938c.019531 9.214843-4.765625 17.777343-12.625 22.589843s-17.660156 5.183594-25.863281.980469c-3.285157-14.226562-5.121094-28.75-5.472657-43.34375v-.089844c4.8125-4.28125 11.039063-6.640625 17.480469-6.621094 14.625 0 26.480469 11.859376 26.480469 26.484376zm0 0" fill="#e64c3c"/><g fill="#f0c419"><path d="m238.367188 22.867188v226.074218c-13.679688-1.148437-28.421876-1.765625-44.136719-1.765625-15.710938 0-30.453125.617188-44.136719 1.765625v-226.425781c15.976562-12.890625 30.453125-21.277344 41.578125-22.421875.851563-.0742188 1.703125-.1054688 2.558594-.08984375.738281-.01562505 1.472656.01562495 2.207031.08984375 11.210938 1.144531 25.777344 9.621094 41.929688 22.773438zm0 0"/><path d="m150.09375 22.515625v11.210937c-27.035156 24.789063-51.574219 52.167969-73.269531 81.742188 1.992187-8.53125 4.585937-16.910156 7.769531-25.070312 19.527344-24.742188 41.46875-47.484376 65.5-67.882813zm0 0"/><path d="m311.902344 116.441406c-21.804688-29.703125-46.429688-57.226562-73.535156-82.1875v-11.386718c24.148437 20.582031 46.207031 43.5 65.855468 68.414062v.089844c3.140625 8.167968 5.707032 16.542968 7.679688 25.070312zm0 0"/></g><path d="m273.679688 194.210938c-.003907 9.230468 4.800781 17.796874 12.675781 22.609374s17.6875 5.175782 25.902343.960938c-3.203124 13.808594-7.851562 27.238281-13.859374 40.078125-.136719-.074219-.289063-.105469-.441407-.089844-.15625.011719-.308593-.015625-.441406-.089843l-2.648437-.527344c-.699219-.191406-1.40625-.335938-2.121094-.441406l-2.382813-.53125c-.785156-.1875-1.582031-.335938-2.382812-.441407-1.148438-.265625-2.296875-.441406-3.441407-.617187-1.148437-.175782-2.296874-.441406-3.445312-.617188-.136719-.066406-.289062-.09375-.441406-.089844-1.324219-.265624-2.734375-.527343-4.058594-.707031-4.769531-.792969-9.625-1.585937-14.65625-2.207031-2.46875-.351562-4.941406-.617188-7.414062-.882812-1.765626-.261719-3.53125-.441407-5.296876-.617188-3.53125-.441406-7.148437-.707031-10.859374-1.058594v-214.6875c27.105468 24.960938 51.730468 52.484375 73.535156 82.1875v.085938c3.976562 16.773437 5.964844 33.960937 5.914062 51.199218 0 2.207032 0 4.414063-.175781 6.621094-4.8125-4.28125-11.035156-6.640625-17.476563-6.621094-14.628906 0-26.484374 11.859376-26.484374 26.484376zm0 0" fill="#e6e7e8"/><path d="m297.957031 257.769531c.152344-.015625.304688.015625.441407.089844v.085937c-.179688-.085937-.265626-.175781-.441407-.175781zm0 0" fill="#f0c419"/><path d="m317.640625 174.347656v.089844c-.367187 14.589844-2.171875 29.105469-5.382813 43.34375-9.765624 5-21.601562 3.464844-29.765624-3.859375-8.164063-7.328125-10.964844-18.925781-7.046876-29.171875 3.917969-10.246094 13.746094-17.015625 24.71875-17.023438 6.441407-.019531 12.664063 2.339844 17.476563 6.621094zm0 0" fill="#e64c3c"/></svg>