<svg height="510pt" viewBox="-89 0 510 510.56033" width="510pt" xmlns="http://www.w3.org/2000/svg"><path d="m273.203125 413.457031c0 24.980469-45.285156 61.792969-105.929687 61.792969-60.648438 0-105.933594-36.8125-105.933594-61.792969l-26.480469-35.308593c-3.730469 14.542968-6.679687 29.277343-8.828125 44.136718 0 48.726563 63.203125 88.273438 141.242188 88.273438 78.035156 0 141.238281-39.546875 141.238281-88.273438-2.148438-14.859375-5.097657-29.59375-8.828125-44.136718zm0 0" fill="#b19046"/><path d="m167.273438 501.734375c-73.015626 0-132.414063-35.636719-132.414063-79.449219.058594-2.523437 2.179687-13.507812 4.316406-23.667968l13.503907 18c3.195312 31.3125 53.097656 67.460937 114.59375 67.460937 61.492187 0 111.394531-36.148437 114.589843-67.460937l13.503907-18c2.136718 10.167968 4.257812 21.1875 4.316406 23.703124 0 43.777344-59.398438 79.414063-132.410156 79.414063zm0 0" fill="#e4c05c"/><path d="m318.664062 223.839844c-.789062 1.367187-.789062 3.046875 0 4.414062l15.007813 25.953125c.789063 1.367188.789063 3.046875 0 4.414063l-15.007813 26.042968c-.789062 1.363282-.789062 3.046876 0 4.414063l15.007813 25.953125c.789063 1.363281.789063 3.046875 0 4.410156l-14.832031 25.601563c-.878906 1.613281-.707032 3.597656.441406 5.03125l13.15625 16.15625c1.472656 1.734375 1.355469 4.316406-.265625 5.914062l-13.152344 13.152344c-1.070312 1.058594-1.503906 2.597656-1.148437 4.0625l2.824218 13.417969c.296876 1.449218-.15625 2.953125-1.203124 4.003906-1.046876 1.046875-2.554688 1.5-4.003907 1.203125l-3.796875-.796875-10.152344-2.207031c-1.167968-.210938-2.371093.042969-3.355468.707031h-.085938l-22.421875 15.007812c-1.507812.972657-3.441406.972657-4.945312 0l-.175781-.089843-21.363282-14.386719c-1.316406-.871094-3-.972656-4.414062-.265625l-.527344.265625-21.542969 14.476562c-1.070312.699219-2.390625.894532-3.617187.53125h-.441406c-.332032-.109374-.632813-.292968-.882813-.53125l-21.539063-14.476562c-.910156-.597656-2.019531-.820312-3.089843-.617188-.660157.042969-1.300781.253907-1.855469.617188l-21.539062 14.476562c-.34375.25-.734376.429688-1.148438.53125h-.085938c-.804687.261719-1.667968.261719-2.472656 0-.339844-.113281-.664062-.257812-.96875-.441406-.097656.011719-.195312-.023437-.265625-.089844l-21.539062-14.476562c-.515625-.375-1.128907-.589844-1.765625-.617188-1.101563-.238281-2.25-.015624-3.179688.617188l-21.539062 14.476562c-.351563.265626-.441406.351563-.707032.53125h-.882812c-.226562-.152343-.433594-.328124-.617188-.53125l-20.566406-14.476562c-1.21875-.875-2.832031-.976562-4.148437-.265625-1.445313-.710937-3.15625-.613281-4.503907.265625l-21.363281 14.386719-21.1875-14.917969c-.949219-.664062-2.125-.917969-3.265625-.707031l-3.089844.707031c-1.011718-.667969-2.246093-.917969-3.441406-.707031l-10.152344 2.207031-3.796874.796875c-1.449219.296875-2.953126-.15625-4.003907-1.203125-1.046875-1.050781-1.5-2.554688-1.203125-4.003906l2.824219-13.417969c.355469-1.464844-.078125-3.003906-1.148437-4.0625l-13.152344-13.152344c-1.621094-1.597656-1.738282-4.179687-.265625-5.914062l13.15625-16.15625c1.148437-1.433594 1.320312-3.417969.441406-5.03125l-14.832031-25.601563c-.7890628-1.363281-.7890628-3.046875 0-4.410156l15.007812-25.953125c.789063-1.367187.789063-3.050781 0-4.414063l-15.007812-26.042968c-.7890628-1.367188-.7890628-3.046875 0-4.414063l15.007812-25.953125c.789063-1.367187.789063-3.046875 0-4.414062l-15.007812-25.953125c-.7890628-1.363281-.7890628-3.046875 0-4.414063l15.007812-25.953125c.789063-1.363281.789063-3.046875 0-4.414062l-15.007812-26.039063c-.7890628-1.367187-.7890628-3.050781 0-4.414062l15.09375-26.042969c.761718-1.292969.828125-2.882813.179687-4.238281l-11.125-21.800782c-1.078125-2.011718-.421875-4.515624 1.5-5.738281l20.570313-13.242187c1.203125-.785156 1.957031-2.097656 2.03125-3.53125l1.234375-24.542969c.128906-2.234375 1.914062-4.015625 4.148437-4.148437l24.542969-1.234376c1.433594-.074218 2.746094-.828124 3.53125-2.03125l13.238281-20.566406c1.226563-1.925781 3.726563-2.578125 5.738282-1.5l.175781.085938 21.101562 10.769531c1.101563.542969 2.378907.609375 3.527344.175781 1.453125.550782 3.085937.242188 4.238281-.792968l14.832032-13.242188c.414062-.554688 1.070312-.882812 1.765624-.882812.695313 0 1.347657.328124 1.765626.882812l14.917968 12.710938c.929688.78125 2.148438 1.132812 3.355469.972656 1.148437.171875 2.320313-.183594 3.175781-.972656l13.773438-12.445313.261718-.175781h.089844c.347656-.285156.734375-.523438 1.148438-.707032l.085937-.089843c1.453125-.539063 3.082031-.230469 4.238281.796875h.089844l14.828125 12.621094c.667969.574218 1.503907.914062 2.382813.972656 1.207031.160156 2.425781-.191406 3.355468-.972656l14.917969-12.710938c.5-.445312 1.109375-.753906 1.765625-.882812 1.390625-.371094 2.871094-.039063 3.972656.882812l15.539063 13.242188c.398437.328124.84375.597656 1.324219.792968 1.148437.433594 2.425781.367188 3.527344-.175781l21.101562-10.769531.175781-.085938c2.011719-1.078125 4.511719-.425781 5.738281 1.5l13.238282 20.566406c.785156 1.203126 2.097656 1.957032 3.53125 2.03125l24.542968 1.234376c2.234376.132812 4.019532 1.914062 4.148438 4.148437l1.234375 24.542969c.074219 1.433594.828125 2.746094 2.03125 3.53125l20.570313 13.242187c1.921874 1.222657 2.578124 3.726563 1.5 5.738281l-11.125 21.800782c-.648438 1.355468-.582032 2.945312.179687 4.238281l15.09375 26.042969c.789063 1.363281.789063 3.046875 0 4.414062l-15.007813 26.039063c-.789062 1.367187-.789062 3.050781 0 4.414062l15.007813 25.953125c.789063 1.367188.789063 3.050782 0 4.414063zm0 0" fill="#35495e"/><path d="m311.25 223.839844c-.789062 1.367187-.789062 3.046875 0 4.414062l14.386719 25.953125c.707031 1.386719.707031 3.027344 0 4.414063l-14.386719 26.042968c-.789062 1.363282-.789062 3.046876 0 4.414063l14.386719 25.953125c.707031 1.382812.707031 3.023438 0 4.410156l-14.121094 25.601563c-.910156 1.59375-.769531 3.578125.351563 5.03125l12.535156 16.15625c1.378906 1.765625 1.265625 4.277343-.265625 5.914062l-12.535157 13.152344c-1.003906 1.09375-1.402343 2.613281-1.058593 4.0625l2.648437 13.417969c.332032 1.632812-.242187 3.320312-1.5 4.410156l-10.152344-2.207031c-1.167968-.210938-2.371093.042969-3.355468.707031h-.085938l-3.089844-.707031c-1.140624-.210938-2.316406.042969-3.265624.707031l-21.1875 14.917969-21.363282-14.386719c-1.316406-.871094-3-.972656-4.414062-.265625-1.351563-.714844-2.984375-.609375-4.238282.265625l-20.566406 14.476562c-.25.238282-.554687.421876-.882812.53125h-.441406c-.332032-.109374-.632813-.292968-.882813-.53125l-21.539063-14.476562c-.910156-.597656-2.019531-.820312-3.089843-.617188-1.042969-.246093-2.140625-.019531-3 .617188l-20.570313 14.476562c-.28125.242188-.613281.421876-.972656.53125h-.085938c-.804687.261719-1.667968.261719-2.472656 0-.339844-.113281-.664062-.257812-.96875-.441406 0-.050781-.042968-.089844-.089844-.089844l-20.570312-14.476562c-.847656-.585938-1.898438-.808594-2.910156-.617188-.636719.027344-1.25.242188-1.765625.617188l-20.480469 14.476562c-.90625.6875-2.097656.886719-3.179688.53125h-.882812c-.226562-.152343-.433594-.328124-.617188-.53125l-20.566406-14.476562c-1.21875-.875-2.832031-.976562-4.148437-.265625-.179688 0-.355469.175781-.53125.265625l-20.480469 14.476562c-1.410156.972657-3.269531.972657-4.679688 0l-.175781-.089843-21.1875-14.917969c-.949219-.664062-2.125-.917969-3.265625-.707031l-3.089844.707031-10.148437 2.296875c-1.210937.257813-2.472656-.03125-3.445313-.796875-1.257812-1.089844-1.832031-2.777344-1.5-4.410156l2.648438-13.417969c.34375-1.449219-.054688-2.96875-1.058594-4.0625l-12.535156-13.152344c-1.53125-1.636719-1.644531-4.148437-.265625-5.914062l12.535156-16.15625c1.121094-1.453125 1.261719-3.4375.351563-5.03125l-14.121094-25.601563c-.707031-1.386718-.707031-3.027344 0-4.410156l14.386719-25.953125c.789062-1.367187.789062-3.050781 0-4.414063l-14.386719-26.042968c-.707031-1.386719-.707031-3.027344 0-4.414063l14.386719-25.953125c.789062-1.367187.789062-3.046875 0-4.414062l-14.386719-25.953125c-.707031-1.386719-.707031-3.027344 0-4.414063l14.386719-25.953125c.789062-1.363281.789062-3.046875 0-4.414062l-14.386719-26.039063c-.707031-1.386718-.707031-3.027344 0-4.414062l14.476562-26.042969c.6875-1.320313.722657-2.886719.085938-4.238281l-10.589844-21.800782c-.988281-2.023437-.351562-4.460937 1.5-5.738281l19.597656-13.242187c1.15625-.804688 1.847657-2.121094 1.851563-3.53125l1.148437-24.542969c.125-2.203125 1.859376-3.972656 4.058594-4.148437l23.308594-1.234376c1.375-.101562 2.625-.855468 3.351562-2.03125l12.625-20.566406c.328126-.59375.816407-1.085937 1.410157-1.414062 1.234375-.777344 2.796875-.8125 4.0625-.085938l20.214843 10.855469c.089844.089844.265626.089844.351563.175781 1.453125.550782 3.085937.242188 4.238281-.792968l14.832032-13.242188c.496093-.445312 1.105468-.753906 1.765624-.882812 1.304688-.371094 2.710938-.035157 3.707032.882812l14.035156 12.710938c.621094.59375 1.4375.9375 2.296875.972656 1.148437.171875 2.320313-.183594 3.175781-.972656l13.773438-12.445313.261718-.175781h.089844c.347656-.285156.734375-.523438 1.148438-.707032l.085937-.089843c1.453125-.539063 3.082031-.230469 4.238281.796875h.089844l14.035156 12.621094c.855469.789062 2.027344 1.144531 3.175782.972656 1.207031.160156 2.425781-.191406 3.355468-.972656l14.917969-12.710938c.417969-.554688 1.070313-.882812 1.765625-.882812.695313 0 1.351563.328124 1.765625.882812l14.832031 13.242188c1.152344 1.035156 2.785157 1.34375 4.238282.792968 1.148437.433594 2.425781.367188 3.527344-.175781l21.101562-10.769531c.574219.355468 1.058594.839844 1.410156 1.414062l12.625 20.566406c.726563 1.175782 1.976563 1.929688 3.351563 2.03125l23.308593 1.234376c2.199219.175781 3.933594 1.945312 4.058594 4.148437l1.148438 24.542969c.003906 1.410156.695312 2.726562 1.851562 3.53125l19.597656 13.242187c1.851563 1.277344 2.488282 3.714844 1.5 5.738281l-10.589843 21.800782c-.636719 1.351562-.601563 2.917968.085937 4.238281l14.476563 26.042969c.707031 1.386718.707031 3.027344 0 4.414062l-14.386719 26.039063c-.789062 1.367187-.789062 3.050781 0 4.414062l14.386719 25.953125c.707031 1.386719.707031 3.027344 0 4.414063zm0 0" fill="#3f5c6c"/><g fill="#35495e"><path d="m70.167969 104.492188c-4.875 0-8.828125-3.953126-8.828125-8.828126v-26.484374c0-4.875 3.953125-8.828126 8.828125-8.828126s8.828125 3.953126 8.828125 8.828126v26.484374c0 4.875-3.953125 8.828126-8.828125 8.828126zm0 0"/><path d="m96.652344 157.457031c-4.875 0-8.828125-3.953125-8.828125-8.828125v-26.480468c0-4.878907 3.953125-8.828126 8.828125-8.828126s8.824218 3.949219 8.824218 8.828126v26.480468c0 4.875-3.949218 8.828125-8.824218 8.828125zm0 0"/><path d="m123.132812 113.320312c-4.875 0-8.828124-3.953124-8.828124-8.828124v-26.484376c0-4.875 3.953124-8.828124 8.828124-8.828124s8.828126 3.953124 8.828126 8.828124v26.484376c0 4.875-3.953126 8.828124-8.828126 8.828124zm0 0"/><path d="m149.617188 166.285156c-4.875 0-8.828126-3.953125-8.828126-8.828125v-26.484375c0-4.875 3.953126-8.824218 8.828126-8.824218s8.828124 3.949218 8.828124 8.824218v26.484375c0 4.875-3.953124 8.828125-8.828124 8.828125zm0 0"/><path d="m123.132812 228.078125c-4.875 0-8.828124-3.953125-8.828124-8.828125v-26.484375c0-4.875 3.953124-8.824219 8.828124-8.824219s8.828126 3.949219 8.828126 8.824219v26.484375c0 4.875-3.953126 8.828125-8.828126 8.828125zm0 0"/><path d="m52.511719 183.941406c-4.875 0-8.828125-3.953125-8.828125-8.828125v-26.484375c0-4.875 3.953125-8.828125 8.828125-8.828125s8.828125 3.953125 8.828125 8.828125v26.484375c0 4.875-3.953125 8.828125-8.828125 8.828125zm0 0"/><path d="m78.996094 245.734375c-4.875 0-8.828125-3.953125-8.828125-8.828125v-26.484375c0-4.875 3.953125-8.828125 8.828125-8.828125s8.828125 3.953125 8.828125 8.828125v26.484375c0 4.875-3.953125 8.828125-8.828125 8.828125zm0 0"/><path d="m105.476562 298.699219c-4.875 0-8.824218-3.953125-8.824218-8.828125v-26.484375c0-4.875 3.949218-8.828125 8.824218-8.828125 4.878907 0 8.828126 3.953125 8.828126 8.828125v26.484375c0 4.875-3.949219 8.828125-8.828126 8.828125zm0 0"/><path d="m52.511719 307.527344c-4.875 0-8.828125-3.953125-8.828125-8.828125v-26.484375c0-4.875 3.953125-8.828125 8.828125-8.828125s8.828125 3.953125 8.828125 8.828125v26.484375c0 4.875-3.953125 8.828125-8.828125 8.828125zm0 0"/><path d="m78.996094 351.664062c-4.875 0-8.828125-3.953124-8.828125-8.828124v-26.484376c0-4.875 3.953125-8.824218 8.828125-8.824218s8.828125 3.949218 8.828125 8.824218v26.484376c0 4.875-3.953125 8.828124-8.828125 8.828124zm0 0"/><path d="m123.132812 378.148438c-4.875 0-8.828124-3.953126-8.828124-8.828126v-26.484374c0-4.875 3.953124-8.828126 8.828124-8.828126s8.828126 3.953126 8.828126 8.828126v26.484374c0 4.875-3.953126 8.828126-8.828126 8.828126zm0 0"/><path d="m149.617188 316.351562c-4.875 0-8.828126-3.949218-8.828126-8.824218v-26.484375c0-4.875 3.953126-8.828125 8.828126-8.828125s8.828124 3.953125 8.828124 8.828125v26.484375c0 4.875-3.953124 8.824218-8.828124 8.824218zm0 0"/><path d="m264.375 104.492188c-4.875 0-8.828125-3.953126-8.828125-8.828126v-26.484374c0-4.875 3.953125-8.828126 8.828125-8.828126s8.828125 3.953126 8.828125 8.828126v26.484374c0 4.875-3.953125 8.828126-8.828125 8.828126zm0 0"/><path d="m237.890625 157.457031c-4.875 0-8.824219-3.953125-8.824219-8.828125v-26.480468c0-4.878907 3.949219-8.828126 8.824219-8.828126s8.828125 3.949219 8.828125 8.828126v26.480468c0 4.875-3.953125 8.828125-8.828125 8.828125zm0 0"/><path d="m211.410156 113.320312c-4.875 0-8.828125-3.953124-8.828125-8.828124v-26.484376c0-4.875 3.953125-8.828124 8.828125-8.828124s8.828125 3.953124 8.828125 8.828124v26.484376c0 4.875-3.953125 8.828124-8.828125 8.828124zm0 0"/><path d="m184.925781 166.285156c-4.875 0-8.828125-3.953125-8.828125-8.828125v-26.484375c0-4.875 3.953125-8.824218 8.828125-8.824218s8.828125 3.949218 8.828125 8.824218v26.484375c0 4.875-3.953125 8.828125-8.828125 8.828125zm0 0"/><path d="m211.410156 228.078125c-4.875 0-8.828125-3.953125-8.828125-8.828125v-26.484375c0-4.875 3.953125-8.824219 8.828125-8.824219s8.828125 3.949219 8.828125 8.824219v26.484375c0 4.875-3.953125 8.828125-8.828125 8.828125zm0 0"/><path d="m282.03125 183.941406c-4.875 0-8.828125-3.953125-8.828125-8.828125v-26.484375c0-4.875 3.953125-8.828125 8.828125-8.828125s8.828125 3.953125 8.828125 8.828125v26.484375c0 4.875-3.953125 8.828125-8.828125 8.828125zm0 0"/><path d="m255.546875 245.734375c-4.875 0-8.828125-3.953125-8.828125-8.828125v-26.484375c0-4.875 3.953125-8.828125 8.828125-8.828125s8.828125 3.953125 8.828125 8.828125v26.484375c0 4.875-3.953125 8.828125-8.828125 8.828125zm0 0"/><path d="m229.066406 298.699219c-4.878906 0-8.828125-3.953125-8.828125-8.828125v-26.484375c0-4.875 3.949219-8.828125 8.828125-8.828125 4.875 0 8.824219 3.953125 8.824219 8.828125v26.484375c0 4.875-3.949219 8.828125-8.824219 8.828125zm0 0"/><path d="m282.03125 307.527344c-4.875 0-8.828125-3.953125-8.828125-8.828125v-26.484375c0-4.875 3.953125-8.828125 8.828125-8.828125s8.828125 3.953125 8.828125 8.828125v26.484375c0 4.875-3.953125 8.828125-8.828125 8.828125zm0 0"/><path d="m255.546875 351.664062c-4.875 0-8.828125-3.953124-8.828125-8.828124v-26.484376c0-4.875 3.953125-8.824218 8.828125-8.824218s8.828125 3.949218 8.828125 8.824218v26.484376c0 4.875-3.953125 8.828124-8.828125 8.828124zm0 0"/><path d="m211.410156 378.148438c-4.875 0-8.828125-3.953126-8.828125-8.828126v-26.484374c0-4.875 3.953125-8.828126 8.828125-8.828126s8.828125 3.953126 8.828125 8.828126v26.484374c0 4.875-3.953125 8.828126-8.828125 8.828126zm0 0"/><path d="m184.925781 316.351562c-4.875 0-8.828125-3.949218-8.828125-8.824218v-26.484375c0-4.875 3.953125-8.828125 8.828125-8.828125s8.828125 3.953125 8.828125 8.828125v26.484375c0 4.875-3.953125 8.824218-8.828125 8.824218zm0 0"/><path d="m167.273438 78.007812c-4.878907 0-8.828126-3.953124-8.828126-8.828124v-26.480469c0-4.875 3.949219-8.828125 8.828126-8.828125 4.875 0 8.824218 3.953125 8.824218 8.828125v26.480469c0 4.875-3.949218 8.828124-8.824218 8.828124zm0 0"/><path d="m167.273438 245.734375c-4.878907 0-8.828126-3.953125-8.828126-8.828125v-26.484375c0-4.875 3.949219-8.828125 8.828126-8.828125 4.875 0 8.824218 3.953125 8.824218 8.828125v26.484375c0 4.875-3.949218 8.828125-8.824218 8.828125zm0 0"/><path d="m167.273438 386.972656c-4.878907 0-8.828126-3.949218-8.828126-8.824218v-26.484376c0-4.875 3.949219-8.828124 8.828126-8.828124 4.875 0 8.824218 3.953124 8.824218 8.828124v26.484376c0 4.875-3.949218 8.824218-8.824218 8.824218zm0 0"/></g></svg>