<svg height="511pt" viewBox="0 -97 511.90893 511" width="511pt" xmlns="http://www.w3.org/2000/svg"><path d="m458.699219 318.246094h-405.488281c-12.941407.101562-24.121094-9.035156-26.597657-21.742188l-26.21875-141.238281c-1.359375-7.8125.828125-15.828125 5.972657-21.863281 5.140624-6.035156 12.707031-9.464844 20.636718-9.363282h457.902344c7.929688-.101562 15.492188 3.328126 20.636719 9.363282s7.332031 14.050781 5.96875 21.863281l-26.214844 141.238281c-2.480469 12.707032-13.65625 21.84375-26.597656 21.742188zm0 0" fill="#d1d4d1"/><path d="m444.714844 318.246094h-377.519532c-12.441406-.265625-22.890624-9.4375-24.761718-21.742188l-24.410156-141.238281c-1.503907-7.527344.378906-15.335937 5.148437-21.347656 4.769531-6.015625 11.941406-9.625 19.613281-9.878907h426.375c7.667969.253907 14.839844 3.863282 19.609375 9.878907 4.769531 6.011719 6.652344 13.820312 5.148438 21.347656l-24.40625 141.238281c-1.875 12.316406-12.34375 21.496094-24.796875 21.742188zm0 0" fill="#e6e7e8"/><path d="m105.886719.453125h300.136719c39.003906 0 70.621093 31.621094 70.621093 70.621094v52.964843h-441.378906v-52.964843c0-39 31.617187-70.621094 70.621094-70.621094zm0 0" fill="#95a5a5"/><path d="m123.539062.453125h264.828126c39.003906 0 70.621093 31.621094 70.621093 70.621094v52.964843h-406.066406v-52.964843c0-39 31.617187-70.621094 70.617187-70.621094zm0 0" fill="#bdc3c7"/><path d="m255.953125 71.074219c-98.867187 0-136.171875-27.089844-137.710937-28.246094-3.898438-2.925781-4.6875-8.460937-1.761719-12.359375 2.921875-3.902344 8.457031-4.691406 12.355469-1.765625.511718.363281 35.3125 24.71875 127.117187 24.71875 92.929687 0 136.300781-24.992187 136.722656-25.238281 4.175781-2.433594 9.53125-1.050782 12.015625 3.09375 2.480469 4.148437 1.167969 9.519531-2.949218 12.050781-1.898438 1.132813-47.367188 27.746094-145.789063 27.746094zm0 0" fill="#95a5a5"/><path d="m247.125 291.765625c-9.75 0-17.652344-7.90625-17.652344-17.65625v-26.484375h-26.484375c-9.75 0-17.65625-7.902344-17.65625-17.652344v-17.65625c0-9.75 7.90625-17.65625 17.65625-17.65625h26.484375v-26.480468c0-9.75 7.902344-17.65625 17.652344-17.65625h17.65625c9.75 0 17.65625 7.90625 17.65625 17.65625v26.480468h26.484375c9.75 0 17.652344 7.90625 17.652344 17.65625v17.65625c0 9.75-7.902344 17.652344-17.652344 17.652344h-26.484375v26.484375c0 9.75-7.90625 17.65625-17.65625 17.65625zm0 0" fill="#c03a2b"/><path d="m317.746094 212.316406v17.65625c0 4.875-3.949219 8.828125-8.824219 8.828125h-26.484375c-4.875 0-8.828125 3.949219-8.828125 8.824219v26.484375c0 4.875-3.953125 8.828125-8.828125 8.828125h-17.65625c-4.875 0-8.824219-3.953125-8.824219-8.828125v-26.484375c0-4.875-3.953125-8.824219-8.828125-8.824219h-26.484375c-4.875 0-8.828125-3.953125-8.828125-8.828125v-17.65625c0-4.875 3.953125-8.828125 8.828125-8.828125h26.484375c4.875 0 8.828125-3.953125 8.828125-8.828125v-26.480468c0-4.875 3.949219-8.828126 8.824219-8.828126h17.65625c4.875 0 8.828125 3.953126 8.828125 8.828126v26.480468c0 4.875 3.953125 8.828125 8.828125 8.828125h26.484375c4.875 0 8.824219 3.953125 8.824219 8.828125zm0 0" fill="#e64c3c"/><g fill="#ecf0f1"><path d="m105.886719 291.765625h-44.140625c-4.875 0-8.824219-3.953125-8.824219-8.828125s3.949219-8.828125 8.824219-8.828125h44.140625c4.875 0 8.828125 3.953125 8.828125 8.828125s-3.953125 8.828125-8.828125 8.828125zm0 0"/><path d="m150.023438 291.765625h-8.828126c-4.875 0-8.828124-3.953125-8.828124-8.828125s3.953124-8.828125 8.828124-8.828125h8.828126c4.875 0 8.828124 3.953125 8.828124 8.828125s-3.953124 8.828125-8.828124 8.828125zm0 0"/></g></svg>