<svg height="512pt" viewBox="-26 0 512 512" width="512pt" xmlns="http://www.w3.org/2000/svg"><path d="m423.722656 79.449219c0-43.878907-86.949218-79.449219-194.207031-79.449219s-194.207031 35.570312-194.207031 79.449219c0 43.878906 86.949218 79.449219 194.207031 79.449219s194.207031-35.570313 194.207031-79.449219zm0 0" fill="#fb7b76"/><path d="m459.035156 423.722656c0 48.730469-102.753906 88.277344-229.519531 88.277344-126.761719 0-229.515625-39.546875-229.515625-88.277344l.617188-6.179687.089843-.441407 34.601563-337.652343c.394531 10.492187 4.785156 20.441406 12.273437 27.804687 27.539063 30.191406 98.601563 51.644532 181.933594 51.644532 83.335937 0 154.394531-21.453126 181.9375-51.644532 7.488281-7.363281 11.878906-17.3125 12.269531-27.804687l34.605469 337.652343.089844.441407zm0 0" fill="#c03a2b"/><path d="m441.378906 416.660156c0 47.757813-94.808594 86.511719-211.863281 86.511719-117.050781 0-211.859375-38.753906-211.859375-86.511719l.527344-6 .089844-.441406 29.308593-302.964844c27.539063 30.191406 98.601563 51.644532 181.933594 51.644532 83.335937 0 154.394531-21.453126 181.9375-51.644532l29.308594 302.964844.089843.441406zm0 0" fill="#e64c3c"/><path d="m423.722656 83.863281c0-46.316406-86.949218-83.863281-194.207031-83.863281s-194.207031 37.546875-194.207031 83.863281c0 46.316407 86.949218 83.859375 194.207031 83.859375s194.207031-37.542968 194.207031-83.859375zm0 0" fill="#fb7b76"/><path d="m256 79.449219c0-9.75-11.855469-17.65625-26.484375-17.65625-14.625 0-26.480469 7.90625-26.480469 17.65625s11.855469 17.652343 26.480469 17.652343c14.628906 0 26.484375-7.902343 26.484375-17.652343zm0 0" fill="#e64c3c"/><path d="m52.726562 264.828125c-.308593 0-.609374 0-.882812 0-2.335938-.238281-4.476562-1.398437-5.957031-3.21875s-2.171875-4.160156-1.925781-6.492187l9.773437-95.425782c.5625-4.828125 4.871094-8.328125 9.710937-7.890625 2.332032.238281 4.476563 1.394531 5.957032 3.214844 1.480468 1.824219 2.171875 4.160156 1.925781 6.492187l-9.828125 95.375c-.453125 4.507813-4.242188 7.941407-8.773438 7.945313zm0 0" fill="#fb7b76"/><path d="m35.453125 433.074219c-.335937 0-.667969-.019531-1-.054688-2.328125-.261719-4.453125-1.4375-5.914063-3.269531-1.460937-1.828125-2.132812-4.167969-1.871093-6.492188l.386719-3.53125 8.730468-85.160156c.558594-4.832031 4.871094-8.332031 9.710938-7.882812 2.335937.234375 4.484375 1.390625 5.964844 3.214844 1.480468 1.820312 2.175781 4.160156 1.929687 6.496093l-9.171875 88.832031c-.5 4.464844-4.273438 7.84375-8.765625 7.847657zm0 0" fill="#fb7b76"/><g fill="#e4c05c"><path d="m308.964844 256c-4.875 0-8.828125-3.953125-8.828125-8.828125v-93.140625l-76.480469-67.972656c-2.480469-2.058594-3.636719-5.308594-3.023438-8.472656.617188-3.164063 2.90625-5.742188 5.976563-6.722657s6.433594-.210937 8.769531 2.007813l79.449219 70.621094c1.878906 1.667968 2.957031 4.0625 2.964844 6.578124v97.101563c0 4.875-3.953125 8.828125-8.828125 8.828125zm0 0"/><path d="m308.964844 467.863281c-4.875 0-8.828125-3.953125-8.828125-8.828125v-158.898437c0-4.875 3.953125-8.828125 8.828125-8.828125s8.828125 3.953125 8.828125 8.828125v158.898437c0 4.875-3.953125 8.828125-8.828125 8.828125zm0 0"/><path d="m273.65625 467.863281h-.503906c-2.339844-.132812-4.535156-1.1875-6.097656-2.933593-1.558594-1.75-2.363282-4.050782-2.226563-6.390626l8.828125-158.894531c.078125-2.359375 1.117188-4.585937 2.878906-6.160156 1.761719-1.574219 4.089844-2.359375 6.441406-2.175781 2.34375.128906 4.539063 1.183594 6.101563 2.933594s2.367187 4.046874 2.230469 6.390624l-8.824219 158.894532c-.265625 4.683594-4.140625 8.34375-8.828125 8.335937zm0 0"/><path d="m344.277344 467.863281c-4.691406.007813-8.566406-3.652343-8.828125-8.335937l-8.828125-158.894532c-.136719-2.34375.667968-4.640624 2.230468-6.390624s3.761719-2.804688 6.101563-2.933594c2.351563-.175782 4.675781.613281 6.433594 2.183594 1.757812 1.574218 2.800781 3.792968 2.890625 6.152343l8.824218 158.894531c.136719 2.34375-.667968 4.644532-2.230468 6.390626-1.5625 1.75-3.757813 2.804687-6.101563 2.933593zm0 0"/><path d="m238.34375 459.035156c-.515625 0-1.035156-.046875-1.542969-.140625-4.796875-.851562-7.996093-5.425781-7.152343-10.222656l26.484374-150.070313c1.003907-4.636718 5.492188-7.648437 10.164063-6.824218 4.671875.828125 7.855469 5.195312 7.207031 9.898437l-26.480468 150.066407c-.746094 4.210937-4.402344 7.285156-8.679688 7.292968zm0 0"/><path d="m379.585938 459.035156c-4.277344-.007812-7.933594-3.082031-8.675782-7.292968l-26.484375-150.066407c-.683593-3.164062.414063-6.445312 2.863281-8.558593 2.449219-2.109376 5.859376-2.714844 8.886719-1.570313 3.023438 1.144531 5.183594 3.851563 5.621094 7.054687l26.484375 150.070313c.84375 4.796875-2.355469 9.371094-7.148438 10.222656-.511718.09375-1.027343.140625-1.546874.140625zm0 0"/></g><path d="m353.101562 308.964844h-88.273437c-4.875 0-8.828125-3.953125-8.828125-8.828125v-35.308594c0-14.625 11.855469-26.484375 26.484375-26.484375h52.964844c14.625 0 26.480469 11.859375 26.480469 26.484375v35.308594c0 4.875-3.949219 8.828125-8.828126 8.828125zm0 0" fill="#b19046"/><path d="m264.828125 300.136719v-35.308594c0-9.75 7.902344-17.65625 17.65625-17.65625h52.964844c9.75 0 17.652343 7.90625 17.652343 17.65625v35.308594zm0 0" fill="#e4c05c"/></svg>