<svg height="512pt" viewBox="-15 0 512 512" width="512pt" xmlns="http://www.w3.org/2000/svg"><path d="m19.828125 388.414062-15.253906 34.3125c-6.398438 14.378907-6.070313 30.859376.894531 44.972657s19.84375 24.398437 35.148438 28.066406c36.996093 8.785156 98.324218 16.234375 199.902343 16.234375s162.902344-7.449219 199.898438-16.234375c15.304687-3.667969 28.1875-13.953125 35.152343-28.066406 6.964844-14.113281 7.289063-30.59375.890626-44.972657l-15.253907-34.3125zm0 0" fill="#2c3e50"/><path d="m29.945312 388.414062-14.53125 29.414063c-12.84375 25.953125 3.621094 56.046875 34.429688 62.59375 35.238281 7.53125 93.746094 13.921875 190.675781 13.921875 96.925781 0 155.433594-6.390625 190.738281-13.921875 30.761719-6.546875 47.226563-36.640625 34.425782-62.59375l-14.59375-29.414063zm0 0" fill="#35495e"/><path d="m24.332031 342.511719c4.007813 2.90625 8.445313 5.171875 13.152344 6.707031v52.964844c-11.386719-4.148438-17.65625-8.828125-17.65625-13.769532v-52.964843c.117187 2.058593 1.035156 3.992187 2.5625 5.382812.585937.625 1.238281 1.1875 1.941406 1.679688zm0 0" fill="#b19046"/><path d="m461.207031 335.449219v52.964843c0 4.941407-6.265625 9.621094-17.652343 13.769532v-52.964844c4.707031-1.535156 9.144531-3.800781 13.152343-6.707031.703125-.492188 1.351563-1.054688 1.941407-1.679688 1.527343-1.390625 2.445312-3.324219 2.558593-5.382812zm0 0" fill="#b19046"/><path d="m37.484375 84.390625v264.828125c-4.707031-1.535156-9.144531-3.800781-13.152344-6.707031-.703125-.492188-1.355469-1.054688-1.941406-1.679688-1.527344-1.390625-2.445313-3.324219-2.5625-5.382812v-264.828125c0 4.941406 6.269531 9.621094 17.65625 13.769531zm0 0" fill="#2c3e50"/><path d="m461.207031 70.621094v264.828125c-.113281 2.058593-1.03125 3.992187-2.558593 5.382812-.589844.625-1.238282 1.1875-1.941407 1.679688-4.007812 2.90625-8.445312 5.171875-13.152343 6.707031v-264.828125c11.386718-4.148437 17.652343-8.828125 17.652343-13.769531zm0 0" fill="#2c3e50"/><path d="m37.484375 49.082031v35.308594c-11.386719-4.148437-17.65625-8.828125-17.65625-13.769531v-35.3125c0 4.945312 6.269531 9.625 17.65625 13.773437zm0 0" fill="#b19046"/><path d="m461.207031 35.308594v35.3125c0 4.941406-6.265625 9.621094-17.652343 13.769531v-35.308594c11.386718-4.148437 17.652343-8.828125 17.652343-13.773437zm0 0" fill="#b19046"/><path d="m443.554688 49.082031v35.308594c-33.722657 12.710937-111.933594 21.539063-203.035157 21.539063-91.101562 0-169.3125-8.828126-203.035156-21.539063v-35.308594c33.722656 12.710938 111.933594 21.539063 203.035156 21.539063 91.101563 0 169.3125-8.828125 203.035157-21.539063zm0 0" fill="#e4c05c"/><path d="m443.554688 84.390625v264.828125c-1.0625.355469-2.121094.796875-3.269532 1.148438-1.144531.472656-2.324218.859374-3.53125 1.148437-10.769531 3.253906-21.738281 5.816406-32.835937 7.679687-2.382813.441407-4.855469.792969-7.328125 1.234376-2.472656.441406-5.121094.796874-7.679688 1.148437-2.03125.351563-4.238281.617187-6.355468.882813-3.265626.441406-6.53125.882812-9.976563 1.324218-7.148437.792969-14.742187 1.589844-22.507813 2.292969l-9.003906.796875c-4.769531.441406-9.710937.792969-14.65625 1.058594-1.765625.175781-3.441406.265625-5.207031.351562-4.945313.355469-9.976563.621094-15.09375.882813-20.746094 1.0625-42.726563 1.589843-65.589844 1.589843s-44.84375-.527343-65.589843-1.589843c-5.121094-.261719-10.152344-.527344-15.09375-.882813-1.765626-.085937-3.445313-.175781-5.210938-.351562-4.941406-.265625-9.886719-.617188-14.652344-1.058594l-9.003906-.796875c-7.769531-.703125-15.359375-1.5-22.511719-2.292969-3-.441406-5.914062-.792968-8.828125-1.148437-.441406-.085938-.792968-.085938-1.144531-.175781-2.121094-.265626-4.328125-.53125-6.359375-.882813-2.558594-.351563-5.207031-.792969-7.679688-1.148437-2.46875-.351563-4.941406-.792969-7.324218-1.234376-11.097656-1.863281-22.066406-4.425781-32.839844-7.679687-1.148438-.355469-2.382812-.707031-3.53125-1.148437-1.148438-.441407-2.207031-.792969-3.265625-1.148438v-264.828125c33.722656 12.710937 111.933594 21.539063 203.035156 21.539063 91.101563 0 169.3125-8.828126 203.035157-21.539063zm0 0" fill="#3f5c6c"/><path d="m443.554688 349.21875v52.964844c-33.722657 12.714844-111.933594 21.539062-203.035157 21.539062-91.101562 0-169.3125-8.824218-203.035156-21.539062v-52.964844c1.058594.355469 2.117187.796875 3.265625 1.148438 1.148438.351562 2.382812.792968 3.53125 1.148437 10.773438 3.253906 21.742188 5.816406 32.839844 7.679687 2.382812.441407 4.855468.792969 7.324218 1.234376 2.472657.441406 5.121094.796874 7.679688 1.148437 2.03125.351563 4.238281.617187 6.359375.882813.351563.089843.703125.089843 1.144531.175781 2.914063.355469 5.828125.707031 8.828125 1.148437 7.152344.792969 14.742188 1.589844 22.511719 2.292969l9.003906.796875c4.765625.441406 9.710938.792969 14.652344 1.058594 1.765625.175781 3.445312.265625 5.210938.351562 4.941406.355469 9.972656.621094 15.09375.882813 20.746093 1.0625 42.726562 1.589843 65.589843 1.589843s44.84375-.527343 65.589844-1.589843c5.117187-.261719 10.148437-.527344 15.09375-.882813 1.765625-.085937 3.441406-.175781 5.207031-.351562 4.945313-.265625 9.886719-.617188 14.65625-1.058594l9.003906-.796875c7.765626-.703125 15.359376-1.5 22.507813-2.292969 3.445313-.441406 6.710937-.882812 9.976563-1.324218 2.117187-.265626 4.324218-.53125 6.355468-.882813 2.558594-.351563 5.207032-.792969 7.679688-1.148437 2.472656-.351563 4.945312-.792969 7.328125-1.234376 11.097656-1.863281 22.066406-4.425781 32.835937-7.679687 1.207032-.289063 2.386719-.675781 3.53125-1.148437 1.148438-.351563 2.207032-.792969 3.269532-1.148438zm0 0" fill="#e4c05c"/><path d="m461.207031 35.308594c0-19.5-98.804687-35.308594-220.6875-35.308594-121.882812 0-220.691406 15.808594-220.691406 35.308594 0 19.503906 98.808594 35.3125 220.691406 35.3125 121.882813 0 220.6875-15.808594 220.6875-35.3125zm0 0" fill="#802f34"/><path d="m284.65625 282.484375c0 24.375-19.761719 44.136719-44.136719 44.136719-24.378906 0-44.140625-19.761719-44.140625-44.136719 0-24.378906 19.761719-44.140625 44.140625-44.140625 24.375 0 44.136719 19.761719 44.136719 44.140625zm0 0" fill="#b19046"/><path d="m275.828125 282.484375c0 19.5-15.808594 35.308594-35.308594 35.308594-19.503906 0-35.3125-15.808594-35.3125-35.308594 0-19.503906 15.808594-35.3125 35.3125-35.3125 19.5 0 35.308594 15.808594 35.308594 35.3125zm0 0" fill="#e4c05c"/><path d="m275.828125 211.863281c0 26.816407-15.808594 26.480469-35.308594 26.480469s-35.3125.335938-35.3125-26.480469c0-26.820312 35.3125-70.621093 35.3125-70.621093s35.308594 43.800781 35.308594 70.621093zm0 0" fill="#b19046"/><path d="m239.636719 229.515625c-6.859375.628906-13.769531-.171875-20.304688-2.347656-1.457031-.785157-5.296875-2.894531-5.296875-15.304688 0-15.625 15.5625-40.742187 26.484375-55.976562 10.917969 15.246093 26.480469 40.378906 26.480469 55.976562 0 16.957031-5.207031 17.652344-25.09375 17.652344zm0 0" fill="#e4c05c"/><path d="m55.140625 211.863281c-4.875 0-8.828125-3.953125-8.828125-8.828125v-79.449218c0-4.875 3.953125-8.828126 8.828125-8.828126s8.828125 3.953126 8.828125 8.828126v79.449218c0 4.875-3.953125 8.828125-8.828125 8.828125zm0 0" fill="#547580"/><path d="m55.140625 256c-4.875 0-8.828125-3.953125-8.828125-8.828125v-8.828125c0-4.875 3.953125-8.828125 8.828125-8.828125s8.828125 3.953125 8.828125 8.828125v8.828125c0 4.875-3.953125 8.828125-8.828125 8.828125zm0 0" fill="#547580"/><path d="m425.898438 35.308594c0-14.625-88.925782-26.480469-198.621094-26.480469-109.695313 0-198.621094 11.855469-198.621094 26.480469 0 14.628906 88.925781 26.484375 198.621094 26.484375 109.695312 0 198.621094-11.855469 198.621094-26.484375zm0 0" fill="#cc4b4c"/><g fill="#f9eab0"><path d="m249.347656 273.65625c0 9.75-7.90625 17.652344-17.65625 17.652344s-17.65625-7.902344-17.65625-17.652344 7.90625-17.65625 17.65625-17.65625 17.65625 7.90625 17.65625 17.65625zm0 0"/><path d="m240.519531 203.035156c0-9.75-3.953125-17.65625-8.828125-17.65625s-8.828125 7.90625-8.828125 17.65625 3.953125 17.65625 8.828125 17.65625 8.828125-7.90625 8.828125-17.65625zm0 0"/></g></svg>