<svg height="511pt" viewBox="0 -56 511.09799 511" width="511pt" xmlns="http://www.w3.org/2000/svg"><path d="m449.84375 48.425781-211.949219 242.933594-176.640625-242.933594 17.742188-17.746093 26.484375 3.179687 26.480469-20.832031 27.277343 12.796875 27.808594-22.949219 42.019531 14.828125 26.484375-17.6523438 26.480469 17.6523438 42.019531-14.828125 27.808594 22.949219 27.277344-12.796875 26.480469 20.832031 26.484374-3.179687zm0 0" fill="#2c3e50"/><path d="m495.835938 185.871094c-.789063 1.363281-.789063 3.046875 0 4.414062l14.390624 24.890625c.785157 1.367188.785157 3.050781 0 4.414063l-14.390624 24.894531c-.789063 1.367187-.789063 3.046875 0 4.414063l14.390624 24.894531c.785157 1.363281.785157 3.046875 0 4.414062l-14.480468 25.070313c-.804688 1.25-.871094 2.835937-.175782 4.148437l13.507813 27.277344c.601563 1.191406.636719 2.589844.085937 3.808594-.546874 1.21875-1.617187 2.121093-2.910156 2.457031l-28.339844 7.0625c-1.070312.289062-2.007812.945312-2.644531 1.855469l-14.832031 22.246093c-1.082031 1.664063-3.148438 2.390626-5.03125 1.765626l-21.1875-7.0625c-1.34375-.46875-2.832031-.234376-3.972656.617187l-22.6875 16.066406c-1.21875.828125-2.757813 1.027344-4.148438.53125l-22.246094-8.300781c-1.277343-.503906-2.71875-.375-3.882812.355469l-22.863281 14.300781c-1.132813.714844-2.527344.875-3.796875.441406l-30.984375-10.949218c-1.4375-.523438-3.046875-.253907-4.238281.707031l-22.421876 17.65625c-1.300781 1.042969-3.085937 1.25-4.589843.53125l-30.984375-14.039063c-1.179688-.527344-2.527344-.527344-3.707032 0l-30.984374 14.039063c-1.503907.71875-3.289063.511719-4.589844-.53125l-22.421875-17.65625c-1.191407-.960938-2.800781-1.230469-4.238281-.707031l-30.984376 10.949218c-1.265624.433594-2.664062.273438-3.796874-.441406l-22.863282-14.300781c-1.164062-.730469-2.605468-.859375-3.882812-.355469l-22.246094 8.300781c-1.390625.496094-2.929688.296875-4.148438-.53125l-22.6875-16.066406c-1.140624-.851563-2.628906-1.085937-3.972656-.617187l-21.1875 7.0625c-1.882812.625-3.949218-.101563-5.03125-1.765626l-14.828125-22.246093c-.640625-.910157-1.578125-1.566407-2.648437-1.855469l-28.339844-7.0625c-1.289062-.335938-2.363281-1.238281-2.910156-2.457031-.550782-1.21875-.515625-2.617188.085937-3.808594l13.507813-27.277344c.695312-1.3125.628906-2.898437-.175782-4.148437l-14.476562-25.070313c-.7890625-1.367187-.7890625-3.050781 0-4.414062l14.386719-24.894531c.789062-1.367188.789062-3.046876 0-4.414063l-14.386719-24.894531c-.7890625-1.363282-.7890625-3.046875 0-4.414063l14.386719-24.890625c.789062-1.367187.789062-3.050781 0-4.414062l-14.386719-24.894532c-.7890625-1.367187-.7890625-3.050781 0-4.414062l14.386719-24.894531c.789062-1.367188.789062-3.046875 0-4.414063l-14.652344-25.335937c-.7070312-1.175781-.804687-2.621094-.265625-3.882813l16.242188-40.871094h.617187l43.960937-8.828124.089844.089843.882813.96875 23.394531 25.867188c1.109375 1.167969 2.75 1.671875 4.324219 1.324219l3.53125-.882813 36.546875-9.183594c.605468-.175781 1.246094-.175781 1.851562 0 .683594.007813 1.339844.257813 1.855469.707031l31.515625 22.6875c1.332031.90625 3.042969 1.039063 4.5.351563l2.472656-1.144531c.085938 0 .175782-.089844.265625-.089844l19.773438-9.269531c1.304687-.292969 2.671875.03125 3.707031.882812l22.246094 17.480469c1.300781 1.042969 3.085937 1.246094 4.589844.527344l30.984374-14.035156c1.179688-.527344 2.527344-.527344 3.707032 0l30.984375 14.035156c1.503906.71875 3.289062.515625 4.589843-.527344l22.246094-17.480469c1.035156-.851562 2.402344-1.175781 3.707032-.882812l19.773437 9.269531c.230469.101562.46875.191406.707031.265625l2.03125.96875c1.457032.6875 3.167969.554687 4.503906-.351563l31.511719-22.6875c.535157-.414062 1.179688-.660156 1.855469-.707031.605469-.175781 1.246094-.175781 1.851562 0l36.546876 9.183594 3.53125.882813c1.574218.347656 3.21875-.15625 4.324218-1.324219l23.394532-25.867188.882812-.96875.089844-.089843 43.960937 8.828124h.617188l16.242187 40.871094c.539063 1.261719.441406 2.707032-.265625 3.882813l-14.652343 25.335937c-.789063 1.367188-.789063 3.046875 0 4.414063l14.390624 24.894531c.785157 1.363281.785157 3.046875 0 4.414062zm0 0" fill="#35495e"/><path d="m487.980469 181.632812c-.796875 1.332032-.796875 2.992188 0 4.324219l13.945312 24.101563c.796875 1.332031.796875 2.992187 0 4.324218l-13.945312 24.097657c-.796875 1.300781-.796875 2.9375 0 4.238281l13.945312 24.1875c.796875 1.300781.796875 2.9375 0 4.238281l-14.035156 24.277344c-.761719 1.230469-.828125 2.765625-.175781 4.058594l13.152344 26.484375c.5625 1.15625.570312 2.507812.023437 3.675781-.550781 1.164063-1.597656 2.019531-2.847656 2.324219l-27.453125 6.886718c-1.003906.28125-1.878906.90625-2.472656 1.765626l-14.390626 21.628906c-1.050781 1.589844-3.042968 2.277344-4.851562 1.675781l-20.480469-6.886719c-1.292969-.429687-2.710937-.199218-3.796875.621094l-22.070312 15.535156c-1.105469.863282-2.585938 1.066406-3.882813.53125l-21.539062-8.035156c-1.253907-.460938-2.648438-.332031-3.796875.351562l-22.070313 13.859376c-1.101562.710937-2.46875.875-3.707031.441406l-4.058594-1.410156-25.953125-9.179688c-1.382812-.527344-2.941406-.257812-4.0625.703125l-21.714843 17.125c-1.269532.960937-2.953126 1.164063-4.414063.53125l-30.011719-13.683594c-1.136718-.441406-2.398437-.441406-3.53125 0l-30.015625 13.683594c-1.460937.632813-3.144531.429687-4.414062-.53125l-21.714844-17.125c-1.121094-.960937-2.679687-1.230469-4.0625-.703125l-25.953125 9.179688-4.058594 1.410156c-1.238281.433594-2.605468.269531-3.707031-.441406l-22.070313-13.859376c-1.148437-.683593-2.542968-.8125-3.796874-.351562l-21.539063 8.035156c-1.296875.535156-2.777344.332032-3.882813-.53125l-22.070312-15.535156c-1.085938-.820312-2.503906-1.050781-3.796875-.621094l-20.476563 6.886719c-1.8125.601563-3.800781-.085937-4.855468-1.675781l-14.390625-21.628906c-.59375-.859376-1.46875-1.484376-2.472657-1.765626l-27.453124-6.886718c-1.25-.304688-2.296876-1.160156-2.847657-2.324219-.546875-1.167969-.539062-2.519531.023438-3.675781l13.152343-26.484375c.652344-1.292969.585938-2.828125-.175781-4.058594l-14.035156-24.277344c-.796875-1.300781-.796875-2.9375 0-4.238281l13.945313-24.1875c.796874-1.300781.796874-2.9375 0-4.238281l-13.945313-24.097657c-.796875-1.332031-.796875-2.992187 0-4.324218l13.945313-24.101563c.796874-1.332031.796874-2.992187 0-4.324219l-13.945313-24.101562c-.796875-1.332031-.796875-2.992188 0-4.324219l13.945313-24.097656c.796874-1.332031.796874-2.996094 0-4.328125l-14.121094-24.539062c-.691406-1.113282-.820313-2.484376-.355469-3.707032l15.714844-39.636718h.617187l37.164063-7.503907 23.394531 25.867188c1.109375 1.167969 2.75 1.671875 4.324219 1.324219l3.53125-.882813c.605469.175781 1.246093.175781 1.851562 0l36.546875-9.183594c.683594.007813 1.339844.257813 1.855469.707031l22.332031 16.066407 9.183594 6.621093c1.332031.90625 3.042969 1.039063 4.5.351563l2.472656-1.144531c.085938 0 .175782-.089844.265625-.089844l19.773438-9.269531c1.304687-.292969 2.671875.03125 3.707031.882812l22.246094 17.480469c1.300781 1.042969 3.085937 1.246094 4.589844.527344l30.984374-14.035156c1.179688-.527344 2.527344-.527344 3.707032 0l30.984375 14.035156c1.503906.71875 3.289062.515625 4.589843-.527344l22.246094-17.480469c1.035156-.851562 2.402344-1.175781 3.707032-.882812l19.773437 9.269531c.230469.101562.46875.191406.707031.265625l2.03125.96875c1.457032.6875 3.167969.554687 4.503906-.351563l9.179688-6.621093 22.332031-16.066407c.535157-.414062 1.179688-.660156 1.855469-.707031l36.546875 9.183594c.605469.175781 1.246094.175781 1.851563 0l3.53125.882813c1.574218.347656 3.21875-.15625 4.324218-1.324219l23.394532-25.867188 37.164062 7.503907h.617188l15.714843 39.636718c.464844 1.222656.335938 2.59375-.355469 3.707032l-14.121093 24.539062c-.796875 1.332031-.796875 2.996094 0 4.328125l13.945312 24.097656c.796875 1.332031.796875 2.992188 0 4.324219zm0 0" fill="#3f5c6c"/><path d="m405.617188 225.152344c0 63.207031-24.453126 119.261718-62.144532 153.777344l-25.953125-9.179688c-1.382812-.527344-2.941406-.257812-4.0625.703125l-21.714843 17.125c-1.269532.960937-2.953126 1.164063-4.414063.53125l-30.011719-13.683594c-1.136718-.441406-2.398437-.441406-3.53125 0l-30.015625 13.683594c-1.460937.632813-3.144531.429687-4.414062-.53125l-21.714844-17.125c-1.121094-.960937-2.679687-1.230469-4.0625-.703125l-25.953125 9.179688c-37.691406-34.515626-62.144531-90.570313-62.144531-153.777344-.949219-51.847656 17-102.269532 50.492187-141.859375l9.183594 6.621093c1.332031.90625 3.042969 1.039063 4.5.351563l2.472656-1.144531c.085938 0 .175782-.089844.265625-.089844l19.773438-9.269531c1.304687-.292969 2.671875.03125 3.707031.882812l22.246094 17.480469c1.300781 1.042969 3.085937 1.246094 4.589844.527344l30.984374-14.035156c1.179688-.527344 2.527344-.527344 3.707032 0l30.984375 14.035156c1.503906.71875 3.289062.515625 4.589843-.527344l22.246094-17.480469c1.035156-.851562 2.402344-1.175781 3.707032-.882812l19.773437 9.269531c.230469.101562.46875.191406.707031.265625l2.03125.96875c1.457032.6875 3.167969.554687 4.503906-.351563l9.179688-6.621093c33.496094 39.589843 51.441406 90.011719 50.492188 141.859375zm0 0" fill="#547580"/><g fill="#35495e"><path d="m61.34375 145.421875c-4.878906 0-8.828125-3.953125-8.828125-8.828125v-26.480469c0-4.878906 3.949219-8.828125 8.828125-8.828125 4.875 0 8.824219 3.949219 8.824219 8.828125v26.480469c0 4.875-3.949219 8.828125-8.824219 8.828125zm0 0"/><path d="m105.480469 198.386719c-4.875 0-8.828125-3.953125-8.828125-8.828125v-26.480469c0-4.875 3.953125-8.828125 8.828125-8.828125s8.828125 3.953125 8.828125 8.828125v26.480469c0 4.875-3.953125 8.828125-8.828125 8.828125zm0 0"/><path d="m70.167969 233.699219c-4.875 0-8.824219-3.953125-8.824219-8.828125v-26.484375c0-4.875 3.949219-8.828125 8.824219-8.828125 4.878906 0 8.828125 3.953125 8.828125 8.828125v26.484375c0 4.875-3.949219 8.828125-8.828125 8.828125zm0 0"/><path d="m52.515625 321.972656c-4.875 0-8.828125-3.953125-8.828125-8.828125v-26.480469c0-4.875 3.953125-8.828124 8.828125-8.828124s8.828125 3.953124 8.828125 8.828124v26.480469c0 4.875-3.953125 8.828125-8.828125 8.828125zm0 0"/><path d="m96.652344 295.492188c-4.875 0-8.828125-3.953126-8.828125-8.828126v-26.484374c0-4.875 3.953125-8.828126 8.828125-8.828126s8.828125 3.953126 8.828125 8.828126v26.484374c0 4.875-3.953125 8.828126-8.828125 8.828126zm0 0"/><path d="m131.960938 348.457031c-4.875 0-8.824219-3.953125-8.824219-8.828125v-26.484375c0-4.875 3.949219-8.828125 8.824219-8.828125 4.878906 0 8.828124 3.953125 8.828124 8.828125v26.484375c0 4.875-3.949218 8.828125-8.828124 8.828125zm0 0"/><path d="m158.445312 163.078125c-4.875 0-8.828124-3.953125-8.828124-8.828125v-26.484375c0-4.875 3.953124-8.828125 8.828124-8.828125s8.828126 3.953125 8.828126 8.828125v26.484375c0 4.875-3.953126 8.828125-8.828126 8.828125zm0 0"/><path d="m140.789062 269.007812c-4.875 0-8.828124-3.953124-8.828124-8.828124v-26.480469c0-4.878907 3.953124-8.828125 8.828124-8.828125s8.828126 3.949218 8.828126 8.828125v26.480469c0 4.875-3.953126 8.828124-8.828126 8.828124zm0 0"/><path d="m176.101562 224.871094c-4.875 0-8.828124-3.953125-8.828124-8.828125v-26.484375c0-4.875 3.953124-8.828125 8.828124-8.828125s8.828126 3.953125 8.828126 8.828125v26.484375c0 4.875-3.953126 8.828125-8.828126 8.828125zm0 0"/><path d="m184.929688 330.800781c-4.875 0-8.828126-3.953125-8.828126-8.828125v-26.480468c0-4.875 3.953126-8.828126 8.828126-8.828126s8.828124 3.953126 8.828124 8.828126v26.480468c0 4.875-3.953124 8.828125-8.828124 8.828125zm0 0"/><path d="m229.066406 339.628906c-4.875 0-8.828125-3.953125-8.828125-8.828125v-26.484375c0-4.875 3.953125-8.824218 8.828125-8.824218s8.828125 3.949218 8.828125 8.824218v26.484375c0 4.875-3.953125 8.828125-8.828125 8.828125zm0 0"/><path d="m211.410156 269.007812c-4.875 0-8.828125-3.953124-8.828125-8.828124v-26.480469c0-4.878907 3.953125-8.828125 8.828125-8.828125s8.828125 3.949218 8.828125 8.828125v26.480469c0 4.875-3.953125 8.828124-8.828125 8.828124zm0 0"/><path d="m255.550781 163.078125c-4.878906 0-8.828125-3.953125-8.828125-8.828125v-26.484375c0-4.875 3.949219-8.828125 8.828125-8.828125 4.875 0 8.824219 3.953125 8.824219 8.828125v26.484375c0 4.875-3.949219 8.828125-8.824219 8.828125zm0 0"/><path d="m211.410156 180.730469c-4.875 0-8.828125-3.949219-8.828125-8.824219v-26.484375c0-4.875 3.953125-8.828125 8.828125-8.828125s8.828125 3.953125 8.828125 8.828125v26.484375c0 4.875-3.953125 8.824219-8.828125 8.824219zm0 0"/><path d="m449.757812 145.421875c-4.878906 0-8.828124-3.953125-8.828124-8.828125v-26.480469c0-4.878906 3.949218-8.828125 8.828124-8.828125 4.875 0 8.824219 3.949219 8.824219 8.828125v26.480469c0 4.875-3.949219 8.828125-8.824219 8.828125zm0 0"/><path d="m405.617188 198.386719c-4.875 0-8.828126-3.953125-8.828126-8.828125v-26.480469c0-4.875 3.953126-8.828125 8.828126-8.828125s8.828124 3.953125 8.828124 8.828125v26.480469c0 4.875-3.953124 8.828125-8.828124 8.828125zm0 0"/><path d="m440.929688 233.699219c-4.875 0-8.828126-3.953125-8.828126-8.828125v-26.484375c0-4.875 3.953126-8.828125 8.828126-8.828125s8.828124 3.953125 8.828124 8.828125v26.484375c0 4.875-3.953124 8.828125-8.828124 8.828125zm0 0"/><path d="m458.582031 321.972656c-4.875 0-8.824219-3.953125-8.824219-8.828125v-26.480469c0-4.875 3.949219-8.828124 8.824219-8.828124s8.828125 3.953124 8.828125 8.828124v26.480469c0 4.875-3.953125 8.828125-8.828125 8.828125zm0 0"/><path d="m414.445312 295.492188c-4.875 0-8.828124-3.953126-8.828124-8.828126v-26.484374c0-4.875 3.953124-8.828126 8.828124-8.828126s8.828126 3.953126 8.828126 8.828126v26.484374c0 4.875-3.953126 8.828126-8.828126 8.828126zm0 0"/><path d="m379.136719 348.457031c-4.875 0-8.828125-3.953125-8.828125-8.828125v-26.484375c0-4.875 3.953125-8.828125 8.828125-8.828125s8.824219 3.953125 8.824219 8.828125v26.484375c0 4.875-3.949219 8.828125-8.824219 8.828125zm0 0"/><path d="m352.652344 163.078125c-4.875 0-8.828125-3.953125-8.828125-8.828125v-26.484375c0-4.875 3.953125-8.828125 8.828125-8.828125s8.828125 3.953125 8.828125 8.828125v26.484375c0 4.875-3.953125 8.828125-8.828125 8.828125zm0 0"/><path d="m370.308594 269.007812c-4.875 0-8.828125-3.953124-8.828125-8.828124v-26.480469c0-4.878907 3.953125-8.828125 8.828125-8.828125s8.828125 3.949218 8.828125 8.828125v26.480469c0 4.875-3.953125 8.828124-8.828125 8.828124zm0 0"/><path d="m334.996094 224.871094c-4.875 0-8.828125-3.953125-8.828125-8.828125v-26.484375c0-4.875 3.953125-8.828125 8.828125-8.828125s8.828125 3.953125 8.828125 8.828125v26.484375c0 4.875-3.953125 8.828125-8.828125 8.828125zm0 0"/><path d="m326.167969 330.800781c-4.875 0-8.824219-3.953125-8.824219-8.828125v-26.480468c0-4.875 3.949219-8.828126 8.824219-8.828126 4.878906 0 8.828125 3.953126 8.828125 8.828126v26.480468c0 4.875-3.949219 8.828125-8.828125 8.828125zm0 0"/><path d="m282.03125 339.628906c-4.875 0-8.828125-3.953125-8.828125-8.828125v-26.484375c0-4.875 3.953125-8.824218 8.828125-8.824218s8.828125 3.949218 8.828125 8.824218v26.484375c0 4.875-3.953125 8.828125-8.828125 8.828125zm0 0"/><path d="m299.6875 269.007812c-4.875 0-8.828125-3.953124-8.828125-8.828124v-26.480469c0-4.878907 3.953125-8.828125 8.828125-8.828125s8.828125 3.949218 8.828125 8.828125v26.480469c0 4.875-3.953125 8.828124-8.828125 8.828124zm0 0"/><path d="m299.6875 180.730469c-4.875 0-8.828125-3.949219-8.828125-8.824219v-26.484375c0-4.875 3.953125-8.828125 8.828125-8.828125s8.828125 3.953125 8.828125 8.828125v26.484375c0 4.875-3.953125 8.824219-8.828125 8.824219zm0 0"/><path d="m255.550781 251.351562c-4.878906 0-8.828125-3.949218-8.828125-8.828124v-26.480469c0-4.875 3.949219-8.828125 8.828125-8.828125 4.875 0 8.824219 3.953125 8.824219 8.828125v26.480469c0 4.878906-3.949219 8.828124-8.824219 8.828124zm0 0"/></g></svg>