<svg height="512pt" viewBox="0 -79 512 512" width="512pt" xmlns="http://www.w3.org/2000/svg"><path d="m512 44.136719v264.828125c0 5.828125-6.53125 11.386718-18.363281 16.421875-36.808594 15.800781-124.910157 27.097656-228.808594 27.628906-2.914063.085937-5.828125.085937-8.828125.085937s-5.914062 0-8.828125-.085937c-103.898437-.53125-192-11.828125-228.808594-27.628906-11.832031-5.035157-18.363281-10.59375-18.363281-16.421875v-264.828125c0 5.738281 6.269531 11.125 17.65625 16.15625 37.429688 16.417969 130.027344 27.984375 238.34375 27.984375s200.914062-11.566406 238.34375-27.984375c11.386719-5.03125 17.65625-10.417969 17.65625-16.15625zm0 0" fill="#b19046"/><path d="m494.34375 60.292969v261.296875c-.019531 1.296875-.257812 2.578125-.707031 3.796875-36.808594 15.800781-124.910157 27.097656-228.808594 27.628906-2.914063.085937-5.828125.085937-8.828125.085937s-5.914062 0-8.828125-.085937c-103.898437-.53125-192-11.828125-228.808594-27.628906-.449219-1.21875-.6875-2.5-.707031-3.796875v-261.296875c37.429688 16.417969 130.027344 27.984375 238.34375 27.984375s200.914062-11.566406 238.34375-27.984375zm0 0" fill="#e4c05c"/><path d="m308.964844 145.65625c0-31.691406-23.710938-57.378906-52.964844-57.378906s-52.964844 25.6875-52.964844 57.378906c0 31.6875 23.710938 57.378906 52.964844 57.378906s52.964844-25.691406 52.964844-57.378906zm0 0" fill="#c03a2b"/><path d="m300.136719 145.65625c0-26.410156-19.761719-47.820312-44.136719-47.820312s-44.136719 21.410156-44.136719 47.820312 19.761719 47.816406 44.136719 47.816406 44.136719-21.40625 44.136719-47.816406zm0 0" fill="#e64c3c"/><path d="m103.195312 229.695312c-29.257812 2.738282-51.292968 27.835938-50.230468 57.203126-.921875 28.347656 19.53125 52.898437 47.582031 57.113281 1.789063.179687 3.585937.265625 5.382813.265625 30.445312-1.277344 54.125-26.933594 52.96875-57.378906.582031-24.894532-15.078126-47.28125-38.667969-55.261719zm0 0" fill="#c03a2b"/><path d="m103.652344 239.226562c-23.539063 3.136719-41.289063 22.945313-41.839844 46.6875-.550781 23.738282 16.265625 44.347657 39.632812 48.570313 1.492188.152344 2.988282.226563 4.484376.222656 25.367187-1.066406 45.101562-22.4375 44.140624-47.808593.488282-20.746094-12.566406-39.402344-32.222656-46.054688zm0 0" fill="#e64c3c"/><path d="m391.769531 231.636719c-23.589843 7.980469-39.25 30.367187-38.667969 55.261719-1.15625 30.445312 22.523438 56.101562 52.96875 57.378906 1.796876 0 3.59375-.085938 5.382813-.265625 28.050781-4.214844 48.503906-28.765625 47.582031-57.113281 1.0625-29.367188-20.972656-54.464844-50.230468-57.203126zm0 0" fill="#c03a2b"/><path d="m393.929688 239.996094c-20.023438 6.769531-33.320313 25.769531-32.828126 46.902344-.992187 25.855468 19.117188 47.640624 44.96875 48.726562 1.523438.015625 3.050782-.042969 4.570313-.175781 23.882813-4.238281 41.101563-25.269531 40.539063-49.519531s-18.734376-44.457032-42.789063-47.585938zm0 0" fill="#e64c3c"/><g fill="#fb7b76"><path d="m256 158.898438c-4.875 0-8.828125-3.953126-8.828125-8.828126v-8.828124c0-4.875 3.953125-8.828126 8.828125-8.828126s8.828125 3.953126 8.828125 8.828126v8.828124c0 4.875-3.953125 8.828126-8.828125 8.828126zm0 0"/><path d="m105.929688 300.136719c-4.875 0-8.828126-3.949219-8.828126-8.828125v-8.824219c0-4.878906 3.953126-8.828125 8.828126-8.828125s8.828124 3.949219 8.828124 8.828125v8.824219c0 4.878906-3.953124 8.828125-8.828124 8.828125zm0 0"/><path d="m406.070312 300.136719c-4.875 0-8.828124-3.949219-8.828124-8.828125v-8.824219c0-4.878906 3.953124-8.828125 8.828124-8.828125s8.828126 3.949219 8.828126 8.828125v8.824219c0 4.878906-3.953126 8.828125-8.828126 8.828125zm0 0"/></g><path d="m35.308594 150.070312c-4.875 0-8.824219-3.953124-8.824219-8.828124v-26.484376c0-4.875 3.949219-8.828124 8.824219-8.828124 4.878906 0 8.828125 3.953124 8.828125 8.828124v26.484376c0 4.875-3.949219 8.828124-8.828125 8.828124zm0 0" fill="#f9eab0"/><path d="m264.828125 238.34375v114.671875c-2.914063.085937-5.828125.085937-8.828125.085937s-5.914062 0-8.828125-.085937v-114.671875c0-4.875 3.953125-8.828125 8.828125-8.828125s8.828125 3.953125 8.828125 8.828125zm0 0" fill="#f5efca"/><path d="m414.898438 202.328125c-4.878907 0-8.828126-3.953125-8.828126-8.828125v-114.050781c0-4.875 3.949219-8.828125 8.828126-8.828125 4.875 0 8.824218 3.953125 8.824218 8.828125v114.050781c0 4.875-3.949218 8.828125-8.824218 8.828125zm0 0" fill="#f5efca"/><path d="m97.101562 202.328125c-4.875 0-8.824218-3.953125-8.824218-8.828125v-114.050781c0-4.875 3.949218-8.828125 8.824218-8.828125 4.878907 0 8.828126 3.953125 8.828126 8.828125v114.050781c0 4.875-3.949219 8.828125-8.828126 8.828125zm0 0" fill="#f5efca"/><path d="m17.65625 175.050781v35.3125c-11.386719-5.035156-17.65625-10.417969-17.65625-16.15625v-35.308593c0 5.734374 6.269531 11.121093 17.65625 16.152343zm0 0" fill="#f9eab0"/><path d="m512 158.898438v35.308593c0 5.738281-6.269531 11.121094-17.65625 16.15625v-35.3125c11.386719-5.03125 17.65625-10.417969 17.65625-16.152343zm0 0" fill="#f9eab0"/><path d="m494.34375 175.050781v35.3125c-37.429688 16.417969-130.027344 27.980469-238.34375 27.980469s-200.914062-11.5625-238.34375-27.980469v-35.3125c37.429688 16.417969 130.027344 27.984375 238.34375 27.984375s200.914062-11.566406 238.34375-27.984375zm0 0" fill="#f5efca"/><path d="m512 44.136719c0-24.375-114.613281-44.136719-256-44.136719s-256 19.761719-256 44.136719c0 24.378906 114.613281 44.140625 256 44.140625s256-19.761719 256-44.140625zm0 0" fill="#f9eab0"/><path d="m432.550781 44.136719c0-20.59375-94.851562-37.285157-211.859375-37.285157-117.011718 0-211.863281 16.691407-211.863281 37.285157s94.851563 37.289062 211.863281 37.289062c117.007813 0 211.859375-16.695312 211.859375-37.289062zm0 0" fill="#f5efca"/><path d="m344.277344 52.964844h-176.554688c-4.875 0-8.824218-3.953125-8.824218-8.828125s3.949218-8.828125 8.824218-8.828125h176.554688c4.875 0 8.824218 3.953125 8.824218 8.828125s-3.949218 8.828125-8.824218 8.828125zm0 0" fill="#e4c05c"/></svg>