<svg height="512pt" viewBox="0 -53 512.00021 512" width="512pt" xmlns="http://www.w3.org/2000/svg"><path d="m510.234375 388.414062c-8.421875-41.089843-44.566406-70.59375-86.511719-70.621093h-52.964844l-47.933593-122.351563-42.988281-109.8125c-.511719-1.148437-1.132813-2.242187-1.855469-3.265625h-.289063c16.3125-9.136719 25.050782-27.605469 21.761719-46.011719-3.285156-18.40625-17.871094-32.710937-36.339844-35.636718-4.695312-.953125-9.53125-.953125-14.226562 0-18.46875 2.925781-33.054688 17.230468-36.339844 35.636718s5.449219 36.875 21.765625 46.011719h-.292969c-.722656 1.023438-1.34375 2.117188-1.855469 3.265625l-42.988281 109.8125-47.933593 122.351563h-52.964844c-23.421875-.027344-45.890625 9.265625-62.449219 25.828125-16.5625 16.558594-25.8554688 39.027344-25.828125 62.449218h512c.003906-5.929687-.589844-11.84375-1.765625-17.65625zm0 0" fill="#fb7b76"/><path d="m234.019531 82.363281h14.210938l-51.023438 134.441407-8.03125-21.363282 42.988281-109.8125c.511719-1.148437 1.132813-2.242187 1.855469-3.265625zm0 0" fill="#894b9d"/><path d="m322.824219 195.441406-7.414063 19.773438-51.464844-132.851563h14.035157c.722656 1.023438 1.34375 2.117188 1.855469 3.265625zm0 0" fill="#894b9d"/><path d="m189.175781 195.441406 8.03125 21.363282-38.308593 100.988281h-17.65625zm0 0" fill="#b19046"/><path d="m370.757812 317.792969h-15.625l-39.722656-102.578125 7.414063-19.773438zm0 0" fill="#b19046"/><path d="m355.132812 317.792969h-196.234374l38.308593-100.988281 14.65625 39.195312 44.136719-88.277344 44.136719 88.277344 15.273437-40.785156zm0 0" fill="#e4c05c"/><path d="m315.410156 215.214844-15.273437 40.785156-44.136719-88.277344-44.136719 88.277344-14.65625-39.195312 51.023438-134.441407h15.714843zm0 0" fill="#955ba5"/><g fill="#c03a2b"><path d="m263.945312 82.363281h-15.714843l7.769531-20.570312zm0 0"/><path d="m361.929688 335.449219-203.03125-17.65625h196.234374zm0 0"/><path d="m512 406.070312h-512c-.0273438-23.421874 9.265625-45.890624 25.828125-62.449218 16.558594-16.5625 39.027344-25.855469 62.449219-25.828125h335.445312c23.421875-.027344 45.890625 9.265625 62.449219 25.828125 16.5625 16.558594 25.855469 39.027344 25.828125 62.449218zm0 0"/></g><path d="m510.234375 388.414062h-508.46875c8.445313-41.074218 44.578125-70.570312 86.511719-70.621093h335.445312c41.945313.027343 78.089844 29.53125 86.511719 70.621093zm0 0" fill="#b19046"/><path d="m494.34375 406.070312h-476.6875c-.003906-5.925781.542969-11.835937 1.640625-17.65625 7.644531-40.253906 46.910156-52.964843 86.632813-52.964843h300.140624c22.6875 0 38.089844 10.503906 52.964844 26.480469 11.175782 12.007812 30.375 9.183593 33.667969 26.484374 1.097656 5.820313 1.644531 11.730469 1.640625 17.65625zm0 0" fill="#e64c3c"/><path d="m492.703125 388.414062h-473.40625c6.421875-39.816406 40.226563-69.457031 80.542969-70.621093h312.320312c22.128906.125 43.199219 9.503906 58.101563 25.863281 11.542969 12.511719 19.324219 28.023438 22.441406 44.757812zm0 0" fill="#e4c05c"/><path d="m150.070312 317.792969-35.3125 52.964843-35.042968-52.523437zm0 0" fill="#e64c3c"/><path d="m150.070312 317.792969 35.308594 52.964843 35.3125-52.964843zm0 0" fill="#955ba5"/><path d="m220.691406 317.792969 35.308594 52.964843 35.308594-52.964843zm0 0" fill="#e64c3c"/><path d="m291.308594 317.792969 35.3125 52.964843 35.308594-52.964843zm0 0" fill="#955ba5"/><path d="m432.285156 318.234375-35.042968 52.523437-35.3125-52.964843zm0 0" fill="#e64c3c"/><path d="m300.136719 44.136719c0 24.378906-19.761719 44.140625-44.136719 44.140625s-44.136719-19.761719-44.136719-44.140625c0-24.375 19.761719-44.136719 44.136719-44.136719s44.136719 19.761719 44.136719 44.136719zm0 0" fill="#c03a2b"/><path d="m291.308594 35.308594c0 19.503906-15.808594 35.3125-35.308594 35.3125s-35.308594-15.808594-35.308594-35.3125c0-19.5 15.808594-35.308594 35.308594-35.308594s35.308594 15.808594 35.308594 35.308594zm0 0" fill="#e64c3c"/><path d="m264.828125 26.484375c0 9.75-7.90625 17.652344-17.65625 17.652344s-17.65625-7.902344-17.65625-17.652344c0-9.753906 7.90625-17.65625 17.65625-17.65625s17.65625 7.902344 17.65625 17.65625zm0 0" fill="#fb7b76"/></svg>