<svg height="511pt" viewBox="0 -114 511.66019 511" width="511pt" xmlns="http://www.w3.org/2000/svg"><path d="m486.296875 113.371094c-34.136719 25.601562-34.136719 85.335937-34.136719 85.335937h-401.066406c4.035156-33.433593-5.152344-67.113281-25.597656-93.867187 5.890625-5.398438 12.496094-9.960938 19.625-13.570313 15.257812-7.996093 32.109375-12.488281 49.324218-13.140625 8.320313-.5 16.671876-.128906 24.917969 1.109375 59.730469 8.535157 119.464844 51.199219 145.066407 51.199219 25.597656 0 85.332031 8.535156 110.933593-25.597656 11.007813-14.679688 33.109375-15.191406 54.695313-10.925782 9.527344 1.972657 18.910156 4.597657 28.078125 7.851563 9.609375 3.300781 19.011719 7.175781 28.160156 11.605469zm0 0" fill="#804537"/><path d="m435.09375 198.707031h-366.933594c5.632813-39.425781-11.089844-82.691406-23.039062-107.4375 15.257812-7.996093 32.109375-12.488281 49.324218-13.140625 8.617188.683594 17.238282 1.109375 24.917969 1.109375 34.132813 0 68.265625 25.601563 145.066407 51.199219 76.796874 25.601562 102.398437-25.597656 145.066406-34.132812 6.765625-1.425782 13.652344-2.226563 20.5625-2.390626 10.019531-1.074218 20.070312 1.734376 28.078125 7.851563 1.019531.875 1.882812 1.914063 2.558593 3.074219-34.132812 34.132812-25.601562 93.867187-25.601562 93.867187zm0 0" fill="#cc6f56"/><path d="m485.699219 111.664062c-18.917969-7.804687-38.816407-12.972656-59.136719-15.359374-59.734375-8.53125-42.667969 34.132812-128 34.132812-85.335938 0-69.890625-27.816406-136.535156-42.664062-59.902344-13.3125-104.191406-5.890626-132.949219 10.152343 14.765625-25.597656 78.082031-112.128906 252.417969-95.488281 165.035156 15.703125 199.765625 96.511719 204.203125 109.226562zm0 0" fill="#cc6f56"/><path d="m143.253906 58.203125c-4.132812-.011719-7.664062-2.984375-8.378906-7.054687-.714844-4.070313 1.589844-8.070313 5.46875-9.492188 44.664062-14.765625 92.042969-19.457031 138.738281-13.738281 4.6875.449219 8.125 4.613281 7.679688 9.300781-.1875 2.269531-1.28125 4.363281-3.035157 5.808594-1.753906 1.449218-4.015624 2.121094-6.277343 1.875-44.167969-5.445313-88.996094-1.074219-131.285157 12.796875-.933593.335937-1.917968.507812-2.910156.503906zm0 0" fill="#cb9080"/><g fill="#804537"><path d="m119.363281 207.238281c-3.453125 0-6.5625-2.078125-7.882812-5.269531-1.320313-3.1875-.589844-6.855469 1.847656-9.296875 28.226563-26.828125 42.988281-64.867187 40.253906-103.714844-.597656-4.632812 2.636719-8.882812 7.261719-9.539062s8.917969 2.527343 9.632812 7.140625c3.480469 44.164062-13.070312 87.554687-45.082031 118.179687-1.597656 1.601563-3.769531 2.5-6.03125 2.5zm0 0"/><path d="m144.960938 173.105469c-1.082032.003906-2.160157-.203125-3.164063-.605469-2.105469-.839844-3.789063-2.480469-4.679687-4.5625-.894532-2.078125-.921876-4.429688-.082032-6.53125 13.070313-32.683594-22.613281-67.363281-29.867187-73.976562-3.488281-3.167969-3.75-8.566407-.582031-12.058594 3.171874-3.488282 8.570312-3.746094 12.058593-.578125 12.289063 11.167969 51.089844 50.875 34.269531 92.945312-1.296874 3.25-4.449218 5.378907-7.953124 5.367188zm0 0"/><path d="m349.761719 207.238281c-4.710938 0-8.535157-3.820312-8.535157-8.53125 0-37.402343-38.132812-60.714843-38.527343-60.957031-2.671875-1.539062-4.304688-4.402344-4.269531-7.488281.035156-3.085938 1.734374-5.910157 4.441406-7.390625 2.707031-1.480469 6.003906-1.382813 8.617187.253906 1.90625 1.144531 46.808594 28.648438 46.808594 75.582031 0 4.710938-3.820313 8.53125-8.535156 8.53125zm0 0"/><path d="m418.027344 207.238281c-4.710938 0-8.53125-3.820312-8.53125-8.53125 0-1.476562.109375-36.363281 9.386718-55.015625 2.105469-4.21875 7.234376-5.929687 11.449219-3.824218 4.21875 2.105468 5.929688 7.234374 3.824219 11.453124-5.289062 15.226563-7.863281 31.265626-7.59375 47.386719 0 4.710938-3.820312 8.53125-8.535156 8.53125zm0 0"/></g><path d="m503.363281 241.371094c.03125 11.328125-4.453125 22.199218-12.460937 30.207031-8.007813 8.011719-18.882813 12.496094-30.207032 12.460937h-409.601562c-23.5625 0-42.664062-19.101562-42.664062-42.667968 0-23.5625 19.101562-42.664063 42.664062-42.664063h409.601562c23.5625 0 42.667969 19.101563 42.667969 42.664063zm0 0" fill="#603429"/><path d="m503.363281 241.371094c-.25 9.535156-4.835937 18.433594-12.460937 24.167968-8.671875 6.601563-19.308594 10.109376-30.207032 9.964844h-409.601562c-23.550781 0-42.664062-15.289062-42.664062-34.132812.246093-9.535156 4.835937-18.433594 12.457031-24.164063 8.675781-6.605469 19.308593-10.113281 30.207031-9.96875h409.601562c23.550782 0 42.667969 15.292969 42.667969 34.132813zm0 0" fill="#804537"/><path d="m399.683594 284.039062h-21.761719c4.097656-4.777343 35.070313-44.375 0-85.332031h22.101563c15.195312 26.445313 15.066406 59.007813-.339844 85.332031zm0 0" fill="#603429"/><path d="m176.621094 238.898438c-3.367188 3.300781-8.753906 3.300781-12.117188 0-10.15625-10.242188-5.632812-30.890626-2.902344-40.191407h17.492188c-.023438.921875-.164062 1.839844-.425781 2.730469-3.5 10.410156-4.4375 22.953125-2.046875 25.34375 3.328125 3.351562 3.328125 8.761719 0 12.117188zm0 0" fill="#603429"/><path d="m85.226562 258.4375h-34.132812c-4.710938 0-8.53125-3.820312-8.53125-8.53125 0-4.714844 3.820312-8.535156 8.53125-8.535156h34.132812c4.714844 0 8.535157 3.820312 8.535157 8.535156 0 4.710938-3.820313 8.53125-8.535157 8.53125zm0 0" fill="#cc6f56"/><path d="m127.894531 258.4375h-8.53125c-4.714843 0-8.535156-3.820312-8.535156-8.53125 0-4.714844 3.820313-8.535156 8.535156-8.535156h8.53125c4.714844 0 8.535157 3.820312 8.535157 8.535156 0 4.710938-3.820313 8.53125-8.535157 8.53125zm0 0" fill="#cc6f56"/><path d="m298.5625 138.972656c-52.394531 0-69.429688-10.546875-87.449219-21.726562-15.441406-10.292969-32.746093-17.472656-50.9375-21.136719-90.382812-20.085937-132.019531 9.582031-145.714843 23.296875-3.347657 3.234375-8.671876 3.1875-11.960938-.105469-3.292969-3.292969-3.339844-8.613281-.105469-11.960937 15.683594-15.695313 62.832031-49.820313 161.484375-27.90625 20.0625 4.089844 39.148438 12.003906 56.21875 23.304687 17.28125 10.710938 30.925782 19.167969 78.464844 19.167969 41.8125 0 57.035156-10.597656 70.476562-19.953125 16.378907-13.457031 38.03125-18.652344 58.734376-14.097656 60.792968 8.679687 79.667968 26.0625 81.621093 28.015625 3.089844 3.34375 3.007813 8.523437-.179687 11.773437-3.191406 3.246094-8.367188 3.417969-11.765625.386719-.53125-.492188-17.621094-15.503906-72.066407-23.277344-16.429687-3.898437-33.730468.253906-46.609374 11.179688-14.71875 10.28125-33.054688 23.039062-80.210938 23.039062zm0 0" fill="#cb9080"/></svg>