<svg height="512pt" viewBox="-4 0 512 512" width="512pt" xmlns="http://www.w3.org/2000/svg"><path d="m251.929688 494.644531c-1.589844-.003906-3.144532-.441406-4.503907-1.265625l-242.980469-147.527344c-2.773437-1.550781-4.476562-4.488281-4.445312-7.664062.0351562-3.175781 1.796875-6.078125 4.601562-7.570312 2.804688-1.492188 6.199219-1.335938 8.851563.414062l238.476563 144.78125 238.480468-144.78125c2.652344-1.75 6.046875-1.90625 8.851563-.414062 2.800781 1.492187 4.566406 4.394531 4.597656 7.570312.035156 3.175781-1.667969 6.113281-4.441406 7.664062l-242.984375 147.527344c-1.355469.824219-2.914063 1.261719-4.503906 1.265625zm0 0" fill="#e64c3c"/><path d="m251.929688 512c-4.792969 0-8.675782-3.886719-8.675782-8.679688v-17.355468c0-4.792969 3.882813-8.675782 8.675782-8.675782 4.792968 0 8.679687 3.882813 8.679687 8.675782v17.355468c0 4.792969-3.886719 8.679688-8.679687 8.679688zm0 0" fill="#c03a2b"/><path d="m503.589844 338.128906v-.945312c0-.347656 0-.78125-.042969-1.285156v-.121094c-1.253906-21.878906-5.484375-43.484375-12.582031-64.21875l-.207032-.660156c-1.28125-3.746094-2.683593-7.566407-4.210937-11.453126-.199219-.511718-.414063-1.023437-.625-1.527343-1.5-3.742188-3.105469-7.515625-4.875-11.34375-.097656-.199219-.175781-.390625-.269531-.589844-1.804688-3.859375-3.773438-7.757813-5.875-11.671875-.40625-.761719-.867188-1.527344-1.25-2.296875-2.175782-3.949219-4.460938-7.90625-6.941406-11.855469l-.105469-.164062c-2.421875-3.820313-5.058594-7.621094-7.808594-11.414063-.597656-.867187-1.199219-1.65625-1.816406-2.480469-2.820313-3.785156-5.796875-7.53125-8.972657-11.28125-.492187-.574218-1.023437-1.136718-1.527343-1.734374-2.890625-3.292969-5.929688-6.539063-9.109375-9.738282-.738282-.746094-1.457032-1.5-2.214844-2.238281-3.589844-3.507813-7.375-6.941406-11.351562-10.300781-.867188-.738282-1.804688-1.464844-2.707032-2.203125-3.679687-3.003907-7.503906-5.9375-11.515625-8.792969-.683593-.492188-1.34375-1.003906-2.046875-1.492188-4.511718-3.132812-9.285156-6.136718-14.230468-9.042968-1.191407-.691406-2.40625-1.378906-3.621094-2.0625-5.207032-2.925782-10.523438-5.773438-16.199219-8.417969-26.90625-12.152344-51.449219-28.96875-72.496094-49.675781-.867187-.867188-1.675781-1.734375-2.519531-2.601563-1.011719-1.058593-2.0625-2.117187-3.042969-3.175781-22.082031-22.675781-37.117187-51.261719-43.296875-82.300781-.15625-.660157-.199218-1.042969-.199218-1.042969v.234375c-.867188 4.765625-15.316407 81.953125-121.492188 138.613281-5.613281 2.992188-10.898438 6.136719-16.035156 9.335938-1.25.78125-2.492188 1.554687-3.707032 2.34375-4.902343 3.167968-9.632812 6.394531-14.109374 9.730468-.675782.5-1.300782 1.03125-1.96875 1.535157-3.949219 3-7.714844 6.074219-11.335938 9.171875-.996094.867187-2.011719 1.734375-2.984375 2.601562-3.910156 3.472656-7.636719 6.984375-11.183594 10.535156-.765625.765626-1.476562 1.546876-2.222656 2.320313-3.03125 3.128906-5.925781 6.285156-8.679687 9.472656-.675782.78125-1.378907 1.5625-2.046876 2.34375-3.09375 3.679688-6.023437 7.378907-8.789062 11.089844-.644531.871094-1.25 1.738281-1.875 2.605469-2.457031 3.382812-4.800781 6.777344-6.996094 10.171875-.328125.511719-.683594 1.015625-1.003906 1.527343-2.429688 3.808594-4.671875 7.601563-6.789062 11.375-.457032.816407-.867188 1.621094-1.34375 2.4375-4.039063 7.378907-7.683594 14.96875-10.925782 22.730469-.261718.605469-.511718 1.214844-.753906 1.820313-3.109375 7.601562-5.660156 14.910156-7.757812 21.816406l-.261719.867188c-4.605469 15.148437-7.625 30.734374-9.007813 46.507812v.449219c-.0625.710937-.105468 1.363281-.148437 1.96875v.78125c0 .453125-.050781.871093-.070313 1.257812v2.796875h503.148438zm0 0" fill="#fac176"/><path d="m503.589844 338.441406s0-138.847656-130.167969-199.59375c-112.597656-52.546875-121.492187-138.847656-121.492187-138.847656s-11.863282 80.375-121.492188 138.847656c-75.632812 38.828125-125.128906 114.722656-130.167969 199.59375zm0 0" fill="#fac176"/><path d="m503.589844 338.441406h-503.320313c.140625-5.8125.632813-11.605468 1.476563-17.355468 10.582031-78.109376 58.621094-146.136719 128.691406-182.238282 109.605469-58.488281 121.492188-138.847656 121.492188-138.847656s8.9375 86.347656 121.492187 138.847656c101.964844 47.554688 124.09375 143.1875 128.78125 182.238282.792969 5.753906 1.257813 11.546874 1.386719 17.355468zm0 0" fill="#f18d46"/><path d="m451.523438 338.441406h-399.1875c.664062-5.839844 1.679687-11.636718 3.039062-17.355468 7.117188-32.71875 30.371094-103.53125 101.097656-138.847657 69.425782-34.710937 95.457032-112.816406 95.457032-112.816406s26.035156 78.105469 95.457031 112.816406c70.726562 35.316407 93.984375 106.128907 101.101562 138.847657 1.359375 5.71875 2.371094 11.515624 3.035157 17.355468zm0 0" fill="#fac176"/><path d="m390.777344 338.441406h-277.695313c.746094-5.859375 1.90625-11.660156 3.472657-17.355468 9.050781-38.148438 34.226562-70.480469 68.988281-88.601563 48.25-23.605469 66.386719-93.636719 66.386719-93.636719s18.136718 70.03125 66.386718 93.636719c34.765625 18.121094 59.941406 50.453125 68.992188 88.601563 1.566406 5.695312 2.726562 11.496093 3.46875 17.355468zm0 0" fill="#f18d46"/><path d="m338.710938 338.441406h-173.558594c3.769531-27.558594 20.652344-51.585937 45.296875-64.476562 30.199219-14.40625 41.480469-57.015625 41.480469-57.015625s11.28125 42.609375 41.480468 57.015625c24.648438 12.890625 41.527344 36.917968 45.300782 64.476562zm0 0" fill="#fac176"/><path d="m260.609375 286.371094v52.070312h-17.355469v-52.070312c0-4.789063 3.882813-8.675782 8.675782-8.675782 4.792968 0 8.679687 3.886719 8.679687 8.675782zm0 0" fill="#f18d46"/><path d="m502.203125 321.085938h-500.457031c10.582031-78.109376 58.621094-146.136719 128.691406-182.238282 109.605469-58.488281 121.492188-138.847656 121.492188-138.847656s8.9375 86.347656 121.492187 138.847656c101.964844 47.554688 124.09375 143.1875 128.78125 182.238282zm0 0" fill="#fac176"/><path d="m502.203125 321.085938h-500.457031c10.582031-78.109376 58.621094-146.136719 128.691406-182.238282 109.605469-58.488281 121.492188-138.847656 121.492188-138.847656s8.9375 86.347656 121.492187 138.847656c101.964844 47.554688 124.09375 143.1875 128.78125 182.238282zm0 0" fill="#fac176"/><path d="m448.488281 321.085938h-393.113281c7.117188-32.71875 30.371094-103.53125 101.097656-138.847657 69.425782-34.710937 95.457032-112.816406 95.457032-112.816406s26.035156 78.105469 95.457031 112.816406c70.726562 35.316407 93.984375 106.128907 101.101562 138.847657zm0 0" fill="#f9eab0"/><path d="m387.308594 321.085938h-270.753906c9.050781-38.148438 34.226562-70.480469 68.988281-88.601563 48.25-23.605469 66.386719-93.636719 66.386719-93.636719s18.136718 70.03125 66.386718 93.636719c34.765625 18.121094 59.941406 50.453125 68.992188 88.601563zm0 0" fill="#fac176"/><path d="m334.457031 321.085938h-165.054687c6.792968-20.585938 21.589844-37.570313 41.046875-47.121094 30.199219-14.40625 41.480469-57.015625 41.480469-57.015625s11.28125 42.609375 41.480468 57.015625c19.460938 9.550781 34.253906 26.535156 41.046875 47.121094zm0 0" fill="#f9eab0"/><path d="m260.609375 286.371094v34.714844h-17.355469v-34.714844c0-4.789063 3.882813-8.675782 8.675782-8.675782 4.792968 0 8.679687 3.886719 8.679687 8.675782zm0 0" fill="#fac176"/></svg>