<svg height="503pt" viewBox="0 -58 503.83577 503" width="503pt" xmlns="http://www.w3.org/2000/svg"><path d="m137.105469 294.753906c-23.082031 18.917969-128.261719 64.648438-136.589844-10.675781-8.679687-78.101563 95.457031-112.8125 95.457031-112.8125zm0 0" fill="#e4c05c"/><path d="m137.105469 289.085938c-21.539063 18.050781-119.660157 61.691406-127.4375-10.214844-8.09375-74.480469 89.0625-107.605469 89.0625-107.605469zm0 0" fill="#f3d55b"/><path d="m278.207031 327.46875s26.035157 60.746094 104.136719 60.746094 121.492188-31.164063 121.492188-60.746094c0-43.390625-34.710938-86.78125-95.457032-112.8125zm0 0" fill="#e4c05c"/><path d="m278.207031 316.1875s25.039063 54.671875 100.128907 54.671875c75.089843 0 116.820312-28.046875 116.820312-54.671875 0-39.050781-33.375-78.101562-91.785156-101.53125zm0 0" fill="#f3d55b"/><path d="m408.378906 162.585938v112.816406c-7.375 9.464844-16.15625 17.746094-26.035156 24.558594-5.515625 3.800781-11.316406 7.164062-17.355469 10.066406-5.625 2.691406-11.425781 5.011718-17.355469 6.941406-5.703124 1.882812-11.492187 3.476562-17.355468 4.773438-5.816406 1.214843-11.628906 2.253906-17.355469 2.949218-5.902344.695313-11.714844 1.214844-17.355469 1.476563-8.675781.433593-17.363281.433593-26.035156 0l-138.847656-38.445313-23.171875-8.242187c-6.929688-2.421875-11.566407-8.972657-11.539063-16.316407v-100.578124c-.082031-37.351563 14.105469-73.328126 39.65625-100.578126l142.578125-45.90625c74.238281 8.796876 130.164063 71.730469 130.171875 146.484376zm0 0" fill="#b19046"/><path d="m391.023438 162.585938v112.816406c-6.417969 9.316406-14.222657 17.601562-23.144532 24.558594-4.855468 3.769531-10.015625 7.136718-15.421875 10.066406-4.972656 2.675781-10.128906 4.996094-15.429687 6.941406-5.050782 1.878906-10.199219 3.472656-15.429688 4.773438-5.207031 1.214843-10.335937 2.253906-15.429687 2.949218-5.207031.695313-10.414063 1.214844-15.429688 1.476563-7.703125.433593-15.429687.433593-23.132812 0l-123.417969-38.445313-20.601562-8.242187c-6.429688-2.835938-10.488282-9.292969-10.257813-16.316407v-100.578124c-.339844-36.609376 12.128906-72.1875 35.25-100.578126l126.742187-45.90625c65.179688 8.59375 115.703126 70.902344 115.703126 146.484376zm0 0" fill="#e4c05c"/><path d="m252 99.152344c11.296875 12.691406 17.535156 29.089844 17.53125 46.078125v179.113281c-.011719.582031-.070312 1.164062-.175781 1.738281-.476563 2.410157-1.96875 4.503907-4.089844 5.75-2.121094 1.242188-4.675781 1.519531-7.015625.757813l-121.144531-37.835938-6.421875-1.996094v-147.527343c0-38.339844 31.082031-69.421875 69.421875-69.421875 5.289062-.015625 10.5625.597656 15.707031 1.820312" fill="#f3d55b"/><path d="m226.140625 15.0625s-69.421875-26.035156-130.167969-8.679688c-60.746094 17.355469-17.355468 69.425782 17.355469 60.746094 34.710937-8.675781 86.777344-17.355468 112.8125-26.03125" fill="#3f5c6c"/><path d="m269.53125 49.773438s-34.710938 78.101562-34.710938 156.203124l-26.035156-17.355468-26.035156 26.035156s0-104.136719 52.070312-164.882812zm0 0" fill="#35495e"/><g fill="#4c8056"><path d="m312.921875 162.585938v162.105468c-5.902344.695313-11.714844 1.214844-17.355469 1.476563v-163.582031c0-4.792969 3.882813-8.675782 8.675782-8.675782 4.792968 0 8.679687 3.882813 8.679687 8.675782zm0 0"/><path d="m347.632812 153.910156v163.058594c-5.703124 1.882812-11.492187 3.476562-17.355468 4.773438v-167.832032c0-4.792968 3.882812-8.679687 8.675781-8.679687s8.679687 3.886719 8.679687 8.679687zm0 0"/><path d="m382.34375 145.230469v154.730469c-5.515625 3.800781-11.316406 7.164062-17.355469 10.066406v-164.796875c0-4.792969 3.886719-8.675781 8.679688-8.675781s8.675781 3.882812 8.675781 8.675781zm0 0"/></g><path d="m304.242188 232.011719c-4.792969 0-8.675782-3.886719-8.675782-8.679688s3.882813-8.675781 8.675782-8.675781c.398437 0 41.117187-.234375 64.609374-15.898438 3.984376-2.660156 9.375-1.585937 12.035157 2.402344 2.660156 3.988282 1.582031 9.378906-2.402344 12.039063-27.902344 18.605469-72.367187 18.8125-74.242187 18.8125zm0 0" fill="#e64c3c"/><path d="m304.242188 284.078125c-4.792969 0-8.675782-3.882813-8.675782-8.675781 0-4.792969 3.882813-8.679688 8.675782-8.679688.398437 0 41.117187-.234375 64.609374-15.898437 3.984376-2.660157 9.375-1.582031 12.035157 2.40625 2.660156 3.984375 1.582031 9.375-2.402344 12.035156-27.902344 18.605469-72.367187 18.8125-74.242187 18.8125zm0 0" fill="#e64c3c"/><path d="m234.820312 6.382812h34.710938c4.792969 0 8.675781 3.886719 8.675781 8.679688v26.035156c0 4.789063-3.882812 8.675782-8.675781 8.675782h-34.710938c-4.792968 0-8.679687-3.886719-8.679687-8.675782v-26.035156c0-4.792969 3.886719-8.679688 8.679687-8.679688zm0 0" fill="#2c3e50"/></svg>