<svg height="512pt" viewBox="-4 0 512 512.00689" width="512pt" xmlns="http://www.w3.org/2000/svg"><path d="m251.664062 477.296875c-1.789062-.003906-3.535156-.558594-5-1.589844l-234.304687-164.882812c-2.625-1.746094-4.097656-4.785157-3.839844-7.929688.253907-3.144531 2.199219-5.90625 5.078125-7.203125 2.875-1.300781 6.230469-.933594 8.761719.953125l229.304687 161.359375 229.308594-161.359375c2.527344-1.886719 5.882813-2.253906 8.761719-.953125 2.875 1.296875 4.820313 4.058594 5.078125 7.203125.253906 3.144531-1.214844 6.183594-3.84375 7.929688l-234.304688 164.882812c-1.464843 1.03125-3.210937 1.585938-5 1.589844zm0 0" fill="#e64c3c"/><path d="m251.664062 512.007812c-4.792968 0-8.675781-3.886718-8.675781-8.679687v-34.710937c0-4.792969 3.882813-8.679688 8.675781-8.679688 4.792969 0 8.679688 3.886719 8.679688 8.679688v34.710937c0 4.792969-3.886719 8.679687-8.679688 8.679687zm0 0" fill="#c03a2b"/><path d="m373.589844 138.855469h-22.390625l-99.535157-130.171875-99.535156 130.171875h-22.390625l101.878907-129.476563c4.964843-5.941406 12.304687-9.37499975 20.046874-9.37499975 7.742188 0 15.082032 3.43359375 20.046876 9.37499975zm0 0" fill="#fac176"/><path d="m129.738281 138.855469h22.390625l-26.554687 34.710937h-23.171875zm0 0" fill="#f18d46"/><path d="m400.925781 173.566406h-23.171875l-26.554687-34.710937h22.390625zm0 0" fill="#f18d46"/><path d="m102.402344 173.566406h23.171875l-39.832031 52.066406h-24.296876zm0 0" fill="#fac176"/><path d="m441.886719 225.632812h-24.300781l-39.832032-52.066406h23.171875zm0 0" fill="#fac176"/><path d="m61.445312 225.632812h24.296876l-26.554688 34.714844h-25.078125zm0 0" fill="#f18d46"/><path d="m469.222656 260.347656h-25.082031l-26.554687-34.714844h24.300781zm0 0" fill="#f18d46"/><path d="m34.109375 260.347656h25.078125l-33.148438 43.386719h-26.03515575zm0 0" fill="#fac176"/><path d="m503.324219 303.734375h-26.03125l-33.152344-43.386719h25.082031zm0 0" fill="#fac176"/><path d="m351.199219 138.855469h-199.070313l99.535156-130.171875zm0 0" fill="#f9eab0"/><path d="m377.753906 173.566406h-252.179687l26.554687-34.710937h199.070313zm0 0" fill="#fac176"/><path d="m417.585938 225.632812h-331.84375l39.832031-52.066406h252.179687zm0 0" fill="#f9eab0"/><path d="m444.140625 260.347656h-384.953125l26.554688-34.714844h331.84375zm0 0" fill="#fac176"/><path d="m477.292969 303.734375h-451.253907l33.148438-43.386719h384.953125zm0 0" fill="#f9eab0"/><g fill="#f18d46"><path d="m259.734375 11.894531-16.746094 41.914063-82.617187 206.539062-17.355469 43.386719h-18.742187l17.355468-43.386719 101.878906-254.613281c.613282-1.761719 1.804688-3.257813 3.382813-4.253906.347656-.25.726563-.457031 1.128906-.605469.15625-.171875.375-.265625.609375-.261719.445313-.195312.910156-.339843 1.386719-.433593.542969-.101563 1.09375-.1562505 1.648437-.1718755.527344-.0273437 1.054688.03125 1.5625.1718755.472657.066406.941407.179687 1.386719.347656 1.761719.613281 3.261719 1.808594 4.253907 3.382812.253906.347656.457031.726563.609374 1.128906.171876.347657.34375.78125.519532 1.214844.5625 1.855469.46875 3.847656-.261719 5.640625zm0 0"/><path d="m379.058594 303.734375h-18.746094l-17.355469-43.386719-82.613281-206.625v250.011719h-17.359375l.003906-295.050781c-.011719-1.007813.164063-2.007813.519531-2.949219.328126-.863281.765626-1.679687 1.300782-2.429687.085937 0 .085937-.085938.175781-.171876.265625-.3125.554687-.601562.867187-.871093 0-.085938.085938-.085938.171876-.171875.273437-.222656.566406-.425782.867187-.609375.347656-.25.726563-.457031 1.128906-.605469.171875-.085938.433594-.175781.609375-.261719.15625-.09375.335938-.15625.519532-.171875.257812-.085937.605468-.175781.867187-.261718.800781-.1562505 1.621094-.1875005 2.429687-.085938.261719-.0585938.539063-.0273438.78125.085938.445313.066406.882813.179687 1.300782.347656h.085937c.453125.167968.886719.371094 1.304688.609375.257812.171875.519531.257812.78125.433593.257812.171876.519531.433594.78125.691407.332031.277343.625.597656.867187.957031.191406.214844.367188.445312.519532.691406.253906.347656.457031.726563.609374 1.128906.117188.125.203126.273438.257813.433594l.261719.78125 101.703125 254.09375zm0 0"/></g></svg>