<svg height="512pt" viewBox="0 -46 512.00889 512" width="512pt" xmlns="http://www.w3.org/2000/svg"><path d="m447.652344 103.375c1.683594-4.855469 2.550781-9.957031 2.558594-15.09375 0-48.730469-75.121094-88.27734375-167.722657-88.27734375-79.625 0-146.273437 29.21874975-163.398437 68.41406275-61.707032-2.472657-119.08593775 37.957031-119.08593775 152.277343v6.179688c0 1.765625 0 3.53125.08984375 5.207031-.0234375.023438-.0390625.054688-.0390625.089844 0 .03125.015625.0625.0390625.085937-.0664062.070313-.1015625.167969-.08984375.265626 0 .089843 0 .089843.08984375.175781v.089843c-.0234375.023438-.0390625.054688-.0390625.085938 0 .035156.015625.066406.0390625.089844v3.441406c-.0585938.824219-.03125 1.65625.089844 2.472656-.046875.320313-.046875.648438 0 .972656 0 1.144532 0 2.292969.085937 3.351563 3.179688 150.6875 39.902344 204.976563 140.976563 162.871094 93.042968-38.753907 90.75-63.914063 136.652344-69.472657 1.5-.179687 3-.265624 4.589843-.441406.457031 9.4375 8.207031 16.875 17.65625 16.949219 9.296875.003906 16.992188-7.230469 17.566407-16.507813 17.214843 3 21.980468 11.386719 70.707031 25.332032 58.351562 16.6875 116.789062 1.855468 122.96875-119.082032 0-.265624.089843-.617187.089843-.882812s.085938-.265625.085938-.351562c.285156-2.550782.433594-5.117188.441406-7.683594.015625-.238282-.015625-.476563-.085937-.703125v-1.414063c.085937-.085937.085937-.085937 0-.085937v-.179688c.085937-.085937.085937-.085937.085937-.175781v-.085938c-.003906-.070312-.035156-.132812-.085937-.179687v-.175781c.085937-1.324219.085937-2.648438.085937-4.058594v-6.179688c0-103.726562-23.746094-126.5-64.351562-117.320312zm-188.539063 194.207031c-.820312-.933593-1.660156-1.828125-2.4375-2.816406.777344.964844 1.617188 1.847656 2.4375 2.800781zm-4.875-6.265625c-.738281-1.0625-1.515625-2.074218-2.214843-3.1875.671874 1.113282 1.449218 2.125 2.214843 3.1875zm99.578125-91.984375c-1.191406-2.78125-2.539062-5.488281-4.042968-8.113281 1.496093 2.628906 2.84375 5.335938 4.042968 8.113281zm-5.296875-10.398437c-1.734375-2.859375-3.671875-5.589844-5.800781-8.167969 2.101562 2.585937 4.027344 5.308594 5.765625 8.148437zm-86.625 111.710937c.882813.882813 1.851563 1.765625 2.796875 2.597657-.945312-.847657-1.898437-1.679688-2.796875-2.597657zm10.953125 8.785157c1.128906.722656 2.234375 1.519531 3.398438 2.144531-1.164063-.625-2.269532-1.421875-3.398438-2.144531zm7.1875 3.875c1.269532.566406 2.507813 1.210937 3.8125 1.667968-1.304687-.457031-2.542968-1.101562-3.8125-1.667968zm11.785156 3.761718c-1.21875-.214844-2.375-.621094-3.53125-.882812 1.15625.261718 2.3125.667968 3.53125.882812zm219.742188-76.800781v-.328125c0-.46875.054688-.933594.089844-1.402344zm0 0" fill="#d75e72"/><path d="m317.796875 335.453125c.015625.382813-.011719.769531-.085937 1.148437-.574219 9.277344-8.269532 16.511719-17.566407 16.507813-9.449219-.074219-17.199219-7.511719-17.65625-16.949219v-.707031c0-9.75 7.90625-17.65625 17.65625-17.65625s17.652344 7.90625 17.652344 17.65625zm0 0" fill="#90bae1"/><path d="m317.796875 141.246094c.011719 1.429687-.167969 2.855468-.527344 4.238281-2.164062 8.636719-10.421875 14.308594-19.261719 13.234375-8.839843-1.078125-15.492187-8.570312-15.519531-17.472656-.015625-.621094.015625-1.238282.089844-1.855469.9375-9.378906 9.082031-16.363281 18.492187-15.867187 9.414063.492187 16.777344 8.296874 16.726563 17.722656zm0 0" fill="#90bae1"/><path d="m511.5625 240.996094v.621094c0 .085937-.085938.175781-.085938.351562" fill="#d75e72"/><path d="m511.386719 242.851562c-6.179688 120.9375-64.617188 135.769532-122.96875 119.082032-48.726563-13.945313-53.492188-22.332032-70.707031-25.332032.074218-.378906.101562-.765624.085937-1.148437-.027344-9.738281-7.914063-17.625-17.652344-17.65625 10.734375-.085937 21.171875-3.542969 29.835938-9.886719 19.15625 6.125 38.671875 11.046875 58.4375 14.742188 58.175781 11.300781 116.347656 1.324218 122.96875-79.800782zm0 0" fill="#fb7b76"/><path d="m512.003906 220.695312v3.972657c-.703125-93.484375-44.667968-87.394531-114.757812-63.648438-19.316406 6.863281-39.328125 11.601563-59.671875 14.125-9.828125-10.171875-23.292969-16.015625-37.429688-16.242187 8.097657-.050782 15.136719-5.566406 17.125-13.417969 15.007813.96875 40.605469-2.207031 79.976563-21.894531 2.03125-1.058594 4.0625-2.03125 6.089844-3 12.335937-6.382813 25.214843-11.640625 38.488281-15.714844 1.945312-.617188 3.886719-1.058594 5.828125-1.5 40.605468-9.179688 64.351562 13.59375 64.351562 117.320312zm0 0" fill="#fb7b76"/><path d="m403.335938 120.589844c-2.027344.96875-4.058594 1.941406-6.089844 3-39.371094 19.6875-64.96875 22.863281-79.976563 21.894531.359375-1.382813.539063-2.808594.527344-4.238281.050781-9.425782-7.3125-17.230469-16.726563-17.722656-9.410156-.496094-17.554687 6.488281-18.492187 15.867187-14.125-4.148437-38.667969-15.003906-79.539063-42.28125-.265624-.179687-.441406-.265625-.707031-.441406 23.351563-5.671875 47.300781-8.488281 71.328125-8.386719 52.257813 0 98.957032 12.621094 129.675782 32.308594zm0 0" fill="#d75e72"/><path d="m300.144531 158.902344c-10.738281.085937-21.175781 3.542968-29.839843 9.886718-23.039063-6.851562-45.523438-15.4375-67.265626-25.6875-79.09375-35.753906-202.0625-30.015624-203.03515575 82.449219v-4.855469c0-114.320312 57.37890575-154.75 119.08593775-152.277343 12.398437.605469 24.671875 2.738281 36.546875 6.355469 16.546875 4.984374 32.28125 12.359374 46.695312 21.894531.265625.175781.441407.261719.707031.441406 40.871094 27.277344 65.414063 38.132813 79.539063 42.28125-.074219.617187-.105469 1.234375-.089844 1.855469.027344 9.738281 7.917969 17.625 17.65625 17.65625zm0 0" fill="#fb7b76"/><path d="m512.003906 224.667969v2.207031c0 1.410156 0 2.734375-.085937 4.058594-1.589844-50.140625-45.375-46.609375-114.671875-33.542969-16.066406 3-29.835938 5.03125-41.578125 6.265625-3.835938-10.730469-10.019531-20.472656-18.09375-28.511719 20.34375-2.523437 40.355469-7.261719 59.671875-14.125 70.089844-23.746093 114.054687-29.835937 114.757812 63.648438zm0 0" fill="#d75e72"/><path d="m511.386719 242.851562c-6.621094 81.125-64.792969 91.101563-122.96875 79.800782-19.765625-3.695313-39.28125-8.617188-58.4375-14.742188 9.113281-6.625 16.5-15.34375 21.539062-25.421875h.089844c8.648437 1.324219 20.125 2.910157 36.808594 4.675781 58.175781 6.269532 116.347656.707032 122.96875-44.3125zm0 0" fill="#d75e72"/><path d="m511.917969 231.730469c.085937 0 .085937 0 0 .085937" fill="#d75e72"/><path d="m300.144531 317.796875c-9.738281.03125-17.628906 7.917969-17.65625 17.65625v.707031c-1.589843.175782-3.089843.261719-4.589843.441406-45.902344 5.558594-43.609376 30.71875-136.652344 69.472657-101.074219 42.105469-137.796875-12.183594-140.976563-162.871094 3.445313 101.34375 40.253907 137.800781 140.976563 109.375 86.246094-24.363281 90.570312-40.785156 127.292968-45.992187 8.984376 7.167968 20.113282 11.117187 31.605469 11.210937zm0 0" fill="#fb7b76"/><path d="m270.304688 168.789062c-10.078126 7.382813-18.050782 17.273438-23.125 28.6875-12.007813-2.382812-26.574219-5.648437-44.140626-10.0625-78.652343-19.773437-200.5625-16.773437-202.945312 44.667969-.08984375-1.675781-.08984375-3.441406-.08984375-5.207031v-1.324219c.97265575-112.464843 123.94140575-118.203125 203.03515575-82.449219 21.742188 10.25 44.226563 18.835938 67.265626 25.6875zm0 0" fill="#d75e72"/><path d="m512.003906 231.289062v.085938c0 .089844 0 .089844-.085937.175781v2.5625c-.089844 1.941407-.175781 3.882813-.355469 5.824219v1.058594c-.070312.320312-.101562.644531-.085938.972656 0 .265625-.089843.617188-.089843.882812-6.621094 45.019532-64.792969 50.582032-122.96875 44.3125-16.683594-1.765624-28.160157-3.351562-36.808594-4.675781 12.183594-24.589843 13.652344-53.121093 4.058594-78.832031 11.742187-1.234375 25.511719-3.265625 41.578125-6.265625 69.296875-13.066406 113.082031-16.597656 114.671875 33.542969v.175781c.050781.046875.082031.109375.085937.179687zm0 0" fill="#802d40"/><g fill="#d75e72"><path d="m511.917969 232.257812c.039062-.03125.0625-.082031.0625-.132812s-.023438-.101562-.0625-.132812c.085937-.085938.085937-.175782 0-.085938"/><path d="m511.476562 241.96875c0-.175781.085938-.265625.085938-.351562.285156-2.550782.433594-5.117188.441406-7.683594.015625-.238282-.015625-.476563-.085937-.703125"/><path d="m511.917969 233.050781c.089843-.132812.089843-.304687 0-.4375"/><path d="m268.539062 306.585938c-36.722656 5.207031-41.046874 21.628906-127.292968 45.992187-100.722656 28.425781-137.53125-8.03125-140.976563-109.375 3.445313 56.144531 40.429688 76.359375 140.976563 60.558594 35.945312-5.753907 71.566406-13.355469 106.726562-22.773438 4.8125 9.988281 11.847656 18.746094 20.566406 25.597657zm0 0"/></g><path d="m247.972656 280.988281c-35.160156 9.417969-70.78125 17.019531-106.726562 22.773438-100.546875 15.800781-137.53125-4.414063-140.976563-60.558594-.085937-1.058594-.085937-2.207031-.085937-3.351563-.046875-.324218-.046875-.652343 0-.972656-.121094-.816406-.1484378-1.648437-.089844-2.472656v-3.441406c-.0234375-.023438-.0390625-.054688-.0390625-.089844 0-.03125.015625-.0625.0390625-.085938v-.089843c-.08984375-.085938-.08984375-.085938-.08984375-.175781-.01171875-.097657.02343755-.195313.08984375-.265626-.0234375-.023437-.0390625-.054687-.0390625-.085937 0-.035156.015625-.066406.0390625-.089844 2.382812-61.441406 124.292969-64.441406 202.945312-44.667969 17.566407 4.414063 32.132813 7.679688 44.140626 10.0625-5.921876 12.808594-8.933594 26.765626-8.828126 40.871094-.085937 14.761719 3.203126 29.347656 9.621094 42.640625zm0 0" fill="#802d40"/><path d="m.09375 236.40625c-.0742188-.820312-.1054688-1.644531-.08984375-2.472656-.01562505-.324219.01171875-.652344.08984375-.96875" fill="#d75e72"/><path d="m386.257812 251.0625c-8.644531 0-17.125-.179688-25.011718-.636719-4.863282-.28125-8.582032-4.449219-8.304688-9.3125.324219-4.851562 4.476563-8.542969 9.332032-8.308593 34.964843.949218 69.953124-.148438 104.789062-3.28125 3.15625-.289063 6.222656 1.128906 8.046875 3.714843 1.828125 2.589844 2.132813 5.953125.804687 8.828125-1.328124 2.875-4.089843 4.824219-7.242187 5.109375-2.128906.160157-43.734375 3.886719-82.414063 3.886719zm0 0" fill="#602230"/><path d="m110.597656 251.121094c-22.632812.125-45.25-1.222656-67.707031-4.03125-4.828125-.691406-8.179687-5.164063-7.492187-9.988282.691406-4.828124 5.164062-8.179687 9.988281-7.492187 43.210937 5.101563 86.867187 5.101563 130.074219 0 23.304687-2.929687 43.8125-4.828125 62.675781-5.800781 4.878906-.242188 9.027343 3.511718 9.269531 8.386718.246094 4.875-3.511719 9.027344-8.386719 9.269532-18.449219.945312-38.53125 2.808594-61.402343 5.675781-22.238282 2.707031-44.621094 4.039063-67.019532 3.980469zm0 0" fill="#602230"/><path d="m450.210938 88.28125c-.007813 5.136719-.875 10.238281-2.558594 15.09375-1.941406.441406-3.882813.882812-5.828125 1.5-21.980469-35.222656-85.007813-60.734375-159.335938-60.734375-50.671875 0-96.132812 11.832031-126.851562 30.632813-11.875-3.617188-24.148438-5.75-36.546875-6.355469 17.125-39.195313 83.773437-68.41406275 163.398437-68.41406275 92.601563 0 167.722657 39.54687475 167.722657 88.27734375zm0 0" fill="#d75e72"/><path d="m441.824219 104.875c-13.273438 4.074219-26.152344 9.332031-38.488281 15.714844-30.71875-19.6875-77.417969-32.308594-129.675782-32.308594-24.027344-.101562-47.976562 2.714844-71.328125 8.386719-14.414062-9.535157-30.148437-16.910157-46.695312-21.894531 30.71875-18.800782 76.179687-30.632813 126.851562-30.632813 74.328125 0 137.355469 25.511719 159.335938 60.734375zm0 0" fill="#802d40"/><path d="m361.9375 238.347656c.117188 15.328125-3.421875 30.457032-10.328125 44.140625h-.089844c-5.039062 10.078125-12.425781 18.796875-21.539062 25.421875-17.96875 13.378906-42.648438 13.160156-60.378907-.527344l-1.0625-.796874c-.617187-.441407-1.234374-.96875-1.851562-1.5-7.851562-6.636719-14.226562-14.847657-18.714844-24.097657-6.417968-13.292969-9.707031-27.878906-9.621094-42.640625-.105468-14.105468 2.90625-28.0625 8.828126-40.871094 5.074218-11.414062 13.046874-21.304687 23.125-28.6875 8.664062-6.34375 19.101562-9.800781 29.839843-9.886718 14.136719.226562 27.601563 6.070312 37.429688 16.242187 1.679687 1.648438 3.269531 3.386719 4.765625 5.207031.085937 0 .175781.175782.175781.175782 4.867187 5.863281 8.800781 12.445312 11.652344 19.511718.53125 1.144532 1.058593 2.382813 1.5 3.617188 4.207031 11.078125 6.332031 22.839844 6.269531 34.691406zm0 0" fill="#ecf0f1"/><path d="m361.9375 238.347656c.117188 15.328125-3.421875 30.457032-10.328125 44.140625h-.089844c-5.039062 10.078125-12.425781 18.796875-21.539062 25.421875-17.96875 13.378906-42.648438 13.160156-60.378907-.527344l-1.0625-.796874c-.617187-.441407-1.234374-.96875-1.851562-1.5-3.890625-4.683594-7.207031-9.808594-9.886719-15.273438-6.417969-13.289062-9.710937-27.875-9.621093-42.636719-.105469-14.105469 2.90625-28.0625 8.824218-40.871093 5.078125-11.414063 13.050782-21.304688 23.128906-28.6875 8.664063-6.34375 19.101563-9.804688 29.839844-9.886719 12.265625.121093 24.089844 4.59375 33.367188 12.621093.085937 0 .175781.175782.175781.175782 4.867187 5.863281 8.800781 12.445312 11.652344 19.511718.53125 1.144532 1.058593 2.382813 1.5 3.617188 4.207031 11.078125 6.332031 22.839844 6.269531 34.691406zm0 0" fill="#b0d3f0"/><path d="m361.9375 238.347656c.117188 15.328125-3.421875 30.457032-10.328125 44.140625h-.089844c-5.039062 10.078125-12.425781 18.796875-21.539062 25.421875-17.96875 13.378906-42.648438 13.160156-60.378907-.527344-5.476562-36.460937-6.09375-111.582031 84.566407-107.34375.53125 1.144532 1.058593 2.382813 1.5 3.617188 4.207031 11.078125 6.332031 22.839844 6.269531 34.691406zm0 0" fill="#90bae1"/></svg>