<svg height="512pt" viewBox="-53 0 512 512.00272" width="512pt" xmlns="http://www.w3.org/2000/svg"><path d="m361.933594 308.96875s44.136718 0 44.136718 70.621094-105.929687 105.929687-203.035156 132.414062c-97.101562-26.484375-203.035156-61.792968-203.035156-132.414062s44.140625-70.621094 44.140625-70.621094zm0 0" fill="#3f5c6c"/><path d="m348.117188 308.96875s40.296874 0 40.296874 70.621094-96.722656 105.929687-185.378906 132.414062c-88.664062-26.484375-185.378906-61.792968-185.378906-132.414062s40.296875-70.621094 40.296875-70.621094zm0 0" fill="#547580"/><path d="m361.933594 185.382812v141.242188c-1.042969 11.714844-7.597656 22.238281-17.65625 28.335938-26.394532 19.859374-79.714844 33.457031-141.242188 33.457031s-114.847656-13.597657-141.242187-33.457031c-10.058594-6.097657-16.613281-16.621094-17.652344-28.335938v-141.242188c-.015625-69.574218 45.238281-131.066406 111.667969-151.746093h94.453125c66.433593 20.679687 111.683593 82.171875 111.671875 151.746093zm0 0" fill="#35495e"/><path d="m344.277344 204.273438v150.6875c-26.394532 19.859374-79.714844 33.457031-141.242188 33.457031s-114.847656-13.597657-141.242187-33.457031v-150.6875c0-80.242188 41.757812-148.039063 99.222656-170.636719h84.039063c57.46875 22.597656 99.222656 90.394531 99.222656 170.636719zm0 0" fill="#3f5c6c"/><path d="m296.253906 263.152344-12.796875 2.824218c-5.195312 1.167969-9.492187 4.789063-11.53125 9.703126-2.035156 4.917968-1.554687 10.519531 1.289063 15.015624l6.972656 11.121094c4.105469 6.449219 3.183594 14.882813-2.222656 20.289063-5.40625 5.402343-13.839844 6.328125-20.285156 2.222656l-11.125-6.972656c-4.496094-2.847657-10.097657-3.328125-15.011719-1.289063-4.917969 2.035156-8.535157 6.335938-9.703125 11.527344l-2.824219 12.800781c-1.726563 7.433594-8.347656 12.699219-15.980469 12.699219-7.628906 0-14.253906-5.265625-15.976562-12.699219l-2.824219-12.800781c-1.167969-5.191406-4.789063-9.492188-9.703125-11.527344-4.917969-2.039062-10.519531-1.558594-15.015625 1.289063l-11.121094 6.972656c-6.449219 4.085937-14.867187 3.152344-20.265625-2.246094-5.398437-5.398437-6.332031-13.816406-2.246094-20.265625l6.972657-11.121094c2.847656-4.496093 3.328125-10.097656 1.289062-15.015624-2.035156-4.914063-6.335937-8.535157-11.527343-9.703126l-12.800782-2.824218c-7.433594-1.722656-12.699218-8.347656-12.699218-15.976563 0-7.632812 5.265624-14.253906 12.699218-15.980469l12.800782-2.824218c5.191406-1.167969 9.492187-4.785156 11.527343-9.703125 2.039063-4.914063 1.558594-10.515625-1.289062-15.011719l-6.972657-11.125c-4.105468-6.445312-3.179687-14.878906 2.222657-20.285156 5.40625-5.40625 13.839843-6.328125 20.289062-2.222656l11.121094 6.972656c4.496094 2.84375 10.097656 3.324218 15.015625 1.289062 4.914062-2.039062 8.535156-6.335937 9.703125-11.53125l2.824219-12.796875c1.722656-7.433593 8.347656-12.699219 15.976562-12.699219 7.632813 0 14.253906 5.265626 15.980469 12.699219l2.824219 12.796875c1.167968 5.195313 4.785156 9.492188 9.703125 11.53125 4.914062 2.035156 10.515625 1.554688 15.011719-1.289062l11.125-6.972656c6.445312-4.105469 14.878906-3.183594 20.285156 2.222656s6.328125 13.839844 2.222656 20.285156l-6.972656 11.125c-2.664063 4.148438-3.28125 9.285156-1.675782 13.945312 1.847657 5.40625 6.351563 9.476563 11.917969 10.769532l12.796875 2.824218c7.433594 1.726563 12.699219 8.347657 12.699219 15.980469 0 7.628907-5.265625 14.253907-12.699219 15.976563zm0 0" fill="#ecf0f1"/><path d="m361.933594 326.625v35.308594c0 34.164062-71.152344 61.792968-158.898438 61.792968s-158.894531-27.628906-158.894531-61.792968v-35.308594c0 34.160156 71.148437 61.792969 158.894531 61.792969s158.898438-27.632813 158.898438-61.792969zm0 0" fill="#2c3e50"/><path d="m273.65625 52.96875c-6.5625 2-13.257812 3.535156-20.039062 4.589844-16.699219 2.914062-33.628907 4.332031-50.582032 4.238281-16.953125.09375-33.878906-1.324219-50.582031-4.238281-6.777344-1.054688-13.476563-2.589844-20.039063-4.589844l60.027344-49.433594c2.40625-1.667968 5.175782-2.738281 8.078125-3.117187 1.632813-.554688 3.402344-.554688 5.03125 0 2.902344.378906 5.671875 1.449219 8.078125 3.117187zm0 0" fill="#95a5a5"/><path d="m253.617188 57.558594c-16.699219 2.914062-33.628907 4.332031-50.582032 4.238281-16.953125.09375-33.878906-1.324219-50.582031-4.238281l42.636719-53.496094c1.84375-2.550781 4.800781-4.0625 7.945312-4.0625 3.148438 0 6.101563 1.511719 7.945313 4.0625zm0 0" fill="#bdc3c7"/><path d="m220.691406 406.070312c0 9.753907-7.90625 17.65625-17.65625 17.65625s-17.65625-7.902343-17.65625-17.65625c0-9.75 7.90625-17.652343 17.65625-17.652343s17.65625 7.902343 17.65625 17.652343zm0 0" fill="#35495e"/><path d="m296.253906 263.152344-12.796875 2.824218c-5.195312 1.167969-9.492187 4.789063-11.53125 9.703126-2.035156 4.917968-1.554687 10.519531 1.289063 15.015624l6.972656 11.121094c4.105469 6.449219 3.183594 14.882813-2.222656 20.289063-5.40625 5.402343-13.839844 6.328125-20.285156 2.222656l-11.125-6.972656c-4.496094-2.847657-10.097657-3.328125-15.011719-1.289063-4.917969 2.035156-8.535157 6.335938-9.703125 11.527344l-2.824219 12.800781c-1.726563 7.433594-8.347656 12.699219-15.980469 12.699219-7.628906 0-14.253906-5.265625-15.976562-12.699219l-2.824219-12.800781c-1.167969-5.191406-4.789063-9.492188-9.703125-11.527344-4.917969-2.039062-10.519531-1.558594-15.015625 1.289063l-11.121094 6.972656c-6.144531 4.125-14.328125 3.425781-19.6875-1.675781 11.035157-35.398438 44.933594-102.226563 142.832031-105.050782 1.847657 5.40625 6.351563 9.476563 11.917969 10.769532l12.796875 2.824218c7.433594 1.726563 12.699219 8.347657 12.699219 15.980469 0 7.628907-5.265625 14.253907-12.699219 15.976563zm0 0" fill="#bdc3c7"/><path d="m247.171875 247.175781c0 24.375-19.757813 44.136719-44.136719 44.136719-24.375 0-44.136718-19.761719-44.136718-44.136719 0-24.378906 19.761718-44.136719 44.136718-44.136719 24.378906 0 44.136719 19.757813 44.136719 44.136719zm0 0" fill="#35495e"/></svg>