<svg height="512pt" viewBox="0 0 512 512" width="512pt" xmlns="http://www.w3.org/2000/svg"><path d="m441.378906 370.757812s70.621094-26.480468 70.621094-141.242187c0-114.757813-167.722656-194.207031-256-194.207031s-256 79.449218-256 194.207031c0 114.761719 70.621094 141.242187 70.621094 141.242187zm0 0" fill="#3f5c6c"/><path d="m428.597656 370.757812s65.746094-26.480468 65.746094-141.242187c0-114.757813-156.160156-194.207031-238.34375-194.207031s-238.34375 79.449218-238.34375 194.207031c0 114.761719 65.746094 141.242187 65.746094 141.242187zm0 0" fill="#547580"/><g fill="#3f5c6c"><path d="m167.722656 353.101562c-.945312 0-1.890625-.15625-2.789062-.457031-1.242188-.40625-30.585938-10.664062-49.546875-58.058593-1.171875-2.929688-.691407-6.261719 1.261719-8.738282 1.953124-2.480468 5.078124-3.730468 8.203124-3.277344 3.121094.453126 5.765626 2.535157 6.933594 5.464844 15.6875 39.230469 38.507813 47.792969 38.726563 47.871094 4.097656 1.375 6.597656 5.515625 5.90625 9.78125-.691407 4.269531-4.371094 7.40625-8.695313 7.414062zm0 0"/><path d="m123.585938 370.757812c-.996094 0-1.984376-.167968-2.921876-.503906-33.433593-13.085937-60.273437-38.953125-74.585937-71.882812-16.3125-40.253906-10.644531-88.503906 16.820313-143.410156 1.394531-2.847657 4.207031-4.726563 7.371093-4.925782 3.164063-.199218 6.191407 1.3125 7.933594 3.960938 1.738281 2.652344 1.925781 6.03125.484375 8.855468-25.105469 50.183594-30.566406 93.570313-16.25 128.882813 12.480469 28.183594 35.46875 50.382813 64.070312 61.871094 4.050782 1.429687 6.488282 5.570312 5.765626 9.808593-.722657 4.234376-4.390626 7.335938-8.6875 7.34375zm0 0"/><path d="m344.277344 353.101562c-4.308594-.007812-7.980469-3.121093-8.691406-7.371093-.707032-4.246094 1.75-8.386719 5.820312-9.796875 1.121094-.414063 23.21875-8.898438 38.84375-47.898438 1.808594-4.527344 6.945312-6.734375 11.472656-4.925781 4.53125 1.808594 6.734375 6.945313 4.925782 11.476563-18.960938 47.394531-48.304688 57.652343-49.546876 58.058593-.910156.304688-1.867187.460938-2.824218.457031zm0 0"/><path d="m388.414062 370.757812c-4.296874-.007812-7.964843-3.109374-8.6875-7.34375-.722656-4.238281 1.714844-8.378906 5.765626-9.808593 28.601562-11.488281 51.589843-33.6875 64.070312-61.871094 14.316406-35.3125 8.828125-78.707031-16.25-128.882813-1.441406-2.824218-1.253906-6.203124.484375-8.855468 1.742187-2.648438 4.769531-4.160156 7.933594-3.960938 3.164062.199219 5.976562 2.078125 7.371093 4.925782 27.464844 54.90625 33.132813 103.15625 16.820313 143.410156-14.3125 32.933594-41.152344 58.804687-74.585937 71.894531-.9375.328125-1.925782.496094-2.921876.492187zm0 0"/><path d="m256 220.691406c-4.875 0-8.828125-3.953125-8.828125-8.828125v-132.414062c0-4.875 3.953125-8.828125 8.828125-8.828125s8.828125 3.953125 8.828125 8.828125v132.414062c0 4.875-3.953125 8.828125-8.828125 8.828125zm0 0"/></g><path d="m441.378906 370.757812c-57.578125-28.769531-121.015625-43.875-185.378906-44.136718-64.363281.261718-127.800781 15.367187-185.378906 44.136718-6.710938 22.863282-16.773438 91.632813-2.207032 128.089844 2.117188 5.472656 4.765626 13.152344 10.417969 13.152344 27.894531 0 51.640625-18.539062 72.472657-37.695312 29.394531-27.097657 64.707031-61.261719 104.695312-61.261719s75.300781 34.164062 104.695312 61.261719c20.832032 19.15625 44.578126 37.695312 72.472657 37.695312 5.652343 0 8.300781-7.679688 10.417969-13.152344 14.566406-36.457031 4.503906-105.226562-2.207032-128.089844zm0 0" fill="#2c3e50"/><path d="m432.179688 366.558594c-111.417969-53.25-240.941407-53.25-352.359376 0-6.375 20.679687-15.945312 82.898437-2.136718 115.886718 2.011718 4.953126 4.535156 11.898438 9.902344 11.898438 26.484374 0 49.082031-16.769531 68.855468-34.101562 27.992188-24.519532 61.601563-55.425782 99.558594-55.425782s71.566406 30.894532 99.503906 55.425782c19.792969 17.332031 42.363282 34.101562 68.875 34.101562 5.367188 0 7.890625-6.945312 9.902344-11.898438 13.84375-32.988281 4.273438-95.207031-2.101562-115.886718zm0 0" fill="#35495e"/><path d="m238.34375 0h35.3125c9.75 0 17.652344 7.90625 17.652344 17.65625s-7.902344 17.652344-17.652344 17.652344h-35.3125c-9.75 0-17.652344-7.902344-17.652344-17.652344s7.902344-17.65625 17.652344-17.65625zm0 0" fill="#35495e"/><path d="m308.964844 397.242188c-3.226563 0-6.199219-1.757813-7.75-4.589844-.476563-.707032-9.339844-13.066406-45.214844-13.066406-36.765625 0-45.160156 12.96875-45.242188 13.089843-2.484374 4.066407-7.703124 5.5-11.917968 3.277344-4.128906-2.199219-5.769532-7.277344-3.707032-11.476563 1.15625-2.320312 12.667969-22.546874 60.867188-22.546874s59.710938 20.226562 60.910156 22.539062c1.371094 2.742188 1.21875 6.003906-.398437 8.609375-1.621094 2.601563-4.480469 4.179687-7.546875 4.164063zm0 0" fill="#2c3e50"/></svg>