<svg height="512pt" viewBox="0 0 512 512" width="512pt" xmlns="http://www.w3.org/2000/svg"><path d="m185.378906 512h-70.621094s26.484376-26.484375 0-79.449219c-26.480468-52.964843-26.480468-97.101562 17.65625-132.414062h44.136719s-44.136719 26.484375-17.652343 79.449219c26.480468 52.964843 26.480468 88.277343 26.480468 132.414062zm0 0" fill="#c03a2b"/><path d="m114.757812 512s26.484376-26.484375 0-79.449219c-26.480468-52.964843-26.480468-97.101562 17.65625-132.414062h26.925782s-44.140625 26.484375-17.65625 79.449219c26.480468 52.964843 26.480468 88.277343 26.480468 132.414062zm0 0" fill="#e64c3c"/><path d="m397.242188 432.550781c-26.484376 52.964844 0 79.449219 0 79.449219h-70.621094c0-44.136719 0-79.449219 26.480468-132.414062 26.484376-52.964844-17.652343-79.449219-17.652343-79.449219h44.136719c44.136718 35.3125 44.136718 79.449219 17.65625 132.414062zm0 0" fill="#c03a2b"/><path d="m397.242188 432.550781c-26.484376 52.964844 0 79.449219 0 79.449219h-53.40625c0-44.136719 0-79.449219 26.480468-132.414062 26.484375-52.964844-17.65625-79.449219-17.65625-79.449219h26.925782c44.136718 35.3125 44.136718 79.449219 17.65625 132.414062zm0 0" fill="#e64c3c"/><path d="m35.308594 264.828125h441.382812c19.5 0 35.308594 15.808594 35.308594 35.308594h-512c0-19.5 15.808594-35.308594 35.308594-35.308594zm0 0" fill="#2c3e50"/><path d="m52.964844 264.828125h406.070312c19.5 0 35.308594 15.808594 35.308594 35.308594h-476.6875c0-19.5 15.808594-35.308594 35.308594-35.308594zm0 0" fill="#35495e"/><path d="m158.898438 0h194.203124c4.878907 0 8.828126 3.953125 8.828126 8.828125v256h-211.859376v-256c0-4.875 3.949219-8.828125 8.828126-8.828125zm0 0" fill="#35495e"/><path d="m176.550781 0h158.898438c4.875 0 8.828125 3.953125 8.828125 8.828125v256h-176.554688v-256c0-4.875 3.953125-8.828125 8.828125-8.828125zm0 0" fill="#3f5c6c"/><path d="m150.070312 229.515625h211.859376v35.3125h-211.859376zm0 0" fill="#2c3e50"/></svg>