<svg height="512pt" viewBox="0 0 512 512" width="512pt" xmlns="http://www.w3.org/2000/svg"><path d="m211.863281 0h88.273438c11.707031 0 22.933593 4.648438 31.210937 12.925781 8.277344 8.28125 12.929688 19.507813 12.929688 31.210938v26.484375h-176.554688v-26.484375c0-24.375 19.761719-44.136719 44.140625-44.136719zm0 0" fill="#e6e7e8"/><path d="m229.515625 8.828125h52.96875c24.375 0 44.136719 19.761719 44.136719 44.136719v17.65625h-141.242188v-17.65625c0-24.375 19.761719-44.136719 44.136719-44.136719zm0 0" fill="#e64c3c"/><g fill="#e6e7e8"><path d="m52.613281 377.644531c-7.855469-36.722656-52.613281-68.679687-52.613281-68.679687 141.242188-70.621094 167.722656-185.378906 167.722656-185.378906h43.699219c-6.269531 18.625-47.492187 133.207031-131.179687 225.898437-4.324219 4.765625-8.738282 9.535156-13.242188 14.125-4.675781 4.765625-9.445312 9.53125-14.386719 14.035156zm0 0"/><path d="m459.742188 401.832031c5.648437 40.78125-29.042969 57.203125-80.15625 57.203125-52.964844 0-70.621094 0-123.585938 52.964844-52.964844-52.964844-70.621094-52.964844-123.585938-52.964844-51.113281 0-85.804687-16.421875-80.15625-57.203125 6.621094-5.648437 12.976563-11.5625 19.070313-17.566406 5.296875-5.210937 10.503906-10.417969 15.445313-15.800781 97.898437-103.902344 140.359374-236.050782 142.300781-242.230469.277343-.855469.425781-1.75.441406-2.648437h52.96875c.015625.898437.164063 1.792968.441406 2.648437 10.503907 31.394531 23.402344 61.941406 38.574219 91.367187 27.3125 54.9375 62.230469 105.753907 103.726562 150.949219 5.03125 5.296875 10.148438 10.59375 15.445313 15.714844 6.09375 6.003906 12.449219 11.917969 19.070313 17.566406zm0 0"/><path d="m512 308.964844s-44.757812 31.957031-52.613281 68.679687c-4.941407-4.503906-9.710938-9.269531-14.386719-14.035156-4.503906-4.589844-8.917969-9.359375-13.242188-14.125-83.597656-92.601563-124.910156-207.273437-131.179687-225.898437h43.699219s26.480468 114.757812 167.722656 185.378906zm0 0"/></g><path d="m80.242188 349.484375c-4.324219 4.765625-8.738282 9.535156-13.242188 14.125-7.949219-19.59375-20.195312-37.152344-35.839844-51.378906 101.785156-59.144531 143.097656-156.863281 154.21875-188.644531h26.042969c-6.269531 18.625-47.492187 133.207031-131.179687 225.898437zm0 0" fill="#e64c3c"/><path d="m441.730469 400.683594c3.179687 15.976562-2.117188 22.421875-3.882813 24.542968-8.472656 10.414063-29.21875 16.152344-58.261718 16.152344-13.226563-.21875-26.457032.253906-39.636719 1.414063-29.484375 3.089843-50.40625 13.0625-83.949219 44.578125-46.609375-43.785156-69.03125-45.992188-123.585938-45.992188-29.042968 0-49.789062-5.738281-58.261718-16.152344-1.765625-2.121093-7.0625-8.566406-3.882813-24.542968 1.089844-5.398438 1.449219-10.921875 1.058594-16.417969 5.296875-5.210937 10.503906-10.417969 15.445313-15.800781 97.898437-103.902344 140.359374-236.050782 142.300781-242.230469.277343-.855469.425781-1.75.441406-2.648437h52.96875c.015625.898437.164063 1.792968.441406 2.648437 10.503907 31.394531 23.402344 61.941406 38.574219 91.367187 27.3125 54.9375 62.230469 105.753907 103.726562 150.949219 5.03125 5.296875 10.148438 10.59375 15.445313 15.714844-.390625 5.496094-.03125 11.019531 1.058594 16.417969zm0 0" fill="#e64c3c"/><path d="m480.839844 312.230469c-15.644532 14.226562-27.890625 31.785156-35.839844 51.378906-4.503906-4.589844-8.917969-9.359375-13.242188-14.125-83.597656-92.601563-124.910156-207.273437-131.179687-225.898437h26.042969c11.121094 31.78125 52.433594 129.5 154.21875 188.644531zm0 0" fill="#e64c3c"/><path d="m211.421875 123.585938c-6.269531 18.625-47.492187 133.207031-131.179687 225.898437-5.597657-12.148437-12.84375-23.46875-21.539063-33.632813 83.949219-56.320312 129.414063-154.835937 144.332031-192.265624zm0 0" fill="#e6e7e8"/><path d="m453.296875 315.851562c-8.710937 10.152344-15.960937 21.472657-21.539063 33.632813-83.597656-92.601563-124.910156-207.273437-131.179687-225.898437h8.386719c14.917968 37.429687 60.382812 135.945312 144.332031 192.265624zm0 0" fill="#e6e7e8"/><path d="m425.226562 368.550781c-1.199218 4.863281-1.9375 9.828125-2.207031 14.832031-.464843 6.976563.011719 13.980469 1.410157 20.832032.917968 3.046875.949218 6.292968.089843 9.359375-3.265625 4.058593-15.980469 10.148437-44.933593 10.148437-13.875-.226562-27.753907.277344-41.578126 1.503906-30.453124 3.175782-53.230468 13.59375-82.007812 38.398438-44.492188-38.046875-72.914062-39.902344-123.585938-39.902344-28.953124 0-41.667968-6.089844-44.578124-9.621094-1.230469-3.195312-1.324219-6.71875-.265626-9.976562 1.410157-6.90625 1.886719-13.972656 1.410157-21.007812-.277344-4.941407-1.015625-9.847657-2.207031-14.652344 97.898437-103.902344 140.359374-236.050782 142.300781-242.230469.277343-.855469.425781-1.75.441406-2.648437h52.96875c.015625.898437.164063 1.792968.441406 2.648437 10.503907 31.394531 23.402344 61.941406 38.574219 91.367187 27.3125 54.9375 62.230469 105.753907 103.726562 150.949219zm0 0" fill="#e6e7e8"/><path d="m405.1875 323.621094c-3.9375 7.136718-7.300781 14.574218-10.066406 22.242187-4.222656 11.484375-6.695313 23.535157-7.324219 35.753907-.175781 2.207031-.265625 4.414062-.265625 6.621093-2.382812.085938-5.03125.175781-7.945312.175781-14.035157 0-25.160157.175782-35.398438.882813-3.355469.175781-6.621094.53125-9.886719.882813-2.558593.265624-5.03125.527343-7.503906.96875-25.542969 3.40625-49.871094 12.980468-70.886719 27.898437-23.121094-16.296875-50.125-26.222656-78.300781-28.777344-6.972656-.796875-14.121094-1.238281-21.539063-1.503906-7.589843-.261719-15.445312-.351563-23.65625-.351563-3 0-5.648437-.089843-7.945312-.175781 0-2.472656-.089844-4.945312-.265625-7.417969-.753906-12.007812-3.25-23.84375-7.414063-35.132812-2.679687-7.632812-6.015624-15.015625-9.976562-22.066406 61.441406-51.820313 103.019531-156.601563 122.703125-200.035156h52.96875c9.886719 21.714843 25.15625 58.792968 45.726563 96.839843 20.566406 38.046875 46.253906 77.242188 76.976562 103.195313zm0 0" fill="#e64c3c"/><path d="m52.964844 397.242188c1.253906-6.457032 1.132812-13.105469-.351563-19.511719v-.085938c4.941407-4.503906 9.710938-9.269531 14.386719-14.035156 2.453125 6.632813 3.910156 13.59375 4.328125 20.65625-6.09375 6.003906-12.449219 11.917969-19.070313 17.566406.15625-1.542969.394532-3.074219.707032-4.589843zm0 0" fill="#bdc3c7"/><path d="m86.773438 368.464844c-4.941407 5.382812-10.148438 10.589844-15.445313 15.800781-.417969-7.0625-1.875-14.023437-4.328125-20.65625 4.503906-4.589844 8.917969-9.359375 13.242188-14.125 1.238281 2.648437 2.382812 5.382813 3.355468 8.121094 1.289063 3.546875 2.351563 7.175781 3.175782 10.859375zm0 0" fill="#c03a2b"/><path d="m229.515625 123.585938c-.015625.898437-.164063 1.792968-.441406 2.648437-1.941407 6.179687-44.402344 138.328125-142.300781 242.230469-.824219-3.683594-1.886719-7.3125-3.175782-10.859375-.972656-2.738281-2.117187-5.472657-3.355468-8.121094 83.6875-92.691406 124.910156-207.273437 131.179687-225.898437zm0 0" fill="#bdc3c7"/><path d="m459.742188 401.832031c-6.621094-5.648437-12.976563-11.5625-19.070313-17.566406.417969-7.0625 1.875-14.023437 4.328125-20.65625 4.675781 4.765625 9.445312 9.53125 14.386719 14.035156-1.484375 6.4375-1.605469 13.113281-.351563 19.597657.3125 1.515624.550782 3.046874.707032 4.589843zm0 0" fill="#bdc3c7"/><path d="m445 363.609375c-2.453125 6.632813-3.910156 13.59375-4.328125 20.65625-5.296875-5.121094-10.414063-10.417969-15.445313-15.714844 1.511719-6.5625 3.703126-12.953125 6.53125-19.066406 4.324219 4.765625 8.738282 9.535156 13.242188 14.125zm0 0" fill="#c03a2b"/><path d="m431.757812 349.484375c-2.828124 6.113281-5.019531 12.503906-6.53125 19.066406-41.496093-45.195312-76.414062-96.011719-103.726562-150.949219-15.171875-29.425781-28.070312-59.972656-38.574219-91.367187-.277343-.855469-.425781-1.75-.441406-2.648437h18.09375c6.269531 18.625 47.582031 133.296874 131.179687 225.898437zm0 0" fill="#bdc3c7"/><path d="m344.1875 389.296875c-.21875 2.730469-1.726562 5.191406-4.0625 6.621094-4.144531 2.5625-9.582031 1.300781-12.179688-2.824219-.433593-.617188-.816406-1.265625-1.148437-1.945312 2.472656-.441407 4.945313-.703126 7.503906-.96875 3.265625-.351563 6.53125-.707032 9.886719-.882813zm0 0" fill="#bdc3c7"/><path d="m344.1875 389.296875c-3.355469.175781-6.621094.53125-9.886719.882813-2.558593.265624-5.03125.527343-7.503906.96875-43.785156-71.324219-52.699219-165.605469-53.140625-169.664063-.285156-3.152344 1.136719-6.21875 3.726562-8.042969 2.585938-1.820312 5.953126-2.125 8.824219-.792968 2.875 1.332031 4.820313 4.09375 5.101563 7.246093.007812.414063.039062.828125.089844 1.238281 1.234374 11.472657 11.742187 98.867188 51.554687 162.601563 1.039063 1.65625 1.476563 3.621094 1.234375 5.5625zm0 0" fill="#c03a2b"/><path d="m177.609375 390.269531c-8.777344 12-19.246094 22.675781-31.070313 31.6875-1.539062 1.132813-3.390624 1.75-5.296874 1.765625-2.773438-.015625-5.382813-1.320312-7.0625-3.53125-1.40625-1.871094-2.007813-4.226562-1.675782-6.542968.328125-2.316407 1.566406-4.410157 3.441406-5.8125 7.390626-5.59375 14.140626-11.988282 20.125-19.070313 7.417969.265625 14.566407.707031 21.539063 1.503906zm0 0" fill="#bdc3c7"/><path d="m202.417969 347.542969c-6.492188 15.203125-14.824219 29.550781-24.808594 42.726562-6.972656-.796875-14.121094-1.238281-21.539063-1.503906 12.257813-14.371094 22.339844-30.460937 29.925782-47.757813 1.804687-4.53125 6.941406-6.746093 11.476562-4.941406 4.535156 1.804688 6.746094 6.941406 4.945313 11.476563zm0 0" fill="#c03a2b"/><path d="m167.722656 70.621094h176.554688c9.75 0 17.652344 7.902344 17.652344 17.65625v17.652344c0 9.753906-7.902344 17.65625-17.652344 17.65625h-176.554688c-9.75 0-17.652344-7.902344-17.652344-17.65625v-17.652344c0-9.753906 7.902344-17.65625 17.652344-17.65625zm0 0" fill="#2c3e50"/><path d="m167.722656 79.449219h176.554688c9.75 0 17.652344 7.902343 17.652344 17.652343 0 9.753907-7.902344 17.65625-17.652344 17.65625h-176.554688c-9.75 0-17.652344-7.902343-17.652344-17.65625 0-9.75 7.902344-17.652343 17.652344-17.652343zm0 0" fill="#35495e"/></svg>