<svg height="511pt" viewBox="0 -52 511.99901 511" width="511pt" xmlns="http://www.w3.org/2000/svg"><path d="m503.171875 62.316406c-1.253906 52.148438-9.597656 103.882813-24.804687 153.777344h-444.734376c-15.207031-49.894531-23.550781-101.628906-24.804687-153.777344 5.636719-4.15625 11.566406-7.902344 17.742187-11.210937 31.867188-17.742188 107.253907-50.582031 229.429688-50.582031 122.171875 0 197.5625 32.839843 229.429688 50.582031 6.175781 3.308593 12.105468 7.054687 17.742187 11.210937zm0 0" fill="#7d6599"/><path d="m485.429688 51.105469c-1.722657 55.660156-9.417969 110.972656-22.953126 164.988281h-412.953124c-13.535157-54.015625-21.230469-109.328125-22.953126-164.988281 27.941407-15.0625 57.695313-26.484375 88.539063-33.984375 46.089844-11.390625 93.417969-16.964844 140.890625-16.597656 50.835938-.4804692 101.5 5.964843 150.597656 19.15625 27.417969 7.351562 53.875 17.898437 78.832032 31.425781zm0 0" fill="#b49aca"/><path d="m414.894531 66.730469c0 80.421875-69.207031 145.65625-154.480469 145.65625-85.273437 0-154.484374-65.234375-154.484374-145.65625-.007813-16.960938 3.105468-33.777344 9.179687-49.609375 46.089844-11.390625 93.417969-16.964844 140.890625-16.597656 50.835938-.4804692 101.5 5.964843 150.597656 19.15625 5.507813 15.074218 8.316406 31.003906 8.296875 47.050781zm0 0" fill="#c3aed5"/><path d="m256 291.835938c52.664062 0 99.273438 39.609374 138.054688 71.035156 27.4375 22.234375 58.71875 43.722656 95.515624 43.722656 7.40625 0 10.882813-8.890625 13.75-15.246094 19.121094-42.371094 1.960938-117.167968-6.9375-143.652344-29.863281-88.8125-178.421874-97.101562-240.382812-97.101562s-210.519531 8.289062-240.382812 97.101562c-8.898438 26.484376-26.0625 101.308594-6.941407 143.652344 2.871094 6.355469 6.332031 15.246094 13.753907 15.246094 36.792968 0 68.078124-21.488281 95.515624-43.722656 38.777344-31.425782 85.390626-71.035156 138.054688-71.035156zm0 0" fill="#894b9d"/><path d="m256 277.226562c49.035156 0 92.433594 35.511719 128.527344 63.691407 25.550781 19.929687 54.679687 39.191406 88.929687 39.191406 6.894531 0 10.136719-7.945313 12.808594-13.671875 17.796875-37.960938 1.828125-105.050781-6.460937-128.785156-27.832032-79.625-166.117188-87.058594-223.804688-87.058594s-195.972656 7.433594-223.804688 87.058594c-8.289062 23.746094-24.261718 90.824218-6.464843 128.785156 2.648437 5.703125 5.914062 13.671875 12.808593 13.671875 34.253907 0 63.382813-19.261719 88.929688-39.191406 36.097656-28.179688 79.492188-63.691407 128.53125-63.691407zm0 0" fill="#955ba5"/><path d="m388.414062 309.488281c-2.3125 0-4.53125-.90625-6.179687-2.523437-30.867187-29.996094-71.550781-47.800782-114.53125-50.113282-38.359375-2.675781-76.585937 6.8125-109.25 27.109376-10.308594 6.6875-19.921875 14.398437-28.6875 23.011718-2.253906 2.210938-5.515625 3.046875-8.554687 2.195313-3.042969-.847657-5.398438-3.253907-6.179688-6.308594-.785156-3.058594.121094-6.300781 2.375-8.507813 39.972656-39.578124 95.242188-59.710937 151.304688-55.121093 47.246093 2.554687 91.964843 22.136719 125.882812 55.128906 2.558594 2.511719 3.347656 6.320313 1.992188 9.640625-1.355469 3.320312-4.585938 5.488281-8.171876 5.488281zm0 0" fill="#894b9d"/></svg>