<svg xmlns="http://www.w3.org/2000/svg" width="103" height="100.5" viewBox="0 0 103 100.5">
  <g id="beanie" transform="translate(2.5 0)">
    <path id="Path_38" data-name="Path 38" d="M91.242,196.474v-6.759a40.578,40.578,0,0,0-28.353-38.676H35.111A40.578,40.578,0,0,0,6.758,189.715v6.759A6.758,6.758,0,0,0,0,203.232v10.139a6.758,6.758,0,0,0,6.758,6.758H91.242A6.758,6.758,0,0,0,98,213.371V203.232A6.758,6.758,0,0,0,91.242,196.474Zm0,0" transform="translate(0 -122.129)" fill="#3f5c6c"/>
    <path id="Path_39" data-name="Path 39" d="M63.662,151.039c-16.873,6.043-28.346,23.785-28.353,43.845v7.662h84.484v-7.662c-.007-20.059-11.48-37.8-28.353-43.845Zm0,0" transform="translate(-28.551 -122.129)" fill="#4879af" stroke="#333" stroke-width="5"/>
    <path id="Path_44" data-name="Path 44" d="M192.692,16.9c0,2.089-3.364,3.487-4.116,5.284a2.733,2.733,0,0,0-.169.63,7.481,7.481,0,0,0-.077,1.782c.077,1.613.323,3.349-.583,4.255-1.413,1.413-4.777.046-6.667.83-1.8.752-3.2,4.116-5.284,4.116s-3.487-3.364-5.284-4.116c-1.89-.784-5.254.583-6.667-.83-.906-.906-.66-2.642-.583-4.255a7.48,7.48,0,0,0-.077-1.782,2.731,2.731,0,0,0-.169-.63c-.752-1.8-4.116-3.195-4.116-5.284a2.5,2.5,0,0,1,.6-1.535c1-1.321,2.964-2.427,3.518-3.748a9.4,9.4,0,0,0,.169-3.7,7.445,7.445,0,0,1,.077-1.782,2.266,2.266,0,0,1,.583-1.183c1.413-1.413,4.777-.046,6.667-.83,1.8-.752,3.2-4.116,5.284-4.116s3.487,3.364,5.284,4.116c1.89.784,5.254-.583,6.667.83a2.266,2.266,0,0,1,.583,1.183,7.446,7.446,0,0,1,.077,1.782,9.4,9.4,0,0,0,.169,3.7c.553,1.321,2.519,2.427,3.518,3.748a2.5,2.5,0,0,1,.6,1.535Zm0,0" transform="translate(-126.485 3.379)" fill="#325e8e" stroke="#333" stroke-width="5"/>
    <path id="Path_46" data-name="Path 46" d="M6.758,388.414H91.242A6.758,6.758,0,0,1,98,395.172v10.139a6.758,6.758,0,0,1-6.758,6.758H6.758A6.758,6.758,0,0,1,0,405.311V395.172a6.758,6.758,0,0,1,6.758-6.758Zm0,0" transform="translate(0 -314.069)" fill="#325e8e" stroke="#333" stroke-width="5"/>
    <rect id="Rectangle_44" data-name="Rectangle 44" width="100" height="100" transform="translate(-1 0)" fill="none"/>
  </g>
</svg>
