<svg xmlns="http://www.w3.org/2000/svg" width="110.117" height="100" viewBox="0 0 110.117 100">
  <g id="fedora" transform="translate(2.5 38.001)">
    <rect id="Rectangle_47" data-name="Rectangle 47" width="100" height="100" transform="translate(3 -38.001)" fill="none"/>
    <path id="Path_59" data-name="Path 59" d="M83.369,165.879c13.176,2.809,21.748,7.214,21.748,11.455,0,7.013-23.524,10.874-52.559,10.874S0,184.347,0,177.334c0-4.241,8.572-8.645,21.748-11.455" transform="translate(0 -131.824)" fill="#654320" stroke="#333" stroke-width="5"/>
    <path id="Path_61" data-name="Path 61" d="M167.55,12.688v29.2c0,.616-1.3,1.2-3.625,1.7A149.725,149.725,0,0,1,136.74,45.51a149.725,149.725,0,0,1-27.186-1.922c-2.32-.507-3.625-1.087-3.625-1.7v-29.2A12.706,12.706,0,0,1,119.83.055a13.808,13.808,0,0,1,3.009.671l6.814,2.41,2.864,1.015a12.742,12.742,0,0,0,8.445,0l2.864-1.015,6.814-2.41A13.808,13.808,0,0,1,153.65.055a12.706,12.706,0,0,1,13.9,12.633Zm0,0" transform="translate(-84.181)" fill="#4879af" stroke="#333" stroke-width="5"/>
    <path id="Path_63" data-name="Path 63" d="M167.55,12.746V31.069c0,.616-1.3,1.2-3.625,1.7a149.8,149.8,0,0,1-27.186,1.922,149.8,149.8,0,0,1-27.186-1.922c-2.32-.508-3.625-1.087-3.625-1.7V12.746A12.713,12.713,0,0,1,122.839.784l9.678,3.425a12.742,12.742,0,0,0,8.445,0L150.641.784a12.713,12.713,0,0,1,16.91,11.962Zm0,0" transform="translate(-84.181 -0.058)" fill="#654320" stroke="#333" stroke-width="5"/>
  </g>
</svg>
