<svg xmlns="http://www.w3.org/2000/svg" width="105.135" height="100" viewBox="0 0 105.135 100">
  <g id="pirate" transform="translate(2.632 11.569)">
    <rect id="Rectangle_51" data-name="Rectangle 51" width="100" height="100" transform="translate(0 -11.569)" fill="none"/>
    <path id="Path_96" data-name="Path 96" d="M99.321,40.81,98.15,36.16a23.834,23.834,0,0,1-17.219-8.609C74.043,18.941,72.321,0,49.936,0S25.83,18.941,18.942,27.551A23.834,23.834,0,0,1,1.723,36.16L.552,40.81,0,43.048c6.887,15.5,18.941,17.219,18.941,17.219v6.888A3.444,3.444,0,0,0,22.386,70.6h55.1a3.444,3.444,0,0,0,3.444-3.443V60.267s12.053-1.722,18.941-17.219Zm0,0" transform="translate(-0.001 0)" fill="#4879af" stroke="#333" stroke-width="5"/>
    <path id="Path_97" data-name="Path 97" d="M99.871,43.048C92.983,58.544,80.93,60.267,80.93,60.267H18.94S6.887,58.544,0,43.048l.551-2.239L1.722,36.16A23.834,23.834,0,0,0,18.94,27.55C25.829,18.94,27.551,0,49.935,0S74.042,18.94,80.93,27.55A23.834,23.834,0,0,0,98.148,36.16l1.171,4.649Zm0,0" transform="translate(0 0)" fill="#325e8e" stroke="#333" stroke-width="5"/>
    <g id="Group_13" data-name="Group 13" transform="translate(29.273 13.775)">
      <path id="Path_99" data-name="Path 99" d="M302,224.27a1.721,1.721,0,0,1-1.218-.5l-6.406-6.406a1.722,1.722,0,0,1,2.435-2.434l6.4,6.4A1.722,1.722,0,0,1,302,224.27Zm0,0" transform="translate(-265.837 -186.388)" fill="#fff"/>
      <path id="Path_100" data-name="Path 100" d="M172.494,94.768a1.711,1.711,0,0,1-1.218-.5L168.316,91.3a1.722,1.722,0,0,1,2.434-2.434l2.962,2.962a1.721,1.721,0,0,1-1.218,2.939Zm0,0" transform="translate(-164.367 -84.919)" fill="#fff"/>
      <path id="Path_101" data-name="Path 101" d="M169.447,224.27a1.722,1.722,0,0,1-1.217-2.94l6.4-6.4a1.722,1.722,0,0,1,2.435,2.434l-6.406,6.406A1.721,1.721,0,0,1,169.447,224.27Zm0,0" transform="translate(-164.282 -186.388)" fill="#fff"/>
      <path id="Path_102" data-name="Path 102" d="M312.985,94.8a1.722,1.722,0,0,1-1.218-2.94l3-3A1.722,1.722,0,0,1,317.2,91.3l-3,3A1.723,1.723,0,0,1,312.985,94.8Zm0,0" transform="translate(-279.821 -84.92)" fill="#fff"/>
      <path id="Path_103" data-name="Path 103" d="M155.236,77.509h-3.443a1.722,1.722,0,1,1,0-3.443h1.721V72.343a1.722,1.722,0,1,1,3.444,0v3.443a1.722,1.722,0,0,1-1.722,1.722Zm0,0" transform="translate(-150.071 -70.621)" fill="#fff"/>
      <path id="Path_104" data-name="Path 104" d="M331.787,77.509h-3.443a1.722,1.722,0,0,1-1.722-1.722V72.343a1.722,1.722,0,1,1,3.444,0v1.722h1.721a1.722,1.722,0,1,1,0,3.443Zm0,0" transform="translate(-292.184 -70.621)" fill="#fff"/>
      <path id="Path_105" data-name="Path 105" d="M155.236,254.06a1.722,1.722,0,0,1-1.722-1.722v-1.722h-1.721a1.722,1.722,0,0,1,0-3.444h3.443a1.722,1.722,0,0,1,1.722,1.722v3.444a1.722,1.722,0,0,1-1.722,1.722Zm0,0" transform="translate(-150.071 -212.734)" fill="#fff"/>
      <path id="Path_106" data-name="Path 106" d="M328.343,254.06a1.722,1.722,0,0,1-1.722-1.722v-3.444a1.722,1.722,0,0,1,1.722-1.722h3.443a1.722,1.722,0,1,1,0,3.444h-1.721v1.722a1.722,1.722,0,0,1-1.722,1.722Zm0,0" transform="translate(-292.183 -212.734)" fill="#fff"/>
    </g>
    <path id="Path_108" data-name="Path 108" d="M207.521,94.921a15.5,15.5,0,0,1-8.61,13.88v3.339a3.444,3.444,0,0,1-3.443,3.444h-6.888a3.444,3.444,0,0,1-3.443-3.444V108.8a15.5,15.5,0,0,1,7.314-29.376A15.67,15.67,0,0,1,207.521,94.921Zm0,0" transform="translate(-142.088 -63.927)" fill="#fff"/>
    <path id="Path_109" data-name="Path 109" d="M218.751,135.858a3.444,3.444,0,1,1-3.444-3.444A3.443,3.443,0,0,1,218.751,135.858Zm0,0" transform="translate(-170.537 -106.585)" fill="#325e8e"/>
    <path id="Path_110" data-name="Path 110" d="M271.716,135.858a3.444,3.444,0,1,1-3.443-3.444A3.443,3.443,0,0,1,271.716,135.858Zm0,0" transform="translate(-213.171 -106.585)" fill="#325e8e"/>
    <path id="Path_111" data-name="Path 111" d="M241.876,190.632a1.725,1.725,0,0,1-1.218-.5l-1.722-1.722a1.722,1.722,0,0,1,2.435-2.435l.5.5.5-.5a1.722,1.722,0,0,1,2.435,2.435l-1.722,1.722A1.725,1.725,0,0,1,241.876,190.632Zm0,0" transform="translate(-191.94 -149.307)" fill="#325e8e"/>
    <path id="Path_112" data-name="Path 112" d="M248.894,238.125a1.722,1.722,0,0,1-1.722-1.722v-5.166a1.722,1.722,0,0,1,3.444,0V236.4A1.722,1.722,0,0,1,248.894,238.125Zm0,0" transform="translate(-198.959 -184.746)" fill="#325e8e"/>
  </g>
</svg>
