<svg xmlns="http://www.w3.org/2000/svg" width="100" height="100.063" viewBox="0 0 100 100.063">
  <g id="tophat" transform="translate(4 2.5)">
    <rect id="Rectangle_46" data-name="Rectangle 46" width="100" height="100" transform="translate(-4 -2.437)" fill="none"/>
    <path id="Path_50" data-name="Path 50" d="M75.776,326c9.677,3.489,15.787,8.6,15.787,14.319,0,10.467-20.491,18.944-45.782,18.944S0,350.789,0,340.323c0-5.715,6.11-10.83,15.787-14.319Zm0,0" transform="translate(0 -267.703)" fill="#785cb4" stroke="#333" stroke-width="5"/>
    <path id="Path_52" data-name="Path 52" d="M148.267,11.051V53.675c0,5.731-11.808,10.435-26.932,10.988-1.01.048-2.02.063-3.063.063-.521,0-1.026,0-1.547-.015-15.834-.3-28.447-5.115-28.447-11.035V11.051c0-.189.015-.379.031-.569C89.114,4.641,102.233,0,118.272,0s29.158,4.641,29.963,10.482c.016.19.031.379.031.569Zm0,0" transform="translate(-72.49 0)" fill="#785cb4" stroke="#333" stroke-width="5"/>
    <path id="Path_55" data-name="Path 55" d="M148.266,11.051c0,6.11-13.434,11.051-29.995,11.051S88.277,17.16,88.277,11.051c0-.189.015-.379.031-.569C89.113,4.641,102.232,0,118.272,0s29.158,4.641,29.963,10.482c.016.19.031.379.031.569Zm0,0" transform="translate(-72.49)" fill="#63489b" stroke="#333" stroke-width="5"/>
    <path id="Path_58" data-name="Path 58" d="M165.919,327.77v17.354c-5.011,4.031-14.909,6.923-26.572,7.386-1.129.058-2.258.077-3.423.077-.582,0-1.147,0-1.729-.019-12.386-.251-23.007-3.22-28.265-7.444V327.77c5.258,4.223,15.879,7.193,28.265,7.443.582.019,1.147.019,1.729.019,1.165,0,2.294-.019,3.423-.077C151.01,334.693,160.908,331.8,165.919,327.77Zm0,0" transform="translate(-90.142 -273.654)" fill="#f45b69" stroke="#333" stroke-width="5"/>
  </g>
</svg>
