<svg xmlns="http://www.w3.org/2000/svg" width="103.424" height="103.5" viewBox="0 0 103.424 103.5">
  <g id="witch" transform="translate(2.5 2.576)">
    <rect id="Rectangle_48" data-name="Rectangle 48" width="100" height="100" transform="translate(-1 -2.576)" fill="none"/>
    <path id="Path_64" data-name="Path 64" d="M77.3,276.628c12.778,4.293,21.127,11.437,21.127,19.515,0,13.118-22.027,23.758-49.212,23.758S0,309.261,0,296.143c0-9.893,12.54-18.4,30.393-21.959Zm0,0" transform="translate(0 -221.476)" fill="#325e8e" stroke="#333" stroke-width="5"/>
    <path id="Path_66" data-name="Path 66" d="M163.627,71.273h-57.7s7.942-9.266,9.792-17.275a13.3,13.3,0,0,0,.39-3.089,11.018,11.018,0,0,0-1.222-5.668,2.8,2.8,0,0,0-.237-.373,2.489,2.489,0,0,0-.187-.272.685.685,0,0,0-.17-.221c-1.731-2.205-4.4-3.258-6.669-7.042-5.09-8.485,6.873-15.273,13.661-20.363S131.384,5.091,122.9,0c0,0,.56,0,1.527.1a29.428,29.428,0,0,1,9.842,3.054.688.688,0,0,1,.152.085,29.062,29.062,0,0,1,7.144,5.244c6.177,6.177,1.562,9.656-.085,13.712a5.013,5.013,0,0,0-.2.526,5.464,5.464,0,0,0,.288,4.429,6.27,6.27,0,0,0,1.7,2c5.94,4.9,21.874,7.416,20.364,42.119Zm0,0" transform="translate(-85.566)" fill="#325e8e" stroke="#333" stroke-width="5"/>
    <path id="Path_70" data-name="Path 70" d="M153.061,317.793v15.934a1.686,1.686,0,0,1-.967,1.527,54.5,54.5,0,0,1-16.257,4.48h-.017l-1.187-.034-10.5-.288-11.709-.339a99.371,99.371,0,0,1-18.5-5.227,1.7,1.7,0,0,1-.78-2.528l9.011-13.525s.764.272,2.257.662a65.016,65.016,0,0,0,8.078,1.527l11.693.187,10.606.17,1.239.016c4.174-.373,8.705-.967,13.559-1.883,1.137-.2,2.308-.424,3.479-.679Zm0,0" transform="translate(-75.001 -256.702)" fill="#785cb4" stroke="#333" stroke-width="5"/>
    <path id="Path_72" data-name="Path 72" d="M212.874,308.965H199.3a5.091,5.091,0,0,0-5.091,5.091v16.969a5.091,5.091,0,0,0,5.091,5.091h13.575a5.091,5.091,0,0,0,5.091-5.091V314.056A5.091,5.091,0,0,0,212.874,308.965Zm-1.7,18.667a1.7,1.7,0,0,1-1.7,1.7h-6.788a1.7,1.7,0,0,1-1.7-1.7V317.45a1.7,1.7,0,0,1,1.7-1.7h6.788a1.7,1.7,0,0,1,1.7,1.7Zm0,0" transform="translate(-156.874 -249.571)" fill="#f3e370" stroke="#333" stroke-width="3"/>
  </g>
</svg>
