<svg xmlns="http://www.w3.org/2000/svg" width="100" height="100" viewBox="0 0 100 100">
  <g id="wizard" transform="translate(7.676 3.001)">
    <rect id="Rectangle_49" data-name="Rectangle 49" width="100" height="100" transform="translate(-7.676 -3.001)" fill="none"/>
    <path id="Path_73" data-name="Path 73" d="M66.838,367.492c10.735,2.528,17.74,6.709,17.74,11.437,0,7.754-18.863,14.043-42.127,14.043S.324,386.683.324,378.929c0-4.728,7.006-8.909,17.74-11.437Zm0,0" transform="translate(0 -302.539)" fill="#4879af" stroke="#333" stroke-width="5"/>
    <path id="Path_75" data-name="Path 75" d="M136.258,357.2c-.5.265-1.17.593-2.013.967a61.563,61.563,0,0,1-24.948,4.618,61.563,61.563,0,0,1-24.948-4.618c-.842-.359-1.513-.7-2.013-.967a1.547,1.547,0,0,1-.733-1.857L86.455,340.3c.889.343,1.888.686,3.011,1.029a59.988,59.988,0,0,0,8.394,1.872c.265.047.531.094.811.125l3.106.187,8.909.53a66.56,66.56,0,0,0,18.443-2.715c1.123-.343,2.122-.686,3.011-1.029l4.853,15.041a1.548,1.548,0,0,1-.734,1.857Zm0,0" transform="translate(-66.846 -280.157)" fill="#acd3f4" stroke="#333" stroke-width="5"/>
    <path id="Path_77" data-name="Path 77" d="M155.117,60.148c-.9.343-1.935.7-3.073,1.045a66.455,66.455,0,0,1-18.38,2.7l-12.014-.717a60.633,60.633,0,0,1-9.143-1.982c-1.139-.343-2.169-.7-3.074-1.045L127.875,3.057A4.557,4.557,0,0,1,131.667.046a3.949,3.949,0,0,1,1.217,0,4.557,4.557,0,0,1,3.792,3.011Zm0,0" transform="translate(-89.824)" fill="#4879af" stroke="#333" stroke-width="5"/>
    <g id="Group_11" data-name="Group 11" transform="translate(27.775 19.477)">
      <path id="Path_79" data-name="Path 79" d="M166.329,274.058l2.5,4.963a.781.781,0,0,0,.587.421l5.554.793a.78.78,0,0,1,.429,1.336l-4,3.828a.782.782,0,0,0-.229.7l.947,5.421a.78.78,0,0,1-1.127.829l-4.992-2.579a.777.777,0,0,0-.715,0l-4.993,2.579a.78.78,0,0,1-1.126-.829l.947-5.421a.78.78,0,0,0-.229-.7l-4-3.828a.781.781,0,0,1,.429-1.336l5.554-.793a.78.78,0,0,0,.587-.421l2.5-4.963a.78.78,0,0,1,1.386,0Zm0,0" transform="translate(-155.637 -244.75)" fill="#f3e370" stroke="#333" stroke-width="2"/>
      <path id="Path_80" data-name="Path 80" d="M240.389,207.383l1.653,1.517a.782.782,0,0,0,.686.188l2.227-.468a.78.78,0,0,1,.846,1.134l-1,1.846a.782.782,0,0,0,.01.76l1.036,1.8a.78.78,0,0,1-.766,1.163l-2.348-.27a.78.78,0,0,0-.646.228l-1.657,1.687a.78.78,0,0,1-1.326-.424l-.327-2.041a.778.778,0,0,0-.468-.6l-1.935-.81a.78.78,0,0,1-.055-1.413l2.028-1.038a.779.779,0,0,0,.415-.579l.332-2.219a.78.78,0,0,1,1.29-.463Zm0,0" transform="translate(-221.713 -190.043)" fill="#f3e370" stroke="#333" stroke-width="2"/>
      <path id="Path_81" data-name="Path 81" d="M222.232,110.879l.259,1.919a.78.78,0,0,0,.414.586l1.716.9a.78.78,0,0,1-.052,1.4l-1.689.732a.78.78,0,0,0-.468.588l-.3,1.81a.78.78,0,0,1-1.333.412l-1.386-1.448a.778.778,0,0,0-.66-.234l-1.988.246a.78.78,0,0,1-.78-1.163l.913-1.593a.781.781,0,0,0,.014-.748l-.826-1.631a.78.78,0,0,1,.85-1.123l1.9.393a.78.78,0,0,0,.691-.193l1.414-1.324a.78.78,0,0,1,1.309.467Zm0,0" transform="translate(-205.216 -110.2)" fill="#f3e370" stroke="#333" stroke-width="2"/>
    </g>
  </g>
</svg>
